G04 #@! TF.GenerationSoftware,KiCad,Pcbnew,(5.1.10)-1*
G04 #@! TF.CreationDate,2021-11-17T00:20:23+10:00*
G04 #@! TF.ProjectId,IS31FL3743x_Breakout,49533331-464c-4333-9734-33785f427265,rev?*
G04 #@! TF.SameCoordinates,Original*
G04 #@! TF.FileFunction,Soldermask,Bot*
G04 #@! TF.FilePolarity,Negative*
%FSLAX46Y46*%
G04 Gerber Fmt 4.6, Leading zero omitted, Abs format (unit mm)*
G04 Created by KiCad (PCBNEW (5.1.10)-1) date 2021-11-17 00:20:23*
%MOMM*%
%LPD*%
G01*
G04 APERTURE LIST*
%ADD10R,1.000000X1.500000*%
%ADD11C,0.100000*%
%ADD12C,3.400000*%
%ADD13O,1.700000X1.700000*%
%ADD14R,1.500000X1.000000*%
G04 APERTURE END LIST*
D10*
X101990000Y-85980000D03*
D11*
G36*
X100690000Y-86729398D02*
G01*
X100665466Y-86729398D01*
X100616635Y-86724588D01*
X100568510Y-86715016D01*
X100521555Y-86700772D01*
X100476222Y-86681995D01*
X100432949Y-86658864D01*
X100392150Y-86631604D01*
X100354221Y-86600476D01*
X100319524Y-86565779D01*
X100288396Y-86527850D01*
X100261136Y-86487051D01*
X100238005Y-86443778D01*
X100219228Y-86398445D01*
X100204984Y-86351490D01*
X100195412Y-86303365D01*
X100190602Y-86254534D01*
X100190602Y-86230000D01*
X100190000Y-86230000D01*
X100190000Y-85730000D01*
X100190602Y-85730000D01*
X100190602Y-85705466D01*
X100195412Y-85656635D01*
X100204984Y-85608510D01*
X100219228Y-85561555D01*
X100238005Y-85516222D01*
X100261136Y-85472949D01*
X100288396Y-85432150D01*
X100319524Y-85394221D01*
X100354221Y-85359524D01*
X100392150Y-85328396D01*
X100432949Y-85301136D01*
X100476222Y-85278005D01*
X100521555Y-85259228D01*
X100568510Y-85244984D01*
X100616635Y-85235412D01*
X100665466Y-85230602D01*
X100690000Y-85230602D01*
X100690000Y-85230000D01*
X101240000Y-85230000D01*
X101240000Y-86730000D01*
X100690000Y-86730000D01*
X100690000Y-86729398D01*
G37*
G36*
X102740000Y-85230000D02*
G01*
X103290000Y-85230000D01*
X103290000Y-85230602D01*
X103314534Y-85230602D01*
X103363365Y-85235412D01*
X103411490Y-85244984D01*
X103458445Y-85259228D01*
X103503778Y-85278005D01*
X103547051Y-85301136D01*
X103587850Y-85328396D01*
X103625779Y-85359524D01*
X103660476Y-85394221D01*
X103691604Y-85432150D01*
X103718864Y-85472949D01*
X103741995Y-85516222D01*
X103760772Y-85561555D01*
X103775016Y-85608510D01*
X103784588Y-85656635D01*
X103789398Y-85705466D01*
X103789398Y-85730000D01*
X103790000Y-85730000D01*
X103790000Y-86230000D01*
X103789398Y-86230000D01*
X103789398Y-86254534D01*
X103784588Y-86303365D01*
X103775016Y-86351490D01*
X103760772Y-86398445D01*
X103741995Y-86443778D01*
X103718864Y-86487051D01*
X103691604Y-86527850D01*
X103660476Y-86565779D01*
X103625779Y-86600476D01*
X103587850Y-86631604D01*
X103547051Y-86658864D01*
X103503778Y-86681995D01*
X103458445Y-86700772D01*
X103411490Y-86715016D01*
X103363365Y-86724588D01*
X103314534Y-86729398D01*
X103290000Y-86729398D01*
X103290000Y-86730000D01*
X102740000Y-86730000D01*
X102740000Y-85230000D01*
G37*
D12*
X98000000Y-119000000D03*
X101000000Y-81000000D03*
D13*
X108890000Y-121590000D03*
X108890000Y-119050000D03*
X108890000Y-116510000D03*
X108890000Y-113970000D03*
X108890000Y-111430000D03*
X108890000Y-108890000D03*
X108890000Y-106350000D03*
X108890000Y-103810000D03*
X108890000Y-101270000D03*
X108890000Y-98730000D03*
X108890000Y-96190000D03*
X108890000Y-93650000D03*
X108890000Y-91110000D03*
X108890000Y-88570000D03*
X108890000Y-86030000D03*
X108890000Y-83490000D03*
X108890000Y-80950000D03*
X108890000Y-78410000D03*
X91110000Y-121590000D03*
X91110000Y-119050000D03*
X91110000Y-116510000D03*
X91110000Y-113970000D03*
X91110000Y-111430000D03*
X91110000Y-108890000D03*
X91110000Y-106350000D03*
X91110000Y-103810000D03*
X91110000Y-101270000D03*
X91110000Y-98730000D03*
X91110000Y-96190000D03*
X91110000Y-93650000D03*
X91110000Y-91110000D03*
X91110000Y-88570000D03*
X91110000Y-86030000D03*
X91110000Y-83490000D03*
X91110000Y-80950000D03*
X91110000Y-78410000D03*
G36*
G01*
X99788434Y-102192596D02*
X97807404Y-100211566D01*
G75*
G02*
X97807404Y-99788434I211566J211566D01*
G01*
X99788434Y-97807404D01*
G75*
G02*
X100211566Y-97807404I211566J-211566D01*
G01*
X102192596Y-99788434D01*
G75*
G02*
X102192596Y-100211566I-211566J-211566D01*
G01*
X100211566Y-102192596D01*
G75*
G02*
X99788434Y-102192596I-211566J211566D01*
G01*
G37*
D11*
G36*
X103870000Y-93160000D02*
G01*
X103370000Y-93160000D01*
X103370000Y-93159398D01*
X103345466Y-93159398D01*
X103296635Y-93154588D01*
X103248510Y-93145016D01*
X103201555Y-93130772D01*
X103156222Y-93111995D01*
X103112949Y-93088864D01*
X103072150Y-93061604D01*
X103034221Y-93030476D01*
X102999524Y-92995779D01*
X102968396Y-92957850D01*
X102941136Y-92917051D01*
X102918005Y-92873778D01*
X102899228Y-92828445D01*
X102884984Y-92781490D01*
X102875412Y-92733365D01*
X102870602Y-92684534D01*
X102870602Y-92660000D01*
X102870000Y-92660000D01*
X102870000Y-92160000D01*
X102870602Y-92160000D01*
X102870602Y-92135466D01*
X102875412Y-92086635D01*
X102884984Y-92038510D01*
X102899228Y-91991555D01*
X102918005Y-91946222D01*
X102941136Y-91902949D01*
X102968396Y-91862150D01*
X102999524Y-91824221D01*
X103034221Y-91789524D01*
X103072150Y-91758396D01*
X103112949Y-91731136D01*
X103156222Y-91708005D01*
X103201555Y-91689228D01*
X103248510Y-91674984D01*
X103296635Y-91665412D01*
X103345466Y-91660602D01*
X103370000Y-91660602D01*
X103370000Y-91660000D01*
X103870000Y-91660000D01*
X103870000Y-93160000D01*
G37*
G36*
X104670000Y-91660602D02*
G01*
X104694534Y-91660602D01*
X104743365Y-91665412D01*
X104791490Y-91674984D01*
X104838445Y-91689228D01*
X104883778Y-91708005D01*
X104927051Y-91731136D01*
X104967850Y-91758396D01*
X105005779Y-91789524D01*
X105040476Y-91824221D01*
X105071604Y-91862150D01*
X105098864Y-91902949D01*
X105121995Y-91946222D01*
X105140772Y-91991555D01*
X105155016Y-92038510D01*
X105164588Y-92086635D01*
X105169398Y-92135466D01*
X105169398Y-92160000D01*
X105170000Y-92160000D01*
X105170000Y-92660000D01*
X105169398Y-92660000D01*
X105169398Y-92684534D01*
X105164588Y-92733365D01*
X105155016Y-92781490D01*
X105140772Y-92828445D01*
X105121995Y-92873778D01*
X105098864Y-92917051D01*
X105071604Y-92957850D01*
X105040476Y-92995779D01*
X105005779Y-93030476D01*
X104967850Y-93061604D01*
X104927051Y-93088864D01*
X104883778Y-93111995D01*
X104838445Y-93130772D01*
X104791490Y-93145016D01*
X104743365Y-93154588D01*
X104694534Y-93159398D01*
X104670000Y-93159398D01*
X104670000Y-93160000D01*
X104170000Y-93160000D01*
X104170000Y-91660000D01*
X104670000Y-91660000D01*
X104670000Y-91660602D01*
G37*
G36*
X102750000Y-89070000D02*
G01*
X103300000Y-89070000D01*
X103300000Y-89070602D01*
X103324534Y-89070602D01*
X103373365Y-89075412D01*
X103421490Y-89084984D01*
X103468445Y-89099228D01*
X103513778Y-89118005D01*
X103557051Y-89141136D01*
X103597850Y-89168396D01*
X103635779Y-89199524D01*
X103670476Y-89234221D01*
X103701604Y-89272150D01*
X103728864Y-89312949D01*
X103751995Y-89356222D01*
X103770772Y-89401555D01*
X103785016Y-89448510D01*
X103794588Y-89496635D01*
X103799398Y-89545466D01*
X103799398Y-89570000D01*
X103800000Y-89570000D01*
X103800000Y-90070000D01*
X103799398Y-90070000D01*
X103799398Y-90094534D01*
X103794588Y-90143365D01*
X103785016Y-90191490D01*
X103770772Y-90238445D01*
X103751995Y-90283778D01*
X103728864Y-90327051D01*
X103701604Y-90367850D01*
X103670476Y-90405779D01*
X103635779Y-90440476D01*
X103597850Y-90471604D01*
X103557051Y-90498864D01*
X103513778Y-90521995D01*
X103468445Y-90540772D01*
X103421490Y-90555016D01*
X103373365Y-90564588D01*
X103324534Y-90569398D01*
X103300000Y-90569398D01*
X103300000Y-90570000D01*
X102750000Y-90570000D01*
X102750000Y-89070000D01*
G37*
D10*
X102000000Y-89820000D03*
D11*
G36*
X100700000Y-90569398D02*
G01*
X100675466Y-90569398D01*
X100626635Y-90564588D01*
X100578510Y-90555016D01*
X100531555Y-90540772D01*
X100486222Y-90521995D01*
X100442949Y-90498864D01*
X100402150Y-90471604D01*
X100364221Y-90440476D01*
X100329524Y-90405779D01*
X100298396Y-90367850D01*
X100271136Y-90327051D01*
X100248005Y-90283778D01*
X100229228Y-90238445D01*
X100214984Y-90191490D01*
X100205412Y-90143365D01*
X100200602Y-90094534D01*
X100200602Y-90070000D01*
X100200000Y-90070000D01*
X100200000Y-89570000D01*
X100200602Y-89570000D01*
X100200602Y-89545466D01*
X100205412Y-89496635D01*
X100214984Y-89448510D01*
X100229228Y-89401555D01*
X100248005Y-89356222D01*
X100271136Y-89312949D01*
X100298396Y-89272150D01*
X100329524Y-89234221D01*
X100364221Y-89199524D01*
X100402150Y-89168396D01*
X100442949Y-89141136D01*
X100486222Y-89118005D01*
X100531555Y-89099228D01*
X100578510Y-89084984D01*
X100626635Y-89075412D01*
X100675466Y-89070602D01*
X100700000Y-89070602D01*
X100700000Y-89070000D01*
X101250000Y-89070000D01*
X101250000Y-90570000D01*
X100700000Y-90570000D01*
X100700000Y-90569398D01*
G37*
G36*
X97620000Y-86270000D02*
G01*
X97620000Y-85720000D01*
X97620602Y-85720000D01*
X97620602Y-85695466D01*
X97625412Y-85646635D01*
X97634984Y-85598510D01*
X97649228Y-85551555D01*
X97668005Y-85506222D01*
X97691136Y-85462949D01*
X97718396Y-85422150D01*
X97749524Y-85384221D01*
X97784221Y-85349524D01*
X97822150Y-85318396D01*
X97862949Y-85291136D01*
X97906222Y-85268005D01*
X97951555Y-85249228D01*
X97998510Y-85234984D01*
X98046635Y-85225412D01*
X98095466Y-85220602D01*
X98120000Y-85220602D01*
X98120000Y-85220000D01*
X98620000Y-85220000D01*
X98620000Y-85220602D01*
X98644534Y-85220602D01*
X98693365Y-85225412D01*
X98741490Y-85234984D01*
X98788445Y-85249228D01*
X98833778Y-85268005D01*
X98877051Y-85291136D01*
X98917850Y-85318396D01*
X98955779Y-85349524D01*
X98990476Y-85384221D01*
X99021604Y-85422150D01*
X99048864Y-85462949D01*
X99071995Y-85506222D01*
X99090772Y-85551555D01*
X99105016Y-85598510D01*
X99114588Y-85646635D01*
X99119398Y-85695466D01*
X99119398Y-85720000D01*
X99120000Y-85720000D01*
X99120000Y-86270000D01*
X97620000Y-86270000D01*
G37*
D14*
X98370000Y-87020000D03*
D11*
G36*
X99119398Y-88320000D02*
G01*
X99119398Y-88344534D01*
X99114588Y-88393365D01*
X99105016Y-88441490D01*
X99090772Y-88488445D01*
X99071995Y-88533778D01*
X99048864Y-88577051D01*
X99021604Y-88617850D01*
X98990476Y-88655779D01*
X98955779Y-88690476D01*
X98917850Y-88721604D01*
X98877051Y-88748864D01*
X98833778Y-88771995D01*
X98788445Y-88790772D01*
X98741490Y-88805016D01*
X98693365Y-88814588D01*
X98644534Y-88819398D01*
X98620000Y-88819398D01*
X98620000Y-88820000D01*
X98120000Y-88820000D01*
X98120000Y-88819398D01*
X98095466Y-88819398D01*
X98046635Y-88814588D01*
X97998510Y-88805016D01*
X97951555Y-88790772D01*
X97906222Y-88771995D01*
X97862949Y-88748864D01*
X97822150Y-88721604D01*
X97784221Y-88690476D01*
X97749524Y-88655779D01*
X97718396Y-88617850D01*
X97691136Y-88577051D01*
X97668005Y-88533778D01*
X97649228Y-88488445D01*
X97634984Y-88441490D01*
X97625412Y-88393365D01*
X97620602Y-88344534D01*
X97620602Y-88320000D01*
X97620000Y-88320000D01*
X97620000Y-87770000D01*
X99120000Y-87770000D01*
X99120000Y-88320000D01*
X99119398Y-88320000D01*
G37*
M02*
