G04 #@! TF.GenerationSoftware,KiCad,Pcbnew,(5.1.10)-1*
G04 #@! TF.CreationDate,2021-11-30T10:17:24+10:00*
G04 #@! TF.ProjectId,IS31FL3743x_Breakout,49533331-464c-4333-9734-33785f427265,rev?*
G04 #@! TF.SameCoordinates,Original*
G04 #@! TF.FileFunction,Copper,L1,Top*
G04 #@! TF.FilePolarity,Positive*
%FSLAX46Y46*%
G04 Gerber Fmt 4.6, Leading zero omitted, Abs format (unit mm)*
G04 Created by KiCad (PCBNEW (5.1.10)-1) date 2021-11-30 10:17:24*
%MOMM*%
%LPD*%
G01*
G04 APERTURE LIST*
G04 #@! TA.AperFunction,ComponentPad*
%ADD10C,3.400000*%
G04 #@! TD*
G04 #@! TA.AperFunction,ComponentPad*
%ADD11O,1.700000X1.700000*%
G04 #@! TD*
G04 #@! TA.AperFunction,ComponentPad*
%ADD12C,0.600000*%
G04 #@! TD*
G04 #@! TA.AperFunction,SMDPad,CuDef*
%ADD13C,0.100000*%
G04 #@! TD*
G04 #@! TA.AperFunction,ViaPad*
%ADD14C,0.800000*%
G04 #@! TD*
G04 #@! TA.AperFunction,Conductor*
%ADD15C,0.200000*%
G04 #@! TD*
G04 #@! TA.AperFunction,Conductor*
%ADD16C,0.500000*%
G04 #@! TD*
G04 #@! TA.AperFunction,Conductor*
%ADD17C,0.254000*%
G04 #@! TD*
G04 #@! TA.AperFunction,Conductor*
%ADD18C,0.100000*%
G04 #@! TD*
G04 APERTURE END LIST*
D10*
X98000000Y-119000000D03*
X101000000Y-81000000D03*
D11*
X108890000Y-121590000D03*
X108890000Y-119050000D03*
X108890000Y-116510000D03*
X108890000Y-113970000D03*
X108890000Y-111430000D03*
X108890000Y-108890000D03*
X108890000Y-106350000D03*
X108890000Y-103810000D03*
X108890000Y-101270000D03*
X108890000Y-98730000D03*
X108890000Y-96190000D03*
X108890000Y-93650000D03*
X108890000Y-91110000D03*
X108890000Y-88570000D03*
X108890000Y-86030000D03*
X108890000Y-83490000D03*
X108890000Y-80950000D03*
X108890000Y-78410000D03*
X91110000Y-121590000D03*
X91110000Y-119050000D03*
X91110000Y-116510000D03*
X91110000Y-113970000D03*
X91110000Y-111430000D03*
X91110000Y-108890000D03*
X91110000Y-106350000D03*
X91110000Y-103810000D03*
X91110000Y-101270000D03*
X91110000Y-98730000D03*
X91110000Y-96190000D03*
X91110000Y-93650000D03*
X91110000Y-91110000D03*
X91110000Y-88570000D03*
X91110000Y-86030000D03*
X91110000Y-83490000D03*
X91110000Y-80950000D03*
X91110000Y-78410000D03*
D12*
X100494975Y-101484924D03*
X99505025Y-101484924D03*
X100000000Y-101979899D03*
X100000000Y-100989949D03*
X98020101Y-100000000D03*
X98515076Y-100494975D03*
X98515076Y-99505025D03*
X99010051Y-100000000D03*
X100000000Y-98020101D03*
X100494975Y-98515076D03*
X99505025Y-98515076D03*
X100000000Y-99010051D03*
X101979899Y-100000000D03*
X101484924Y-99505025D03*
X101484924Y-100494975D03*
X100989949Y-100000000D03*
X99505025Y-99505025D03*
X99010051Y-99010051D03*
X100989949Y-100989949D03*
X100494975Y-100494975D03*
X99010051Y-100989949D03*
X99505025Y-100494975D03*
X100494975Y-99505025D03*
X100989949Y-99010051D03*
X100000000Y-100000000D03*
G04 #@! TA.AperFunction,SMDPad,CuDef*
D13*
G36*
X100000000Y-102404163D02*
G01*
X97595837Y-100000000D01*
X100000000Y-97595837D01*
X102404163Y-100000000D01*
X100000000Y-102404163D01*
G37*
G04 #@! TD.AperFunction*
G04 #@! TA.AperFunction,SMDPad,CuDef*
G36*
G01*
X97165634Y-99866781D02*
X96526975Y-99228122D01*
G75*
G02*
X96526975Y-99159674I34224J34224D01*
G01*
X96614090Y-99072559D01*
G75*
G02*
X96682538Y-99072559I34224J-34224D01*
G01*
X97321197Y-99711218D01*
G75*
G02*
X97321197Y-99779666I-34224J-34224D01*
G01*
X97234082Y-99866781D01*
G75*
G02*
X97165634Y-99866781I-34224J34224D01*
G01*
G37*
G04 #@! TD.AperFunction*
G04 #@! TA.AperFunction,SMDPad,CuDef*
G36*
G01*
X97448476Y-99583938D02*
X96809817Y-98945279D01*
G75*
G02*
X96809817Y-98876831I34224J34224D01*
G01*
X96896932Y-98789716D01*
G75*
G02*
X96965380Y-98789716I34224J-34224D01*
G01*
X97604039Y-99428375D01*
G75*
G02*
X97604039Y-99496823I-34224J-34224D01*
G01*
X97516924Y-99583938D01*
G75*
G02*
X97448476Y-99583938I-34224J34224D01*
G01*
G37*
G04 #@! TD.AperFunction*
G04 #@! TA.AperFunction,SMDPad,CuDef*
G36*
G01*
X97731319Y-99301095D02*
X97092660Y-98662436D01*
G75*
G02*
X97092660Y-98593988I34224J34224D01*
G01*
X97179775Y-98506873D01*
G75*
G02*
X97248223Y-98506873I34224J-34224D01*
G01*
X97886882Y-99145532D01*
G75*
G02*
X97886882Y-99213980I-34224J-34224D01*
G01*
X97799767Y-99301095D01*
G75*
G02*
X97731319Y-99301095I-34224J34224D01*
G01*
G37*
G04 #@! TD.AperFunction*
G04 #@! TA.AperFunction,SMDPad,CuDef*
G36*
G01*
X98014162Y-99018253D02*
X97375503Y-98379594D01*
G75*
G02*
X97375503Y-98311146I34224J34224D01*
G01*
X97462618Y-98224031D01*
G75*
G02*
X97531066Y-98224031I34224J-34224D01*
G01*
X98169725Y-98862690D01*
G75*
G02*
X98169725Y-98931138I-34224J-34224D01*
G01*
X98082610Y-99018253D01*
G75*
G02*
X98014162Y-99018253I-34224J34224D01*
G01*
G37*
G04 #@! TD.AperFunction*
G04 #@! TA.AperFunction,SMDPad,CuDef*
G36*
G01*
X98297004Y-98735410D02*
X97658345Y-98096751D01*
G75*
G02*
X97658345Y-98028303I34224J34224D01*
G01*
X97745460Y-97941188D01*
G75*
G02*
X97813908Y-97941188I34224J-34224D01*
G01*
X98452567Y-98579847D01*
G75*
G02*
X98452567Y-98648295I-34224J-34224D01*
G01*
X98365452Y-98735410D01*
G75*
G02*
X98297004Y-98735410I-34224J34224D01*
G01*
G37*
G04 #@! TD.AperFunction*
G04 #@! TA.AperFunction,SMDPad,CuDef*
G36*
G01*
X98579847Y-98452567D02*
X97941188Y-97813908D01*
G75*
G02*
X97941188Y-97745460I34224J34224D01*
G01*
X98028303Y-97658345D01*
G75*
G02*
X98096751Y-97658345I34224J-34224D01*
G01*
X98735410Y-98297004D01*
G75*
G02*
X98735410Y-98365452I-34224J-34224D01*
G01*
X98648295Y-98452567D01*
G75*
G02*
X98579847Y-98452567I-34224J34224D01*
G01*
G37*
G04 #@! TD.AperFunction*
G04 #@! TA.AperFunction,SMDPad,CuDef*
G36*
G01*
X98862690Y-98169725D02*
X98224031Y-97531066D01*
G75*
G02*
X98224031Y-97462618I34224J34224D01*
G01*
X98311146Y-97375503D01*
G75*
G02*
X98379594Y-97375503I34224J-34224D01*
G01*
X99018253Y-98014162D01*
G75*
G02*
X99018253Y-98082610I-34224J-34224D01*
G01*
X98931138Y-98169725D01*
G75*
G02*
X98862690Y-98169725I-34224J34224D01*
G01*
G37*
G04 #@! TD.AperFunction*
G04 #@! TA.AperFunction,SMDPad,CuDef*
G36*
G01*
X99145532Y-97886882D02*
X98506873Y-97248223D01*
G75*
G02*
X98506873Y-97179775I34224J34224D01*
G01*
X98593988Y-97092660D01*
G75*
G02*
X98662436Y-97092660I34224J-34224D01*
G01*
X99301095Y-97731319D01*
G75*
G02*
X99301095Y-97799767I-34224J-34224D01*
G01*
X99213980Y-97886882D01*
G75*
G02*
X99145532Y-97886882I-34224J34224D01*
G01*
G37*
G04 #@! TD.AperFunction*
G04 #@! TA.AperFunction,SMDPad,CuDef*
G36*
G01*
X99428375Y-97604039D02*
X98789716Y-96965380D01*
G75*
G02*
X98789716Y-96896932I34224J34224D01*
G01*
X98876831Y-96809817D01*
G75*
G02*
X98945279Y-96809817I34224J-34224D01*
G01*
X99583938Y-97448476D01*
G75*
G02*
X99583938Y-97516924I-34224J-34224D01*
G01*
X99496823Y-97604039D01*
G75*
G02*
X99428375Y-97604039I-34224J34224D01*
G01*
G37*
G04 #@! TD.AperFunction*
G04 #@! TA.AperFunction,SMDPad,CuDef*
G36*
G01*
X99711218Y-97321197D02*
X99072559Y-96682538D01*
G75*
G02*
X99072559Y-96614090I34224J34224D01*
G01*
X99159674Y-96526975D01*
G75*
G02*
X99228122Y-96526975I34224J-34224D01*
G01*
X99866781Y-97165634D01*
G75*
G02*
X99866781Y-97234082I-34224J-34224D01*
G01*
X99779666Y-97321197D01*
G75*
G02*
X99711218Y-97321197I-34224J34224D01*
G01*
G37*
G04 #@! TD.AperFunction*
G04 #@! TA.AperFunction,SMDPad,CuDef*
G36*
G01*
X100220334Y-97321197D02*
X100133219Y-97234082D01*
G75*
G02*
X100133219Y-97165634I34224J34224D01*
G01*
X100771878Y-96526975D01*
G75*
G02*
X100840326Y-96526975I34224J-34224D01*
G01*
X100927441Y-96614090D01*
G75*
G02*
X100927441Y-96682538I-34224J-34224D01*
G01*
X100288782Y-97321197D01*
G75*
G02*
X100220334Y-97321197I-34224J34224D01*
G01*
G37*
G04 #@! TD.AperFunction*
G04 #@! TA.AperFunction,SMDPad,CuDef*
G36*
G01*
X100503177Y-97604039D02*
X100416062Y-97516924D01*
G75*
G02*
X100416062Y-97448476I34224J34224D01*
G01*
X101054721Y-96809817D01*
G75*
G02*
X101123169Y-96809817I34224J-34224D01*
G01*
X101210284Y-96896932D01*
G75*
G02*
X101210284Y-96965380I-34224J-34224D01*
G01*
X100571625Y-97604039D01*
G75*
G02*
X100503177Y-97604039I-34224J34224D01*
G01*
G37*
G04 #@! TD.AperFunction*
G04 #@! TA.AperFunction,SMDPad,CuDef*
G36*
G01*
X100786020Y-97886882D02*
X100698905Y-97799767D01*
G75*
G02*
X100698905Y-97731319I34224J34224D01*
G01*
X101337564Y-97092660D01*
G75*
G02*
X101406012Y-97092660I34224J-34224D01*
G01*
X101493127Y-97179775D01*
G75*
G02*
X101493127Y-97248223I-34224J-34224D01*
G01*
X100854468Y-97886882D01*
G75*
G02*
X100786020Y-97886882I-34224J34224D01*
G01*
G37*
G04 #@! TD.AperFunction*
G04 #@! TA.AperFunction,SMDPad,CuDef*
G36*
G01*
X101068862Y-98169725D02*
X100981747Y-98082610D01*
G75*
G02*
X100981747Y-98014162I34224J34224D01*
G01*
X101620406Y-97375503D01*
G75*
G02*
X101688854Y-97375503I34224J-34224D01*
G01*
X101775969Y-97462618D01*
G75*
G02*
X101775969Y-97531066I-34224J-34224D01*
G01*
X101137310Y-98169725D01*
G75*
G02*
X101068862Y-98169725I-34224J34224D01*
G01*
G37*
G04 #@! TD.AperFunction*
G04 #@! TA.AperFunction,SMDPad,CuDef*
G36*
G01*
X101351705Y-98452567D02*
X101264590Y-98365452D01*
G75*
G02*
X101264590Y-98297004I34224J34224D01*
G01*
X101903249Y-97658345D01*
G75*
G02*
X101971697Y-97658345I34224J-34224D01*
G01*
X102058812Y-97745460D01*
G75*
G02*
X102058812Y-97813908I-34224J-34224D01*
G01*
X101420153Y-98452567D01*
G75*
G02*
X101351705Y-98452567I-34224J34224D01*
G01*
G37*
G04 #@! TD.AperFunction*
G04 #@! TA.AperFunction,SMDPad,CuDef*
G36*
G01*
X101634548Y-98735410D02*
X101547433Y-98648295D01*
G75*
G02*
X101547433Y-98579847I34224J34224D01*
G01*
X102186092Y-97941188D01*
G75*
G02*
X102254540Y-97941188I34224J-34224D01*
G01*
X102341655Y-98028303D01*
G75*
G02*
X102341655Y-98096751I-34224J-34224D01*
G01*
X101702996Y-98735410D01*
G75*
G02*
X101634548Y-98735410I-34224J34224D01*
G01*
G37*
G04 #@! TD.AperFunction*
G04 #@! TA.AperFunction,SMDPad,CuDef*
G36*
G01*
X101917390Y-99018253D02*
X101830275Y-98931138D01*
G75*
G02*
X101830275Y-98862690I34224J34224D01*
G01*
X102468934Y-98224031D01*
G75*
G02*
X102537382Y-98224031I34224J-34224D01*
G01*
X102624497Y-98311146D01*
G75*
G02*
X102624497Y-98379594I-34224J-34224D01*
G01*
X101985838Y-99018253D01*
G75*
G02*
X101917390Y-99018253I-34224J34224D01*
G01*
G37*
G04 #@! TD.AperFunction*
G04 #@! TA.AperFunction,SMDPad,CuDef*
G36*
G01*
X102200233Y-99301095D02*
X102113118Y-99213980D01*
G75*
G02*
X102113118Y-99145532I34224J34224D01*
G01*
X102751777Y-98506873D01*
G75*
G02*
X102820225Y-98506873I34224J-34224D01*
G01*
X102907340Y-98593988D01*
G75*
G02*
X102907340Y-98662436I-34224J-34224D01*
G01*
X102268681Y-99301095D01*
G75*
G02*
X102200233Y-99301095I-34224J34224D01*
G01*
G37*
G04 #@! TD.AperFunction*
G04 #@! TA.AperFunction,SMDPad,CuDef*
G36*
G01*
X102483076Y-99583938D02*
X102395961Y-99496823D01*
G75*
G02*
X102395961Y-99428375I34224J34224D01*
G01*
X103034620Y-98789716D01*
G75*
G02*
X103103068Y-98789716I34224J-34224D01*
G01*
X103190183Y-98876831D01*
G75*
G02*
X103190183Y-98945279I-34224J-34224D01*
G01*
X102551524Y-99583938D01*
G75*
G02*
X102483076Y-99583938I-34224J34224D01*
G01*
G37*
G04 #@! TD.AperFunction*
G04 #@! TA.AperFunction,SMDPad,CuDef*
G36*
G01*
X102765918Y-99866781D02*
X102678803Y-99779666D01*
G75*
G02*
X102678803Y-99711218I34224J34224D01*
G01*
X103317462Y-99072559D01*
G75*
G02*
X103385910Y-99072559I34224J-34224D01*
G01*
X103473025Y-99159674D01*
G75*
G02*
X103473025Y-99228122I-34224J-34224D01*
G01*
X102834366Y-99866781D01*
G75*
G02*
X102765918Y-99866781I-34224J34224D01*
G01*
G37*
G04 #@! TD.AperFunction*
G04 #@! TA.AperFunction,SMDPad,CuDef*
G36*
G01*
X103317462Y-100927441D02*
X102678803Y-100288782D01*
G75*
G02*
X102678803Y-100220334I34224J34224D01*
G01*
X102765918Y-100133219D01*
G75*
G02*
X102834366Y-100133219I34224J-34224D01*
G01*
X103473025Y-100771878D01*
G75*
G02*
X103473025Y-100840326I-34224J-34224D01*
G01*
X103385910Y-100927441D01*
G75*
G02*
X103317462Y-100927441I-34224J34224D01*
G01*
G37*
G04 #@! TD.AperFunction*
G04 #@! TA.AperFunction,SMDPad,CuDef*
G36*
G01*
X103034620Y-101210284D02*
X102395961Y-100571625D01*
G75*
G02*
X102395961Y-100503177I34224J34224D01*
G01*
X102483076Y-100416062D01*
G75*
G02*
X102551524Y-100416062I34224J-34224D01*
G01*
X103190183Y-101054721D01*
G75*
G02*
X103190183Y-101123169I-34224J-34224D01*
G01*
X103103068Y-101210284D01*
G75*
G02*
X103034620Y-101210284I-34224J34224D01*
G01*
G37*
G04 #@! TD.AperFunction*
G04 #@! TA.AperFunction,SMDPad,CuDef*
G36*
G01*
X102751777Y-101493127D02*
X102113118Y-100854468D01*
G75*
G02*
X102113118Y-100786020I34224J34224D01*
G01*
X102200233Y-100698905D01*
G75*
G02*
X102268681Y-100698905I34224J-34224D01*
G01*
X102907340Y-101337564D01*
G75*
G02*
X102907340Y-101406012I-34224J-34224D01*
G01*
X102820225Y-101493127D01*
G75*
G02*
X102751777Y-101493127I-34224J34224D01*
G01*
G37*
G04 #@! TD.AperFunction*
G04 #@! TA.AperFunction,SMDPad,CuDef*
G36*
G01*
X102468934Y-101775969D02*
X101830275Y-101137310D01*
G75*
G02*
X101830275Y-101068862I34224J34224D01*
G01*
X101917390Y-100981747D01*
G75*
G02*
X101985838Y-100981747I34224J-34224D01*
G01*
X102624497Y-101620406D01*
G75*
G02*
X102624497Y-101688854I-34224J-34224D01*
G01*
X102537382Y-101775969D01*
G75*
G02*
X102468934Y-101775969I-34224J34224D01*
G01*
G37*
G04 #@! TD.AperFunction*
G04 #@! TA.AperFunction,SMDPad,CuDef*
G36*
G01*
X102186092Y-102058812D02*
X101547433Y-101420153D01*
G75*
G02*
X101547433Y-101351705I34224J34224D01*
G01*
X101634548Y-101264590D01*
G75*
G02*
X101702996Y-101264590I34224J-34224D01*
G01*
X102341655Y-101903249D01*
G75*
G02*
X102341655Y-101971697I-34224J-34224D01*
G01*
X102254540Y-102058812D01*
G75*
G02*
X102186092Y-102058812I-34224J34224D01*
G01*
G37*
G04 #@! TD.AperFunction*
G04 #@! TA.AperFunction,SMDPad,CuDef*
G36*
G01*
X101903249Y-102341655D02*
X101264590Y-101702996D01*
G75*
G02*
X101264590Y-101634548I34224J34224D01*
G01*
X101351705Y-101547433D01*
G75*
G02*
X101420153Y-101547433I34224J-34224D01*
G01*
X102058812Y-102186092D01*
G75*
G02*
X102058812Y-102254540I-34224J-34224D01*
G01*
X101971697Y-102341655D01*
G75*
G02*
X101903249Y-102341655I-34224J34224D01*
G01*
G37*
G04 #@! TD.AperFunction*
G04 #@! TA.AperFunction,SMDPad,CuDef*
G36*
G01*
X101620406Y-102624497D02*
X100981747Y-101985838D01*
G75*
G02*
X100981747Y-101917390I34224J34224D01*
G01*
X101068862Y-101830275D01*
G75*
G02*
X101137310Y-101830275I34224J-34224D01*
G01*
X101775969Y-102468934D01*
G75*
G02*
X101775969Y-102537382I-34224J-34224D01*
G01*
X101688854Y-102624497D01*
G75*
G02*
X101620406Y-102624497I-34224J34224D01*
G01*
G37*
G04 #@! TD.AperFunction*
G04 #@! TA.AperFunction,SMDPad,CuDef*
G36*
G01*
X101337564Y-102907340D02*
X100698905Y-102268681D01*
G75*
G02*
X100698905Y-102200233I34224J34224D01*
G01*
X100786020Y-102113118D01*
G75*
G02*
X100854468Y-102113118I34224J-34224D01*
G01*
X101493127Y-102751777D01*
G75*
G02*
X101493127Y-102820225I-34224J-34224D01*
G01*
X101406012Y-102907340D01*
G75*
G02*
X101337564Y-102907340I-34224J34224D01*
G01*
G37*
G04 #@! TD.AperFunction*
G04 #@! TA.AperFunction,SMDPad,CuDef*
G36*
G01*
X101054721Y-103190183D02*
X100416062Y-102551524D01*
G75*
G02*
X100416062Y-102483076I34224J34224D01*
G01*
X100503177Y-102395961D01*
G75*
G02*
X100571625Y-102395961I34224J-34224D01*
G01*
X101210284Y-103034620D01*
G75*
G02*
X101210284Y-103103068I-34224J-34224D01*
G01*
X101123169Y-103190183D01*
G75*
G02*
X101054721Y-103190183I-34224J34224D01*
G01*
G37*
G04 #@! TD.AperFunction*
G04 #@! TA.AperFunction,SMDPad,CuDef*
G36*
G01*
X100771878Y-103473025D02*
X100133219Y-102834366D01*
G75*
G02*
X100133219Y-102765918I34224J34224D01*
G01*
X100220334Y-102678803D01*
G75*
G02*
X100288782Y-102678803I34224J-34224D01*
G01*
X100927441Y-103317462D01*
G75*
G02*
X100927441Y-103385910I-34224J-34224D01*
G01*
X100840326Y-103473025D01*
G75*
G02*
X100771878Y-103473025I-34224J34224D01*
G01*
G37*
G04 #@! TD.AperFunction*
G04 #@! TA.AperFunction,SMDPad,CuDef*
G36*
G01*
X99159674Y-103473025D02*
X99072559Y-103385910D01*
G75*
G02*
X99072559Y-103317462I34224J34224D01*
G01*
X99711218Y-102678803D01*
G75*
G02*
X99779666Y-102678803I34224J-34224D01*
G01*
X99866781Y-102765918D01*
G75*
G02*
X99866781Y-102834366I-34224J-34224D01*
G01*
X99228122Y-103473025D01*
G75*
G02*
X99159674Y-103473025I-34224J34224D01*
G01*
G37*
G04 #@! TD.AperFunction*
G04 #@! TA.AperFunction,SMDPad,CuDef*
G36*
G01*
X98876831Y-103190183D02*
X98789716Y-103103068D01*
G75*
G02*
X98789716Y-103034620I34224J34224D01*
G01*
X99428375Y-102395961D01*
G75*
G02*
X99496823Y-102395961I34224J-34224D01*
G01*
X99583938Y-102483076D01*
G75*
G02*
X99583938Y-102551524I-34224J-34224D01*
G01*
X98945279Y-103190183D01*
G75*
G02*
X98876831Y-103190183I-34224J34224D01*
G01*
G37*
G04 #@! TD.AperFunction*
G04 #@! TA.AperFunction,SMDPad,CuDef*
G36*
G01*
X98593988Y-102907340D02*
X98506873Y-102820225D01*
G75*
G02*
X98506873Y-102751777I34224J34224D01*
G01*
X99145532Y-102113118D01*
G75*
G02*
X99213980Y-102113118I34224J-34224D01*
G01*
X99301095Y-102200233D01*
G75*
G02*
X99301095Y-102268681I-34224J-34224D01*
G01*
X98662436Y-102907340D01*
G75*
G02*
X98593988Y-102907340I-34224J34224D01*
G01*
G37*
G04 #@! TD.AperFunction*
G04 #@! TA.AperFunction,SMDPad,CuDef*
G36*
G01*
X98311146Y-102624497D02*
X98224031Y-102537382D01*
G75*
G02*
X98224031Y-102468934I34224J34224D01*
G01*
X98862690Y-101830275D01*
G75*
G02*
X98931138Y-101830275I34224J-34224D01*
G01*
X99018253Y-101917390D01*
G75*
G02*
X99018253Y-101985838I-34224J-34224D01*
G01*
X98379594Y-102624497D01*
G75*
G02*
X98311146Y-102624497I-34224J34224D01*
G01*
G37*
G04 #@! TD.AperFunction*
G04 #@! TA.AperFunction,SMDPad,CuDef*
G36*
G01*
X98028303Y-102341655D02*
X97941188Y-102254540D01*
G75*
G02*
X97941188Y-102186092I34224J34224D01*
G01*
X98579847Y-101547433D01*
G75*
G02*
X98648295Y-101547433I34224J-34224D01*
G01*
X98735410Y-101634548D01*
G75*
G02*
X98735410Y-101702996I-34224J-34224D01*
G01*
X98096751Y-102341655D01*
G75*
G02*
X98028303Y-102341655I-34224J34224D01*
G01*
G37*
G04 #@! TD.AperFunction*
G04 #@! TA.AperFunction,SMDPad,CuDef*
G36*
G01*
X97745460Y-102058812D02*
X97658345Y-101971697D01*
G75*
G02*
X97658345Y-101903249I34224J34224D01*
G01*
X98297004Y-101264590D01*
G75*
G02*
X98365452Y-101264590I34224J-34224D01*
G01*
X98452567Y-101351705D01*
G75*
G02*
X98452567Y-101420153I-34224J-34224D01*
G01*
X97813908Y-102058812D01*
G75*
G02*
X97745460Y-102058812I-34224J34224D01*
G01*
G37*
G04 #@! TD.AperFunction*
G04 #@! TA.AperFunction,SMDPad,CuDef*
G36*
G01*
X97462618Y-101775969D02*
X97375503Y-101688854D01*
G75*
G02*
X97375503Y-101620406I34224J34224D01*
G01*
X98014162Y-100981747D01*
G75*
G02*
X98082610Y-100981747I34224J-34224D01*
G01*
X98169725Y-101068862D01*
G75*
G02*
X98169725Y-101137310I-34224J-34224D01*
G01*
X97531066Y-101775969D01*
G75*
G02*
X97462618Y-101775969I-34224J34224D01*
G01*
G37*
G04 #@! TD.AperFunction*
G04 #@! TA.AperFunction,SMDPad,CuDef*
G36*
G01*
X97179775Y-101493127D02*
X97092660Y-101406012D01*
G75*
G02*
X97092660Y-101337564I34224J34224D01*
G01*
X97731319Y-100698905D01*
G75*
G02*
X97799767Y-100698905I34224J-34224D01*
G01*
X97886882Y-100786020D01*
G75*
G02*
X97886882Y-100854468I-34224J-34224D01*
G01*
X97248223Y-101493127D01*
G75*
G02*
X97179775Y-101493127I-34224J34224D01*
G01*
G37*
G04 #@! TD.AperFunction*
G04 #@! TA.AperFunction,SMDPad,CuDef*
G36*
G01*
X96896932Y-101210284D02*
X96809817Y-101123169D01*
G75*
G02*
X96809817Y-101054721I34224J34224D01*
G01*
X97448476Y-100416062D01*
G75*
G02*
X97516924Y-100416062I34224J-34224D01*
G01*
X97604039Y-100503177D01*
G75*
G02*
X97604039Y-100571625I-34224J-34224D01*
G01*
X96965380Y-101210284D01*
G75*
G02*
X96896932Y-101210284I-34224J34224D01*
G01*
G37*
G04 #@! TD.AperFunction*
G04 #@! TA.AperFunction,SMDPad,CuDef*
G36*
G01*
X96614090Y-100927441D02*
X96526975Y-100840326D01*
G75*
G02*
X96526975Y-100771878I34224J34224D01*
G01*
X97165634Y-100133219D01*
G75*
G02*
X97234082Y-100133219I34224J-34224D01*
G01*
X97321197Y-100220334D01*
G75*
G02*
X97321197Y-100288782I-34224J-34224D01*
G01*
X96682538Y-100927441D01*
G75*
G02*
X96614090Y-100927441I-34224J34224D01*
G01*
G37*
G04 #@! TD.AperFunction*
G04 #@! TA.AperFunction,SMDPad,CuDef*
G36*
G01*
X104750000Y-92419998D02*
X104750000Y-93320002D01*
G75*
G02*
X104500002Y-93570000I-249998J0D01*
G01*
X103974998Y-93570000D01*
G75*
G02*
X103725000Y-93320002I0J249998D01*
G01*
X103725000Y-92419998D01*
G75*
G02*
X103974998Y-92170000I249998J0D01*
G01*
X104500002Y-92170000D01*
G75*
G02*
X104750000Y-92419998I0J-249998D01*
G01*
G37*
G04 #@! TD.AperFunction*
G04 #@! TA.AperFunction,SMDPad,CuDef*
G36*
G01*
X106575000Y-92419998D02*
X106575000Y-93320002D01*
G75*
G02*
X106325002Y-93570000I-249998J0D01*
G01*
X105799998Y-93570000D01*
G75*
G02*
X105550000Y-93320002I0J249998D01*
G01*
X105550000Y-92419998D01*
G75*
G02*
X105799998Y-92170000I249998J0D01*
G01*
X106325002Y-92170000D01*
G75*
G02*
X106575000Y-92419998I0J-249998D01*
G01*
G37*
G04 #@! TD.AperFunction*
G04 #@! TA.AperFunction,SMDPad,CuDef*
G36*
G01*
X104750000Y-88649998D02*
X104750000Y-89550002D01*
G75*
G02*
X104500002Y-89800000I-249998J0D01*
G01*
X103974998Y-89800000D01*
G75*
G02*
X103725000Y-89550002I0J249998D01*
G01*
X103725000Y-88649998D01*
G75*
G02*
X103974998Y-88400000I249998J0D01*
G01*
X104500002Y-88400000D01*
G75*
G02*
X104750000Y-88649998I0J-249998D01*
G01*
G37*
G04 #@! TD.AperFunction*
G04 #@! TA.AperFunction,SMDPad,CuDef*
G36*
G01*
X106575000Y-88649998D02*
X106575000Y-89550002D01*
G75*
G02*
X106325002Y-89800000I-249998J0D01*
G01*
X105799998Y-89800000D01*
G75*
G02*
X105550000Y-89550002I0J249998D01*
G01*
X105550000Y-88649998D01*
G75*
G02*
X105799998Y-88400000I249998J0D01*
G01*
X106325002Y-88400000D01*
G75*
G02*
X106575000Y-88649998I0J-249998D01*
G01*
G37*
G04 #@! TD.AperFunction*
G04 #@! TA.AperFunction,SMDPad,CuDef*
G36*
G01*
X100309998Y-94240000D02*
X101210002Y-94240000D01*
G75*
G02*
X101460000Y-94489998I0J-249998D01*
G01*
X101460000Y-95015002D01*
G75*
G02*
X101210002Y-95265000I-249998J0D01*
G01*
X100309998Y-95265000D01*
G75*
G02*
X100060000Y-95015002I0J249998D01*
G01*
X100060000Y-94489998D01*
G75*
G02*
X100309998Y-94240000I249998J0D01*
G01*
G37*
G04 #@! TD.AperFunction*
G04 #@! TA.AperFunction,SMDPad,CuDef*
G36*
G01*
X100309998Y-92415000D02*
X101210002Y-92415000D01*
G75*
G02*
X101460000Y-92664998I0J-249998D01*
G01*
X101460000Y-93190002D01*
G75*
G02*
X101210002Y-93440000I-249998J0D01*
G01*
X100309998Y-93440000D01*
G75*
G02*
X100060000Y-93190002I0J249998D01*
G01*
X100060000Y-92664998D01*
G75*
G02*
X100309998Y-92415000I249998J0D01*
G01*
G37*
G04 #@! TD.AperFunction*
G04 #@! TA.AperFunction,SMDPad,CuDef*
G36*
G01*
X104850000Y-121139998D02*
X104850000Y-122040002D01*
G75*
G02*
X104600002Y-122290000I-249998J0D01*
G01*
X104074998Y-122290000D01*
G75*
G02*
X103825000Y-122040002I0J249998D01*
G01*
X103825000Y-121139998D01*
G75*
G02*
X104074998Y-120890000I249998J0D01*
G01*
X104600002Y-120890000D01*
G75*
G02*
X104850000Y-121139998I0J-249998D01*
G01*
G37*
G04 #@! TD.AperFunction*
G04 #@! TA.AperFunction,SMDPad,CuDef*
G36*
G01*
X106675000Y-121139998D02*
X106675000Y-122040002D01*
G75*
G02*
X106425002Y-122290000I-249998J0D01*
G01*
X105899998Y-122290000D01*
G75*
G02*
X105650000Y-122040002I0J249998D01*
G01*
X105650000Y-121139998D01*
G75*
G02*
X105899998Y-120890000I249998J0D01*
G01*
X106425002Y-120890000D01*
G75*
G02*
X106675000Y-121139998I0J-249998D01*
G01*
G37*
G04 #@! TD.AperFunction*
G04 #@! TA.AperFunction,SMDPad,CuDef*
G36*
G01*
X104850000Y-118599998D02*
X104850000Y-119500002D01*
G75*
G02*
X104600002Y-119750000I-249998J0D01*
G01*
X104074998Y-119750000D01*
G75*
G02*
X103825000Y-119500002I0J249998D01*
G01*
X103825000Y-118599998D01*
G75*
G02*
X104074998Y-118350000I249998J0D01*
G01*
X104600002Y-118350000D01*
G75*
G02*
X104850000Y-118599998I0J-249998D01*
G01*
G37*
G04 #@! TD.AperFunction*
G04 #@! TA.AperFunction,SMDPad,CuDef*
G36*
G01*
X106675000Y-118599998D02*
X106675000Y-119500002D01*
G75*
G02*
X106425002Y-119750000I-249998J0D01*
G01*
X105899998Y-119750000D01*
G75*
G02*
X105650000Y-119500002I0J249998D01*
G01*
X105650000Y-118599998D01*
G75*
G02*
X105899998Y-118350000I249998J0D01*
G01*
X106425002Y-118350000D01*
G75*
G02*
X106675000Y-118599998I0J-249998D01*
G01*
G37*
G04 #@! TD.AperFunction*
G04 #@! TA.AperFunction,SMDPad,CuDef*
G36*
G01*
X104850000Y-116059998D02*
X104850000Y-116960002D01*
G75*
G02*
X104600002Y-117210000I-249998J0D01*
G01*
X104074998Y-117210000D01*
G75*
G02*
X103825000Y-116960002I0J249998D01*
G01*
X103825000Y-116059998D01*
G75*
G02*
X104074998Y-115810000I249998J0D01*
G01*
X104600002Y-115810000D01*
G75*
G02*
X104850000Y-116059998I0J-249998D01*
G01*
G37*
G04 #@! TD.AperFunction*
G04 #@! TA.AperFunction,SMDPad,CuDef*
G36*
G01*
X106675000Y-116059998D02*
X106675000Y-116960002D01*
G75*
G02*
X106425002Y-117210000I-249998J0D01*
G01*
X105899998Y-117210000D01*
G75*
G02*
X105650000Y-116960002I0J249998D01*
G01*
X105650000Y-116059998D01*
G75*
G02*
X105899998Y-115810000I249998J0D01*
G01*
X106425002Y-115810000D01*
G75*
G02*
X106675000Y-116059998I0J-249998D01*
G01*
G37*
G04 #@! TD.AperFunction*
G04 #@! TA.AperFunction,SMDPad,CuDef*
G36*
G01*
X104850000Y-113519998D02*
X104850000Y-114420002D01*
G75*
G02*
X104600002Y-114670000I-249998J0D01*
G01*
X104074998Y-114670000D01*
G75*
G02*
X103825000Y-114420002I0J249998D01*
G01*
X103825000Y-113519998D01*
G75*
G02*
X104074998Y-113270000I249998J0D01*
G01*
X104600002Y-113270000D01*
G75*
G02*
X104850000Y-113519998I0J-249998D01*
G01*
G37*
G04 #@! TD.AperFunction*
G04 #@! TA.AperFunction,SMDPad,CuDef*
G36*
G01*
X106675000Y-113519998D02*
X106675000Y-114420002D01*
G75*
G02*
X106425002Y-114670000I-249998J0D01*
G01*
X105899998Y-114670000D01*
G75*
G02*
X105650000Y-114420002I0J249998D01*
G01*
X105650000Y-113519998D01*
G75*
G02*
X105899998Y-113270000I249998J0D01*
G01*
X106425002Y-113270000D01*
G75*
G02*
X106675000Y-113519998I0J-249998D01*
G01*
G37*
G04 #@! TD.AperFunction*
G04 #@! TA.AperFunction,SMDPad,CuDef*
G36*
G01*
X104850000Y-110979998D02*
X104850000Y-111880002D01*
G75*
G02*
X104600002Y-112130000I-249998J0D01*
G01*
X104074998Y-112130000D01*
G75*
G02*
X103825000Y-111880002I0J249998D01*
G01*
X103825000Y-110979998D01*
G75*
G02*
X104074998Y-110730000I249998J0D01*
G01*
X104600002Y-110730000D01*
G75*
G02*
X104850000Y-110979998I0J-249998D01*
G01*
G37*
G04 #@! TD.AperFunction*
G04 #@! TA.AperFunction,SMDPad,CuDef*
G36*
G01*
X106675000Y-110979998D02*
X106675000Y-111880002D01*
G75*
G02*
X106425002Y-112130000I-249998J0D01*
G01*
X105899998Y-112130000D01*
G75*
G02*
X105650000Y-111880002I0J249998D01*
G01*
X105650000Y-110979998D01*
G75*
G02*
X105899998Y-110730000I249998J0D01*
G01*
X106425002Y-110730000D01*
G75*
G02*
X106675000Y-110979998I0J-249998D01*
G01*
G37*
G04 #@! TD.AperFunction*
G04 #@! TA.AperFunction,SMDPad,CuDef*
G36*
G01*
X104850000Y-108449998D02*
X104850000Y-109350002D01*
G75*
G02*
X104600002Y-109600000I-249998J0D01*
G01*
X104074998Y-109600000D01*
G75*
G02*
X103825000Y-109350002I0J249998D01*
G01*
X103825000Y-108449998D01*
G75*
G02*
X104074998Y-108200000I249998J0D01*
G01*
X104600002Y-108200000D01*
G75*
G02*
X104850000Y-108449998I0J-249998D01*
G01*
G37*
G04 #@! TD.AperFunction*
G04 #@! TA.AperFunction,SMDPad,CuDef*
G36*
G01*
X106675000Y-108449998D02*
X106675000Y-109350002D01*
G75*
G02*
X106425002Y-109600000I-249998J0D01*
G01*
X105899998Y-109600000D01*
G75*
G02*
X105650000Y-109350002I0J249998D01*
G01*
X105650000Y-108449998D01*
G75*
G02*
X105899998Y-108200000I249998J0D01*
G01*
X106425002Y-108200000D01*
G75*
G02*
X106675000Y-108449998I0J-249998D01*
G01*
G37*
G04 #@! TD.AperFunction*
G04 #@! TA.AperFunction,SMDPad,CuDef*
G36*
G01*
X104850000Y-106479998D02*
X104850000Y-107380002D01*
G75*
G02*
X104600002Y-107630000I-249998J0D01*
G01*
X104074998Y-107630000D01*
G75*
G02*
X103825000Y-107380002I0J249998D01*
G01*
X103825000Y-106479998D01*
G75*
G02*
X104074998Y-106230000I249998J0D01*
G01*
X104600002Y-106230000D01*
G75*
G02*
X104850000Y-106479998I0J-249998D01*
G01*
G37*
G04 #@! TD.AperFunction*
G04 #@! TA.AperFunction,SMDPad,CuDef*
G36*
G01*
X106675000Y-106479998D02*
X106675000Y-107380002D01*
G75*
G02*
X106425002Y-107630000I-249998J0D01*
G01*
X105899998Y-107630000D01*
G75*
G02*
X105650000Y-107380002I0J249998D01*
G01*
X105650000Y-106479998D01*
G75*
G02*
X105899998Y-106230000I249998J0D01*
G01*
X106425002Y-106230000D01*
G75*
G02*
X106675000Y-106479998I0J-249998D01*
G01*
G37*
G04 #@! TD.AperFunction*
G04 #@! TA.AperFunction,SMDPad,CuDef*
G36*
G01*
X106430002Y-103830000D02*
X105529998Y-103830000D01*
G75*
G02*
X105280000Y-103580002I0J249998D01*
G01*
X105280000Y-103054998D01*
G75*
G02*
X105529998Y-102805000I249998J0D01*
G01*
X106430002Y-102805000D01*
G75*
G02*
X106680000Y-103054998I0J-249998D01*
G01*
X106680000Y-103580002D01*
G75*
G02*
X106430002Y-103830000I-249998J0D01*
G01*
G37*
G04 #@! TD.AperFunction*
G04 #@! TA.AperFunction,SMDPad,CuDef*
G36*
G01*
X106430002Y-105655000D02*
X105529998Y-105655000D01*
G75*
G02*
X105280000Y-105405002I0J249998D01*
G01*
X105280000Y-104879998D01*
G75*
G02*
X105529998Y-104630000I249998J0D01*
G01*
X106430002Y-104630000D01*
G75*
G02*
X106680000Y-104879998I0J-249998D01*
G01*
X106680000Y-105405002D01*
G75*
G02*
X106430002Y-105655000I-249998J0D01*
G01*
G37*
G04 #@! TD.AperFunction*
G04 #@! TA.AperFunction,SMDPad,CuDef*
G36*
G01*
X106430002Y-100390000D02*
X105529998Y-100390000D01*
G75*
G02*
X105280000Y-100140002I0J249998D01*
G01*
X105280000Y-99614998D01*
G75*
G02*
X105529998Y-99365000I249998J0D01*
G01*
X106430002Y-99365000D01*
G75*
G02*
X106680000Y-99614998I0J-249998D01*
G01*
X106680000Y-100140002D01*
G75*
G02*
X106430002Y-100390000I-249998J0D01*
G01*
G37*
G04 #@! TD.AperFunction*
G04 #@! TA.AperFunction,SMDPad,CuDef*
G36*
G01*
X106430002Y-102215000D02*
X105529998Y-102215000D01*
G75*
G02*
X105280000Y-101965002I0J249998D01*
G01*
X105280000Y-101439998D01*
G75*
G02*
X105529998Y-101190000I249998J0D01*
G01*
X106430002Y-101190000D01*
G75*
G02*
X106680000Y-101439998I0J-249998D01*
G01*
X106680000Y-101965002D01*
G75*
G02*
X106430002Y-102215000I-249998J0D01*
G01*
G37*
G04 #@! TD.AperFunction*
G04 #@! TA.AperFunction,SMDPad,CuDef*
G36*
G01*
X105529998Y-83740000D02*
X106430002Y-83740000D01*
G75*
G02*
X106680000Y-83989998I0J-249998D01*
G01*
X106680000Y-84515002D01*
G75*
G02*
X106430002Y-84765000I-249998J0D01*
G01*
X105529998Y-84765000D01*
G75*
G02*
X105280000Y-84515002I0J249998D01*
G01*
X105280000Y-83989998D01*
G75*
G02*
X105529998Y-83740000I249998J0D01*
G01*
G37*
G04 #@! TD.AperFunction*
G04 #@! TA.AperFunction,SMDPad,CuDef*
G36*
G01*
X105529998Y-81915000D02*
X106430002Y-81915000D01*
G75*
G02*
X106680000Y-82164998I0J-249998D01*
G01*
X106680000Y-82690002D01*
G75*
G02*
X106430002Y-82940000I-249998J0D01*
G01*
X105529998Y-82940000D01*
G75*
G02*
X105280000Y-82690002I0J249998D01*
G01*
X105280000Y-82164998D01*
G75*
G02*
X105529998Y-81915000I249998J0D01*
G01*
G37*
G04 #@! TD.AperFunction*
G04 #@! TA.AperFunction,SMDPad,CuDef*
G36*
G01*
X105529998Y-79720000D02*
X106430002Y-79720000D01*
G75*
G02*
X106680000Y-79969998I0J-249998D01*
G01*
X106680000Y-80495002D01*
G75*
G02*
X106430002Y-80745000I-249998J0D01*
G01*
X105529998Y-80745000D01*
G75*
G02*
X105280000Y-80495002I0J249998D01*
G01*
X105280000Y-79969998D01*
G75*
G02*
X105529998Y-79720000I249998J0D01*
G01*
G37*
G04 #@! TD.AperFunction*
G04 #@! TA.AperFunction,SMDPad,CuDef*
G36*
G01*
X105529998Y-77895000D02*
X106430002Y-77895000D01*
G75*
G02*
X106680000Y-78144998I0J-249998D01*
G01*
X106680000Y-78670002D01*
G75*
G02*
X106430002Y-78920000I-249998J0D01*
G01*
X105529998Y-78920000D01*
G75*
G02*
X105280000Y-78670002I0J249998D01*
G01*
X105280000Y-78144998D01*
G75*
G02*
X105529998Y-77895000I249998J0D01*
G01*
G37*
G04 #@! TD.AperFunction*
G04 #@! TA.AperFunction,SMDPad,CuDef*
G36*
G01*
X95150000Y-78860002D02*
X95150000Y-77959998D01*
G75*
G02*
X95399998Y-77710000I249998J0D01*
G01*
X95925002Y-77710000D01*
G75*
G02*
X96175000Y-77959998I0J-249998D01*
G01*
X96175000Y-78860002D01*
G75*
G02*
X95925002Y-79110000I-249998J0D01*
G01*
X95399998Y-79110000D01*
G75*
G02*
X95150000Y-78860002I0J249998D01*
G01*
G37*
G04 #@! TD.AperFunction*
G04 #@! TA.AperFunction,SMDPad,CuDef*
G36*
G01*
X93325000Y-78860002D02*
X93325000Y-77959998D01*
G75*
G02*
X93574998Y-77710000I249998J0D01*
G01*
X94100002Y-77710000D01*
G75*
G02*
X94350000Y-77959998I0J-249998D01*
G01*
X94350000Y-78860002D01*
G75*
G02*
X94100002Y-79110000I-249998J0D01*
G01*
X93574998Y-79110000D01*
G75*
G02*
X93325000Y-78860002I0J249998D01*
G01*
G37*
G04 #@! TD.AperFunction*
G04 #@! TA.AperFunction,SMDPad,CuDef*
G36*
G01*
X95150000Y-81400002D02*
X95150000Y-80499998D01*
G75*
G02*
X95399998Y-80250000I249998J0D01*
G01*
X95925002Y-80250000D01*
G75*
G02*
X96175000Y-80499998I0J-249998D01*
G01*
X96175000Y-81400002D01*
G75*
G02*
X95925002Y-81650000I-249998J0D01*
G01*
X95399998Y-81650000D01*
G75*
G02*
X95150000Y-81400002I0J249998D01*
G01*
G37*
G04 #@! TD.AperFunction*
G04 #@! TA.AperFunction,SMDPad,CuDef*
G36*
G01*
X93325000Y-81400002D02*
X93325000Y-80499998D01*
G75*
G02*
X93574998Y-80250000I249998J0D01*
G01*
X94100002Y-80250000D01*
G75*
G02*
X94350000Y-80499998I0J-249998D01*
G01*
X94350000Y-81400002D01*
G75*
G02*
X94100002Y-81650000I-249998J0D01*
G01*
X93574998Y-81650000D01*
G75*
G02*
X93325000Y-81400002I0J249998D01*
G01*
G37*
G04 #@! TD.AperFunction*
G04 #@! TA.AperFunction,SMDPad,CuDef*
G36*
G01*
X95150000Y-83940002D02*
X95150000Y-83039998D01*
G75*
G02*
X95399998Y-82790000I249998J0D01*
G01*
X95925002Y-82790000D01*
G75*
G02*
X96175000Y-83039998I0J-249998D01*
G01*
X96175000Y-83940002D01*
G75*
G02*
X95925002Y-84190000I-249998J0D01*
G01*
X95399998Y-84190000D01*
G75*
G02*
X95150000Y-83940002I0J249998D01*
G01*
G37*
G04 #@! TD.AperFunction*
G04 #@! TA.AperFunction,SMDPad,CuDef*
G36*
G01*
X93325000Y-83940002D02*
X93325000Y-83039998D01*
G75*
G02*
X93574998Y-82790000I249998J0D01*
G01*
X94100002Y-82790000D01*
G75*
G02*
X94350000Y-83039998I0J-249998D01*
G01*
X94350000Y-83940002D01*
G75*
G02*
X94100002Y-84190000I-249998J0D01*
G01*
X93574998Y-84190000D01*
G75*
G02*
X93325000Y-83940002I0J249998D01*
G01*
G37*
G04 #@! TD.AperFunction*
G04 #@! TA.AperFunction,SMDPad,CuDef*
G36*
G01*
X95150000Y-86480002D02*
X95150000Y-85579998D01*
G75*
G02*
X95399998Y-85330000I249998J0D01*
G01*
X95925002Y-85330000D01*
G75*
G02*
X96175000Y-85579998I0J-249998D01*
G01*
X96175000Y-86480002D01*
G75*
G02*
X95925002Y-86730000I-249998J0D01*
G01*
X95399998Y-86730000D01*
G75*
G02*
X95150000Y-86480002I0J249998D01*
G01*
G37*
G04 #@! TD.AperFunction*
G04 #@! TA.AperFunction,SMDPad,CuDef*
G36*
G01*
X93325000Y-86480002D02*
X93325000Y-85579998D01*
G75*
G02*
X93574998Y-85330000I249998J0D01*
G01*
X94100002Y-85330000D01*
G75*
G02*
X94350000Y-85579998I0J-249998D01*
G01*
X94350000Y-86480002D01*
G75*
G02*
X94100002Y-86730000I-249998J0D01*
G01*
X93574998Y-86730000D01*
G75*
G02*
X93325000Y-86480002I0J249998D01*
G01*
G37*
G04 #@! TD.AperFunction*
G04 #@! TA.AperFunction,SMDPad,CuDef*
G36*
G01*
X95150000Y-89020002D02*
X95150000Y-88119998D01*
G75*
G02*
X95399998Y-87870000I249998J0D01*
G01*
X95925002Y-87870000D01*
G75*
G02*
X96175000Y-88119998I0J-249998D01*
G01*
X96175000Y-89020002D01*
G75*
G02*
X95925002Y-89270000I-249998J0D01*
G01*
X95399998Y-89270000D01*
G75*
G02*
X95150000Y-89020002I0J249998D01*
G01*
G37*
G04 #@! TD.AperFunction*
G04 #@! TA.AperFunction,SMDPad,CuDef*
G36*
G01*
X93325000Y-89020002D02*
X93325000Y-88119998D01*
G75*
G02*
X93574998Y-87870000I249998J0D01*
G01*
X94100002Y-87870000D01*
G75*
G02*
X94350000Y-88119998I0J-249998D01*
G01*
X94350000Y-89020002D01*
G75*
G02*
X94100002Y-89270000I-249998J0D01*
G01*
X93574998Y-89270000D01*
G75*
G02*
X93325000Y-89020002I0J249998D01*
G01*
G37*
G04 #@! TD.AperFunction*
G04 #@! TA.AperFunction,SMDPad,CuDef*
G36*
G01*
X95150000Y-91560002D02*
X95150000Y-90659998D01*
G75*
G02*
X95399998Y-90410000I249998J0D01*
G01*
X95925002Y-90410000D01*
G75*
G02*
X96175000Y-90659998I0J-249998D01*
G01*
X96175000Y-91560002D01*
G75*
G02*
X95925002Y-91810000I-249998J0D01*
G01*
X95399998Y-91810000D01*
G75*
G02*
X95150000Y-91560002I0J249998D01*
G01*
G37*
G04 #@! TD.AperFunction*
G04 #@! TA.AperFunction,SMDPad,CuDef*
G36*
G01*
X93325000Y-91560002D02*
X93325000Y-90659998D01*
G75*
G02*
X93574998Y-90410000I249998J0D01*
G01*
X94100002Y-90410000D01*
G75*
G02*
X94350000Y-90659998I0J-249998D01*
G01*
X94350000Y-91560002D01*
G75*
G02*
X94100002Y-91810000I-249998J0D01*
G01*
X93574998Y-91810000D01*
G75*
G02*
X93325000Y-91560002I0J249998D01*
G01*
G37*
G04 #@! TD.AperFunction*
G04 #@! TA.AperFunction,SMDPad,CuDef*
G36*
G01*
X95150000Y-94100002D02*
X95150000Y-93199998D01*
G75*
G02*
X95399998Y-92950000I249998J0D01*
G01*
X95925002Y-92950000D01*
G75*
G02*
X96175000Y-93199998I0J-249998D01*
G01*
X96175000Y-94100002D01*
G75*
G02*
X95925002Y-94350000I-249998J0D01*
G01*
X95399998Y-94350000D01*
G75*
G02*
X95150000Y-94100002I0J249998D01*
G01*
G37*
G04 #@! TD.AperFunction*
G04 #@! TA.AperFunction,SMDPad,CuDef*
G36*
G01*
X93325000Y-94100002D02*
X93325000Y-93199998D01*
G75*
G02*
X93574998Y-92950000I249998J0D01*
G01*
X94100002Y-92950000D01*
G75*
G02*
X94350000Y-93199998I0J-249998D01*
G01*
X94350000Y-94100002D01*
G75*
G02*
X94100002Y-94350000I-249998J0D01*
G01*
X93574998Y-94350000D01*
G75*
G02*
X93325000Y-94100002I0J249998D01*
G01*
G37*
G04 #@! TD.AperFunction*
G04 #@! TA.AperFunction,SMDPad,CuDef*
G36*
G01*
X106400000Y-97215000D02*
X105900000Y-97215000D01*
G75*
G02*
X105675000Y-96990000I0J225000D01*
G01*
X105675000Y-96540000D01*
G75*
G02*
X105900000Y-96315000I225000J0D01*
G01*
X106400000Y-96315000D01*
G75*
G02*
X106625000Y-96540000I0J-225000D01*
G01*
X106625000Y-96990000D01*
G75*
G02*
X106400000Y-97215000I-225000J0D01*
G01*
G37*
G04 #@! TD.AperFunction*
G04 #@! TA.AperFunction,SMDPad,CuDef*
G36*
G01*
X106400000Y-98765000D02*
X105900000Y-98765000D01*
G75*
G02*
X105675000Y-98540000I0J225000D01*
G01*
X105675000Y-98090000D01*
G75*
G02*
X105900000Y-97865000I225000J0D01*
G01*
X106400000Y-97865000D01*
G75*
G02*
X106625000Y-98090000I0J-225000D01*
G01*
X106625000Y-98540000D01*
G75*
G02*
X106400000Y-98765000I-225000J0D01*
G01*
G37*
G04 #@! TD.AperFunction*
G04 #@! TA.AperFunction,SMDPad,CuDef*
G36*
G01*
X95505000Y-104300000D02*
X95505000Y-104800000D01*
G75*
G02*
X95280000Y-105025000I-225000J0D01*
G01*
X94830000Y-105025000D01*
G75*
G02*
X94605000Y-104800000I0J225000D01*
G01*
X94605000Y-104300000D01*
G75*
G02*
X94830000Y-104075000I225000J0D01*
G01*
X95280000Y-104075000D01*
G75*
G02*
X95505000Y-104300000I0J-225000D01*
G01*
G37*
G04 #@! TD.AperFunction*
G04 #@! TA.AperFunction,SMDPad,CuDef*
G36*
G01*
X97055000Y-104300000D02*
X97055000Y-104800000D01*
G75*
G02*
X96830000Y-105025000I-225000J0D01*
G01*
X96380000Y-105025000D01*
G75*
G02*
X96155000Y-104800000I0J225000D01*
G01*
X96155000Y-104300000D01*
G75*
G02*
X96380000Y-104075000I225000J0D01*
G01*
X96830000Y-104075000D01*
G75*
G02*
X97055000Y-104300000I0J-225000D01*
G01*
G37*
G04 #@! TD.AperFunction*
G04 #@! TA.AperFunction,SMDPad,CuDef*
G36*
G01*
X104870000Y-97205000D02*
X104370000Y-97205000D01*
G75*
G02*
X104145000Y-96980000I0J225000D01*
G01*
X104145000Y-96530000D01*
G75*
G02*
X104370000Y-96305000I225000J0D01*
G01*
X104870000Y-96305000D01*
G75*
G02*
X105095000Y-96530000I0J-225000D01*
G01*
X105095000Y-96980000D01*
G75*
G02*
X104870000Y-97205000I-225000J0D01*
G01*
G37*
G04 #@! TD.AperFunction*
G04 #@! TA.AperFunction,SMDPad,CuDef*
G36*
G01*
X104870000Y-98755000D02*
X104370000Y-98755000D01*
G75*
G02*
X104145000Y-98530000I0J225000D01*
G01*
X104145000Y-98080000D01*
G75*
G02*
X104370000Y-97855000I225000J0D01*
G01*
X104870000Y-97855000D01*
G75*
G02*
X105095000Y-98080000I0J-225000D01*
G01*
X105095000Y-98530000D01*
G75*
G02*
X104870000Y-98755000I-225000J0D01*
G01*
G37*
G04 #@! TD.AperFunction*
G04 #@! TA.AperFunction,SMDPad,CuDef*
G36*
G01*
X95505000Y-102770000D02*
X95505000Y-103270000D01*
G75*
G02*
X95280000Y-103495000I-225000J0D01*
G01*
X94830000Y-103495000D01*
G75*
G02*
X94605000Y-103270000I0J225000D01*
G01*
X94605000Y-102770000D01*
G75*
G02*
X94830000Y-102545000I225000J0D01*
G01*
X95280000Y-102545000D01*
G75*
G02*
X95505000Y-102770000I0J-225000D01*
G01*
G37*
G04 #@! TD.AperFunction*
G04 #@! TA.AperFunction,SMDPad,CuDef*
G36*
G01*
X97055000Y-102770000D02*
X97055000Y-103270000D01*
G75*
G02*
X96830000Y-103495000I-225000J0D01*
G01*
X96380000Y-103495000D01*
G75*
G02*
X96155000Y-103270000I0J225000D01*
G01*
X96155000Y-102770000D01*
G75*
G02*
X96380000Y-102545000I225000J0D01*
G01*
X96830000Y-102545000D01*
G75*
G02*
X97055000Y-102770000I0J-225000D01*
G01*
G37*
G04 #@! TD.AperFunction*
D14*
X100760000Y-91850000D03*
X102120000Y-92940000D03*
X93790000Y-103010000D03*
X93770000Y-104540000D03*
X95920000Y-105810000D03*
X103680000Y-98300000D03*
X94920000Y-105810000D03*
X104240000Y-90790000D03*
X105650000Y-94610000D03*
D15*
X101944544Y-101661701D02*
X101122843Y-100840000D01*
X102510229Y-98903984D02*
X101804213Y-99610000D01*
X100760000Y-92927500D02*
X100760000Y-91850000D01*
X102107500Y-92927500D02*
X102120000Y-92940000D01*
X100760000Y-92927500D02*
X102107500Y-92927500D01*
D16*
X95055000Y-102375000D02*
X94510000Y-101830000D01*
X95055000Y-103020000D02*
X95055000Y-102375000D01*
D15*
X102793072Y-99186827D02*
X102793173Y-99186827D01*
X102793173Y-99186827D02*
X103680000Y-98300000D01*
X103680000Y-98300000D02*
X106140000Y-98300000D01*
X98055456Y-101661701D02*
X98055456Y-101664544D01*
X98055456Y-101664544D02*
X96690000Y-103030000D01*
D16*
X95920000Y-105810000D02*
X96500000Y-105230000D01*
X96500000Y-105230000D02*
X96500000Y-104610000D01*
X96605000Y-103020000D02*
X96605000Y-104535000D01*
X104620000Y-98305000D02*
X106165000Y-98305000D01*
X108890000Y-98730000D02*
X106620000Y-98730000D01*
X106620000Y-98730000D02*
X106160000Y-98270000D01*
X103680000Y-98300000D02*
X104630000Y-98300000D01*
X95920000Y-105810000D02*
X94920000Y-105810000D01*
D15*
X104237500Y-90792500D02*
X104240000Y-90790000D01*
X104237500Y-92870000D02*
X104237500Y-90792500D01*
X104240000Y-90790000D02*
X104240000Y-89100000D01*
X100920000Y-103460000D02*
X100920000Y-103630000D01*
X100920000Y-103460000D02*
X100530000Y-103070000D01*
X100920000Y-103630000D02*
X99450000Y-105100000D01*
X99450000Y-105100000D02*
X99450000Y-106270000D01*
X99450000Y-106270000D02*
X96980000Y-108740000D01*
X96980000Y-108740000D02*
X95370000Y-108740000D01*
X95370000Y-108740000D02*
X94570000Y-109540000D01*
X94570000Y-109540000D02*
X94570000Y-110210000D01*
X94570000Y-110210000D02*
X94170000Y-110610000D01*
X94170000Y-110610000D02*
X94170000Y-112580000D01*
X94170000Y-112580000D02*
X93770000Y-112980000D01*
X93770000Y-112980000D02*
X93770000Y-114990000D01*
X93770000Y-114990000D02*
X93370000Y-115390000D01*
X93370000Y-115390000D02*
X93370000Y-117360000D01*
X93370000Y-117360000D02*
X92980000Y-117750000D01*
X92980000Y-117750000D02*
X92980000Y-119720000D01*
X92980000Y-119720000D02*
X91120000Y-121580000D01*
X106162500Y-121590000D02*
X108890000Y-121590000D01*
X99469670Y-103075914D02*
X99469670Y-103080330D01*
X99469670Y-103080330D02*
X99050000Y-103500000D01*
X99050000Y-103500000D02*
X99050000Y-106080000D01*
X99050000Y-106080000D02*
X96790000Y-108340000D01*
X96790000Y-108340000D02*
X95210000Y-108340000D01*
X95210000Y-108340000D02*
X94170000Y-109380000D01*
X94170000Y-109380000D02*
X94170000Y-110050000D01*
X94170000Y-110050000D02*
X93770000Y-110450000D01*
X93770000Y-110450000D02*
X93770000Y-112420000D01*
X93770000Y-112420000D02*
X93370000Y-112820000D01*
X93370000Y-112820000D02*
X93370000Y-114810000D01*
X93370000Y-114810000D02*
X92970000Y-115210000D01*
X92970000Y-115210000D02*
X92970000Y-117190000D01*
X92970000Y-117190000D02*
X91110000Y-119050000D01*
X98659990Y-103320010D02*
X99160000Y-102820000D01*
X98659990Y-103539990D02*
X98659990Y-105910010D01*
X98659990Y-103539990D02*
X98659990Y-103320010D01*
X98659990Y-105910010D02*
X96620000Y-107950000D01*
X96620000Y-107950000D02*
X95050000Y-107950000D01*
X95050000Y-107950000D02*
X93780000Y-109220000D01*
X93780000Y-109220000D02*
X93780000Y-109890000D01*
X93780000Y-109890000D02*
X93380000Y-110290000D01*
X93380000Y-110290000D02*
X93380000Y-112260000D01*
X93380000Y-112260000D02*
X92970000Y-112670000D01*
X92970000Y-112670000D02*
X92970000Y-114650000D01*
X92970000Y-114650000D02*
X91110000Y-116510000D01*
X98260000Y-103550000D02*
X98260000Y-103150000D01*
X98260000Y-103150000D02*
X98900000Y-102510000D01*
X98260000Y-103550000D02*
X98260000Y-105740000D01*
X98260000Y-105740000D02*
X96450000Y-107550000D01*
X96450000Y-107550000D02*
X94890000Y-107550000D01*
X94890000Y-107550000D02*
X93380000Y-109060000D01*
X93380000Y-109060000D02*
X93380000Y-109720000D01*
X93380000Y-109720000D02*
X92970000Y-110130000D01*
X92970000Y-110130000D02*
X92970000Y-112100000D01*
X92970000Y-112100000D02*
X91120000Y-113950000D01*
X97860000Y-103340000D02*
X97860000Y-102990000D01*
X97860000Y-102990000D02*
X98570000Y-102280000D01*
X97860000Y-103580000D02*
X97860000Y-105550000D01*
X97860000Y-103340000D02*
X97860000Y-103580000D01*
X97860000Y-105550000D02*
X96270000Y-107140000D01*
X96270000Y-107140000D02*
X94730000Y-107140000D01*
X94730000Y-107140000D02*
X92980000Y-108890000D01*
X92980000Y-108890000D02*
X92980000Y-109560000D01*
X92980000Y-109560000D02*
X91110000Y-111430000D01*
X98324173Y-101944544D02*
X98338299Y-101944544D01*
X97460000Y-102808717D02*
X98324173Y-101944544D01*
X97460000Y-105370000D02*
X97460000Y-102808717D01*
X96100000Y-106730000D02*
X97460000Y-105370000D01*
X94570000Y-106730000D02*
X96100000Y-106730000D01*
X92410000Y-108890000D02*
X94570000Y-106730000D01*
X91100000Y-108890000D02*
X92410000Y-108890000D01*
X97772614Y-101378858D02*
X97001472Y-102150000D01*
X97001472Y-102150000D02*
X95860000Y-102150000D01*
X95860000Y-102150000D02*
X94780000Y-101070000D01*
X93740000Y-101070000D02*
X93390000Y-101420000D01*
X94780000Y-101070000D02*
X93740000Y-101070000D01*
X93390000Y-101420000D02*
X93390000Y-102100000D01*
X93390000Y-102100000D02*
X92980000Y-102510000D01*
X92980000Y-102510000D02*
X92980000Y-104480000D01*
X92980000Y-104480000D02*
X91110000Y-106350000D01*
X97489771Y-101096016D02*
X96835787Y-101750000D01*
X96835787Y-101750000D02*
X96040000Y-101750000D01*
X96040000Y-101750000D02*
X94950000Y-100660000D01*
X94950000Y-100660000D02*
X93100000Y-100660000D01*
X93100000Y-100660000D02*
X92970000Y-100790000D01*
X92970000Y-100790000D02*
X92970000Y-101960000D01*
X92970000Y-101960000D02*
X91120000Y-103810000D01*
X97206928Y-100813173D02*
X97206827Y-100813173D01*
X97206827Y-100813173D02*
X96670000Y-101350000D01*
X96670000Y-101350000D02*
X96210000Y-101350000D01*
X96210000Y-101350000D02*
X95110000Y-100250000D01*
X95110000Y-100250000D02*
X92130000Y-100250000D01*
X92130000Y-100250000D02*
X91110000Y-101270000D01*
X96924086Y-100530330D02*
X96919670Y-100530330D01*
X96919670Y-100530330D02*
X96490000Y-100960000D01*
X96490000Y-100960000D02*
X96410000Y-100960000D01*
X96410000Y-100960000D02*
X94180000Y-98730000D01*
X94180000Y-98730000D02*
X91110000Y-98730000D01*
X103370000Y-96060000D02*
X103700000Y-95730000D01*
X103700000Y-95730000D02*
X106800000Y-95730000D01*
X106800000Y-95730000D02*
X108890000Y-93640000D01*
X103370000Y-96850000D02*
X103370000Y-97480000D01*
X103370000Y-96850000D02*
X103370000Y-96060000D01*
X103370000Y-97480000D02*
X102220000Y-98630000D01*
X101944544Y-98335456D02*
X101944544Y-98338299D01*
X102970000Y-97310000D02*
X101944544Y-98335456D01*
X102970000Y-95900000D02*
X102970000Y-97310000D01*
X106650000Y-95320000D02*
X103550000Y-95320000D01*
X107400000Y-94570000D02*
X106650000Y-95320000D01*
X103550000Y-95320000D02*
X102970000Y-95900000D01*
X107400000Y-92600000D02*
X107400000Y-94570000D01*
X108880000Y-91120000D02*
X107400000Y-92600000D01*
X101378858Y-97771142D02*
X101378858Y-97772614D01*
X102160000Y-96990000D02*
X101378858Y-97771142D01*
X102160000Y-94460000D02*
X102160000Y-96990000D01*
X102690000Y-93930000D02*
X102160000Y-94460000D01*
X108890000Y-88560000D02*
X106980000Y-90470000D01*
X102690000Y-93930000D02*
X103140000Y-93930000D01*
X106980000Y-91810000D02*
X106980000Y-93680000D01*
X106980000Y-90470000D02*
X106980000Y-91810000D01*
X106980000Y-93680000D02*
X106730000Y-93930000D01*
X106062500Y-93872500D02*
X106120000Y-93930000D01*
X106120000Y-93930000D02*
X103140000Y-93930000D01*
X106062500Y-92870000D02*
X106062500Y-93872500D01*
X106730000Y-93930000D02*
X106120000Y-93930000D01*
X101770000Y-96820000D02*
X101100229Y-97489771D01*
X101100229Y-97489771D02*
X101096016Y-97489771D01*
X101770000Y-94300000D02*
X101770000Y-96820000D01*
X102530000Y-93540000D02*
X101770000Y-94300000D01*
X102920000Y-93540000D02*
X102530000Y-93540000D01*
X103330000Y-88210000D02*
X103330000Y-93130000D01*
X103580000Y-87960000D02*
X103330000Y-88210000D01*
X105050000Y-87960000D02*
X103580000Y-87960000D01*
X103330000Y-93130000D02*
X102920000Y-93540000D01*
X108890000Y-86030000D02*
X106980000Y-86030000D01*
X105675000Y-87335000D02*
X105050000Y-87960000D01*
X106980000Y-86030000D02*
X105675000Y-87335000D01*
X106062500Y-87722500D02*
X105675000Y-87335000D01*
X106062500Y-89100000D02*
X106062500Y-87722500D01*
X100530330Y-96919670D02*
X100530330Y-96924086D01*
X100970000Y-96480000D02*
X100530330Y-96919670D01*
X100620000Y-96130000D02*
X100970000Y-96480000D01*
X99730000Y-91640000D02*
X99730000Y-95470000D01*
X99730000Y-95470000D02*
X100390000Y-96130000D01*
X100220000Y-91150000D02*
X99730000Y-91640000D01*
X101950000Y-91150000D02*
X100220000Y-91150000D01*
X102890000Y-90210000D02*
X101950000Y-91150000D01*
X100390000Y-96130000D02*
X100620000Y-96130000D01*
X102890000Y-87910000D02*
X102890000Y-90210000D01*
X103280000Y-87520000D02*
X102890000Y-87910000D01*
X104860000Y-87520000D02*
X103280000Y-87520000D01*
X108890000Y-83490000D02*
X104860000Y-87520000D01*
X108890000Y-103810000D02*
X107560000Y-105140000D01*
X107560000Y-105140000D02*
X105990000Y-105140000D01*
X108890000Y-106350000D02*
X108040000Y-107200000D01*
X108040000Y-107200000D02*
X106260000Y-107200000D01*
X108890000Y-108890000D02*
X106140000Y-108890000D01*
X108890000Y-111430000D02*
X106160000Y-111430000D01*
X106162500Y-113970000D02*
X108870000Y-113970000D01*
X106162500Y-116510000D02*
X108890000Y-116510000D01*
X106162500Y-119050000D02*
X108890000Y-119050000D01*
X108135000Y-102025000D02*
X105955000Y-102025000D01*
X108890000Y-101270000D02*
X108135000Y-102025000D01*
X96924086Y-99469670D02*
X96924086Y-99464086D01*
X96924086Y-99464086D02*
X93650000Y-96190000D01*
X93650000Y-96190000D02*
X91110000Y-96190000D01*
X91110000Y-93650000D02*
X93900000Y-93650000D01*
X91110000Y-91110000D02*
X93820000Y-91110000D01*
X91110000Y-88570000D02*
X93860000Y-88570000D01*
X91110000Y-86030000D02*
X93840000Y-86030000D01*
X91110000Y-83490000D02*
X93860000Y-83490000D01*
X91110000Y-80950000D02*
X93840000Y-80950000D01*
X91110000Y-78410000D02*
X93860000Y-78410000D01*
X108890000Y-78410000D02*
X105980000Y-78410000D01*
X108890000Y-80950000D02*
X107400000Y-82440000D01*
X107400000Y-82440000D02*
X106040000Y-82440000D01*
X101661701Y-98055456D02*
X101664544Y-98055456D01*
X101664544Y-98055456D02*
X102570000Y-97150000D01*
X102570000Y-97150000D02*
X102570000Y-95740000D01*
X102570000Y-95740000D02*
X102570000Y-95150000D01*
X102570000Y-95150000D02*
X103100000Y-94620000D01*
X105640000Y-94620000D02*
X105650000Y-94610000D01*
X103100000Y-94620000D02*
X105640000Y-94620000D01*
X97206928Y-99186827D02*
X97206827Y-99186827D01*
X97206827Y-99186827D02*
X95670000Y-97650000D01*
X95670000Y-97650000D02*
X95670000Y-93660000D01*
X97489771Y-98903984D02*
X97489771Y-98899771D01*
X97489771Y-98899771D02*
X96090000Y-97500000D01*
X96090000Y-97500000D02*
X96090000Y-95100000D01*
X96090000Y-95100000D02*
X96550000Y-94640000D01*
X96550000Y-94640000D02*
X96550000Y-92230000D01*
X96550000Y-92230000D02*
X95670000Y-91350000D01*
X97772614Y-98621142D02*
X97771142Y-98621142D01*
X97771142Y-98621142D02*
X96490000Y-97340000D01*
X96490000Y-97340000D02*
X96490000Y-95260000D01*
X96490000Y-95260000D02*
X96940000Y-94810000D01*
X96940000Y-94810000D02*
X96940000Y-92060000D01*
X96940000Y-92060000D02*
X96550000Y-91670000D01*
X96550000Y-91670000D02*
X96550000Y-89650000D01*
X96550000Y-89650000D02*
X95670000Y-88770000D01*
X98055456Y-98338299D02*
X98055456Y-98335456D01*
X98055456Y-98335456D02*
X96890000Y-97170000D01*
X96890000Y-97170000D02*
X96890000Y-95420000D01*
X96890000Y-95420000D02*
X97330000Y-94980000D01*
X97330000Y-94980000D02*
X97330000Y-91890000D01*
X97330000Y-91890000D02*
X96940000Y-91500000D01*
X96940000Y-91500000D02*
X96940000Y-87470000D01*
X96940000Y-87470000D02*
X95660000Y-86190000D01*
X98338299Y-98055456D02*
X98335456Y-98055456D01*
X98335456Y-98055456D02*
X97280000Y-97000000D01*
X97280000Y-97000000D02*
X97280000Y-95580000D01*
X97280000Y-95580000D02*
X97720000Y-95140000D01*
X97720000Y-95140000D02*
X97720000Y-91720000D01*
X97720000Y-91720000D02*
X97330000Y-91330000D01*
X97330000Y-91330000D02*
X97330000Y-87300000D01*
X97330000Y-87300000D02*
X96550000Y-86520000D01*
X96550000Y-86520000D02*
X96550000Y-84590000D01*
X96550000Y-84590000D02*
X95680000Y-83720000D01*
X98621142Y-97772614D02*
X98621142Y-97771142D01*
X98621142Y-97771142D02*
X97670000Y-96820000D01*
X97670000Y-96820000D02*
X97670000Y-95740000D01*
X97670000Y-95740000D02*
X98110000Y-95300000D01*
X98110000Y-95300000D02*
X98110000Y-91550000D01*
X98110000Y-91550000D02*
X97720000Y-91160000D01*
X97720000Y-91160000D02*
X97720000Y-87130000D01*
X97720000Y-87130000D02*
X96940000Y-86350000D01*
X96940000Y-86350000D02*
X96940000Y-84430000D01*
X96940000Y-84430000D02*
X96550000Y-84040000D01*
X96550000Y-84040000D02*
X96550000Y-82020000D01*
X96550000Y-82020000D02*
X95660000Y-81130000D01*
X98903984Y-97489771D02*
X98903984Y-97483984D01*
X98903984Y-97483984D02*
X98070000Y-96650000D01*
X98070000Y-96650000D02*
X98070000Y-95900000D01*
X98070000Y-95900000D02*
X98510000Y-95460000D01*
X98510000Y-95460000D02*
X98510000Y-91370000D01*
X98510000Y-91370000D02*
X98120000Y-90980000D01*
X98120000Y-90980000D02*
X98120000Y-86960000D01*
X98120000Y-86960000D02*
X97330000Y-86170000D01*
X97330000Y-86170000D02*
X97330000Y-84260000D01*
X97330000Y-84260000D02*
X96940000Y-83870000D01*
X96940000Y-83870000D02*
X96940000Y-79870000D01*
X96940000Y-79870000D02*
X95660000Y-78590000D01*
X99186827Y-97206827D02*
X99186827Y-97206928D01*
X102040000Y-89890000D02*
X101600000Y-90330000D01*
X99890000Y-90330000D02*
X98910000Y-91310000D01*
X104910000Y-81730000D02*
X104910000Y-85930000D01*
X101600000Y-90330000D02*
X99890000Y-90330000D01*
X102040000Y-87550000D02*
X102040000Y-89890000D01*
X102950000Y-86640000D02*
X102040000Y-87550000D01*
X98910000Y-91310000D02*
X98910000Y-95640000D01*
X104200000Y-86640000D02*
X102950000Y-86640000D01*
X98910000Y-95640000D02*
X98480000Y-96070000D01*
X104910000Y-85930000D02*
X104200000Y-86640000D01*
X98480000Y-96070000D02*
X98480000Y-96500000D01*
X98480000Y-96500000D02*
X99186827Y-97206827D01*
X104910000Y-81730000D02*
X104910000Y-81110000D01*
X104910000Y-81110000D02*
X105790000Y-80230000D01*
X99469670Y-96919670D02*
X99469670Y-96924086D01*
X98870000Y-96240000D02*
X98870000Y-96320000D01*
X99310000Y-95800000D02*
X98870000Y-96240000D01*
X98870000Y-96320000D02*
X99469670Y-96919670D01*
X100070000Y-90730000D02*
X99310000Y-91490000D01*
X101770000Y-90730000D02*
X100070000Y-90730000D01*
X102470000Y-90030000D02*
X101770000Y-90730000D01*
X103140000Y-87070000D02*
X102470000Y-87740000D01*
X99310000Y-91490000D02*
X99310000Y-95800000D01*
X102470000Y-87740000D02*
X102470000Y-90030000D01*
X104720000Y-87070000D02*
X103140000Y-87070000D01*
X105980000Y-85810000D02*
X104720000Y-87070000D01*
X105980000Y-84250000D02*
X105980000Y-85810000D01*
X103075914Y-99469670D02*
X103075914Y-99464086D01*
X103075914Y-99464086D02*
X103520000Y-99020000D01*
X103520000Y-99020000D02*
X103580000Y-99020000D01*
X103580000Y-99020000D02*
X104440000Y-99880000D01*
X104440000Y-99880000D02*
X105980000Y-99880000D01*
X105980000Y-103317500D02*
X105747500Y-103317500D01*
X105020000Y-102470000D02*
X103080000Y-100530000D01*
X105867500Y-103317500D02*
X105020000Y-102470000D01*
X105980000Y-103317500D02*
X105867500Y-103317500D01*
X102793072Y-100813173D02*
X102793072Y-100827299D01*
X104337500Y-102371728D02*
X103962886Y-101997114D01*
X104337500Y-106930000D02*
X104337500Y-102371728D01*
X102793072Y-100827299D02*
X103962886Y-101997114D01*
X102510229Y-101096016D02*
X102510229Y-101110141D01*
X103920000Y-102519912D02*
X103920000Y-105450000D01*
X103920000Y-105450000D02*
X103450000Y-105920000D01*
X103450000Y-105920000D02*
X103450000Y-107860000D01*
X103450000Y-107860000D02*
X104330000Y-108740000D01*
X103920000Y-102519912D02*
X103920000Y-102500000D01*
X103920000Y-102500000D02*
X102510000Y-101090000D01*
X102227386Y-101378858D02*
X103510000Y-102661472D01*
X103510000Y-102661472D02*
X103510000Y-105280000D01*
X103510000Y-105280000D02*
X103050000Y-105740000D01*
X103050000Y-105740000D02*
X103050000Y-108050000D01*
X103050000Y-108050000D02*
X103450000Y-108450000D01*
X103450000Y-108450000D02*
X103450000Y-110370000D01*
X103450000Y-110370000D02*
X104330000Y-111250000D01*
X101661701Y-101944544D02*
X101675827Y-101944544D01*
X103110000Y-105110000D02*
X102650000Y-105570000D01*
X102650000Y-105570000D02*
X102650000Y-108230000D01*
X102650000Y-108230000D02*
X103040000Y-108620000D01*
X103040000Y-108620000D02*
X103040000Y-110530000D01*
X103040000Y-110530000D02*
X103450000Y-110940000D01*
X103450000Y-110940000D02*
X103450000Y-112940000D01*
X103450000Y-112940000D02*
X104330000Y-113820000D01*
X103098717Y-103378717D02*
X101660000Y-101940000D01*
X103110000Y-103390000D02*
X103098717Y-103378717D01*
X103110000Y-105110000D02*
X103110000Y-103390000D01*
X101378858Y-102227386D02*
X101378858Y-102241511D01*
X102710000Y-104940000D02*
X102240000Y-105410000D01*
X102240000Y-105410000D02*
X102240000Y-108400000D01*
X102240000Y-108400000D02*
X102640000Y-108800000D01*
X102640000Y-108800000D02*
X102640000Y-110700000D01*
X102640000Y-110700000D02*
X103050000Y-111110000D01*
X103050000Y-111110000D02*
X103050000Y-113100000D01*
X103050000Y-113100000D02*
X103450000Y-113500000D01*
X103450000Y-113500000D02*
X103450000Y-115420000D01*
X103450000Y-115420000D02*
X104340000Y-116310000D01*
X102710000Y-103880000D02*
X102710000Y-103560000D01*
X102710000Y-103880000D02*
X102710000Y-104940000D01*
X102710000Y-103560000D02*
X101370000Y-102220000D01*
X101096016Y-102510229D02*
X101096016Y-102524355D01*
X102310000Y-104760000D02*
X101840000Y-105230000D01*
X101840000Y-108580000D02*
X102230000Y-108970000D01*
X101840000Y-105230000D02*
X101840000Y-108580000D01*
X102230000Y-108970000D02*
X102230000Y-110880000D01*
X102230000Y-110880000D02*
X102640000Y-111290000D01*
X102640000Y-111290000D02*
X102640000Y-113270000D01*
X102640000Y-113270000D02*
X103040000Y-113670000D01*
X103040000Y-113670000D02*
X103040000Y-115590000D01*
X103040000Y-115590000D02*
X103450000Y-116000000D01*
X103450000Y-116000000D02*
X103450000Y-118030000D01*
X103450000Y-118030000D02*
X104330000Y-118910000D01*
X102310000Y-103738339D02*
X102310000Y-104150000D01*
X102310000Y-104150000D02*
X102310000Y-103720000D01*
X102310000Y-104150000D02*
X102310000Y-104760000D01*
X102310000Y-103720000D02*
X101100000Y-102510000D01*
X100813173Y-102793072D02*
X100813173Y-102807197D01*
X101910000Y-104580000D02*
X101440000Y-105050000D01*
X101440000Y-105050000D02*
X101440000Y-108750000D01*
X101440000Y-108750000D02*
X101820000Y-109130000D01*
X101820000Y-109130000D02*
X101820000Y-111060000D01*
X101820000Y-111060000D02*
X102230000Y-111470000D01*
X102230000Y-111470000D02*
X102230000Y-113440000D01*
X102230000Y-113440000D02*
X102630000Y-113840000D01*
X102630000Y-113840000D02*
X102630000Y-115780000D01*
X102630000Y-115780000D02*
X103030000Y-116180000D01*
X103030000Y-116180000D02*
X103030000Y-118200000D01*
X103030000Y-118200000D02*
X103450000Y-118620000D01*
X103450000Y-118620000D02*
X103450000Y-120530000D01*
X103450000Y-120530000D02*
X104330000Y-121410000D01*
X101910000Y-104120000D02*
X101910000Y-103890000D01*
X101910000Y-103904024D02*
X101910000Y-104120000D01*
X101910000Y-104120000D02*
X101910000Y-104580000D01*
X101910000Y-103890000D02*
X100830000Y-102810000D01*
X100813173Y-97206928D02*
X100813173Y-97206827D01*
X100813173Y-97206827D02*
X101370000Y-96650000D01*
X101370000Y-96650000D02*
X101370000Y-96080000D01*
X101370000Y-96080000D02*
X100760000Y-95470000D01*
X100760000Y-95470000D02*
X100760000Y-94740000D01*
D17*
X110234001Y-122954000D02*
X89716000Y-122954000D01*
X89716000Y-96068757D01*
X89879000Y-96068757D01*
X89879000Y-96311243D01*
X89926307Y-96549069D01*
X90019102Y-96773097D01*
X90153820Y-96974717D01*
X90325283Y-97146180D01*
X90526903Y-97280898D01*
X90750931Y-97373693D01*
X90988757Y-97421000D01*
X91231243Y-97421000D01*
X91469069Y-97373693D01*
X91693097Y-97280898D01*
X91894717Y-97146180D01*
X92066180Y-96974717D01*
X92200898Y-96773097D01*
X92243188Y-96671000D01*
X93450764Y-96671000D01*
X96190447Y-99410683D01*
X96202634Y-99433484D01*
X96256264Y-99498833D01*
X96757431Y-100000000D01*
X96443834Y-100313597D01*
X94536830Y-98406594D01*
X94521764Y-98388236D01*
X94448522Y-98328128D01*
X94364961Y-98283464D01*
X94274292Y-98255960D01*
X94203626Y-98249000D01*
X94180000Y-98246673D01*
X94156374Y-98249000D01*
X92243188Y-98249000D01*
X92200898Y-98146903D01*
X92066180Y-97945283D01*
X91894717Y-97773820D01*
X91693097Y-97639102D01*
X91469069Y-97546307D01*
X91231243Y-97499000D01*
X90988757Y-97499000D01*
X90750931Y-97546307D01*
X90526903Y-97639102D01*
X90325283Y-97773820D01*
X90153820Y-97945283D01*
X90019102Y-98146903D01*
X89926307Y-98370931D01*
X89879000Y-98608757D01*
X89879000Y-98851243D01*
X89926307Y-99089069D01*
X90019102Y-99313097D01*
X90153820Y-99514717D01*
X90325283Y-99686180D01*
X90526903Y-99820898D01*
X90750931Y-99913693D01*
X90988757Y-99961000D01*
X91231243Y-99961000D01*
X91469069Y-99913693D01*
X91693097Y-99820898D01*
X91894717Y-99686180D01*
X92066180Y-99514717D01*
X92200898Y-99313097D01*
X92243188Y-99211000D01*
X93980764Y-99211000D01*
X94538764Y-99769000D01*
X92153626Y-99769000D01*
X92130000Y-99766673D01*
X92035707Y-99775960D01*
X92008203Y-99784304D01*
X91945039Y-99803464D01*
X91861478Y-99848128D01*
X91788236Y-99908236D01*
X91773175Y-99926589D01*
X91571166Y-100128597D01*
X91469069Y-100086307D01*
X91231243Y-100039000D01*
X90988757Y-100039000D01*
X90750931Y-100086307D01*
X90526903Y-100179102D01*
X90325283Y-100313820D01*
X90153820Y-100485283D01*
X90019102Y-100686903D01*
X89926307Y-100910931D01*
X89879000Y-101148757D01*
X89879000Y-101391243D01*
X89926307Y-101629069D01*
X90019102Y-101853097D01*
X90153820Y-102054717D01*
X90325283Y-102226180D01*
X90526903Y-102360898D01*
X90750931Y-102453693D01*
X90988757Y-102501000D01*
X91231243Y-102501000D01*
X91469069Y-102453693D01*
X91693097Y-102360898D01*
X91894717Y-102226180D01*
X92066180Y-102054717D01*
X92200898Y-101853097D01*
X92293693Y-101629069D01*
X92341000Y-101391243D01*
X92341000Y-101148757D01*
X92293693Y-100910931D01*
X92251403Y-100808834D01*
X92329237Y-100731000D01*
X92492484Y-100731000D01*
X92486673Y-100790000D01*
X92489000Y-100813627D01*
X92489001Y-101760762D01*
X91578238Y-102671526D01*
X91469069Y-102626307D01*
X91231243Y-102579000D01*
X90988757Y-102579000D01*
X90750931Y-102626307D01*
X90526903Y-102719102D01*
X90325283Y-102853820D01*
X90153820Y-103025283D01*
X90019102Y-103226903D01*
X89926307Y-103450931D01*
X89879000Y-103688757D01*
X89879000Y-103931243D01*
X89926307Y-104169069D01*
X90019102Y-104393097D01*
X90153820Y-104594717D01*
X90325283Y-104766180D01*
X90526903Y-104900898D01*
X90750931Y-104993693D01*
X90988757Y-105041000D01*
X91231243Y-105041000D01*
X91469069Y-104993693D01*
X91693097Y-104900898D01*
X91894717Y-104766180D01*
X92066180Y-104594717D01*
X92200898Y-104393097D01*
X92293693Y-104169069D01*
X92341000Y-103931243D01*
X92341000Y-103688757D01*
X92293693Y-103450931D01*
X92254332Y-103355905D01*
X92499000Y-103111236D01*
X92499001Y-104280762D01*
X91571167Y-105208597D01*
X91469069Y-105166307D01*
X91231243Y-105119000D01*
X90988757Y-105119000D01*
X90750931Y-105166307D01*
X90526903Y-105259102D01*
X90325283Y-105393820D01*
X90153820Y-105565283D01*
X90019102Y-105766903D01*
X89926307Y-105990931D01*
X89879000Y-106228757D01*
X89879000Y-106471243D01*
X89926307Y-106709069D01*
X90019102Y-106933097D01*
X90153820Y-107134717D01*
X90325283Y-107306180D01*
X90526903Y-107440898D01*
X90750931Y-107533693D01*
X90988757Y-107581000D01*
X91231243Y-107581000D01*
X91469069Y-107533693D01*
X91693097Y-107440898D01*
X91894717Y-107306180D01*
X92066180Y-107134717D01*
X92200898Y-106933097D01*
X92293693Y-106709069D01*
X92341000Y-106471243D01*
X92341000Y-106228757D01*
X92293693Y-105990931D01*
X92251403Y-105888833D01*
X93303412Y-104836825D01*
X93321764Y-104821764D01*
X93381872Y-104748522D01*
X93426536Y-104664961D01*
X93454040Y-104574292D01*
X93461000Y-104503626D01*
X93461000Y-104503625D01*
X93463327Y-104480001D01*
X93461000Y-104456377D01*
X93461000Y-103495000D01*
X94222157Y-103495000D01*
X94229513Y-103569689D01*
X94251299Y-103641508D01*
X94286678Y-103707696D01*
X94334289Y-103765711D01*
X94357793Y-103785000D01*
X94334289Y-103804289D01*
X94286678Y-103862304D01*
X94251299Y-103928492D01*
X94229513Y-104000311D01*
X94222157Y-104075000D01*
X94224000Y-104327750D01*
X94319250Y-104423000D01*
X94928000Y-104423000D01*
X94928000Y-103789250D01*
X94923750Y-103785000D01*
X94928000Y-103780750D01*
X94928000Y-103147000D01*
X94319250Y-103147000D01*
X94224000Y-103242250D01*
X94222157Y-103495000D01*
X93461000Y-103495000D01*
X93461000Y-102709236D01*
X93625236Y-102545000D01*
X94222157Y-102545000D01*
X94224000Y-102797750D01*
X94319250Y-102893000D01*
X94928000Y-102893000D01*
X94928000Y-102259250D01*
X94832750Y-102164000D01*
X94605000Y-102162157D01*
X94530311Y-102169513D01*
X94458492Y-102191299D01*
X94392304Y-102226678D01*
X94334289Y-102274289D01*
X94286678Y-102332304D01*
X94251299Y-102398492D01*
X94229513Y-102470311D01*
X94222157Y-102545000D01*
X93625236Y-102545000D01*
X93713406Y-102456830D01*
X93731764Y-102441764D01*
X93791872Y-102368522D01*
X93814992Y-102325268D01*
X93836536Y-102284962D01*
X93864040Y-102194293D01*
X93873327Y-102100000D01*
X93871000Y-102076374D01*
X93871000Y-101619236D01*
X93939237Y-101551000D01*
X94580764Y-101551000D01*
X95235507Y-102205743D01*
X95182000Y-102259250D01*
X95182000Y-102893000D01*
X95202000Y-102893000D01*
X95202000Y-103147000D01*
X95182000Y-103147000D01*
X95182000Y-103780750D01*
X95186250Y-103785000D01*
X95182000Y-103789250D01*
X95182000Y-104423000D01*
X95202000Y-104423000D01*
X95202000Y-104677000D01*
X95182000Y-104677000D01*
X95182000Y-104697000D01*
X94928000Y-104697000D01*
X94928000Y-104677000D01*
X94319250Y-104677000D01*
X94224000Y-104772250D01*
X94222157Y-105025000D01*
X94229513Y-105099689D01*
X94251299Y-105171508D01*
X94286678Y-105237696D01*
X94332260Y-105293239D01*
X94313358Y-105312141D01*
X94227887Y-105440058D01*
X94169013Y-105582191D01*
X94139000Y-105733078D01*
X94139000Y-105886922D01*
X94169013Y-106037809D01*
X94227887Y-106179942D01*
X94313358Y-106307859D01*
X94322429Y-106316930D01*
X94301478Y-106328128D01*
X94228236Y-106388236D01*
X94213175Y-106406588D01*
X92233691Y-108386073D01*
X92200898Y-108306903D01*
X92066180Y-108105283D01*
X91894717Y-107933820D01*
X91693097Y-107799102D01*
X91469069Y-107706307D01*
X91231243Y-107659000D01*
X90988757Y-107659000D01*
X90750931Y-107706307D01*
X90526903Y-107799102D01*
X90325283Y-107933820D01*
X90153820Y-108105283D01*
X90019102Y-108306903D01*
X89926307Y-108530931D01*
X89879000Y-108768757D01*
X89879000Y-109011243D01*
X89926307Y-109249069D01*
X90019102Y-109473097D01*
X90153820Y-109674717D01*
X90325283Y-109846180D01*
X90526903Y-109980898D01*
X90750931Y-110073693D01*
X90988757Y-110121000D01*
X91231243Y-110121000D01*
X91469069Y-110073693D01*
X91693097Y-109980898D01*
X91894717Y-109846180D01*
X92066180Y-109674717D01*
X92200898Y-109473097D01*
X92243188Y-109371000D01*
X92386374Y-109371000D01*
X92410000Y-109373327D01*
X92433626Y-109371000D01*
X92494787Y-109364976D01*
X91571167Y-110288597D01*
X91469069Y-110246307D01*
X91231243Y-110199000D01*
X90988757Y-110199000D01*
X90750931Y-110246307D01*
X90526903Y-110339102D01*
X90325283Y-110473820D01*
X90153820Y-110645283D01*
X90019102Y-110846903D01*
X89926307Y-111070931D01*
X89879000Y-111308757D01*
X89879000Y-111551243D01*
X89926307Y-111789069D01*
X90019102Y-112013097D01*
X90153820Y-112214717D01*
X90325283Y-112386180D01*
X90526903Y-112520898D01*
X90750931Y-112613693D01*
X90988757Y-112661000D01*
X91231243Y-112661000D01*
X91469069Y-112613693D01*
X91693097Y-112520898D01*
X91894717Y-112386180D01*
X92066180Y-112214717D01*
X92200898Y-112013097D01*
X92293693Y-111789069D01*
X92341000Y-111551243D01*
X92341000Y-111308757D01*
X92293693Y-111070931D01*
X92251403Y-110968833D01*
X92489000Y-110731236D01*
X92489001Y-111900762D01*
X91564095Y-112825668D01*
X91469069Y-112786307D01*
X91231243Y-112739000D01*
X90988757Y-112739000D01*
X90750931Y-112786307D01*
X90526903Y-112879102D01*
X90325283Y-113013820D01*
X90153820Y-113185283D01*
X90019102Y-113386903D01*
X89926307Y-113610931D01*
X89879000Y-113848757D01*
X89879000Y-114091243D01*
X89926307Y-114329069D01*
X90019102Y-114553097D01*
X90153820Y-114754717D01*
X90325283Y-114926180D01*
X90526903Y-115060898D01*
X90750931Y-115153693D01*
X90988757Y-115201000D01*
X91231243Y-115201000D01*
X91469069Y-115153693D01*
X91693097Y-115060898D01*
X91894717Y-114926180D01*
X92066180Y-114754717D01*
X92200898Y-114553097D01*
X92293693Y-114329069D01*
X92341000Y-114091243D01*
X92341000Y-113848757D01*
X92293693Y-113610931D01*
X92248474Y-113501762D01*
X92489000Y-113261236D01*
X92489001Y-114450762D01*
X91571167Y-115368597D01*
X91469069Y-115326307D01*
X91231243Y-115279000D01*
X90988757Y-115279000D01*
X90750931Y-115326307D01*
X90526903Y-115419102D01*
X90325283Y-115553820D01*
X90153820Y-115725283D01*
X90019102Y-115926903D01*
X89926307Y-116150931D01*
X89879000Y-116388757D01*
X89879000Y-116631243D01*
X89926307Y-116869069D01*
X90019102Y-117093097D01*
X90153820Y-117294717D01*
X90325283Y-117466180D01*
X90526903Y-117600898D01*
X90750931Y-117693693D01*
X90988757Y-117741000D01*
X91231243Y-117741000D01*
X91469069Y-117693693D01*
X91693097Y-117600898D01*
X91894717Y-117466180D01*
X92066180Y-117294717D01*
X92200898Y-117093097D01*
X92293693Y-116869069D01*
X92341000Y-116631243D01*
X92341000Y-116388757D01*
X92293693Y-116150931D01*
X92251403Y-116048833D01*
X92489000Y-115811236D01*
X92489001Y-116990762D01*
X91571167Y-117908597D01*
X91469069Y-117866307D01*
X91231243Y-117819000D01*
X90988757Y-117819000D01*
X90750931Y-117866307D01*
X90526903Y-117959102D01*
X90325283Y-118093820D01*
X90153820Y-118265283D01*
X90019102Y-118466903D01*
X89926307Y-118690931D01*
X89879000Y-118928757D01*
X89879000Y-119171243D01*
X89926307Y-119409069D01*
X90019102Y-119633097D01*
X90153820Y-119834717D01*
X90325283Y-120006180D01*
X90526903Y-120140898D01*
X90750931Y-120233693D01*
X90988757Y-120281000D01*
X91231243Y-120281000D01*
X91469069Y-120233693D01*
X91693097Y-120140898D01*
X91894717Y-120006180D01*
X92066180Y-119834717D01*
X92200898Y-119633097D01*
X92293693Y-119409069D01*
X92341000Y-119171243D01*
X92341000Y-118928757D01*
X92293693Y-118690931D01*
X92251403Y-118588833D01*
X92499000Y-118341236D01*
X92499001Y-119520762D01*
X91571167Y-120448597D01*
X91469069Y-120406307D01*
X91231243Y-120359000D01*
X90988757Y-120359000D01*
X90750931Y-120406307D01*
X90526903Y-120499102D01*
X90325283Y-120633820D01*
X90153820Y-120805283D01*
X90019102Y-121006903D01*
X89926307Y-121230931D01*
X89879000Y-121468757D01*
X89879000Y-121711243D01*
X89926307Y-121949069D01*
X90019102Y-122173097D01*
X90153820Y-122374717D01*
X90325283Y-122546180D01*
X90526903Y-122680898D01*
X90750931Y-122773693D01*
X90988757Y-122821000D01*
X91231243Y-122821000D01*
X91469069Y-122773693D01*
X91693097Y-122680898D01*
X91894717Y-122546180D01*
X92066180Y-122374717D01*
X92200898Y-122173097D01*
X92293693Y-121949069D01*
X92341000Y-121711243D01*
X92341000Y-121468757D01*
X92293693Y-121230931D01*
X92251403Y-121128833D01*
X93303412Y-120076825D01*
X93321764Y-120061764D01*
X93381872Y-119988522D01*
X93426536Y-119904961D01*
X93454040Y-119814292D01*
X93461000Y-119743626D01*
X93461000Y-119743625D01*
X93463327Y-119720001D01*
X93461000Y-119696377D01*
X93461000Y-117949236D01*
X93693411Y-117716826D01*
X93711764Y-117701764D01*
X93771872Y-117628522D01*
X93816536Y-117544961D01*
X93844040Y-117454292D01*
X93851000Y-117383626D01*
X93851000Y-117383625D01*
X93853327Y-117360001D01*
X93851000Y-117336377D01*
X93851000Y-115589236D01*
X94093411Y-115346826D01*
X94111764Y-115331764D01*
X94171872Y-115258522D01*
X94216536Y-115174961D01*
X94244040Y-115084292D01*
X94251000Y-115013626D01*
X94251000Y-115013617D01*
X94253326Y-114990001D01*
X94251000Y-114966385D01*
X94251000Y-113179236D01*
X94493411Y-112936826D01*
X94511764Y-112921764D01*
X94571872Y-112848522D01*
X94616536Y-112764961D01*
X94644040Y-112674292D01*
X94651000Y-112603626D01*
X94651000Y-112603617D01*
X94653326Y-112580001D01*
X94651000Y-112556385D01*
X94651000Y-110809236D01*
X94893411Y-110566826D01*
X94911764Y-110551764D01*
X94971872Y-110478522D01*
X95016536Y-110394961D01*
X95044040Y-110304292D01*
X95051000Y-110233626D01*
X95051000Y-110233617D01*
X95053326Y-110210001D01*
X95051000Y-110186385D01*
X95051000Y-109739236D01*
X95569237Y-109221000D01*
X96956374Y-109221000D01*
X96980000Y-109223327D01*
X97003626Y-109221000D01*
X97074292Y-109214040D01*
X97164961Y-109186536D01*
X97248522Y-109141872D01*
X97321764Y-109081764D01*
X97336830Y-109063406D01*
X99773412Y-106626825D01*
X99791764Y-106611764D01*
X99851872Y-106538522D01*
X99896536Y-106454961D01*
X99924040Y-106364292D01*
X99931000Y-106293626D01*
X99931000Y-106293617D01*
X99933326Y-106270001D01*
X99931000Y-106246385D01*
X99931000Y-105299236D01*
X101243412Y-103986825D01*
X101261764Y-103971764D01*
X101284195Y-103944432D01*
X101429000Y-104089237D01*
X101429000Y-104096375D01*
X101429001Y-104380763D01*
X101116594Y-104693170D01*
X101098236Y-104708236D01*
X101038128Y-104781478D01*
X100993464Y-104865040D01*
X100974768Y-104926673D01*
X100965960Y-104955708D01*
X100956673Y-105050000D01*
X100959000Y-105073626D01*
X100959001Y-108726364D01*
X100956673Y-108750000D01*
X100965960Y-108844292D01*
X100990432Y-108924962D01*
X100993465Y-108934961D01*
X101038129Y-109018522D01*
X101098237Y-109091764D01*
X101116589Y-109106825D01*
X101339000Y-109329237D01*
X101339001Y-111036364D01*
X101336673Y-111060000D01*
X101345960Y-111154292D01*
X101360861Y-111203412D01*
X101373465Y-111244961D01*
X101418129Y-111328522D01*
X101478237Y-111401764D01*
X101496589Y-111416825D01*
X101749000Y-111669236D01*
X101749001Y-113416364D01*
X101746673Y-113440000D01*
X101755960Y-113534292D01*
X101779209Y-113610931D01*
X101783465Y-113624961D01*
X101828129Y-113708522D01*
X101888237Y-113781764D01*
X101906589Y-113796825D01*
X102149000Y-114039237D01*
X102149001Y-115756364D01*
X102146673Y-115780000D01*
X102155960Y-115874292D01*
X102183465Y-115964961D01*
X102228129Y-116048522D01*
X102288237Y-116121764D01*
X102306589Y-116136825D01*
X102549000Y-116379237D01*
X102549001Y-118176364D01*
X102546673Y-118200000D01*
X102555960Y-118294292D01*
X102575232Y-118357820D01*
X102583465Y-118384961D01*
X102628129Y-118468522D01*
X102688237Y-118541764D01*
X102706589Y-118556825D01*
X102969000Y-118819237D01*
X102969001Y-120506364D01*
X102966673Y-120530000D01*
X102975960Y-120624292D01*
X102996655Y-120692512D01*
X103003465Y-120714961D01*
X103048129Y-120798522D01*
X103108237Y-120871764D01*
X103126589Y-120886825D01*
X103442157Y-121202393D01*
X103442157Y-122040002D01*
X103454317Y-122163463D01*
X103490329Y-122282180D01*
X103548810Y-122391590D01*
X103627512Y-122487488D01*
X103723410Y-122566190D01*
X103832820Y-122624671D01*
X103951537Y-122660683D01*
X104074998Y-122672843D01*
X104600002Y-122672843D01*
X104723463Y-122660683D01*
X104842180Y-122624671D01*
X104951590Y-122566190D01*
X105047488Y-122487488D01*
X105126190Y-122391590D01*
X105184671Y-122282180D01*
X105220683Y-122163463D01*
X105232843Y-122040002D01*
X105232843Y-121139998D01*
X105267157Y-121139998D01*
X105267157Y-122040002D01*
X105279317Y-122163463D01*
X105315329Y-122282180D01*
X105373810Y-122391590D01*
X105452512Y-122487488D01*
X105548410Y-122566190D01*
X105657820Y-122624671D01*
X105776537Y-122660683D01*
X105899998Y-122672843D01*
X106425002Y-122672843D01*
X106548463Y-122660683D01*
X106667180Y-122624671D01*
X106776590Y-122566190D01*
X106872488Y-122487488D01*
X106951190Y-122391590D01*
X107009671Y-122282180D01*
X107045683Y-122163463D01*
X107054790Y-122071000D01*
X107756812Y-122071000D01*
X107799102Y-122173097D01*
X107933820Y-122374717D01*
X108105283Y-122546180D01*
X108306903Y-122680898D01*
X108530931Y-122773693D01*
X108768757Y-122821000D01*
X109011243Y-122821000D01*
X109249069Y-122773693D01*
X109473097Y-122680898D01*
X109674717Y-122546180D01*
X109846180Y-122374717D01*
X109980898Y-122173097D01*
X110073693Y-121949069D01*
X110121000Y-121711243D01*
X110121000Y-121468757D01*
X110073693Y-121230931D01*
X109980898Y-121006903D01*
X109846180Y-120805283D01*
X109674717Y-120633820D01*
X109473097Y-120499102D01*
X109249069Y-120406307D01*
X109011243Y-120359000D01*
X108768757Y-120359000D01*
X108530931Y-120406307D01*
X108306903Y-120499102D01*
X108105283Y-120633820D01*
X107933820Y-120805283D01*
X107799102Y-121006903D01*
X107756812Y-121109000D01*
X107054790Y-121109000D01*
X107045683Y-121016537D01*
X107009671Y-120897820D01*
X106951190Y-120788410D01*
X106872488Y-120692512D01*
X106776590Y-120613810D01*
X106667180Y-120555329D01*
X106548463Y-120519317D01*
X106425002Y-120507157D01*
X105899998Y-120507157D01*
X105776537Y-120519317D01*
X105657820Y-120555329D01*
X105548410Y-120613810D01*
X105452512Y-120692512D01*
X105373810Y-120788410D01*
X105315329Y-120897820D01*
X105279317Y-121016537D01*
X105267157Y-121139998D01*
X105232843Y-121139998D01*
X105220683Y-121016537D01*
X105184671Y-120897820D01*
X105126190Y-120788410D01*
X105047488Y-120692512D01*
X104951590Y-120613810D01*
X104842180Y-120555329D01*
X104723463Y-120519317D01*
X104600002Y-120507157D01*
X104107393Y-120507157D01*
X103931000Y-120330764D01*
X103931000Y-120114453D01*
X103951537Y-120120683D01*
X104074998Y-120132843D01*
X104600002Y-120132843D01*
X104723463Y-120120683D01*
X104842180Y-120084671D01*
X104951590Y-120026190D01*
X105047488Y-119947488D01*
X105126190Y-119851590D01*
X105184671Y-119742180D01*
X105220683Y-119623463D01*
X105232843Y-119500002D01*
X105232843Y-118599998D01*
X105267157Y-118599998D01*
X105267157Y-119500002D01*
X105279317Y-119623463D01*
X105315329Y-119742180D01*
X105373810Y-119851590D01*
X105452512Y-119947488D01*
X105548410Y-120026190D01*
X105657820Y-120084671D01*
X105776537Y-120120683D01*
X105899998Y-120132843D01*
X106425002Y-120132843D01*
X106548463Y-120120683D01*
X106667180Y-120084671D01*
X106776590Y-120026190D01*
X106872488Y-119947488D01*
X106951190Y-119851590D01*
X107009671Y-119742180D01*
X107045683Y-119623463D01*
X107054790Y-119531000D01*
X107756812Y-119531000D01*
X107799102Y-119633097D01*
X107933820Y-119834717D01*
X108105283Y-120006180D01*
X108306903Y-120140898D01*
X108530931Y-120233693D01*
X108768757Y-120281000D01*
X109011243Y-120281000D01*
X109249069Y-120233693D01*
X109473097Y-120140898D01*
X109674717Y-120006180D01*
X109846180Y-119834717D01*
X109980898Y-119633097D01*
X110073693Y-119409069D01*
X110121000Y-119171243D01*
X110121000Y-118928757D01*
X110073693Y-118690931D01*
X109980898Y-118466903D01*
X109846180Y-118265283D01*
X109674717Y-118093820D01*
X109473097Y-117959102D01*
X109249069Y-117866307D01*
X109011243Y-117819000D01*
X108768757Y-117819000D01*
X108530931Y-117866307D01*
X108306903Y-117959102D01*
X108105283Y-118093820D01*
X107933820Y-118265283D01*
X107799102Y-118466903D01*
X107756812Y-118569000D01*
X107054790Y-118569000D01*
X107045683Y-118476537D01*
X107009671Y-118357820D01*
X106951190Y-118248410D01*
X106872488Y-118152512D01*
X106776590Y-118073810D01*
X106667180Y-118015329D01*
X106548463Y-117979317D01*
X106425002Y-117967157D01*
X105899998Y-117967157D01*
X105776537Y-117979317D01*
X105657820Y-118015329D01*
X105548410Y-118073810D01*
X105452512Y-118152512D01*
X105373810Y-118248410D01*
X105315329Y-118357820D01*
X105279317Y-118476537D01*
X105267157Y-118599998D01*
X105232843Y-118599998D01*
X105220683Y-118476537D01*
X105184671Y-118357820D01*
X105126190Y-118248410D01*
X105047488Y-118152512D01*
X104951590Y-118073810D01*
X104842180Y-118015329D01*
X104723463Y-117979317D01*
X104600002Y-117967157D01*
X104074998Y-117967157D01*
X104068075Y-117967839D01*
X103931000Y-117830764D01*
X103931000Y-117574453D01*
X103951537Y-117580683D01*
X104074998Y-117592843D01*
X104600002Y-117592843D01*
X104723463Y-117580683D01*
X104842180Y-117544671D01*
X104951590Y-117486190D01*
X105047488Y-117407488D01*
X105126190Y-117311590D01*
X105184671Y-117202180D01*
X105220683Y-117083463D01*
X105232843Y-116960002D01*
X105232843Y-116059998D01*
X105267157Y-116059998D01*
X105267157Y-116960002D01*
X105279317Y-117083463D01*
X105315329Y-117202180D01*
X105373810Y-117311590D01*
X105452512Y-117407488D01*
X105548410Y-117486190D01*
X105657820Y-117544671D01*
X105776537Y-117580683D01*
X105899998Y-117592843D01*
X106425002Y-117592843D01*
X106548463Y-117580683D01*
X106667180Y-117544671D01*
X106776590Y-117486190D01*
X106872488Y-117407488D01*
X106951190Y-117311590D01*
X107009671Y-117202180D01*
X107045683Y-117083463D01*
X107054790Y-116991000D01*
X107756812Y-116991000D01*
X107799102Y-117093097D01*
X107933820Y-117294717D01*
X108105283Y-117466180D01*
X108306903Y-117600898D01*
X108530931Y-117693693D01*
X108768757Y-117741000D01*
X109011243Y-117741000D01*
X109249069Y-117693693D01*
X109473097Y-117600898D01*
X109674717Y-117466180D01*
X109846180Y-117294717D01*
X109980898Y-117093097D01*
X110073693Y-116869069D01*
X110121000Y-116631243D01*
X110121000Y-116388757D01*
X110073693Y-116150931D01*
X109980898Y-115926903D01*
X109846180Y-115725283D01*
X109674717Y-115553820D01*
X109473097Y-115419102D01*
X109249069Y-115326307D01*
X109011243Y-115279000D01*
X108768757Y-115279000D01*
X108530931Y-115326307D01*
X108306903Y-115419102D01*
X108105283Y-115553820D01*
X107933820Y-115725283D01*
X107799102Y-115926903D01*
X107756812Y-116029000D01*
X107054790Y-116029000D01*
X107045683Y-115936537D01*
X107009671Y-115817820D01*
X106951190Y-115708410D01*
X106872488Y-115612512D01*
X106776590Y-115533810D01*
X106667180Y-115475329D01*
X106548463Y-115439317D01*
X106425002Y-115427157D01*
X105899998Y-115427157D01*
X105776537Y-115439317D01*
X105657820Y-115475329D01*
X105548410Y-115533810D01*
X105452512Y-115612512D01*
X105373810Y-115708410D01*
X105315329Y-115817820D01*
X105279317Y-115936537D01*
X105267157Y-116059998D01*
X105232843Y-116059998D01*
X105220683Y-115936537D01*
X105184671Y-115817820D01*
X105126190Y-115708410D01*
X105047488Y-115612512D01*
X104951590Y-115533810D01*
X104842180Y-115475329D01*
X104723463Y-115439317D01*
X104600002Y-115427157D01*
X104137393Y-115427157D01*
X103931000Y-115220764D01*
X103931000Y-115034453D01*
X103951537Y-115040683D01*
X104074998Y-115052843D01*
X104600002Y-115052843D01*
X104723463Y-115040683D01*
X104842180Y-115004671D01*
X104951590Y-114946190D01*
X105047488Y-114867488D01*
X105126190Y-114771590D01*
X105184671Y-114662180D01*
X105220683Y-114543463D01*
X105232843Y-114420002D01*
X105232843Y-113519998D01*
X105267157Y-113519998D01*
X105267157Y-114420002D01*
X105279317Y-114543463D01*
X105315329Y-114662180D01*
X105373810Y-114771590D01*
X105452512Y-114867488D01*
X105548410Y-114946190D01*
X105657820Y-115004671D01*
X105776537Y-115040683D01*
X105899998Y-115052843D01*
X106425002Y-115052843D01*
X106548463Y-115040683D01*
X106667180Y-115004671D01*
X106776590Y-114946190D01*
X106872488Y-114867488D01*
X106951190Y-114771590D01*
X107009671Y-114662180D01*
X107045683Y-114543463D01*
X107054790Y-114451000D01*
X107756812Y-114451000D01*
X107799102Y-114553097D01*
X107933820Y-114754717D01*
X108105283Y-114926180D01*
X108306903Y-115060898D01*
X108530931Y-115153693D01*
X108768757Y-115201000D01*
X109011243Y-115201000D01*
X109249069Y-115153693D01*
X109473097Y-115060898D01*
X109674717Y-114926180D01*
X109846180Y-114754717D01*
X109980898Y-114553097D01*
X110073693Y-114329069D01*
X110121000Y-114091243D01*
X110121000Y-113848757D01*
X110073693Y-113610931D01*
X109980898Y-113386903D01*
X109846180Y-113185283D01*
X109674717Y-113013820D01*
X109473097Y-112879102D01*
X109249069Y-112786307D01*
X109011243Y-112739000D01*
X108768757Y-112739000D01*
X108530931Y-112786307D01*
X108306903Y-112879102D01*
X108105283Y-113013820D01*
X107933820Y-113185283D01*
X107799102Y-113386903D01*
X107756812Y-113489000D01*
X107054790Y-113489000D01*
X107045683Y-113396537D01*
X107009671Y-113277820D01*
X106951190Y-113168410D01*
X106872488Y-113072512D01*
X106776590Y-112993810D01*
X106667180Y-112935329D01*
X106548463Y-112899317D01*
X106425002Y-112887157D01*
X105899998Y-112887157D01*
X105776537Y-112899317D01*
X105657820Y-112935329D01*
X105548410Y-112993810D01*
X105452512Y-113072512D01*
X105373810Y-113168410D01*
X105315329Y-113277820D01*
X105279317Y-113396537D01*
X105267157Y-113519998D01*
X105232843Y-113519998D01*
X105220683Y-113396537D01*
X105184671Y-113277820D01*
X105126190Y-113168410D01*
X105047488Y-113072512D01*
X104951590Y-112993810D01*
X104842180Y-112935329D01*
X104723463Y-112899317D01*
X104600002Y-112887157D01*
X104077393Y-112887157D01*
X103931000Y-112740764D01*
X103931000Y-112494453D01*
X103951537Y-112500683D01*
X104074998Y-112512843D01*
X104600002Y-112512843D01*
X104723463Y-112500683D01*
X104842180Y-112464671D01*
X104951590Y-112406190D01*
X105047488Y-112327488D01*
X105126190Y-112231590D01*
X105184671Y-112122180D01*
X105220683Y-112003463D01*
X105232843Y-111880002D01*
X105232843Y-110979998D01*
X105267157Y-110979998D01*
X105267157Y-111880002D01*
X105279317Y-112003463D01*
X105315329Y-112122180D01*
X105373810Y-112231590D01*
X105452512Y-112327488D01*
X105548410Y-112406190D01*
X105657820Y-112464671D01*
X105776537Y-112500683D01*
X105899998Y-112512843D01*
X106425002Y-112512843D01*
X106548463Y-112500683D01*
X106667180Y-112464671D01*
X106776590Y-112406190D01*
X106872488Y-112327488D01*
X106951190Y-112231590D01*
X107009671Y-112122180D01*
X107045683Y-112003463D01*
X107054790Y-111911000D01*
X107756812Y-111911000D01*
X107799102Y-112013097D01*
X107933820Y-112214717D01*
X108105283Y-112386180D01*
X108306903Y-112520898D01*
X108530931Y-112613693D01*
X108768757Y-112661000D01*
X109011243Y-112661000D01*
X109249069Y-112613693D01*
X109473097Y-112520898D01*
X109674717Y-112386180D01*
X109846180Y-112214717D01*
X109980898Y-112013097D01*
X110073693Y-111789069D01*
X110121000Y-111551243D01*
X110121000Y-111308757D01*
X110073693Y-111070931D01*
X109980898Y-110846903D01*
X109846180Y-110645283D01*
X109674717Y-110473820D01*
X109473097Y-110339102D01*
X109249069Y-110246307D01*
X109011243Y-110199000D01*
X108768757Y-110199000D01*
X108530931Y-110246307D01*
X108306903Y-110339102D01*
X108105283Y-110473820D01*
X107933820Y-110645283D01*
X107799102Y-110846903D01*
X107756812Y-110949000D01*
X107054790Y-110949000D01*
X107045683Y-110856537D01*
X107009671Y-110737820D01*
X106951190Y-110628410D01*
X106872488Y-110532512D01*
X106776590Y-110453810D01*
X106667180Y-110395329D01*
X106548463Y-110359317D01*
X106425002Y-110347157D01*
X105899998Y-110347157D01*
X105776537Y-110359317D01*
X105657820Y-110395329D01*
X105548410Y-110453810D01*
X105452512Y-110532512D01*
X105373810Y-110628410D01*
X105315329Y-110737820D01*
X105279317Y-110856537D01*
X105267157Y-110979998D01*
X105232843Y-110979998D01*
X105220683Y-110856537D01*
X105184671Y-110737820D01*
X105126190Y-110628410D01*
X105047488Y-110532512D01*
X104951590Y-110453810D01*
X104842180Y-110395329D01*
X104723463Y-110359317D01*
X104600002Y-110347157D01*
X104107393Y-110347157D01*
X103931000Y-110170764D01*
X103931000Y-109964453D01*
X103951537Y-109970683D01*
X104074998Y-109982843D01*
X104600002Y-109982843D01*
X104723463Y-109970683D01*
X104842180Y-109934671D01*
X104951590Y-109876190D01*
X105047488Y-109797488D01*
X105126190Y-109701590D01*
X105184671Y-109592180D01*
X105220683Y-109473463D01*
X105232843Y-109350002D01*
X105232843Y-108449998D01*
X105220683Y-108326537D01*
X105184671Y-108207820D01*
X105126190Y-108098410D01*
X105047488Y-108002512D01*
X104951590Y-107923810D01*
X104935108Y-107915000D01*
X104951590Y-107906190D01*
X105047488Y-107827488D01*
X105126190Y-107731590D01*
X105184671Y-107622180D01*
X105220683Y-107503463D01*
X105232843Y-107380002D01*
X105232843Y-106479998D01*
X105220683Y-106356537D01*
X105184671Y-106237820D01*
X105126190Y-106128410D01*
X105047488Y-106032512D01*
X104951590Y-105953810D01*
X104842180Y-105895329D01*
X104818500Y-105888146D01*
X104818500Y-104879998D01*
X104897157Y-104879998D01*
X104897157Y-105405002D01*
X104909317Y-105528463D01*
X104945329Y-105647180D01*
X105003810Y-105756590D01*
X105082512Y-105852488D01*
X105178410Y-105931190D01*
X105287820Y-105989671D01*
X105406537Y-106025683D01*
X105455015Y-106030458D01*
X105452512Y-106032512D01*
X105373810Y-106128410D01*
X105315329Y-106237820D01*
X105279317Y-106356537D01*
X105267157Y-106479998D01*
X105267157Y-107380002D01*
X105279317Y-107503463D01*
X105315329Y-107622180D01*
X105373810Y-107731590D01*
X105452512Y-107827488D01*
X105548410Y-107906190D01*
X105564892Y-107915000D01*
X105548410Y-107923810D01*
X105452512Y-108002512D01*
X105373810Y-108098410D01*
X105315329Y-108207820D01*
X105279317Y-108326537D01*
X105267157Y-108449998D01*
X105267157Y-109350002D01*
X105279317Y-109473463D01*
X105315329Y-109592180D01*
X105373810Y-109701590D01*
X105452512Y-109797488D01*
X105548410Y-109876190D01*
X105657820Y-109934671D01*
X105776537Y-109970683D01*
X105899998Y-109982843D01*
X106425002Y-109982843D01*
X106548463Y-109970683D01*
X106667180Y-109934671D01*
X106776590Y-109876190D01*
X106872488Y-109797488D01*
X106951190Y-109701590D01*
X107009671Y-109592180D01*
X107045683Y-109473463D01*
X107055775Y-109371000D01*
X107756812Y-109371000D01*
X107799102Y-109473097D01*
X107933820Y-109674717D01*
X108105283Y-109846180D01*
X108306903Y-109980898D01*
X108530931Y-110073693D01*
X108768757Y-110121000D01*
X109011243Y-110121000D01*
X109249069Y-110073693D01*
X109473097Y-109980898D01*
X109674717Y-109846180D01*
X109846180Y-109674717D01*
X109980898Y-109473097D01*
X110073693Y-109249069D01*
X110121000Y-109011243D01*
X110121000Y-108768757D01*
X110073693Y-108530931D01*
X109980898Y-108306903D01*
X109846180Y-108105283D01*
X109674717Y-107933820D01*
X109473097Y-107799102D01*
X109249069Y-107706307D01*
X109011243Y-107659000D01*
X108768757Y-107659000D01*
X108530931Y-107706307D01*
X108306903Y-107799102D01*
X108105283Y-107933820D01*
X107933820Y-108105283D01*
X107799102Y-108306903D01*
X107756812Y-108409000D01*
X107053805Y-108409000D01*
X107045683Y-108326537D01*
X107009671Y-108207820D01*
X106951190Y-108098410D01*
X106872488Y-108002512D01*
X106776590Y-107923810D01*
X106760108Y-107915000D01*
X106776590Y-107906190D01*
X106872488Y-107827488D01*
X106951190Y-107731590D01*
X106978231Y-107681000D01*
X108016374Y-107681000D01*
X108040000Y-107683327D01*
X108063626Y-107681000D01*
X108134292Y-107674040D01*
X108224961Y-107646536D01*
X108308522Y-107601872D01*
X108381764Y-107541764D01*
X108396830Y-107523406D01*
X108428833Y-107491403D01*
X108530931Y-107533693D01*
X108768757Y-107581000D01*
X109011243Y-107581000D01*
X109249069Y-107533693D01*
X109473097Y-107440898D01*
X109674717Y-107306180D01*
X109846180Y-107134717D01*
X109980898Y-106933097D01*
X110073693Y-106709069D01*
X110121000Y-106471243D01*
X110121000Y-106228757D01*
X110073693Y-105990931D01*
X109980898Y-105766903D01*
X109846180Y-105565283D01*
X109674717Y-105393820D01*
X109473097Y-105259102D01*
X109249069Y-105166307D01*
X109011243Y-105119000D01*
X108768757Y-105119000D01*
X108530931Y-105166307D01*
X108306903Y-105259102D01*
X108105283Y-105393820D01*
X107933820Y-105565283D01*
X107799102Y-105766903D01*
X107706307Y-105990931D01*
X107659000Y-106228757D01*
X107659000Y-106471243D01*
X107706307Y-106709069D01*
X107710421Y-106719000D01*
X107057843Y-106719000D01*
X107057843Y-106479998D01*
X107045683Y-106356537D01*
X107009671Y-106237820D01*
X106951190Y-106128410D01*
X106872488Y-106032512D01*
X106776590Y-105953810D01*
X106757931Y-105943836D01*
X106781590Y-105931190D01*
X106877488Y-105852488D01*
X106956190Y-105756590D01*
X107014671Y-105647180D01*
X107022613Y-105621000D01*
X107536374Y-105621000D01*
X107560000Y-105623327D01*
X107583626Y-105621000D01*
X107654292Y-105614040D01*
X107744961Y-105586536D01*
X107828522Y-105541872D01*
X107901764Y-105481764D01*
X107916830Y-105463406D01*
X108428833Y-104951403D01*
X108530931Y-104993693D01*
X108768757Y-105041000D01*
X109011243Y-105041000D01*
X109249069Y-104993693D01*
X109473097Y-104900898D01*
X109674717Y-104766180D01*
X109846180Y-104594717D01*
X109980898Y-104393097D01*
X110073693Y-104169069D01*
X110121000Y-103931243D01*
X110121000Y-103688757D01*
X110073693Y-103450931D01*
X109980898Y-103226903D01*
X109846180Y-103025283D01*
X109674717Y-102853820D01*
X109473097Y-102719102D01*
X109249069Y-102626307D01*
X109011243Y-102579000D01*
X108768757Y-102579000D01*
X108530931Y-102626307D01*
X108306903Y-102719102D01*
X108105283Y-102853820D01*
X107933820Y-103025283D01*
X107799102Y-103226903D01*
X107706307Y-103450931D01*
X107659000Y-103688757D01*
X107659000Y-103931243D01*
X107706307Y-104169069D01*
X107748597Y-104271167D01*
X107360764Y-104659000D01*
X107021096Y-104659000D01*
X107014671Y-104637820D01*
X106956190Y-104528410D01*
X106877488Y-104432512D01*
X106781590Y-104353810D01*
X106672180Y-104295329D01*
X106553463Y-104259317D01*
X106430002Y-104247157D01*
X105529998Y-104247157D01*
X105406537Y-104259317D01*
X105287820Y-104295329D01*
X105178410Y-104353810D01*
X105082512Y-104432512D01*
X105003810Y-104528410D01*
X104945329Y-104637820D01*
X104909317Y-104756537D01*
X104897157Y-104879998D01*
X104818500Y-104879998D01*
X104818500Y-102948736D01*
X104899632Y-103029868D01*
X104897157Y-103054998D01*
X104897157Y-103580002D01*
X104909317Y-103703463D01*
X104945329Y-103822180D01*
X105003810Y-103931590D01*
X105082512Y-104027488D01*
X105178410Y-104106190D01*
X105287820Y-104164671D01*
X105406537Y-104200683D01*
X105529998Y-104212843D01*
X106430002Y-104212843D01*
X106553463Y-104200683D01*
X106672180Y-104164671D01*
X106781590Y-104106190D01*
X106877488Y-104027488D01*
X106956190Y-103931590D01*
X107014671Y-103822180D01*
X107050683Y-103703463D01*
X107062843Y-103580002D01*
X107062843Y-103054998D01*
X107050683Y-102931537D01*
X107014671Y-102812820D01*
X106956190Y-102703410D01*
X106877488Y-102607512D01*
X106781590Y-102528810D01*
X106746399Y-102510000D01*
X106753883Y-102506000D01*
X108111374Y-102506000D01*
X108135000Y-102508327D01*
X108158626Y-102506000D01*
X108229292Y-102499040D01*
X108319961Y-102471536D01*
X108403522Y-102426872D01*
X108424539Y-102409624D01*
X108530931Y-102453693D01*
X108768757Y-102501000D01*
X109011243Y-102501000D01*
X109249069Y-102453693D01*
X109473097Y-102360898D01*
X109674717Y-102226180D01*
X109846180Y-102054717D01*
X109980898Y-101853097D01*
X110073693Y-101629069D01*
X110121000Y-101391243D01*
X110121000Y-101148757D01*
X110073693Y-100910931D01*
X109980898Y-100686903D01*
X109846180Y-100485283D01*
X109674717Y-100313820D01*
X109473097Y-100179102D01*
X109249069Y-100086307D01*
X109011243Y-100039000D01*
X108768757Y-100039000D01*
X108530931Y-100086307D01*
X108306903Y-100179102D01*
X108105283Y-100313820D01*
X107933820Y-100485283D01*
X107799102Y-100686903D01*
X107706307Y-100910931D01*
X107659000Y-101148757D01*
X107659000Y-101391243D01*
X107689386Y-101544000D01*
X107062843Y-101544000D01*
X107062843Y-101439998D01*
X107050683Y-101316537D01*
X107014671Y-101197820D01*
X106956190Y-101088410D01*
X106877488Y-100992512D01*
X106781590Y-100913810D01*
X106672180Y-100855329D01*
X106553463Y-100819317D01*
X106430002Y-100807157D01*
X105529998Y-100807157D01*
X105406537Y-100819317D01*
X105287820Y-100855329D01*
X105178410Y-100913810D01*
X105082512Y-100992512D01*
X105003810Y-101088410D01*
X104945329Y-101197820D01*
X104909317Y-101316537D01*
X104897157Y-101439998D01*
X104897157Y-101666920D01*
X103798071Y-100567835D01*
X103797366Y-100566516D01*
X103743736Y-100501167D01*
X103242569Y-100000000D01*
X103561166Y-99681403D01*
X104083175Y-100203411D01*
X104098236Y-100221764D01*
X104171478Y-100281872D01*
X104208922Y-100301886D01*
X104255038Y-100326536D01*
X104345707Y-100354040D01*
X104440000Y-100363327D01*
X104463626Y-100361000D01*
X104938904Y-100361000D01*
X104945329Y-100382180D01*
X105003810Y-100491590D01*
X105082512Y-100587488D01*
X105178410Y-100666190D01*
X105287820Y-100724671D01*
X105406537Y-100760683D01*
X105529998Y-100772843D01*
X106430002Y-100772843D01*
X106553463Y-100760683D01*
X106672180Y-100724671D01*
X106781590Y-100666190D01*
X106877488Y-100587488D01*
X106956190Y-100491590D01*
X107014671Y-100382180D01*
X107050683Y-100263463D01*
X107062843Y-100140002D01*
X107062843Y-99614998D01*
X107050683Y-99491537D01*
X107014671Y-99372820D01*
X107008353Y-99361000D01*
X107831110Y-99361000D01*
X107933820Y-99514717D01*
X108105283Y-99686180D01*
X108306903Y-99820898D01*
X108530931Y-99913693D01*
X108768757Y-99961000D01*
X109011243Y-99961000D01*
X109249069Y-99913693D01*
X109473097Y-99820898D01*
X109674717Y-99686180D01*
X109846180Y-99514717D01*
X109980898Y-99313097D01*
X110073693Y-99089069D01*
X110121000Y-98851243D01*
X110121000Y-98608757D01*
X110073693Y-98370931D01*
X109980898Y-98146903D01*
X109846180Y-97945283D01*
X109674717Y-97773820D01*
X109473097Y-97639102D01*
X109249069Y-97546307D01*
X109011243Y-97499000D01*
X108768757Y-97499000D01*
X108530931Y-97546307D01*
X108306903Y-97639102D01*
X108105283Y-97773820D01*
X107933820Y-97945283D01*
X107831110Y-98099000D01*
X107007843Y-98099000D01*
X107007843Y-98090000D01*
X106996163Y-97971416D01*
X106961574Y-97857389D01*
X106905403Y-97752301D01*
X106829810Y-97660190D01*
X106737699Y-97584597D01*
X106730967Y-97580999D01*
X106771508Y-97568701D01*
X106837696Y-97533322D01*
X106895711Y-97485711D01*
X106943322Y-97427696D01*
X106978701Y-97361508D01*
X107000487Y-97289689D01*
X107007843Y-97215000D01*
X107006000Y-96987250D01*
X106910750Y-96892000D01*
X106277000Y-96892000D01*
X106277000Y-96912000D01*
X106023000Y-96912000D01*
X106023000Y-96892000D01*
X105390750Y-96892000D01*
X105380750Y-96882000D01*
X104747000Y-96882000D01*
X104747000Y-96902000D01*
X104493000Y-96902000D01*
X104493000Y-96882000D01*
X104473000Y-96882000D01*
X104473000Y-96628000D01*
X104493000Y-96628000D01*
X104493000Y-96608000D01*
X104747000Y-96608000D01*
X104747000Y-96628000D01*
X105379250Y-96628000D01*
X105389250Y-96638000D01*
X106023000Y-96638000D01*
X106023000Y-96618000D01*
X106277000Y-96618000D01*
X106277000Y-96638000D01*
X106910750Y-96638000D01*
X107006000Y-96542750D01*
X107006289Y-96506980D01*
X107700511Y-96506980D01*
X107724866Y-96587288D01*
X107824761Y-96806961D01*
X107965592Y-97002924D01*
X108141948Y-97167647D01*
X108347051Y-97294799D01*
X108573019Y-97379495D01*
X108763000Y-97319187D01*
X108763000Y-96317000D01*
X109017000Y-96317000D01*
X109017000Y-97319187D01*
X109206981Y-97379495D01*
X109432949Y-97294799D01*
X109638052Y-97167647D01*
X109814408Y-97002924D01*
X109955239Y-96806961D01*
X110055134Y-96587288D01*
X110079489Y-96506980D01*
X110018627Y-96317000D01*
X109017000Y-96317000D01*
X108763000Y-96317000D01*
X107761373Y-96317000D01*
X107700511Y-96506980D01*
X107006289Y-96506980D01*
X107007843Y-96315000D01*
X107000487Y-96240311D01*
X106981463Y-96177597D01*
X106984961Y-96176536D01*
X107068522Y-96131872D01*
X107141764Y-96071764D01*
X107156830Y-96053406D01*
X107337216Y-95873020D01*
X107700511Y-95873020D01*
X107761373Y-96063000D01*
X108763000Y-96063000D01*
X108763000Y-95060813D01*
X109017000Y-95060813D01*
X109017000Y-96063000D01*
X110018627Y-96063000D01*
X110079489Y-95873020D01*
X110055134Y-95792712D01*
X109955239Y-95573039D01*
X109814408Y-95377076D01*
X109638052Y-95212353D01*
X109432949Y-95085201D01*
X109206981Y-95000505D01*
X109017000Y-95060813D01*
X108763000Y-95060813D01*
X108573019Y-95000505D01*
X108347051Y-95085201D01*
X108141948Y-95212353D01*
X107965592Y-95377076D01*
X107824761Y-95573039D01*
X107724866Y-95792712D01*
X107700511Y-95873020D01*
X107337216Y-95873020D01*
X108421762Y-94788474D01*
X108530931Y-94833693D01*
X108768757Y-94881000D01*
X109011243Y-94881000D01*
X109249069Y-94833693D01*
X109473097Y-94740898D01*
X109674717Y-94606180D01*
X109846180Y-94434717D01*
X109980898Y-94233097D01*
X110073693Y-94009069D01*
X110121000Y-93771243D01*
X110121000Y-93528757D01*
X110073693Y-93290931D01*
X109980898Y-93066903D01*
X109846180Y-92865283D01*
X109674717Y-92693820D01*
X109473097Y-92559102D01*
X109249069Y-92466307D01*
X109011243Y-92419000D01*
X108768757Y-92419000D01*
X108530931Y-92466307D01*
X108306903Y-92559102D01*
X108105283Y-92693820D01*
X107933820Y-92865283D01*
X107881000Y-92944334D01*
X107881000Y-92799236D01*
X108428833Y-92251403D01*
X108530931Y-92293693D01*
X108768757Y-92341000D01*
X109011243Y-92341000D01*
X109249069Y-92293693D01*
X109473097Y-92200898D01*
X109674717Y-92066180D01*
X109846180Y-91894717D01*
X109980898Y-91693097D01*
X110073693Y-91469069D01*
X110121000Y-91231243D01*
X110121000Y-90988757D01*
X110073693Y-90750931D01*
X109980898Y-90526903D01*
X109846180Y-90325283D01*
X109674717Y-90153820D01*
X109473097Y-90019102D01*
X109249069Y-89926307D01*
X109011243Y-89879000D01*
X108768757Y-89879000D01*
X108530931Y-89926307D01*
X108306903Y-90019102D01*
X108105283Y-90153820D01*
X107933820Y-90325283D01*
X107799102Y-90526903D01*
X107706307Y-90750931D01*
X107659000Y-90988757D01*
X107659000Y-91231243D01*
X107706307Y-91469069D01*
X107748597Y-91571167D01*
X107461000Y-91858764D01*
X107461000Y-90669236D01*
X108421762Y-89708474D01*
X108530931Y-89753693D01*
X108768757Y-89801000D01*
X109011243Y-89801000D01*
X109249069Y-89753693D01*
X109473097Y-89660898D01*
X109674717Y-89526180D01*
X109846180Y-89354717D01*
X109980898Y-89153097D01*
X110073693Y-88929069D01*
X110121000Y-88691243D01*
X110121000Y-88448757D01*
X110073693Y-88210931D01*
X109980898Y-87986903D01*
X109846180Y-87785283D01*
X109674717Y-87613820D01*
X109473097Y-87479102D01*
X109249069Y-87386307D01*
X109011243Y-87339000D01*
X108768757Y-87339000D01*
X108530931Y-87386307D01*
X108306903Y-87479102D01*
X108105283Y-87613820D01*
X107933820Y-87785283D01*
X107799102Y-87986903D01*
X107706307Y-88210931D01*
X107659000Y-88448757D01*
X107659000Y-88691243D01*
X107706307Y-88929069D01*
X107745668Y-89024095D01*
X106773459Y-89996305D01*
X106851190Y-89901590D01*
X106909671Y-89792180D01*
X106945683Y-89673463D01*
X106957843Y-89550002D01*
X106957843Y-88649998D01*
X106945683Y-88526537D01*
X106909671Y-88407820D01*
X106851190Y-88298410D01*
X106772488Y-88202512D01*
X106676590Y-88123810D01*
X106567180Y-88065329D01*
X106543500Y-88058146D01*
X106543500Y-87746126D01*
X106545827Y-87722500D01*
X106536540Y-87628207D01*
X106528196Y-87600703D01*
X106509036Y-87537539D01*
X106464372Y-87453978D01*
X106404264Y-87380736D01*
X106385911Y-87365674D01*
X106355237Y-87335000D01*
X107179237Y-86511000D01*
X107756812Y-86511000D01*
X107799102Y-86613097D01*
X107933820Y-86814717D01*
X108105283Y-86986180D01*
X108306903Y-87120898D01*
X108530931Y-87213693D01*
X108768757Y-87261000D01*
X109011243Y-87261000D01*
X109249069Y-87213693D01*
X109473097Y-87120898D01*
X109674717Y-86986180D01*
X109846180Y-86814717D01*
X109980898Y-86613097D01*
X110073693Y-86389069D01*
X110121000Y-86151243D01*
X110121000Y-85908757D01*
X110073693Y-85670931D01*
X109980898Y-85446903D01*
X109846180Y-85245283D01*
X109674717Y-85073820D01*
X109473097Y-84939102D01*
X109249069Y-84846307D01*
X109011243Y-84799000D01*
X108768757Y-84799000D01*
X108530931Y-84846307D01*
X108306903Y-84939102D01*
X108105283Y-85073820D01*
X107933820Y-85245283D01*
X107799102Y-85446903D01*
X107756812Y-85549000D01*
X107511237Y-85549000D01*
X108428834Y-84631403D01*
X108530931Y-84673693D01*
X108768757Y-84721000D01*
X109011243Y-84721000D01*
X109249069Y-84673693D01*
X109473097Y-84580898D01*
X109674717Y-84446180D01*
X109846180Y-84274717D01*
X109980898Y-84073097D01*
X110073693Y-83849069D01*
X110121000Y-83611243D01*
X110121000Y-83368757D01*
X110073693Y-83130931D01*
X109980898Y-82906903D01*
X109846180Y-82705283D01*
X109674717Y-82533820D01*
X109473097Y-82399102D01*
X109249069Y-82306307D01*
X109011243Y-82259000D01*
X108768757Y-82259000D01*
X108530931Y-82306307D01*
X108306903Y-82399102D01*
X108105283Y-82533820D01*
X107933820Y-82705283D01*
X107799102Y-82906903D01*
X107706307Y-83130931D01*
X107659000Y-83368757D01*
X107659000Y-83611243D01*
X107706307Y-83849069D01*
X107748597Y-83951166D01*
X107046060Y-84653703D01*
X107050683Y-84638463D01*
X107062843Y-84515002D01*
X107062843Y-83989998D01*
X107050683Y-83866537D01*
X107014671Y-83747820D01*
X106956190Y-83638410D01*
X106877488Y-83542512D01*
X106781590Y-83463810D01*
X106672180Y-83405329D01*
X106553463Y-83369317D01*
X106430002Y-83357157D01*
X105529998Y-83357157D01*
X105406537Y-83369317D01*
X105391000Y-83374030D01*
X105391000Y-83305970D01*
X105406537Y-83310683D01*
X105529998Y-83322843D01*
X106430002Y-83322843D01*
X106553463Y-83310683D01*
X106672180Y-83274671D01*
X106781590Y-83216190D01*
X106877488Y-83137488D01*
X106956190Y-83041590D01*
X107014671Y-82932180D01*
X107018062Y-82921000D01*
X107376374Y-82921000D01*
X107400000Y-82923327D01*
X107423626Y-82921000D01*
X107494292Y-82914040D01*
X107584961Y-82886536D01*
X107668522Y-82841872D01*
X107741764Y-82781764D01*
X107756830Y-82763406D01*
X108428833Y-82091403D01*
X108530931Y-82133693D01*
X108768757Y-82181000D01*
X109011243Y-82181000D01*
X109249069Y-82133693D01*
X109473097Y-82040898D01*
X109674717Y-81906180D01*
X109846180Y-81734717D01*
X109980898Y-81533097D01*
X110073693Y-81309069D01*
X110121000Y-81071243D01*
X110121000Y-80828757D01*
X110073693Y-80590931D01*
X109980898Y-80366903D01*
X109846180Y-80165283D01*
X109674717Y-79993820D01*
X109473097Y-79859102D01*
X109249069Y-79766307D01*
X109011243Y-79719000D01*
X108768757Y-79719000D01*
X108530931Y-79766307D01*
X108306903Y-79859102D01*
X108105283Y-79993820D01*
X107933820Y-80165283D01*
X107799102Y-80366903D01*
X107706307Y-80590931D01*
X107659000Y-80828757D01*
X107659000Y-81071243D01*
X107706307Y-81309069D01*
X107748597Y-81411167D01*
X107200764Y-81959000D01*
X107025646Y-81959000D01*
X107014671Y-81922820D01*
X106956190Y-81813410D01*
X106877488Y-81717512D01*
X106781590Y-81638810D01*
X106672180Y-81580329D01*
X106553463Y-81544317D01*
X106430002Y-81532157D01*
X105529998Y-81532157D01*
X105406537Y-81544317D01*
X105391000Y-81549030D01*
X105391000Y-81309236D01*
X105572393Y-81127843D01*
X106430002Y-81127843D01*
X106553463Y-81115683D01*
X106672180Y-81079671D01*
X106781590Y-81021190D01*
X106877488Y-80942488D01*
X106956190Y-80846590D01*
X107014671Y-80737180D01*
X107050683Y-80618463D01*
X107062843Y-80495002D01*
X107062843Y-79969998D01*
X107050683Y-79846537D01*
X107014671Y-79727820D01*
X106956190Y-79618410D01*
X106877488Y-79522512D01*
X106781590Y-79443810D01*
X106672180Y-79385329D01*
X106553463Y-79349317D01*
X106430002Y-79337157D01*
X105529998Y-79337157D01*
X105406537Y-79349317D01*
X105287820Y-79385329D01*
X105178410Y-79443810D01*
X105082512Y-79522512D01*
X105003810Y-79618410D01*
X104945329Y-79727820D01*
X104909317Y-79846537D01*
X104897157Y-79969998D01*
X104897157Y-80442607D01*
X104586589Y-80753175D01*
X104568237Y-80768236D01*
X104553176Y-80786588D01*
X104508129Y-80841478D01*
X104463465Y-80925039D01*
X104435960Y-81015708D01*
X104426673Y-81110000D01*
X104429001Y-81133636D01*
X104429000Y-81706374D01*
X104429000Y-81706375D01*
X104429001Y-85730763D01*
X104000764Y-86159000D01*
X102973623Y-86159000D01*
X102949999Y-86156673D01*
X102926375Y-86159000D01*
X102926374Y-86159000D01*
X102855708Y-86165960D01*
X102765039Y-86193464D01*
X102681478Y-86238128D01*
X102608236Y-86298236D01*
X102593175Y-86316588D01*
X101716594Y-87193170D01*
X101698236Y-87208236D01*
X101638128Y-87281478D01*
X101593464Y-87365040D01*
X101579291Y-87411763D01*
X101565960Y-87455708D01*
X101556673Y-87550000D01*
X101559000Y-87573627D01*
X101559001Y-89690762D01*
X101400764Y-89849000D01*
X99913623Y-89849000D01*
X99889999Y-89846673D01*
X99866375Y-89849000D01*
X99866374Y-89849000D01*
X99795708Y-89855960D01*
X99705039Y-89883464D01*
X99621478Y-89928128D01*
X99548236Y-89988236D01*
X99533175Y-90006588D01*
X98680000Y-90859764D01*
X98601000Y-90780764D01*
X98601000Y-86983626D01*
X98603327Y-86960000D01*
X98594040Y-86865707D01*
X98566536Y-86775038D01*
X98533470Y-86713176D01*
X98521872Y-86691478D01*
X98461764Y-86618236D01*
X98443411Y-86603174D01*
X97811000Y-85970764D01*
X97811000Y-84283623D01*
X97813327Y-84259999D01*
X97808576Y-84211764D01*
X97804040Y-84165708D01*
X97776536Y-84075039D01*
X97731872Y-83991478D01*
X97671764Y-83918236D01*
X97653411Y-83903174D01*
X97421000Y-83670764D01*
X97421000Y-79893623D01*
X97423327Y-79869999D01*
X97419203Y-79828129D01*
X97414040Y-79775708D01*
X97386536Y-79685039D01*
X97341872Y-79601478D01*
X97281764Y-79528236D01*
X97263412Y-79513175D01*
X96557843Y-78807607D01*
X96557843Y-78144998D01*
X104897157Y-78144998D01*
X104897157Y-78670002D01*
X104909317Y-78793463D01*
X104945329Y-78912180D01*
X105003810Y-79021590D01*
X105082512Y-79117488D01*
X105178410Y-79196190D01*
X105287820Y-79254671D01*
X105406537Y-79290683D01*
X105529998Y-79302843D01*
X106430002Y-79302843D01*
X106553463Y-79290683D01*
X106672180Y-79254671D01*
X106781590Y-79196190D01*
X106877488Y-79117488D01*
X106956190Y-79021590D01*
X107014671Y-78912180D01*
X107021096Y-78891000D01*
X107756812Y-78891000D01*
X107799102Y-78993097D01*
X107933820Y-79194717D01*
X108105283Y-79366180D01*
X108306903Y-79500898D01*
X108530931Y-79593693D01*
X108768757Y-79641000D01*
X109011243Y-79641000D01*
X109249069Y-79593693D01*
X109473097Y-79500898D01*
X109674717Y-79366180D01*
X109846180Y-79194717D01*
X109980898Y-78993097D01*
X110073693Y-78769069D01*
X110121000Y-78531243D01*
X110121000Y-78288757D01*
X110073693Y-78050931D01*
X109980898Y-77826903D01*
X109846180Y-77625283D01*
X109674717Y-77453820D01*
X109473097Y-77319102D01*
X109249069Y-77226307D01*
X109011243Y-77179000D01*
X108768757Y-77179000D01*
X108530931Y-77226307D01*
X108306903Y-77319102D01*
X108105283Y-77453820D01*
X107933820Y-77625283D01*
X107799102Y-77826903D01*
X107756812Y-77929000D01*
X107022613Y-77929000D01*
X107014671Y-77902820D01*
X106956190Y-77793410D01*
X106877488Y-77697512D01*
X106781590Y-77618810D01*
X106672180Y-77560329D01*
X106553463Y-77524317D01*
X106430002Y-77512157D01*
X105529998Y-77512157D01*
X105406537Y-77524317D01*
X105287820Y-77560329D01*
X105178410Y-77618810D01*
X105082512Y-77697512D01*
X105003810Y-77793410D01*
X104945329Y-77902820D01*
X104909317Y-78021537D01*
X104897157Y-78144998D01*
X96557843Y-78144998D01*
X96557843Y-77959998D01*
X96545683Y-77836537D01*
X96509671Y-77717820D01*
X96451190Y-77608410D01*
X96372488Y-77512512D01*
X96276590Y-77433810D01*
X96167180Y-77375329D01*
X96048463Y-77339317D01*
X95925002Y-77327157D01*
X95399998Y-77327157D01*
X95276537Y-77339317D01*
X95157820Y-77375329D01*
X95048410Y-77433810D01*
X94952512Y-77512512D01*
X94873810Y-77608410D01*
X94815329Y-77717820D01*
X94779317Y-77836537D01*
X94767157Y-77959998D01*
X94767157Y-78860002D01*
X94779317Y-78983463D01*
X94815329Y-79102180D01*
X94873810Y-79211590D01*
X94952512Y-79307488D01*
X95048410Y-79386190D01*
X95157820Y-79444671D01*
X95276537Y-79480683D01*
X95399998Y-79492843D01*
X95882607Y-79492843D01*
X96459001Y-80069238D01*
X96459001Y-80163023D01*
X96451190Y-80148410D01*
X96372488Y-80052512D01*
X96276590Y-79973810D01*
X96167180Y-79915329D01*
X96048463Y-79879317D01*
X95925002Y-79867157D01*
X95399998Y-79867157D01*
X95276537Y-79879317D01*
X95157820Y-79915329D01*
X95048410Y-79973810D01*
X94952512Y-80052512D01*
X94873810Y-80148410D01*
X94815329Y-80257820D01*
X94779317Y-80376537D01*
X94767157Y-80499998D01*
X94767157Y-81400002D01*
X94779317Y-81523463D01*
X94815329Y-81642180D01*
X94873810Y-81751590D01*
X94952512Y-81847488D01*
X95048410Y-81926190D01*
X95157820Y-81984671D01*
X95276537Y-82020683D01*
X95399998Y-82032843D01*
X95882606Y-82032843D01*
X96069001Y-82219238D01*
X96069001Y-82425547D01*
X96048463Y-82419317D01*
X95925002Y-82407157D01*
X95399998Y-82407157D01*
X95276537Y-82419317D01*
X95157820Y-82455329D01*
X95048410Y-82513810D01*
X94952512Y-82592512D01*
X94873810Y-82688410D01*
X94815329Y-82797820D01*
X94779317Y-82916537D01*
X94767157Y-83039998D01*
X94767157Y-83940002D01*
X94779317Y-84063463D01*
X94815329Y-84182180D01*
X94873810Y-84291590D01*
X94952512Y-84387488D01*
X95048410Y-84466190D01*
X95157820Y-84524671D01*
X95276537Y-84560683D01*
X95399998Y-84572843D01*
X95852606Y-84572843D01*
X96069001Y-84789238D01*
X96069001Y-84965547D01*
X96048463Y-84959317D01*
X95925002Y-84947157D01*
X95399998Y-84947157D01*
X95276537Y-84959317D01*
X95157820Y-84995329D01*
X95048410Y-85053810D01*
X94952512Y-85132512D01*
X94873810Y-85228410D01*
X94815329Y-85337820D01*
X94779317Y-85456537D01*
X94767157Y-85579998D01*
X94767157Y-86480002D01*
X94779317Y-86603463D01*
X94815329Y-86722180D01*
X94873810Y-86831590D01*
X94952512Y-86927488D01*
X95048410Y-87006190D01*
X95157820Y-87064671D01*
X95276537Y-87100683D01*
X95399998Y-87112843D01*
X95902607Y-87112843D01*
X96459001Y-87669238D01*
X96459001Y-87783023D01*
X96451190Y-87768410D01*
X96372488Y-87672512D01*
X96276590Y-87593810D01*
X96167180Y-87535329D01*
X96048463Y-87499317D01*
X95925002Y-87487157D01*
X95399998Y-87487157D01*
X95276537Y-87499317D01*
X95157820Y-87535329D01*
X95048410Y-87593810D01*
X94952512Y-87672512D01*
X94873810Y-87768410D01*
X94815329Y-87877820D01*
X94779317Y-87996537D01*
X94767157Y-88119998D01*
X94767157Y-89020002D01*
X94779317Y-89143463D01*
X94815329Y-89262180D01*
X94873810Y-89371590D01*
X94952512Y-89467488D01*
X95048410Y-89546190D01*
X95157820Y-89604671D01*
X95276537Y-89640683D01*
X95399998Y-89652843D01*
X95872606Y-89652843D01*
X96069001Y-89849238D01*
X96069001Y-90045547D01*
X96048463Y-90039317D01*
X95925002Y-90027157D01*
X95399998Y-90027157D01*
X95276537Y-90039317D01*
X95157820Y-90075329D01*
X95048410Y-90133810D01*
X94952512Y-90212512D01*
X94873810Y-90308410D01*
X94815329Y-90417820D01*
X94779317Y-90536537D01*
X94767157Y-90659998D01*
X94767157Y-91560002D01*
X94779317Y-91683463D01*
X94815329Y-91802180D01*
X94873810Y-91911590D01*
X94952512Y-92007488D01*
X95048410Y-92086190D01*
X95157820Y-92144671D01*
X95276537Y-92180683D01*
X95399998Y-92192843D01*
X95832606Y-92192843D01*
X96069001Y-92429238D01*
X96069001Y-92585547D01*
X96048463Y-92579317D01*
X95925002Y-92567157D01*
X95399998Y-92567157D01*
X95276537Y-92579317D01*
X95157820Y-92615329D01*
X95048410Y-92673810D01*
X94952512Y-92752512D01*
X94873810Y-92848410D01*
X94815329Y-92957820D01*
X94779317Y-93076537D01*
X94767157Y-93199998D01*
X94767157Y-94100002D01*
X94779317Y-94223463D01*
X94815329Y-94342180D01*
X94873810Y-94451590D01*
X94952512Y-94547488D01*
X95048410Y-94626190D01*
X95157820Y-94684671D01*
X95189001Y-94694129D01*
X95189000Y-97048764D01*
X94006830Y-95866594D01*
X93991764Y-95848236D01*
X93918522Y-95788128D01*
X93834961Y-95743464D01*
X93744292Y-95715960D01*
X93673626Y-95709000D01*
X93650000Y-95706673D01*
X93626374Y-95709000D01*
X92243188Y-95709000D01*
X92200898Y-95606903D01*
X92066180Y-95405283D01*
X91894717Y-95233820D01*
X91693097Y-95099102D01*
X91469069Y-95006307D01*
X91231243Y-94959000D01*
X90988757Y-94959000D01*
X90750931Y-95006307D01*
X90526903Y-95099102D01*
X90325283Y-95233820D01*
X90153820Y-95405283D01*
X90019102Y-95606903D01*
X89926307Y-95830931D01*
X89879000Y-96068757D01*
X89716000Y-96068757D01*
X89716000Y-93528757D01*
X89879000Y-93528757D01*
X89879000Y-93771243D01*
X89926307Y-94009069D01*
X90019102Y-94233097D01*
X90153820Y-94434717D01*
X90325283Y-94606180D01*
X90526903Y-94740898D01*
X90750931Y-94833693D01*
X90988757Y-94881000D01*
X91231243Y-94881000D01*
X91469069Y-94833693D01*
X91693097Y-94740898D01*
X91894717Y-94606180D01*
X92066180Y-94434717D01*
X92200898Y-94233097D01*
X92243188Y-94131000D01*
X92945210Y-94131000D01*
X92954317Y-94223463D01*
X92990329Y-94342180D01*
X93048810Y-94451590D01*
X93127512Y-94547488D01*
X93223410Y-94626190D01*
X93332820Y-94684671D01*
X93451537Y-94720683D01*
X93574998Y-94732843D01*
X94100002Y-94732843D01*
X94223463Y-94720683D01*
X94342180Y-94684671D01*
X94451590Y-94626190D01*
X94547488Y-94547488D01*
X94626190Y-94451590D01*
X94684671Y-94342180D01*
X94720683Y-94223463D01*
X94732843Y-94100002D01*
X94732843Y-93199998D01*
X94720683Y-93076537D01*
X94684671Y-92957820D01*
X94626190Y-92848410D01*
X94547488Y-92752512D01*
X94451590Y-92673810D01*
X94342180Y-92615329D01*
X94223463Y-92579317D01*
X94100002Y-92567157D01*
X93574998Y-92567157D01*
X93451537Y-92579317D01*
X93332820Y-92615329D01*
X93223410Y-92673810D01*
X93127512Y-92752512D01*
X93048810Y-92848410D01*
X92990329Y-92957820D01*
X92954317Y-93076537D01*
X92945210Y-93169000D01*
X92243188Y-93169000D01*
X92200898Y-93066903D01*
X92066180Y-92865283D01*
X91894717Y-92693820D01*
X91693097Y-92559102D01*
X91469069Y-92466307D01*
X91231243Y-92419000D01*
X90988757Y-92419000D01*
X90750931Y-92466307D01*
X90526903Y-92559102D01*
X90325283Y-92693820D01*
X90153820Y-92865283D01*
X90019102Y-93066903D01*
X89926307Y-93290931D01*
X89879000Y-93528757D01*
X89716000Y-93528757D01*
X89716000Y-90988757D01*
X89879000Y-90988757D01*
X89879000Y-91231243D01*
X89926307Y-91469069D01*
X90019102Y-91693097D01*
X90153820Y-91894717D01*
X90325283Y-92066180D01*
X90526903Y-92200898D01*
X90750931Y-92293693D01*
X90988757Y-92341000D01*
X91231243Y-92341000D01*
X91469069Y-92293693D01*
X91693097Y-92200898D01*
X91894717Y-92066180D01*
X92066180Y-91894717D01*
X92200898Y-91693097D01*
X92243188Y-91591000D01*
X92945210Y-91591000D01*
X92954317Y-91683463D01*
X92990329Y-91802180D01*
X93048810Y-91911590D01*
X93127512Y-92007488D01*
X93223410Y-92086190D01*
X93332820Y-92144671D01*
X93451537Y-92180683D01*
X93574998Y-92192843D01*
X94100002Y-92192843D01*
X94223463Y-92180683D01*
X94342180Y-92144671D01*
X94451590Y-92086190D01*
X94547488Y-92007488D01*
X94626190Y-91911590D01*
X94684671Y-91802180D01*
X94720683Y-91683463D01*
X94732843Y-91560002D01*
X94732843Y-90659998D01*
X94720683Y-90536537D01*
X94684671Y-90417820D01*
X94626190Y-90308410D01*
X94547488Y-90212512D01*
X94451590Y-90133810D01*
X94342180Y-90075329D01*
X94223463Y-90039317D01*
X94100002Y-90027157D01*
X93574998Y-90027157D01*
X93451537Y-90039317D01*
X93332820Y-90075329D01*
X93223410Y-90133810D01*
X93127512Y-90212512D01*
X93048810Y-90308410D01*
X92990329Y-90417820D01*
X92954317Y-90536537D01*
X92945210Y-90629000D01*
X92243188Y-90629000D01*
X92200898Y-90526903D01*
X92066180Y-90325283D01*
X91894717Y-90153820D01*
X91693097Y-90019102D01*
X91469069Y-89926307D01*
X91231243Y-89879000D01*
X90988757Y-89879000D01*
X90750931Y-89926307D01*
X90526903Y-90019102D01*
X90325283Y-90153820D01*
X90153820Y-90325283D01*
X90019102Y-90526903D01*
X89926307Y-90750931D01*
X89879000Y-90988757D01*
X89716000Y-90988757D01*
X89716000Y-88448757D01*
X89879000Y-88448757D01*
X89879000Y-88691243D01*
X89926307Y-88929069D01*
X90019102Y-89153097D01*
X90153820Y-89354717D01*
X90325283Y-89526180D01*
X90526903Y-89660898D01*
X90750931Y-89753693D01*
X90988757Y-89801000D01*
X91231243Y-89801000D01*
X91469069Y-89753693D01*
X91693097Y-89660898D01*
X91894717Y-89526180D01*
X92066180Y-89354717D01*
X92200898Y-89153097D01*
X92243188Y-89051000D01*
X92945210Y-89051000D01*
X92954317Y-89143463D01*
X92990329Y-89262180D01*
X93048810Y-89371590D01*
X93127512Y-89467488D01*
X93223410Y-89546190D01*
X93332820Y-89604671D01*
X93451537Y-89640683D01*
X93574998Y-89652843D01*
X94100002Y-89652843D01*
X94223463Y-89640683D01*
X94342180Y-89604671D01*
X94451590Y-89546190D01*
X94547488Y-89467488D01*
X94626190Y-89371590D01*
X94684671Y-89262180D01*
X94720683Y-89143463D01*
X94732843Y-89020002D01*
X94732843Y-88119998D01*
X94720683Y-87996537D01*
X94684671Y-87877820D01*
X94626190Y-87768410D01*
X94547488Y-87672512D01*
X94451590Y-87593810D01*
X94342180Y-87535329D01*
X94223463Y-87499317D01*
X94100002Y-87487157D01*
X93574998Y-87487157D01*
X93451537Y-87499317D01*
X93332820Y-87535329D01*
X93223410Y-87593810D01*
X93127512Y-87672512D01*
X93048810Y-87768410D01*
X92990329Y-87877820D01*
X92954317Y-87996537D01*
X92945210Y-88089000D01*
X92243188Y-88089000D01*
X92200898Y-87986903D01*
X92066180Y-87785283D01*
X91894717Y-87613820D01*
X91693097Y-87479102D01*
X91469069Y-87386307D01*
X91231243Y-87339000D01*
X90988757Y-87339000D01*
X90750931Y-87386307D01*
X90526903Y-87479102D01*
X90325283Y-87613820D01*
X90153820Y-87785283D01*
X90019102Y-87986903D01*
X89926307Y-88210931D01*
X89879000Y-88448757D01*
X89716000Y-88448757D01*
X89716000Y-85908757D01*
X89879000Y-85908757D01*
X89879000Y-86151243D01*
X89926307Y-86389069D01*
X90019102Y-86613097D01*
X90153820Y-86814717D01*
X90325283Y-86986180D01*
X90526903Y-87120898D01*
X90750931Y-87213693D01*
X90988757Y-87261000D01*
X91231243Y-87261000D01*
X91469069Y-87213693D01*
X91693097Y-87120898D01*
X91894717Y-86986180D01*
X92066180Y-86814717D01*
X92200898Y-86613097D01*
X92243188Y-86511000D01*
X92945210Y-86511000D01*
X92954317Y-86603463D01*
X92990329Y-86722180D01*
X93048810Y-86831590D01*
X93127512Y-86927488D01*
X93223410Y-87006190D01*
X93332820Y-87064671D01*
X93451537Y-87100683D01*
X93574998Y-87112843D01*
X94100002Y-87112843D01*
X94223463Y-87100683D01*
X94342180Y-87064671D01*
X94451590Y-87006190D01*
X94547488Y-86927488D01*
X94626190Y-86831590D01*
X94684671Y-86722180D01*
X94720683Y-86603463D01*
X94732843Y-86480002D01*
X94732843Y-85579998D01*
X94720683Y-85456537D01*
X94684671Y-85337820D01*
X94626190Y-85228410D01*
X94547488Y-85132512D01*
X94451590Y-85053810D01*
X94342180Y-84995329D01*
X94223463Y-84959317D01*
X94100002Y-84947157D01*
X93574998Y-84947157D01*
X93451537Y-84959317D01*
X93332820Y-84995329D01*
X93223410Y-85053810D01*
X93127512Y-85132512D01*
X93048810Y-85228410D01*
X92990329Y-85337820D01*
X92954317Y-85456537D01*
X92945210Y-85549000D01*
X92243188Y-85549000D01*
X92200898Y-85446903D01*
X92066180Y-85245283D01*
X91894717Y-85073820D01*
X91693097Y-84939102D01*
X91469069Y-84846307D01*
X91231243Y-84799000D01*
X90988757Y-84799000D01*
X90750931Y-84846307D01*
X90526903Y-84939102D01*
X90325283Y-85073820D01*
X90153820Y-85245283D01*
X90019102Y-85446903D01*
X89926307Y-85670931D01*
X89879000Y-85908757D01*
X89716000Y-85908757D01*
X89716000Y-83368757D01*
X89879000Y-83368757D01*
X89879000Y-83611243D01*
X89926307Y-83849069D01*
X90019102Y-84073097D01*
X90153820Y-84274717D01*
X90325283Y-84446180D01*
X90526903Y-84580898D01*
X90750931Y-84673693D01*
X90988757Y-84721000D01*
X91231243Y-84721000D01*
X91469069Y-84673693D01*
X91693097Y-84580898D01*
X91894717Y-84446180D01*
X92066180Y-84274717D01*
X92200898Y-84073097D01*
X92243188Y-83971000D01*
X92945210Y-83971000D01*
X92954317Y-84063463D01*
X92990329Y-84182180D01*
X93048810Y-84291590D01*
X93127512Y-84387488D01*
X93223410Y-84466190D01*
X93332820Y-84524671D01*
X93451537Y-84560683D01*
X93574998Y-84572843D01*
X94100002Y-84572843D01*
X94223463Y-84560683D01*
X94342180Y-84524671D01*
X94451590Y-84466190D01*
X94547488Y-84387488D01*
X94626190Y-84291590D01*
X94684671Y-84182180D01*
X94720683Y-84063463D01*
X94732843Y-83940002D01*
X94732843Y-83039998D01*
X94720683Y-82916537D01*
X94684671Y-82797820D01*
X94626190Y-82688410D01*
X94547488Y-82592512D01*
X94451590Y-82513810D01*
X94342180Y-82455329D01*
X94223463Y-82419317D01*
X94100002Y-82407157D01*
X93574998Y-82407157D01*
X93451537Y-82419317D01*
X93332820Y-82455329D01*
X93223410Y-82513810D01*
X93127512Y-82592512D01*
X93048810Y-82688410D01*
X92990329Y-82797820D01*
X92954317Y-82916537D01*
X92945210Y-83009000D01*
X92243188Y-83009000D01*
X92200898Y-82906903D01*
X92066180Y-82705283D01*
X91894717Y-82533820D01*
X91693097Y-82399102D01*
X91469069Y-82306307D01*
X91231243Y-82259000D01*
X90988757Y-82259000D01*
X90750931Y-82306307D01*
X90526903Y-82399102D01*
X90325283Y-82533820D01*
X90153820Y-82705283D01*
X90019102Y-82906903D01*
X89926307Y-83130931D01*
X89879000Y-83368757D01*
X89716000Y-83368757D01*
X89716000Y-80828757D01*
X89879000Y-80828757D01*
X89879000Y-81071243D01*
X89926307Y-81309069D01*
X90019102Y-81533097D01*
X90153820Y-81734717D01*
X90325283Y-81906180D01*
X90526903Y-82040898D01*
X90750931Y-82133693D01*
X90988757Y-82181000D01*
X91231243Y-82181000D01*
X91469069Y-82133693D01*
X91693097Y-82040898D01*
X91894717Y-81906180D01*
X92066180Y-81734717D01*
X92200898Y-81533097D01*
X92243188Y-81431000D01*
X92945210Y-81431000D01*
X92954317Y-81523463D01*
X92990329Y-81642180D01*
X93048810Y-81751590D01*
X93127512Y-81847488D01*
X93223410Y-81926190D01*
X93332820Y-81984671D01*
X93451537Y-82020683D01*
X93574998Y-82032843D01*
X94100002Y-82032843D01*
X94223463Y-82020683D01*
X94342180Y-81984671D01*
X94451590Y-81926190D01*
X94547488Y-81847488D01*
X94626190Y-81751590D01*
X94684671Y-81642180D01*
X94720683Y-81523463D01*
X94732843Y-81400002D01*
X94732843Y-80499998D01*
X94720683Y-80376537D01*
X94684671Y-80257820D01*
X94626190Y-80148410D01*
X94547488Y-80052512D01*
X94451590Y-79973810D01*
X94342180Y-79915329D01*
X94223463Y-79879317D01*
X94100002Y-79867157D01*
X93574998Y-79867157D01*
X93451537Y-79879317D01*
X93332820Y-79915329D01*
X93223410Y-79973810D01*
X93127512Y-80052512D01*
X93048810Y-80148410D01*
X92990329Y-80257820D01*
X92954317Y-80376537D01*
X92945210Y-80469000D01*
X92243188Y-80469000D01*
X92200898Y-80366903D01*
X92066180Y-80165283D01*
X91894717Y-79993820D01*
X91693097Y-79859102D01*
X91469069Y-79766307D01*
X91231243Y-79719000D01*
X90988757Y-79719000D01*
X90750931Y-79766307D01*
X90526903Y-79859102D01*
X90325283Y-79993820D01*
X90153820Y-80165283D01*
X90019102Y-80366903D01*
X89926307Y-80590931D01*
X89879000Y-80828757D01*
X89716000Y-80828757D01*
X89716000Y-78288757D01*
X89879000Y-78288757D01*
X89879000Y-78531243D01*
X89926307Y-78769069D01*
X90019102Y-78993097D01*
X90153820Y-79194717D01*
X90325283Y-79366180D01*
X90526903Y-79500898D01*
X90750931Y-79593693D01*
X90988757Y-79641000D01*
X91231243Y-79641000D01*
X91469069Y-79593693D01*
X91693097Y-79500898D01*
X91894717Y-79366180D01*
X92066180Y-79194717D01*
X92200898Y-78993097D01*
X92243188Y-78891000D01*
X92945210Y-78891000D01*
X92954317Y-78983463D01*
X92990329Y-79102180D01*
X93048810Y-79211590D01*
X93127512Y-79307488D01*
X93223410Y-79386190D01*
X93332820Y-79444671D01*
X93451537Y-79480683D01*
X93574998Y-79492843D01*
X94100002Y-79492843D01*
X94223463Y-79480683D01*
X94342180Y-79444671D01*
X94451590Y-79386190D01*
X94547488Y-79307488D01*
X94626190Y-79211590D01*
X94684671Y-79102180D01*
X94720683Y-78983463D01*
X94732843Y-78860002D01*
X94732843Y-77959998D01*
X94720683Y-77836537D01*
X94684671Y-77717820D01*
X94626190Y-77608410D01*
X94547488Y-77512512D01*
X94451590Y-77433810D01*
X94342180Y-77375329D01*
X94223463Y-77339317D01*
X94100002Y-77327157D01*
X93574998Y-77327157D01*
X93451537Y-77339317D01*
X93332820Y-77375329D01*
X93223410Y-77433810D01*
X93127512Y-77512512D01*
X93048810Y-77608410D01*
X92990329Y-77717820D01*
X92954317Y-77836537D01*
X92945210Y-77929000D01*
X92243188Y-77929000D01*
X92200898Y-77826903D01*
X92066180Y-77625283D01*
X91894717Y-77453820D01*
X91693097Y-77319102D01*
X91469069Y-77226307D01*
X91231243Y-77179000D01*
X90988757Y-77179000D01*
X90750931Y-77226307D01*
X90526903Y-77319102D01*
X90325283Y-77453820D01*
X90153820Y-77625283D01*
X90019102Y-77826903D01*
X89926307Y-78050931D01*
X89879000Y-78288757D01*
X89716000Y-78288757D01*
X89716000Y-77016000D01*
X110234000Y-77016000D01*
X110234001Y-122954000D01*
G04 #@! TA.AperFunction,Conductor*
D18*
G36*
X110234001Y-122954000D02*
G01*
X89716000Y-122954000D01*
X89716000Y-96068757D01*
X89879000Y-96068757D01*
X89879000Y-96311243D01*
X89926307Y-96549069D01*
X90019102Y-96773097D01*
X90153820Y-96974717D01*
X90325283Y-97146180D01*
X90526903Y-97280898D01*
X90750931Y-97373693D01*
X90988757Y-97421000D01*
X91231243Y-97421000D01*
X91469069Y-97373693D01*
X91693097Y-97280898D01*
X91894717Y-97146180D01*
X92066180Y-96974717D01*
X92200898Y-96773097D01*
X92243188Y-96671000D01*
X93450764Y-96671000D01*
X96190447Y-99410683D01*
X96202634Y-99433484D01*
X96256264Y-99498833D01*
X96757431Y-100000000D01*
X96443834Y-100313597D01*
X94536830Y-98406594D01*
X94521764Y-98388236D01*
X94448522Y-98328128D01*
X94364961Y-98283464D01*
X94274292Y-98255960D01*
X94203626Y-98249000D01*
X94180000Y-98246673D01*
X94156374Y-98249000D01*
X92243188Y-98249000D01*
X92200898Y-98146903D01*
X92066180Y-97945283D01*
X91894717Y-97773820D01*
X91693097Y-97639102D01*
X91469069Y-97546307D01*
X91231243Y-97499000D01*
X90988757Y-97499000D01*
X90750931Y-97546307D01*
X90526903Y-97639102D01*
X90325283Y-97773820D01*
X90153820Y-97945283D01*
X90019102Y-98146903D01*
X89926307Y-98370931D01*
X89879000Y-98608757D01*
X89879000Y-98851243D01*
X89926307Y-99089069D01*
X90019102Y-99313097D01*
X90153820Y-99514717D01*
X90325283Y-99686180D01*
X90526903Y-99820898D01*
X90750931Y-99913693D01*
X90988757Y-99961000D01*
X91231243Y-99961000D01*
X91469069Y-99913693D01*
X91693097Y-99820898D01*
X91894717Y-99686180D01*
X92066180Y-99514717D01*
X92200898Y-99313097D01*
X92243188Y-99211000D01*
X93980764Y-99211000D01*
X94538764Y-99769000D01*
X92153626Y-99769000D01*
X92130000Y-99766673D01*
X92035707Y-99775960D01*
X92008203Y-99784304D01*
X91945039Y-99803464D01*
X91861478Y-99848128D01*
X91788236Y-99908236D01*
X91773175Y-99926589D01*
X91571166Y-100128597D01*
X91469069Y-100086307D01*
X91231243Y-100039000D01*
X90988757Y-100039000D01*
X90750931Y-100086307D01*
X90526903Y-100179102D01*
X90325283Y-100313820D01*
X90153820Y-100485283D01*
X90019102Y-100686903D01*
X89926307Y-100910931D01*
X89879000Y-101148757D01*
X89879000Y-101391243D01*
X89926307Y-101629069D01*
X90019102Y-101853097D01*
X90153820Y-102054717D01*
X90325283Y-102226180D01*
X90526903Y-102360898D01*
X90750931Y-102453693D01*
X90988757Y-102501000D01*
X91231243Y-102501000D01*
X91469069Y-102453693D01*
X91693097Y-102360898D01*
X91894717Y-102226180D01*
X92066180Y-102054717D01*
X92200898Y-101853097D01*
X92293693Y-101629069D01*
X92341000Y-101391243D01*
X92341000Y-101148757D01*
X92293693Y-100910931D01*
X92251403Y-100808834D01*
X92329237Y-100731000D01*
X92492484Y-100731000D01*
X92486673Y-100790000D01*
X92489000Y-100813627D01*
X92489001Y-101760762D01*
X91578238Y-102671526D01*
X91469069Y-102626307D01*
X91231243Y-102579000D01*
X90988757Y-102579000D01*
X90750931Y-102626307D01*
X90526903Y-102719102D01*
X90325283Y-102853820D01*
X90153820Y-103025283D01*
X90019102Y-103226903D01*
X89926307Y-103450931D01*
X89879000Y-103688757D01*
X89879000Y-103931243D01*
X89926307Y-104169069D01*
X90019102Y-104393097D01*
X90153820Y-104594717D01*
X90325283Y-104766180D01*
X90526903Y-104900898D01*
X90750931Y-104993693D01*
X90988757Y-105041000D01*
X91231243Y-105041000D01*
X91469069Y-104993693D01*
X91693097Y-104900898D01*
X91894717Y-104766180D01*
X92066180Y-104594717D01*
X92200898Y-104393097D01*
X92293693Y-104169069D01*
X92341000Y-103931243D01*
X92341000Y-103688757D01*
X92293693Y-103450931D01*
X92254332Y-103355905D01*
X92499000Y-103111236D01*
X92499001Y-104280762D01*
X91571167Y-105208597D01*
X91469069Y-105166307D01*
X91231243Y-105119000D01*
X90988757Y-105119000D01*
X90750931Y-105166307D01*
X90526903Y-105259102D01*
X90325283Y-105393820D01*
X90153820Y-105565283D01*
X90019102Y-105766903D01*
X89926307Y-105990931D01*
X89879000Y-106228757D01*
X89879000Y-106471243D01*
X89926307Y-106709069D01*
X90019102Y-106933097D01*
X90153820Y-107134717D01*
X90325283Y-107306180D01*
X90526903Y-107440898D01*
X90750931Y-107533693D01*
X90988757Y-107581000D01*
X91231243Y-107581000D01*
X91469069Y-107533693D01*
X91693097Y-107440898D01*
X91894717Y-107306180D01*
X92066180Y-107134717D01*
X92200898Y-106933097D01*
X92293693Y-106709069D01*
X92341000Y-106471243D01*
X92341000Y-106228757D01*
X92293693Y-105990931D01*
X92251403Y-105888833D01*
X93303412Y-104836825D01*
X93321764Y-104821764D01*
X93381872Y-104748522D01*
X93426536Y-104664961D01*
X93454040Y-104574292D01*
X93461000Y-104503626D01*
X93461000Y-104503625D01*
X93463327Y-104480001D01*
X93461000Y-104456377D01*
X93461000Y-103495000D01*
X94222157Y-103495000D01*
X94229513Y-103569689D01*
X94251299Y-103641508D01*
X94286678Y-103707696D01*
X94334289Y-103765711D01*
X94357793Y-103785000D01*
X94334289Y-103804289D01*
X94286678Y-103862304D01*
X94251299Y-103928492D01*
X94229513Y-104000311D01*
X94222157Y-104075000D01*
X94224000Y-104327750D01*
X94319250Y-104423000D01*
X94928000Y-104423000D01*
X94928000Y-103789250D01*
X94923750Y-103785000D01*
X94928000Y-103780750D01*
X94928000Y-103147000D01*
X94319250Y-103147000D01*
X94224000Y-103242250D01*
X94222157Y-103495000D01*
X93461000Y-103495000D01*
X93461000Y-102709236D01*
X93625236Y-102545000D01*
X94222157Y-102545000D01*
X94224000Y-102797750D01*
X94319250Y-102893000D01*
X94928000Y-102893000D01*
X94928000Y-102259250D01*
X94832750Y-102164000D01*
X94605000Y-102162157D01*
X94530311Y-102169513D01*
X94458492Y-102191299D01*
X94392304Y-102226678D01*
X94334289Y-102274289D01*
X94286678Y-102332304D01*
X94251299Y-102398492D01*
X94229513Y-102470311D01*
X94222157Y-102545000D01*
X93625236Y-102545000D01*
X93713406Y-102456830D01*
X93731764Y-102441764D01*
X93791872Y-102368522D01*
X93814992Y-102325268D01*
X93836536Y-102284962D01*
X93864040Y-102194293D01*
X93873327Y-102100000D01*
X93871000Y-102076374D01*
X93871000Y-101619236D01*
X93939237Y-101551000D01*
X94580764Y-101551000D01*
X95235507Y-102205743D01*
X95182000Y-102259250D01*
X95182000Y-102893000D01*
X95202000Y-102893000D01*
X95202000Y-103147000D01*
X95182000Y-103147000D01*
X95182000Y-103780750D01*
X95186250Y-103785000D01*
X95182000Y-103789250D01*
X95182000Y-104423000D01*
X95202000Y-104423000D01*
X95202000Y-104677000D01*
X95182000Y-104677000D01*
X95182000Y-104697000D01*
X94928000Y-104697000D01*
X94928000Y-104677000D01*
X94319250Y-104677000D01*
X94224000Y-104772250D01*
X94222157Y-105025000D01*
X94229513Y-105099689D01*
X94251299Y-105171508D01*
X94286678Y-105237696D01*
X94332260Y-105293239D01*
X94313358Y-105312141D01*
X94227887Y-105440058D01*
X94169013Y-105582191D01*
X94139000Y-105733078D01*
X94139000Y-105886922D01*
X94169013Y-106037809D01*
X94227887Y-106179942D01*
X94313358Y-106307859D01*
X94322429Y-106316930D01*
X94301478Y-106328128D01*
X94228236Y-106388236D01*
X94213175Y-106406588D01*
X92233691Y-108386073D01*
X92200898Y-108306903D01*
X92066180Y-108105283D01*
X91894717Y-107933820D01*
X91693097Y-107799102D01*
X91469069Y-107706307D01*
X91231243Y-107659000D01*
X90988757Y-107659000D01*
X90750931Y-107706307D01*
X90526903Y-107799102D01*
X90325283Y-107933820D01*
X90153820Y-108105283D01*
X90019102Y-108306903D01*
X89926307Y-108530931D01*
X89879000Y-108768757D01*
X89879000Y-109011243D01*
X89926307Y-109249069D01*
X90019102Y-109473097D01*
X90153820Y-109674717D01*
X90325283Y-109846180D01*
X90526903Y-109980898D01*
X90750931Y-110073693D01*
X90988757Y-110121000D01*
X91231243Y-110121000D01*
X91469069Y-110073693D01*
X91693097Y-109980898D01*
X91894717Y-109846180D01*
X92066180Y-109674717D01*
X92200898Y-109473097D01*
X92243188Y-109371000D01*
X92386374Y-109371000D01*
X92410000Y-109373327D01*
X92433626Y-109371000D01*
X92494787Y-109364976D01*
X91571167Y-110288597D01*
X91469069Y-110246307D01*
X91231243Y-110199000D01*
X90988757Y-110199000D01*
X90750931Y-110246307D01*
X90526903Y-110339102D01*
X90325283Y-110473820D01*
X90153820Y-110645283D01*
X90019102Y-110846903D01*
X89926307Y-111070931D01*
X89879000Y-111308757D01*
X89879000Y-111551243D01*
X89926307Y-111789069D01*
X90019102Y-112013097D01*
X90153820Y-112214717D01*
X90325283Y-112386180D01*
X90526903Y-112520898D01*
X90750931Y-112613693D01*
X90988757Y-112661000D01*
X91231243Y-112661000D01*
X91469069Y-112613693D01*
X91693097Y-112520898D01*
X91894717Y-112386180D01*
X92066180Y-112214717D01*
X92200898Y-112013097D01*
X92293693Y-111789069D01*
X92341000Y-111551243D01*
X92341000Y-111308757D01*
X92293693Y-111070931D01*
X92251403Y-110968833D01*
X92489000Y-110731236D01*
X92489001Y-111900762D01*
X91564095Y-112825668D01*
X91469069Y-112786307D01*
X91231243Y-112739000D01*
X90988757Y-112739000D01*
X90750931Y-112786307D01*
X90526903Y-112879102D01*
X90325283Y-113013820D01*
X90153820Y-113185283D01*
X90019102Y-113386903D01*
X89926307Y-113610931D01*
X89879000Y-113848757D01*
X89879000Y-114091243D01*
X89926307Y-114329069D01*
X90019102Y-114553097D01*
X90153820Y-114754717D01*
X90325283Y-114926180D01*
X90526903Y-115060898D01*
X90750931Y-115153693D01*
X90988757Y-115201000D01*
X91231243Y-115201000D01*
X91469069Y-115153693D01*
X91693097Y-115060898D01*
X91894717Y-114926180D01*
X92066180Y-114754717D01*
X92200898Y-114553097D01*
X92293693Y-114329069D01*
X92341000Y-114091243D01*
X92341000Y-113848757D01*
X92293693Y-113610931D01*
X92248474Y-113501762D01*
X92489000Y-113261236D01*
X92489001Y-114450762D01*
X91571167Y-115368597D01*
X91469069Y-115326307D01*
X91231243Y-115279000D01*
X90988757Y-115279000D01*
X90750931Y-115326307D01*
X90526903Y-115419102D01*
X90325283Y-115553820D01*
X90153820Y-115725283D01*
X90019102Y-115926903D01*
X89926307Y-116150931D01*
X89879000Y-116388757D01*
X89879000Y-116631243D01*
X89926307Y-116869069D01*
X90019102Y-117093097D01*
X90153820Y-117294717D01*
X90325283Y-117466180D01*
X90526903Y-117600898D01*
X90750931Y-117693693D01*
X90988757Y-117741000D01*
X91231243Y-117741000D01*
X91469069Y-117693693D01*
X91693097Y-117600898D01*
X91894717Y-117466180D01*
X92066180Y-117294717D01*
X92200898Y-117093097D01*
X92293693Y-116869069D01*
X92341000Y-116631243D01*
X92341000Y-116388757D01*
X92293693Y-116150931D01*
X92251403Y-116048833D01*
X92489000Y-115811236D01*
X92489001Y-116990762D01*
X91571167Y-117908597D01*
X91469069Y-117866307D01*
X91231243Y-117819000D01*
X90988757Y-117819000D01*
X90750931Y-117866307D01*
X90526903Y-117959102D01*
X90325283Y-118093820D01*
X90153820Y-118265283D01*
X90019102Y-118466903D01*
X89926307Y-118690931D01*
X89879000Y-118928757D01*
X89879000Y-119171243D01*
X89926307Y-119409069D01*
X90019102Y-119633097D01*
X90153820Y-119834717D01*
X90325283Y-120006180D01*
X90526903Y-120140898D01*
X90750931Y-120233693D01*
X90988757Y-120281000D01*
X91231243Y-120281000D01*
X91469069Y-120233693D01*
X91693097Y-120140898D01*
X91894717Y-120006180D01*
X92066180Y-119834717D01*
X92200898Y-119633097D01*
X92293693Y-119409069D01*
X92341000Y-119171243D01*
X92341000Y-118928757D01*
X92293693Y-118690931D01*
X92251403Y-118588833D01*
X92499000Y-118341236D01*
X92499001Y-119520762D01*
X91571167Y-120448597D01*
X91469069Y-120406307D01*
X91231243Y-120359000D01*
X90988757Y-120359000D01*
X90750931Y-120406307D01*
X90526903Y-120499102D01*
X90325283Y-120633820D01*
X90153820Y-120805283D01*
X90019102Y-121006903D01*
X89926307Y-121230931D01*
X89879000Y-121468757D01*
X89879000Y-121711243D01*
X89926307Y-121949069D01*
X90019102Y-122173097D01*
X90153820Y-122374717D01*
X90325283Y-122546180D01*
X90526903Y-122680898D01*
X90750931Y-122773693D01*
X90988757Y-122821000D01*
X91231243Y-122821000D01*
X91469069Y-122773693D01*
X91693097Y-122680898D01*
X91894717Y-122546180D01*
X92066180Y-122374717D01*
X92200898Y-122173097D01*
X92293693Y-121949069D01*
X92341000Y-121711243D01*
X92341000Y-121468757D01*
X92293693Y-121230931D01*
X92251403Y-121128833D01*
X93303412Y-120076825D01*
X93321764Y-120061764D01*
X93381872Y-119988522D01*
X93426536Y-119904961D01*
X93454040Y-119814292D01*
X93461000Y-119743626D01*
X93461000Y-119743625D01*
X93463327Y-119720001D01*
X93461000Y-119696377D01*
X93461000Y-117949236D01*
X93693411Y-117716826D01*
X93711764Y-117701764D01*
X93771872Y-117628522D01*
X93816536Y-117544961D01*
X93844040Y-117454292D01*
X93851000Y-117383626D01*
X93851000Y-117383625D01*
X93853327Y-117360001D01*
X93851000Y-117336377D01*
X93851000Y-115589236D01*
X94093411Y-115346826D01*
X94111764Y-115331764D01*
X94171872Y-115258522D01*
X94216536Y-115174961D01*
X94244040Y-115084292D01*
X94251000Y-115013626D01*
X94251000Y-115013617D01*
X94253326Y-114990001D01*
X94251000Y-114966385D01*
X94251000Y-113179236D01*
X94493411Y-112936826D01*
X94511764Y-112921764D01*
X94571872Y-112848522D01*
X94616536Y-112764961D01*
X94644040Y-112674292D01*
X94651000Y-112603626D01*
X94651000Y-112603617D01*
X94653326Y-112580001D01*
X94651000Y-112556385D01*
X94651000Y-110809236D01*
X94893411Y-110566826D01*
X94911764Y-110551764D01*
X94971872Y-110478522D01*
X95016536Y-110394961D01*
X95044040Y-110304292D01*
X95051000Y-110233626D01*
X95051000Y-110233617D01*
X95053326Y-110210001D01*
X95051000Y-110186385D01*
X95051000Y-109739236D01*
X95569237Y-109221000D01*
X96956374Y-109221000D01*
X96980000Y-109223327D01*
X97003626Y-109221000D01*
X97074292Y-109214040D01*
X97164961Y-109186536D01*
X97248522Y-109141872D01*
X97321764Y-109081764D01*
X97336830Y-109063406D01*
X99773412Y-106626825D01*
X99791764Y-106611764D01*
X99851872Y-106538522D01*
X99896536Y-106454961D01*
X99924040Y-106364292D01*
X99931000Y-106293626D01*
X99931000Y-106293617D01*
X99933326Y-106270001D01*
X99931000Y-106246385D01*
X99931000Y-105299236D01*
X101243412Y-103986825D01*
X101261764Y-103971764D01*
X101284195Y-103944432D01*
X101429000Y-104089237D01*
X101429000Y-104096375D01*
X101429001Y-104380763D01*
X101116594Y-104693170D01*
X101098236Y-104708236D01*
X101038128Y-104781478D01*
X100993464Y-104865040D01*
X100974768Y-104926673D01*
X100965960Y-104955708D01*
X100956673Y-105050000D01*
X100959000Y-105073626D01*
X100959001Y-108726364D01*
X100956673Y-108750000D01*
X100965960Y-108844292D01*
X100990432Y-108924962D01*
X100993465Y-108934961D01*
X101038129Y-109018522D01*
X101098237Y-109091764D01*
X101116589Y-109106825D01*
X101339000Y-109329237D01*
X101339001Y-111036364D01*
X101336673Y-111060000D01*
X101345960Y-111154292D01*
X101360861Y-111203412D01*
X101373465Y-111244961D01*
X101418129Y-111328522D01*
X101478237Y-111401764D01*
X101496589Y-111416825D01*
X101749000Y-111669236D01*
X101749001Y-113416364D01*
X101746673Y-113440000D01*
X101755960Y-113534292D01*
X101779209Y-113610931D01*
X101783465Y-113624961D01*
X101828129Y-113708522D01*
X101888237Y-113781764D01*
X101906589Y-113796825D01*
X102149000Y-114039237D01*
X102149001Y-115756364D01*
X102146673Y-115780000D01*
X102155960Y-115874292D01*
X102183465Y-115964961D01*
X102228129Y-116048522D01*
X102288237Y-116121764D01*
X102306589Y-116136825D01*
X102549000Y-116379237D01*
X102549001Y-118176364D01*
X102546673Y-118200000D01*
X102555960Y-118294292D01*
X102575232Y-118357820D01*
X102583465Y-118384961D01*
X102628129Y-118468522D01*
X102688237Y-118541764D01*
X102706589Y-118556825D01*
X102969000Y-118819237D01*
X102969001Y-120506364D01*
X102966673Y-120530000D01*
X102975960Y-120624292D01*
X102996655Y-120692512D01*
X103003465Y-120714961D01*
X103048129Y-120798522D01*
X103108237Y-120871764D01*
X103126589Y-120886825D01*
X103442157Y-121202393D01*
X103442157Y-122040002D01*
X103454317Y-122163463D01*
X103490329Y-122282180D01*
X103548810Y-122391590D01*
X103627512Y-122487488D01*
X103723410Y-122566190D01*
X103832820Y-122624671D01*
X103951537Y-122660683D01*
X104074998Y-122672843D01*
X104600002Y-122672843D01*
X104723463Y-122660683D01*
X104842180Y-122624671D01*
X104951590Y-122566190D01*
X105047488Y-122487488D01*
X105126190Y-122391590D01*
X105184671Y-122282180D01*
X105220683Y-122163463D01*
X105232843Y-122040002D01*
X105232843Y-121139998D01*
X105267157Y-121139998D01*
X105267157Y-122040002D01*
X105279317Y-122163463D01*
X105315329Y-122282180D01*
X105373810Y-122391590D01*
X105452512Y-122487488D01*
X105548410Y-122566190D01*
X105657820Y-122624671D01*
X105776537Y-122660683D01*
X105899998Y-122672843D01*
X106425002Y-122672843D01*
X106548463Y-122660683D01*
X106667180Y-122624671D01*
X106776590Y-122566190D01*
X106872488Y-122487488D01*
X106951190Y-122391590D01*
X107009671Y-122282180D01*
X107045683Y-122163463D01*
X107054790Y-122071000D01*
X107756812Y-122071000D01*
X107799102Y-122173097D01*
X107933820Y-122374717D01*
X108105283Y-122546180D01*
X108306903Y-122680898D01*
X108530931Y-122773693D01*
X108768757Y-122821000D01*
X109011243Y-122821000D01*
X109249069Y-122773693D01*
X109473097Y-122680898D01*
X109674717Y-122546180D01*
X109846180Y-122374717D01*
X109980898Y-122173097D01*
X110073693Y-121949069D01*
X110121000Y-121711243D01*
X110121000Y-121468757D01*
X110073693Y-121230931D01*
X109980898Y-121006903D01*
X109846180Y-120805283D01*
X109674717Y-120633820D01*
X109473097Y-120499102D01*
X109249069Y-120406307D01*
X109011243Y-120359000D01*
X108768757Y-120359000D01*
X108530931Y-120406307D01*
X108306903Y-120499102D01*
X108105283Y-120633820D01*
X107933820Y-120805283D01*
X107799102Y-121006903D01*
X107756812Y-121109000D01*
X107054790Y-121109000D01*
X107045683Y-121016537D01*
X107009671Y-120897820D01*
X106951190Y-120788410D01*
X106872488Y-120692512D01*
X106776590Y-120613810D01*
X106667180Y-120555329D01*
X106548463Y-120519317D01*
X106425002Y-120507157D01*
X105899998Y-120507157D01*
X105776537Y-120519317D01*
X105657820Y-120555329D01*
X105548410Y-120613810D01*
X105452512Y-120692512D01*
X105373810Y-120788410D01*
X105315329Y-120897820D01*
X105279317Y-121016537D01*
X105267157Y-121139998D01*
X105232843Y-121139998D01*
X105220683Y-121016537D01*
X105184671Y-120897820D01*
X105126190Y-120788410D01*
X105047488Y-120692512D01*
X104951590Y-120613810D01*
X104842180Y-120555329D01*
X104723463Y-120519317D01*
X104600002Y-120507157D01*
X104107393Y-120507157D01*
X103931000Y-120330764D01*
X103931000Y-120114453D01*
X103951537Y-120120683D01*
X104074998Y-120132843D01*
X104600002Y-120132843D01*
X104723463Y-120120683D01*
X104842180Y-120084671D01*
X104951590Y-120026190D01*
X105047488Y-119947488D01*
X105126190Y-119851590D01*
X105184671Y-119742180D01*
X105220683Y-119623463D01*
X105232843Y-119500002D01*
X105232843Y-118599998D01*
X105267157Y-118599998D01*
X105267157Y-119500002D01*
X105279317Y-119623463D01*
X105315329Y-119742180D01*
X105373810Y-119851590D01*
X105452512Y-119947488D01*
X105548410Y-120026190D01*
X105657820Y-120084671D01*
X105776537Y-120120683D01*
X105899998Y-120132843D01*
X106425002Y-120132843D01*
X106548463Y-120120683D01*
X106667180Y-120084671D01*
X106776590Y-120026190D01*
X106872488Y-119947488D01*
X106951190Y-119851590D01*
X107009671Y-119742180D01*
X107045683Y-119623463D01*
X107054790Y-119531000D01*
X107756812Y-119531000D01*
X107799102Y-119633097D01*
X107933820Y-119834717D01*
X108105283Y-120006180D01*
X108306903Y-120140898D01*
X108530931Y-120233693D01*
X108768757Y-120281000D01*
X109011243Y-120281000D01*
X109249069Y-120233693D01*
X109473097Y-120140898D01*
X109674717Y-120006180D01*
X109846180Y-119834717D01*
X109980898Y-119633097D01*
X110073693Y-119409069D01*
X110121000Y-119171243D01*
X110121000Y-118928757D01*
X110073693Y-118690931D01*
X109980898Y-118466903D01*
X109846180Y-118265283D01*
X109674717Y-118093820D01*
X109473097Y-117959102D01*
X109249069Y-117866307D01*
X109011243Y-117819000D01*
X108768757Y-117819000D01*
X108530931Y-117866307D01*
X108306903Y-117959102D01*
X108105283Y-118093820D01*
X107933820Y-118265283D01*
X107799102Y-118466903D01*
X107756812Y-118569000D01*
X107054790Y-118569000D01*
X107045683Y-118476537D01*
X107009671Y-118357820D01*
X106951190Y-118248410D01*
X106872488Y-118152512D01*
X106776590Y-118073810D01*
X106667180Y-118015329D01*
X106548463Y-117979317D01*
X106425002Y-117967157D01*
X105899998Y-117967157D01*
X105776537Y-117979317D01*
X105657820Y-118015329D01*
X105548410Y-118073810D01*
X105452512Y-118152512D01*
X105373810Y-118248410D01*
X105315329Y-118357820D01*
X105279317Y-118476537D01*
X105267157Y-118599998D01*
X105232843Y-118599998D01*
X105220683Y-118476537D01*
X105184671Y-118357820D01*
X105126190Y-118248410D01*
X105047488Y-118152512D01*
X104951590Y-118073810D01*
X104842180Y-118015329D01*
X104723463Y-117979317D01*
X104600002Y-117967157D01*
X104074998Y-117967157D01*
X104068075Y-117967839D01*
X103931000Y-117830764D01*
X103931000Y-117574453D01*
X103951537Y-117580683D01*
X104074998Y-117592843D01*
X104600002Y-117592843D01*
X104723463Y-117580683D01*
X104842180Y-117544671D01*
X104951590Y-117486190D01*
X105047488Y-117407488D01*
X105126190Y-117311590D01*
X105184671Y-117202180D01*
X105220683Y-117083463D01*
X105232843Y-116960002D01*
X105232843Y-116059998D01*
X105267157Y-116059998D01*
X105267157Y-116960002D01*
X105279317Y-117083463D01*
X105315329Y-117202180D01*
X105373810Y-117311590D01*
X105452512Y-117407488D01*
X105548410Y-117486190D01*
X105657820Y-117544671D01*
X105776537Y-117580683D01*
X105899998Y-117592843D01*
X106425002Y-117592843D01*
X106548463Y-117580683D01*
X106667180Y-117544671D01*
X106776590Y-117486190D01*
X106872488Y-117407488D01*
X106951190Y-117311590D01*
X107009671Y-117202180D01*
X107045683Y-117083463D01*
X107054790Y-116991000D01*
X107756812Y-116991000D01*
X107799102Y-117093097D01*
X107933820Y-117294717D01*
X108105283Y-117466180D01*
X108306903Y-117600898D01*
X108530931Y-117693693D01*
X108768757Y-117741000D01*
X109011243Y-117741000D01*
X109249069Y-117693693D01*
X109473097Y-117600898D01*
X109674717Y-117466180D01*
X109846180Y-117294717D01*
X109980898Y-117093097D01*
X110073693Y-116869069D01*
X110121000Y-116631243D01*
X110121000Y-116388757D01*
X110073693Y-116150931D01*
X109980898Y-115926903D01*
X109846180Y-115725283D01*
X109674717Y-115553820D01*
X109473097Y-115419102D01*
X109249069Y-115326307D01*
X109011243Y-115279000D01*
X108768757Y-115279000D01*
X108530931Y-115326307D01*
X108306903Y-115419102D01*
X108105283Y-115553820D01*
X107933820Y-115725283D01*
X107799102Y-115926903D01*
X107756812Y-116029000D01*
X107054790Y-116029000D01*
X107045683Y-115936537D01*
X107009671Y-115817820D01*
X106951190Y-115708410D01*
X106872488Y-115612512D01*
X106776590Y-115533810D01*
X106667180Y-115475329D01*
X106548463Y-115439317D01*
X106425002Y-115427157D01*
X105899998Y-115427157D01*
X105776537Y-115439317D01*
X105657820Y-115475329D01*
X105548410Y-115533810D01*
X105452512Y-115612512D01*
X105373810Y-115708410D01*
X105315329Y-115817820D01*
X105279317Y-115936537D01*
X105267157Y-116059998D01*
X105232843Y-116059998D01*
X105220683Y-115936537D01*
X105184671Y-115817820D01*
X105126190Y-115708410D01*
X105047488Y-115612512D01*
X104951590Y-115533810D01*
X104842180Y-115475329D01*
X104723463Y-115439317D01*
X104600002Y-115427157D01*
X104137393Y-115427157D01*
X103931000Y-115220764D01*
X103931000Y-115034453D01*
X103951537Y-115040683D01*
X104074998Y-115052843D01*
X104600002Y-115052843D01*
X104723463Y-115040683D01*
X104842180Y-115004671D01*
X104951590Y-114946190D01*
X105047488Y-114867488D01*
X105126190Y-114771590D01*
X105184671Y-114662180D01*
X105220683Y-114543463D01*
X105232843Y-114420002D01*
X105232843Y-113519998D01*
X105267157Y-113519998D01*
X105267157Y-114420002D01*
X105279317Y-114543463D01*
X105315329Y-114662180D01*
X105373810Y-114771590D01*
X105452512Y-114867488D01*
X105548410Y-114946190D01*
X105657820Y-115004671D01*
X105776537Y-115040683D01*
X105899998Y-115052843D01*
X106425002Y-115052843D01*
X106548463Y-115040683D01*
X106667180Y-115004671D01*
X106776590Y-114946190D01*
X106872488Y-114867488D01*
X106951190Y-114771590D01*
X107009671Y-114662180D01*
X107045683Y-114543463D01*
X107054790Y-114451000D01*
X107756812Y-114451000D01*
X107799102Y-114553097D01*
X107933820Y-114754717D01*
X108105283Y-114926180D01*
X108306903Y-115060898D01*
X108530931Y-115153693D01*
X108768757Y-115201000D01*
X109011243Y-115201000D01*
X109249069Y-115153693D01*
X109473097Y-115060898D01*
X109674717Y-114926180D01*
X109846180Y-114754717D01*
X109980898Y-114553097D01*
X110073693Y-114329069D01*
X110121000Y-114091243D01*
X110121000Y-113848757D01*
X110073693Y-113610931D01*
X109980898Y-113386903D01*
X109846180Y-113185283D01*
X109674717Y-113013820D01*
X109473097Y-112879102D01*
X109249069Y-112786307D01*
X109011243Y-112739000D01*
X108768757Y-112739000D01*
X108530931Y-112786307D01*
X108306903Y-112879102D01*
X108105283Y-113013820D01*
X107933820Y-113185283D01*
X107799102Y-113386903D01*
X107756812Y-113489000D01*
X107054790Y-113489000D01*
X107045683Y-113396537D01*
X107009671Y-113277820D01*
X106951190Y-113168410D01*
X106872488Y-113072512D01*
X106776590Y-112993810D01*
X106667180Y-112935329D01*
X106548463Y-112899317D01*
X106425002Y-112887157D01*
X105899998Y-112887157D01*
X105776537Y-112899317D01*
X105657820Y-112935329D01*
X105548410Y-112993810D01*
X105452512Y-113072512D01*
X105373810Y-113168410D01*
X105315329Y-113277820D01*
X105279317Y-113396537D01*
X105267157Y-113519998D01*
X105232843Y-113519998D01*
X105220683Y-113396537D01*
X105184671Y-113277820D01*
X105126190Y-113168410D01*
X105047488Y-113072512D01*
X104951590Y-112993810D01*
X104842180Y-112935329D01*
X104723463Y-112899317D01*
X104600002Y-112887157D01*
X104077393Y-112887157D01*
X103931000Y-112740764D01*
X103931000Y-112494453D01*
X103951537Y-112500683D01*
X104074998Y-112512843D01*
X104600002Y-112512843D01*
X104723463Y-112500683D01*
X104842180Y-112464671D01*
X104951590Y-112406190D01*
X105047488Y-112327488D01*
X105126190Y-112231590D01*
X105184671Y-112122180D01*
X105220683Y-112003463D01*
X105232843Y-111880002D01*
X105232843Y-110979998D01*
X105267157Y-110979998D01*
X105267157Y-111880002D01*
X105279317Y-112003463D01*
X105315329Y-112122180D01*
X105373810Y-112231590D01*
X105452512Y-112327488D01*
X105548410Y-112406190D01*
X105657820Y-112464671D01*
X105776537Y-112500683D01*
X105899998Y-112512843D01*
X106425002Y-112512843D01*
X106548463Y-112500683D01*
X106667180Y-112464671D01*
X106776590Y-112406190D01*
X106872488Y-112327488D01*
X106951190Y-112231590D01*
X107009671Y-112122180D01*
X107045683Y-112003463D01*
X107054790Y-111911000D01*
X107756812Y-111911000D01*
X107799102Y-112013097D01*
X107933820Y-112214717D01*
X108105283Y-112386180D01*
X108306903Y-112520898D01*
X108530931Y-112613693D01*
X108768757Y-112661000D01*
X109011243Y-112661000D01*
X109249069Y-112613693D01*
X109473097Y-112520898D01*
X109674717Y-112386180D01*
X109846180Y-112214717D01*
X109980898Y-112013097D01*
X110073693Y-111789069D01*
X110121000Y-111551243D01*
X110121000Y-111308757D01*
X110073693Y-111070931D01*
X109980898Y-110846903D01*
X109846180Y-110645283D01*
X109674717Y-110473820D01*
X109473097Y-110339102D01*
X109249069Y-110246307D01*
X109011243Y-110199000D01*
X108768757Y-110199000D01*
X108530931Y-110246307D01*
X108306903Y-110339102D01*
X108105283Y-110473820D01*
X107933820Y-110645283D01*
X107799102Y-110846903D01*
X107756812Y-110949000D01*
X107054790Y-110949000D01*
X107045683Y-110856537D01*
X107009671Y-110737820D01*
X106951190Y-110628410D01*
X106872488Y-110532512D01*
X106776590Y-110453810D01*
X106667180Y-110395329D01*
X106548463Y-110359317D01*
X106425002Y-110347157D01*
X105899998Y-110347157D01*
X105776537Y-110359317D01*
X105657820Y-110395329D01*
X105548410Y-110453810D01*
X105452512Y-110532512D01*
X105373810Y-110628410D01*
X105315329Y-110737820D01*
X105279317Y-110856537D01*
X105267157Y-110979998D01*
X105232843Y-110979998D01*
X105220683Y-110856537D01*
X105184671Y-110737820D01*
X105126190Y-110628410D01*
X105047488Y-110532512D01*
X104951590Y-110453810D01*
X104842180Y-110395329D01*
X104723463Y-110359317D01*
X104600002Y-110347157D01*
X104107393Y-110347157D01*
X103931000Y-110170764D01*
X103931000Y-109964453D01*
X103951537Y-109970683D01*
X104074998Y-109982843D01*
X104600002Y-109982843D01*
X104723463Y-109970683D01*
X104842180Y-109934671D01*
X104951590Y-109876190D01*
X105047488Y-109797488D01*
X105126190Y-109701590D01*
X105184671Y-109592180D01*
X105220683Y-109473463D01*
X105232843Y-109350002D01*
X105232843Y-108449998D01*
X105220683Y-108326537D01*
X105184671Y-108207820D01*
X105126190Y-108098410D01*
X105047488Y-108002512D01*
X104951590Y-107923810D01*
X104935108Y-107915000D01*
X104951590Y-107906190D01*
X105047488Y-107827488D01*
X105126190Y-107731590D01*
X105184671Y-107622180D01*
X105220683Y-107503463D01*
X105232843Y-107380002D01*
X105232843Y-106479998D01*
X105220683Y-106356537D01*
X105184671Y-106237820D01*
X105126190Y-106128410D01*
X105047488Y-106032512D01*
X104951590Y-105953810D01*
X104842180Y-105895329D01*
X104818500Y-105888146D01*
X104818500Y-104879998D01*
X104897157Y-104879998D01*
X104897157Y-105405002D01*
X104909317Y-105528463D01*
X104945329Y-105647180D01*
X105003810Y-105756590D01*
X105082512Y-105852488D01*
X105178410Y-105931190D01*
X105287820Y-105989671D01*
X105406537Y-106025683D01*
X105455015Y-106030458D01*
X105452512Y-106032512D01*
X105373810Y-106128410D01*
X105315329Y-106237820D01*
X105279317Y-106356537D01*
X105267157Y-106479998D01*
X105267157Y-107380002D01*
X105279317Y-107503463D01*
X105315329Y-107622180D01*
X105373810Y-107731590D01*
X105452512Y-107827488D01*
X105548410Y-107906190D01*
X105564892Y-107915000D01*
X105548410Y-107923810D01*
X105452512Y-108002512D01*
X105373810Y-108098410D01*
X105315329Y-108207820D01*
X105279317Y-108326537D01*
X105267157Y-108449998D01*
X105267157Y-109350002D01*
X105279317Y-109473463D01*
X105315329Y-109592180D01*
X105373810Y-109701590D01*
X105452512Y-109797488D01*
X105548410Y-109876190D01*
X105657820Y-109934671D01*
X105776537Y-109970683D01*
X105899998Y-109982843D01*
X106425002Y-109982843D01*
X106548463Y-109970683D01*
X106667180Y-109934671D01*
X106776590Y-109876190D01*
X106872488Y-109797488D01*
X106951190Y-109701590D01*
X107009671Y-109592180D01*
X107045683Y-109473463D01*
X107055775Y-109371000D01*
X107756812Y-109371000D01*
X107799102Y-109473097D01*
X107933820Y-109674717D01*
X108105283Y-109846180D01*
X108306903Y-109980898D01*
X108530931Y-110073693D01*
X108768757Y-110121000D01*
X109011243Y-110121000D01*
X109249069Y-110073693D01*
X109473097Y-109980898D01*
X109674717Y-109846180D01*
X109846180Y-109674717D01*
X109980898Y-109473097D01*
X110073693Y-109249069D01*
X110121000Y-109011243D01*
X110121000Y-108768757D01*
X110073693Y-108530931D01*
X109980898Y-108306903D01*
X109846180Y-108105283D01*
X109674717Y-107933820D01*
X109473097Y-107799102D01*
X109249069Y-107706307D01*
X109011243Y-107659000D01*
X108768757Y-107659000D01*
X108530931Y-107706307D01*
X108306903Y-107799102D01*
X108105283Y-107933820D01*
X107933820Y-108105283D01*
X107799102Y-108306903D01*
X107756812Y-108409000D01*
X107053805Y-108409000D01*
X107045683Y-108326537D01*
X107009671Y-108207820D01*
X106951190Y-108098410D01*
X106872488Y-108002512D01*
X106776590Y-107923810D01*
X106760108Y-107915000D01*
X106776590Y-107906190D01*
X106872488Y-107827488D01*
X106951190Y-107731590D01*
X106978231Y-107681000D01*
X108016374Y-107681000D01*
X108040000Y-107683327D01*
X108063626Y-107681000D01*
X108134292Y-107674040D01*
X108224961Y-107646536D01*
X108308522Y-107601872D01*
X108381764Y-107541764D01*
X108396830Y-107523406D01*
X108428833Y-107491403D01*
X108530931Y-107533693D01*
X108768757Y-107581000D01*
X109011243Y-107581000D01*
X109249069Y-107533693D01*
X109473097Y-107440898D01*
X109674717Y-107306180D01*
X109846180Y-107134717D01*
X109980898Y-106933097D01*
X110073693Y-106709069D01*
X110121000Y-106471243D01*
X110121000Y-106228757D01*
X110073693Y-105990931D01*
X109980898Y-105766903D01*
X109846180Y-105565283D01*
X109674717Y-105393820D01*
X109473097Y-105259102D01*
X109249069Y-105166307D01*
X109011243Y-105119000D01*
X108768757Y-105119000D01*
X108530931Y-105166307D01*
X108306903Y-105259102D01*
X108105283Y-105393820D01*
X107933820Y-105565283D01*
X107799102Y-105766903D01*
X107706307Y-105990931D01*
X107659000Y-106228757D01*
X107659000Y-106471243D01*
X107706307Y-106709069D01*
X107710421Y-106719000D01*
X107057843Y-106719000D01*
X107057843Y-106479998D01*
X107045683Y-106356537D01*
X107009671Y-106237820D01*
X106951190Y-106128410D01*
X106872488Y-106032512D01*
X106776590Y-105953810D01*
X106757931Y-105943836D01*
X106781590Y-105931190D01*
X106877488Y-105852488D01*
X106956190Y-105756590D01*
X107014671Y-105647180D01*
X107022613Y-105621000D01*
X107536374Y-105621000D01*
X107560000Y-105623327D01*
X107583626Y-105621000D01*
X107654292Y-105614040D01*
X107744961Y-105586536D01*
X107828522Y-105541872D01*
X107901764Y-105481764D01*
X107916830Y-105463406D01*
X108428833Y-104951403D01*
X108530931Y-104993693D01*
X108768757Y-105041000D01*
X109011243Y-105041000D01*
X109249069Y-104993693D01*
X109473097Y-104900898D01*
X109674717Y-104766180D01*
X109846180Y-104594717D01*
X109980898Y-104393097D01*
X110073693Y-104169069D01*
X110121000Y-103931243D01*
X110121000Y-103688757D01*
X110073693Y-103450931D01*
X109980898Y-103226903D01*
X109846180Y-103025283D01*
X109674717Y-102853820D01*
X109473097Y-102719102D01*
X109249069Y-102626307D01*
X109011243Y-102579000D01*
X108768757Y-102579000D01*
X108530931Y-102626307D01*
X108306903Y-102719102D01*
X108105283Y-102853820D01*
X107933820Y-103025283D01*
X107799102Y-103226903D01*
X107706307Y-103450931D01*
X107659000Y-103688757D01*
X107659000Y-103931243D01*
X107706307Y-104169069D01*
X107748597Y-104271167D01*
X107360764Y-104659000D01*
X107021096Y-104659000D01*
X107014671Y-104637820D01*
X106956190Y-104528410D01*
X106877488Y-104432512D01*
X106781590Y-104353810D01*
X106672180Y-104295329D01*
X106553463Y-104259317D01*
X106430002Y-104247157D01*
X105529998Y-104247157D01*
X105406537Y-104259317D01*
X105287820Y-104295329D01*
X105178410Y-104353810D01*
X105082512Y-104432512D01*
X105003810Y-104528410D01*
X104945329Y-104637820D01*
X104909317Y-104756537D01*
X104897157Y-104879998D01*
X104818500Y-104879998D01*
X104818500Y-102948736D01*
X104899632Y-103029868D01*
X104897157Y-103054998D01*
X104897157Y-103580002D01*
X104909317Y-103703463D01*
X104945329Y-103822180D01*
X105003810Y-103931590D01*
X105082512Y-104027488D01*
X105178410Y-104106190D01*
X105287820Y-104164671D01*
X105406537Y-104200683D01*
X105529998Y-104212843D01*
X106430002Y-104212843D01*
X106553463Y-104200683D01*
X106672180Y-104164671D01*
X106781590Y-104106190D01*
X106877488Y-104027488D01*
X106956190Y-103931590D01*
X107014671Y-103822180D01*
X107050683Y-103703463D01*
X107062843Y-103580002D01*
X107062843Y-103054998D01*
X107050683Y-102931537D01*
X107014671Y-102812820D01*
X106956190Y-102703410D01*
X106877488Y-102607512D01*
X106781590Y-102528810D01*
X106746399Y-102510000D01*
X106753883Y-102506000D01*
X108111374Y-102506000D01*
X108135000Y-102508327D01*
X108158626Y-102506000D01*
X108229292Y-102499040D01*
X108319961Y-102471536D01*
X108403522Y-102426872D01*
X108424539Y-102409624D01*
X108530931Y-102453693D01*
X108768757Y-102501000D01*
X109011243Y-102501000D01*
X109249069Y-102453693D01*
X109473097Y-102360898D01*
X109674717Y-102226180D01*
X109846180Y-102054717D01*
X109980898Y-101853097D01*
X110073693Y-101629069D01*
X110121000Y-101391243D01*
X110121000Y-101148757D01*
X110073693Y-100910931D01*
X109980898Y-100686903D01*
X109846180Y-100485283D01*
X109674717Y-100313820D01*
X109473097Y-100179102D01*
X109249069Y-100086307D01*
X109011243Y-100039000D01*
X108768757Y-100039000D01*
X108530931Y-100086307D01*
X108306903Y-100179102D01*
X108105283Y-100313820D01*
X107933820Y-100485283D01*
X107799102Y-100686903D01*
X107706307Y-100910931D01*
X107659000Y-101148757D01*
X107659000Y-101391243D01*
X107689386Y-101544000D01*
X107062843Y-101544000D01*
X107062843Y-101439998D01*
X107050683Y-101316537D01*
X107014671Y-101197820D01*
X106956190Y-101088410D01*
X106877488Y-100992512D01*
X106781590Y-100913810D01*
X106672180Y-100855329D01*
X106553463Y-100819317D01*
X106430002Y-100807157D01*
X105529998Y-100807157D01*
X105406537Y-100819317D01*
X105287820Y-100855329D01*
X105178410Y-100913810D01*
X105082512Y-100992512D01*
X105003810Y-101088410D01*
X104945329Y-101197820D01*
X104909317Y-101316537D01*
X104897157Y-101439998D01*
X104897157Y-101666920D01*
X103798071Y-100567835D01*
X103797366Y-100566516D01*
X103743736Y-100501167D01*
X103242569Y-100000000D01*
X103561166Y-99681403D01*
X104083175Y-100203411D01*
X104098236Y-100221764D01*
X104171478Y-100281872D01*
X104208922Y-100301886D01*
X104255038Y-100326536D01*
X104345707Y-100354040D01*
X104440000Y-100363327D01*
X104463626Y-100361000D01*
X104938904Y-100361000D01*
X104945329Y-100382180D01*
X105003810Y-100491590D01*
X105082512Y-100587488D01*
X105178410Y-100666190D01*
X105287820Y-100724671D01*
X105406537Y-100760683D01*
X105529998Y-100772843D01*
X106430002Y-100772843D01*
X106553463Y-100760683D01*
X106672180Y-100724671D01*
X106781590Y-100666190D01*
X106877488Y-100587488D01*
X106956190Y-100491590D01*
X107014671Y-100382180D01*
X107050683Y-100263463D01*
X107062843Y-100140002D01*
X107062843Y-99614998D01*
X107050683Y-99491537D01*
X107014671Y-99372820D01*
X107008353Y-99361000D01*
X107831110Y-99361000D01*
X107933820Y-99514717D01*
X108105283Y-99686180D01*
X108306903Y-99820898D01*
X108530931Y-99913693D01*
X108768757Y-99961000D01*
X109011243Y-99961000D01*
X109249069Y-99913693D01*
X109473097Y-99820898D01*
X109674717Y-99686180D01*
X109846180Y-99514717D01*
X109980898Y-99313097D01*
X110073693Y-99089069D01*
X110121000Y-98851243D01*
X110121000Y-98608757D01*
X110073693Y-98370931D01*
X109980898Y-98146903D01*
X109846180Y-97945283D01*
X109674717Y-97773820D01*
X109473097Y-97639102D01*
X109249069Y-97546307D01*
X109011243Y-97499000D01*
X108768757Y-97499000D01*
X108530931Y-97546307D01*
X108306903Y-97639102D01*
X108105283Y-97773820D01*
X107933820Y-97945283D01*
X107831110Y-98099000D01*
X107007843Y-98099000D01*
X107007843Y-98090000D01*
X106996163Y-97971416D01*
X106961574Y-97857389D01*
X106905403Y-97752301D01*
X106829810Y-97660190D01*
X106737699Y-97584597D01*
X106730967Y-97580999D01*
X106771508Y-97568701D01*
X106837696Y-97533322D01*
X106895711Y-97485711D01*
X106943322Y-97427696D01*
X106978701Y-97361508D01*
X107000487Y-97289689D01*
X107007843Y-97215000D01*
X107006000Y-96987250D01*
X106910750Y-96892000D01*
X106277000Y-96892000D01*
X106277000Y-96912000D01*
X106023000Y-96912000D01*
X106023000Y-96892000D01*
X105390750Y-96892000D01*
X105380750Y-96882000D01*
X104747000Y-96882000D01*
X104747000Y-96902000D01*
X104493000Y-96902000D01*
X104493000Y-96882000D01*
X104473000Y-96882000D01*
X104473000Y-96628000D01*
X104493000Y-96628000D01*
X104493000Y-96608000D01*
X104747000Y-96608000D01*
X104747000Y-96628000D01*
X105379250Y-96628000D01*
X105389250Y-96638000D01*
X106023000Y-96638000D01*
X106023000Y-96618000D01*
X106277000Y-96618000D01*
X106277000Y-96638000D01*
X106910750Y-96638000D01*
X107006000Y-96542750D01*
X107006289Y-96506980D01*
X107700511Y-96506980D01*
X107724866Y-96587288D01*
X107824761Y-96806961D01*
X107965592Y-97002924D01*
X108141948Y-97167647D01*
X108347051Y-97294799D01*
X108573019Y-97379495D01*
X108763000Y-97319187D01*
X108763000Y-96317000D01*
X109017000Y-96317000D01*
X109017000Y-97319187D01*
X109206981Y-97379495D01*
X109432949Y-97294799D01*
X109638052Y-97167647D01*
X109814408Y-97002924D01*
X109955239Y-96806961D01*
X110055134Y-96587288D01*
X110079489Y-96506980D01*
X110018627Y-96317000D01*
X109017000Y-96317000D01*
X108763000Y-96317000D01*
X107761373Y-96317000D01*
X107700511Y-96506980D01*
X107006289Y-96506980D01*
X107007843Y-96315000D01*
X107000487Y-96240311D01*
X106981463Y-96177597D01*
X106984961Y-96176536D01*
X107068522Y-96131872D01*
X107141764Y-96071764D01*
X107156830Y-96053406D01*
X107337216Y-95873020D01*
X107700511Y-95873020D01*
X107761373Y-96063000D01*
X108763000Y-96063000D01*
X108763000Y-95060813D01*
X109017000Y-95060813D01*
X109017000Y-96063000D01*
X110018627Y-96063000D01*
X110079489Y-95873020D01*
X110055134Y-95792712D01*
X109955239Y-95573039D01*
X109814408Y-95377076D01*
X109638052Y-95212353D01*
X109432949Y-95085201D01*
X109206981Y-95000505D01*
X109017000Y-95060813D01*
X108763000Y-95060813D01*
X108573019Y-95000505D01*
X108347051Y-95085201D01*
X108141948Y-95212353D01*
X107965592Y-95377076D01*
X107824761Y-95573039D01*
X107724866Y-95792712D01*
X107700511Y-95873020D01*
X107337216Y-95873020D01*
X108421762Y-94788474D01*
X108530931Y-94833693D01*
X108768757Y-94881000D01*
X109011243Y-94881000D01*
X109249069Y-94833693D01*
X109473097Y-94740898D01*
X109674717Y-94606180D01*
X109846180Y-94434717D01*
X109980898Y-94233097D01*
X110073693Y-94009069D01*
X110121000Y-93771243D01*
X110121000Y-93528757D01*
X110073693Y-93290931D01*
X109980898Y-93066903D01*
X109846180Y-92865283D01*
X109674717Y-92693820D01*
X109473097Y-92559102D01*
X109249069Y-92466307D01*
X109011243Y-92419000D01*
X108768757Y-92419000D01*
X108530931Y-92466307D01*
X108306903Y-92559102D01*
X108105283Y-92693820D01*
X107933820Y-92865283D01*
X107881000Y-92944334D01*
X107881000Y-92799236D01*
X108428833Y-92251403D01*
X108530931Y-92293693D01*
X108768757Y-92341000D01*
X109011243Y-92341000D01*
X109249069Y-92293693D01*
X109473097Y-92200898D01*
X109674717Y-92066180D01*
X109846180Y-91894717D01*
X109980898Y-91693097D01*
X110073693Y-91469069D01*
X110121000Y-91231243D01*
X110121000Y-90988757D01*
X110073693Y-90750931D01*
X109980898Y-90526903D01*
X109846180Y-90325283D01*
X109674717Y-90153820D01*
X109473097Y-90019102D01*
X109249069Y-89926307D01*
X109011243Y-89879000D01*
X108768757Y-89879000D01*
X108530931Y-89926307D01*
X108306903Y-90019102D01*
X108105283Y-90153820D01*
X107933820Y-90325283D01*
X107799102Y-90526903D01*
X107706307Y-90750931D01*
X107659000Y-90988757D01*
X107659000Y-91231243D01*
X107706307Y-91469069D01*
X107748597Y-91571167D01*
X107461000Y-91858764D01*
X107461000Y-90669236D01*
X108421762Y-89708474D01*
X108530931Y-89753693D01*
X108768757Y-89801000D01*
X109011243Y-89801000D01*
X109249069Y-89753693D01*
X109473097Y-89660898D01*
X109674717Y-89526180D01*
X109846180Y-89354717D01*
X109980898Y-89153097D01*
X110073693Y-88929069D01*
X110121000Y-88691243D01*
X110121000Y-88448757D01*
X110073693Y-88210931D01*
X109980898Y-87986903D01*
X109846180Y-87785283D01*
X109674717Y-87613820D01*
X109473097Y-87479102D01*
X109249069Y-87386307D01*
X109011243Y-87339000D01*
X108768757Y-87339000D01*
X108530931Y-87386307D01*
X108306903Y-87479102D01*
X108105283Y-87613820D01*
X107933820Y-87785283D01*
X107799102Y-87986903D01*
X107706307Y-88210931D01*
X107659000Y-88448757D01*
X107659000Y-88691243D01*
X107706307Y-88929069D01*
X107745668Y-89024095D01*
X106773459Y-89996305D01*
X106851190Y-89901590D01*
X106909671Y-89792180D01*
X106945683Y-89673463D01*
X106957843Y-89550002D01*
X106957843Y-88649998D01*
X106945683Y-88526537D01*
X106909671Y-88407820D01*
X106851190Y-88298410D01*
X106772488Y-88202512D01*
X106676590Y-88123810D01*
X106567180Y-88065329D01*
X106543500Y-88058146D01*
X106543500Y-87746126D01*
X106545827Y-87722500D01*
X106536540Y-87628207D01*
X106528196Y-87600703D01*
X106509036Y-87537539D01*
X106464372Y-87453978D01*
X106404264Y-87380736D01*
X106385911Y-87365674D01*
X106355237Y-87335000D01*
X107179237Y-86511000D01*
X107756812Y-86511000D01*
X107799102Y-86613097D01*
X107933820Y-86814717D01*
X108105283Y-86986180D01*
X108306903Y-87120898D01*
X108530931Y-87213693D01*
X108768757Y-87261000D01*
X109011243Y-87261000D01*
X109249069Y-87213693D01*
X109473097Y-87120898D01*
X109674717Y-86986180D01*
X109846180Y-86814717D01*
X109980898Y-86613097D01*
X110073693Y-86389069D01*
X110121000Y-86151243D01*
X110121000Y-85908757D01*
X110073693Y-85670931D01*
X109980898Y-85446903D01*
X109846180Y-85245283D01*
X109674717Y-85073820D01*
X109473097Y-84939102D01*
X109249069Y-84846307D01*
X109011243Y-84799000D01*
X108768757Y-84799000D01*
X108530931Y-84846307D01*
X108306903Y-84939102D01*
X108105283Y-85073820D01*
X107933820Y-85245283D01*
X107799102Y-85446903D01*
X107756812Y-85549000D01*
X107511237Y-85549000D01*
X108428834Y-84631403D01*
X108530931Y-84673693D01*
X108768757Y-84721000D01*
X109011243Y-84721000D01*
X109249069Y-84673693D01*
X109473097Y-84580898D01*
X109674717Y-84446180D01*
X109846180Y-84274717D01*
X109980898Y-84073097D01*
X110073693Y-83849069D01*
X110121000Y-83611243D01*
X110121000Y-83368757D01*
X110073693Y-83130931D01*
X109980898Y-82906903D01*
X109846180Y-82705283D01*
X109674717Y-82533820D01*
X109473097Y-82399102D01*
X109249069Y-82306307D01*
X109011243Y-82259000D01*
X108768757Y-82259000D01*
X108530931Y-82306307D01*
X108306903Y-82399102D01*
X108105283Y-82533820D01*
X107933820Y-82705283D01*
X107799102Y-82906903D01*
X107706307Y-83130931D01*
X107659000Y-83368757D01*
X107659000Y-83611243D01*
X107706307Y-83849069D01*
X107748597Y-83951166D01*
X107046060Y-84653703D01*
X107050683Y-84638463D01*
X107062843Y-84515002D01*
X107062843Y-83989998D01*
X107050683Y-83866537D01*
X107014671Y-83747820D01*
X106956190Y-83638410D01*
X106877488Y-83542512D01*
X106781590Y-83463810D01*
X106672180Y-83405329D01*
X106553463Y-83369317D01*
X106430002Y-83357157D01*
X105529998Y-83357157D01*
X105406537Y-83369317D01*
X105391000Y-83374030D01*
X105391000Y-83305970D01*
X105406537Y-83310683D01*
X105529998Y-83322843D01*
X106430002Y-83322843D01*
X106553463Y-83310683D01*
X106672180Y-83274671D01*
X106781590Y-83216190D01*
X106877488Y-83137488D01*
X106956190Y-83041590D01*
X107014671Y-82932180D01*
X107018062Y-82921000D01*
X107376374Y-82921000D01*
X107400000Y-82923327D01*
X107423626Y-82921000D01*
X107494292Y-82914040D01*
X107584961Y-82886536D01*
X107668522Y-82841872D01*
X107741764Y-82781764D01*
X107756830Y-82763406D01*
X108428833Y-82091403D01*
X108530931Y-82133693D01*
X108768757Y-82181000D01*
X109011243Y-82181000D01*
X109249069Y-82133693D01*
X109473097Y-82040898D01*
X109674717Y-81906180D01*
X109846180Y-81734717D01*
X109980898Y-81533097D01*
X110073693Y-81309069D01*
X110121000Y-81071243D01*
X110121000Y-80828757D01*
X110073693Y-80590931D01*
X109980898Y-80366903D01*
X109846180Y-80165283D01*
X109674717Y-79993820D01*
X109473097Y-79859102D01*
X109249069Y-79766307D01*
X109011243Y-79719000D01*
X108768757Y-79719000D01*
X108530931Y-79766307D01*
X108306903Y-79859102D01*
X108105283Y-79993820D01*
X107933820Y-80165283D01*
X107799102Y-80366903D01*
X107706307Y-80590931D01*
X107659000Y-80828757D01*
X107659000Y-81071243D01*
X107706307Y-81309069D01*
X107748597Y-81411167D01*
X107200764Y-81959000D01*
X107025646Y-81959000D01*
X107014671Y-81922820D01*
X106956190Y-81813410D01*
X106877488Y-81717512D01*
X106781590Y-81638810D01*
X106672180Y-81580329D01*
X106553463Y-81544317D01*
X106430002Y-81532157D01*
X105529998Y-81532157D01*
X105406537Y-81544317D01*
X105391000Y-81549030D01*
X105391000Y-81309236D01*
X105572393Y-81127843D01*
X106430002Y-81127843D01*
X106553463Y-81115683D01*
X106672180Y-81079671D01*
X106781590Y-81021190D01*
X106877488Y-80942488D01*
X106956190Y-80846590D01*
X107014671Y-80737180D01*
X107050683Y-80618463D01*
X107062843Y-80495002D01*
X107062843Y-79969998D01*
X107050683Y-79846537D01*
X107014671Y-79727820D01*
X106956190Y-79618410D01*
X106877488Y-79522512D01*
X106781590Y-79443810D01*
X106672180Y-79385329D01*
X106553463Y-79349317D01*
X106430002Y-79337157D01*
X105529998Y-79337157D01*
X105406537Y-79349317D01*
X105287820Y-79385329D01*
X105178410Y-79443810D01*
X105082512Y-79522512D01*
X105003810Y-79618410D01*
X104945329Y-79727820D01*
X104909317Y-79846537D01*
X104897157Y-79969998D01*
X104897157Y-80442607D01*
X104586589Y-80753175D01*
X104568237Y-80768236D01*
X104553176Y-80786588D01*
X104508129Y-80841478D01*
X104463465Y-80925039D01*
X104435960Y-81015708D01*
X104426673Y-81110000D01*
X104429001Y-81133636D01*
X104429000Y-81706374D01*
X104429000Y-81706375D01*
X104429001Y-85730763D01*
X104000764Y-86159000D01*
X102973623Y-86159000D01*
X102949999Y-86156673D01*
X102926375Y-86159000D01*
X102926374Y-86159000D01*
X102855708Y-86165960D01*
X102765039Y-86193464D01*
X102681478Y-86238128D01*
X102608236Y-86298236D01*
X102593175Y-86316588D01*
X101716594Y-87193170D01*
X101698236Y-87208236D01*
X101638128Y-87281478D01*
X101593464Y-87365040D01*
X101579291Y-87411763D01*
X101565960Y-87455708D01*
X101556673Y-87550000D01*
X101559000Y-87573627D01*
X101559001Y-89690762D01*
X101400764Y-89849000D01*
X99913623Y-89849000D01*
X99889999Y-89846673D01*
X99866375Y-89849000D01*
X99866374Y-89849000D01*
X99795708Y-89855960D01*
X99705039Y-89883464D01*
X99621478Y-89928128D01*
X99548236Y-89988236D01*
X99533175Y-90006588D01*
X98680000Y-90859764D01*
X98601000Y-90780764D01*
X98601000Y-86983626D01*
X98603327Y-86960000D01*
X98594040Y-86865707D01*
X98566536Y-86775038D01*
X98533470Y-86713176D01*
X98521872Y-86691478D01*
X98461764Y-86618236D01*
X98443411Y-86603174D01*
X97811000Y-85970764D01*
X97811000Y-84283623D01*
X97813327Y-84259999D01*
X97808576Y-84211764D01*
X97804040Y-84165708D01*
X97776536Y-84075039D01*
X97731872Y-83991478D01*
X97671764Y-83918236D01*
X97653411Y-83903174D01*
X97421000Y-83670764D01*
X97421000Y-79893623D01*
X97423327Y-79869999D01*
X97419203Y-79828129D01*
X97414040Y-79775708D01*
X97386536Y-79685039D01*
X97341872Y-79601478D01*
X97281764Y-79528236D01*
X97263412Y-79513175D01*
X96557843Y-78807607D01*
X96557843Y-78144998D01*
X104897157Y-78144998D01*
X104897157Y-78670002D01*
X104909317Y-78793463D01*
X104945329Y-78912180D01*
X105003810Y-79021590D01*
X105082512Y-79117488D01*
X105178410Y-79196190D01*
X105287820Y-79254671D01*
X105406537Y-79290683D01*
X105529998Y-79302843D01*
X106430002Y-79302843D01*
X106553463Y-79290683D01*
X106672180Y-79254671D01*
X106781590Y-79196190D01*
X106877488Y-79117488D01*
X106956190Y-79021590D01*
X107014671Y-78912180D01*
X107021096Y-78891000D01*
X107756812Y-78891000D01*
X107799102Y-78993097D01*
X107933820Y-79194717D01*
X108105283Y-79366180D01*
X108306903Y-79500898D01*
X108530931Y-79593693D01*
X108768757Y-79641000D01*
X109011243Y-79641000D01*
X109249069Y-79593693D01*
X109473097Y-79500898D01*
X109674717Y-79366180D01*
X109846180Y-79194717D01*
X109980898Y-78993097D01*
X110073693Y-78769069D01*
X110121000Y-78531243D01*
X110121000Y-78288757D01*
X110073693Y-78050931D01*
X109980898Y-77826903D01*
X109846180Y-77625283D01*
X109674717Y-77453820D01*
X109473097Y-77319102D01*
X109249069Y-77226307D01*
X109011243Y-77179000D01*
X108768757Y-77179000D01*
X108530931Y-77226307D01*
X108306903Y-77319102D01*
X108105283Y-77453820D01*
X107933820Y-77625283D01*
X107799102Y-77826903D01*
X107756812Y-77929000D01*
X107022613Y-77929000D01*
X107014671Y-77902820D01*
X106956190Y-77793410D01*
X106877488Y-77697512D01*
X106781590Y-77618810D01*
X106672180Y-77560329D01*
X106553463Y-77524317D01*
X106430002Y-77512157D01*
X105529998Y-77512157D01*
X105406537Y-77524317D01*
X105287820Y-77560329D01*
X105178410Y-77618810D01*
X105082512Y-77697512D01*
X105003810Y-77793410D01*
X104945329Y-77902820D01*
X104909317Y-78021537D01*
X104897157Y-78144998D01*
X96557843Y-78144998D01*
X96557843Y-77959998D01*
X96545683Y-77836537D01*
X96509671Y-77717820D01*
X96451190Y-77608410D01*
X96372488Y-77512512D01*
X96276590Y-77433810D01*
X96167180Y-77375329D01*
X96048463Y-77339317D01*
X95925002Y-77327157D01*
X95399998Y-77327157D01*
X95276537Y-77339317D01*
X95157820Y-77375329D01*
X95048410Y-77433810D01*
X94952512Y-77512512D01*
X94873810Y-77608410D01*
X94815329Y-77717820D01*
X94779317Y-77836537D01*
X94767157Y-77959998D01*
X94767157Y-78860002D01*
X94779317Y-78983463D01*
X94815329Y-79102180D01*
X94873810Y-79211590D01*
X94952512Y-79307488D01*
X95048410Y-79386190D01*
X95157820Y-79444671D01*
X95276537Y-79480683D01*
X95399998Y-79492843D01*
X95882607Y-79492843D01*
X96459001Y-80069238D01*
X96459001Y-80163023D01*
X96451190Y-80148410D01*
X96372488Y-80052512D01*
X96276590Y-79973810D01*
X96167180Y-79915329D01*
X96048463Y-79879317D01*
X95925002Y-79867157D01*
X95399998Y-79867157D01*
X95276537Y-79879317D01*
X95157820Y-79915329D01*
X95048410Y-79973810D01*
X94952512Y-80052512D01*
X94873810Y-80148410D01*
X94815329Y-80257820D01*
X94779317Y-80376537D01*
X94767157Y-80499998D01*
X94767157Y-81400002D01*
X94779317Y-81523463D01*
X94815329Y-81642180D01*
X94873810Y-81751590D01*
X94952512Y-81847488D01*
X95048410Y-81926190D01*
X95157820Y-81984671D01*
X95276537Y-82020683D01*
X95399998Y-82032843D01*
X95882606Y-82032843D01*
X96069001Y-82219238D01*
X96069001Y-82425547D01*
X96048463Y-82419317D01*
X95925002Y-82407157D01*
X95399998Y-82407157D01*
X95276537Y-82419317D01*
X95157820Y-82455329D01*
X95048410Y-82513810D01*
X94952512Y-82592512D01*
X94873810Y-82688410D01*
X94815329Y-82797820D01*
X94779317Y-82916537D01*
X94767157Y-83039998D01*
X94767157Y-83940002D01*
X94779317Y-84063463D01*
X94815329Y-84182180D01*
X94873810Y-84291590D01*
X94952512Y-84387488D01*
X95048410Y-84466190D01*
X95157820Y-84524671D01*
X95276537Y-84560683D01*
X95399998Y-84572843D01*
X95852606Y-84572843D01*
X96069001Y-84789238D01*
X96069001Y-84965547D01*
X96048463Y-84959317D01*
X95925002Y-84947157D01*
X95399998Y-84947157D01*
X95276537Y-84959317D01*
X95157820Y-84995329D01*
X95048410Y-85053810D01*
X94952512Y-85132512D01*
X94873810Y-85228410D01*
X94815329Y-85337820D01*
X94779317Y-85456537D01*
X94767157Y-85579998D01*
X94767157Y-86480002D01*
X94779317Y-86603463D01*
X94815329Y-86722180D01*
X94873810Y-86831590D01*
X94952512Y-86927488D01*
X95048410Y-87006190D01*
X95157820Y-87064671D01*
X95276537Y-87100683D01*
X95399998Y-87112843D01*
X95902607Y-87112843D01*
X96459001Y-87669238D01*
X96459001Y-87783023D01*
X96451190Y-87768410D01*
X96372488Y-87672512D01*
X96276590Y-87593810D01*
X96167180Y-87535329D01*
X96048463Y-87499317D01*
X95925002Y-87487157D01*
X95399998Y-87487157D01*
X95276537Y-87499317D01*
X95157820Y-87535329D01*
X95048410Y-87593810D01*
X94952512Y-87672512D01*
X94873810Y-87768410D01*
X94815329Y-87877820D01*
X94779317Y-87996537D01*
X94767157Y-88119998D01*
X94767157Y-89020002D01*
X94779317Y-89143463D01*
X94815329Y-89262180D01*
X94873810Y-89371590D01*
X94952512Y-89467488D01*
X95048410Y-89546190D01*
X95157820Y-89604671D01*
X95276537Y-89640683D01*
X95399998Y-89652843D01*
X95872606Y-89652843D01*
X96069001Y-89849238D01*
X96069001Y-90045547D01*
X96048463Y-90039317D01*
X95925002Y-90027157D01*
X95399998Y-90027157D01*
X95276537Y-90039317D01*
X95157820Y-90075329D01*
X95048410Y-90133810D01*
X94952512Y-90212512D01*
X94873810Y-90308410D01*
X94815329Y-90417820D01*
X94779317Y-90536537D01*
X94767157Y-90659998D01*
X94767157Y-91560002D01*
X94779317Y-91683463D01*
X94815329Y-91802180D01*
X94873810Y-91911590D01*
X94952512Y-92007488D01*
X95048410Y-92086190D01*
X95157820Y-92144671D01*
X95276537Y-92180683D01*
X95399998Y-92192843D01*
X95832606Y-92192843D01*
X96069001Y-92429238D01*
X96069001Y-92585547D01*
X96048463Y-92579317D01*
X95925002Y-92567157D01*
X95399998Y-92567157D01*
X95276537Y-92579317D01*
X95157820Y-92615329D01*
X95048410Y-92673810D01*
X94952512Y-92752512D01*
X94873810Y-92848410D01*
X94815329Y-92957820D01*
X94779317Y-93076537D01*
X94767157Y-93199998D01*
X94767157Y-94100002D01*
X94779317Y-94223463D01*
X94815329Y-94342180D01*
X94873810Y-94451590D01*
X94952512Y-94547488D01*
X95048410Y-94626190D01*
X95157820Y-94684671D01*
X95189001Y-94694129D01*
X95189000Y-97048764D01*
X94006830Y-95866594D01*
X93991764Y-95848236D01*
X93918522Y-95788128D01*
X93834961Y-95743464D01*
X93744292Y-95715960D01*
X93673626Y-95709000D01*
X93650000Y-95706673D01*
X93626374Y-95709000D01*
X92243188Y-95709000D01*
X92200898Y-95606903D01*
X92066180Y-95405283D01*
X91894717Y-95233820D01*
X91693097Y-95099102D01*
X91469069Y-95006307D01*
X91231243Y-94959000D01*
X90988757Y-94959000D01*
X90750931Y-95006307D01*
X90526903Y-95099102D01*
X90325283Y-95233820D01*
X90153820Y-95405283D01*
X90019102Y-95606903D01*
X89926307Y-95830931D01*
X89879000Y-96068757D01*
X89716000Y-96068757D01*
X89716000Y-93528757D01*
X89879000Y-93528757D01*
X89879000Y-93771243D01*
X89926307Y-94009069D01*
X90019102Y-94233097D01*
X90153820Y-94434717D01*
X90325283Y-94606180D01*
X90526903Y-94740898D01*
X90750931Y-94833693D01*
X90988757Y-94881000D01*
X91231243Y-94881000D01*
X91469069Y-94833693D01*
X91693097Y-94740898D01*
X91894717Y-94606180D01*
X92066180Y-94434717D01*
X92200898Y-94233097D01*
X92243188Y-94131000D01*
X92945210Y-94131000D01*
X92954317Y-94223463D01*
X92990329Y-94342180D01*
X93048810Y-94451590D01*
X93127512Y-94547488D01*
X93223410Y-94626190D01*
X93332820Y-94684671D01*
X93451537Y-94720683D01*
X93574998Y-94732843D01*
X94100002Y-94732843D01*
X94223463Y-94720683D01*
X94342180Y-94684671D01*
X94451590Y-94626190D01*
X94547488Y-94547488D01*
X94626190Y-94451590D01*
X94684671Y-94342180D01*
X94720683Y-94223463D01*
X94732843Y-94100002D01*
X94732843Y-93199998D01*
X94720683Y-93076537D01*
X94684671Y-92957820D01*
X94626190Y-92848410D01*
X94547488Y-92752512D01*
X94451590Y-92673810D01*
X94342180Y-92615329D01*
X94223463Y-92579317D01*
X94100002Y-92567157D01*
X93574998Y-92567157D01*
X93451537Y-92579317D01*
X93332820Y-92615329D01*
X93223410Y-92673810D01*
X93127512Y-92752512D01*
X93048810Y-92848410D01*
X92990329Y-92957820D01*
X92954317Y-93076537D01*
X92945210Y-93169000D01*
X92243188Y-93169000D01*
X92200898Y-93066903D01*
X92066180Y-92865283D01*
X91894717Y-92693820D01*
X91693097Y-92559102D01*
X91469069Y-92466307D01*
X91231243Y-92419000D01*
X90988757Y-92419000D01*
X90750931Y-92466307D01*
X90526903Y-92559102D01*
X90325283Y-92693820D01*
X90153820Y-92865283D01*
X90019102Y-93066903D01*
X89926307Y-93290931D01*
X89879000Y-93528757D01*
X89716000Y-93528757D01*
X89716000Y-90988757D01*
X89879000Y-90988757D01*
X89879000Y-91231243D01*
X89926307Y-91469069D01*
X90019102Y-91693097D01*
X90153820Y-91894717D01*
X90325283Y-92066180D01*
X90526903Y-92200898D01*
X90750931Y-92293693D01*
X90988757Y-92341000D01*
X91231243Y-92341000D01*
X91469069Y-92293693D01*
X91693097Y-92200898D01*
X91894717Y-92066180D01*
X92066180Y-91894717D01*
X92200898Y-91693097D01*
X92243188Y-91591000D01*
X92945210Y-91591000D01*
X92954317Y-91683463D01*
X92990329Y-91802180D01*
X93048810Y-91911590D01*
X93127512Y-92007488D01*
X93223410Y-92086190D01*
X93332820Y-92144671D01*
X93451537Y-92180683D01*
X93574998Y-92192843D01*
X94100002Y-92192843D01*
X94223463Y-92180683D01*
X94342180Y-92144671D01*
X94451590Y-92086190D01*
X94547488Y-92007488D01*
X94626190Y-91911590D01*
X94684671Y-91802180D01*
X94720683Y-91683463D01*
X94732843Y-91560002D01*
X94732843Y-90659998D01*
X94720683Y-90536537D01*
X94684671Y-90417820D01*
X94626190Y-90308410D01*
X94547488Y-90212512D01*
X94451590Y-90133810D01*
X94342180Y-90075329D01*
X94223463Y-90039317D01*
X94100002Y-90027157D01*
X93574998Y-90027157D01*
X93451537Y-90039317D01*
X93332820Y-90075329D01*
X93223410Y-90133810D01*
X93127512Y-90212512D01*
X93048810Y-90308410D01*
X92990329Y-90417820D01*
X92954317Y-90536537D01*
X92945210Y-90629000D01*
X92243188Y-90629000D01*
X92200898Y-90526903D01*
X92066180Y-90325283D01*
X91894717Y-90153820D01*
X91693097Y-90019102D01*
X91469069Y-89926307D01*
X91231243Y-89879000D01*
X90988757Y-89879000D01*
X90750931Y-89926307D01*
X90526903Y-90019102D01*
X90325283Y-90153820D01*
X90153820Y-90325283D01*
X90019102Y-90526903D01*
X89926307Y-90750931D01*
X89879000Y-90988757D01*
X89716000Y-90988757D01*
X89716000Y-88448757D01*
X89879000Y-88448757D01*
X89879000Y-88691243D01*
X89926307Y-88929069D01*
X90019102Y-89153097D01*
X90153820Y-89354717D01*
X90325283Y-89526180D01*
X90526903Y-89660898D01*
X90750931Y-89753693D01*
X90988757Y-89801000D01*
X91231243Y-89801000D01*
X91469069Y-89753693D01*
X91693097Y-89660898D01*
X91894717Y-89526180D01*
X92066180Y-89354717D01*
X92200898Y-89153097D01*
X92243188Y-89051000D01*
X92945210Y-89051000D01*
X92954317Y-89143463D01*
X92990329Y-89262180D01*
X93048810Y-89371590D01*
X93127512Y-89467488D01*
X93223410Y-89546190D01*
X93332820Y-89604671D01*
X93451537Y-89640683D01*
X93574998Y-89652843D01*
X94100002Y-89652843D01*
X94223463Y-89640683D01*
X94342180Y-89604671D01*
X94451590Y-89546190D01*
X94547488Y-89467488D01*
X94626190Y-89371590D01*
X94684671Y-89262180D01*
X94720683Y-89143463D01*
X94732843Y-89020002D01*
X94732843Y-88119998D01*
X94720683Y-87996537D01*
X94684671Y-87877820D01*
X94626190Y-87768410D01*
X94547488Y-87672512D01*
X94451590Y-87593810D01*
X94342180Y-87535329D01*
X94223463Y-87499317D01*
X94100002Y-87487157D01*
X93574998Y-87487157D01*
X93451537Y-87499317D01*
X93332820Y-87535329D01*
X93223410Y-87593810D01*
X93127512Y-87672512D01*
X93048810Y-87768410D01*
X92990329Y-87877820D01*
X92954317Y-87996537D01*
X92945210Y-88089000D01*
X92243188Y-88089000D01*
X92200898Y-87986903D01*
X92066180Y-87785283D01*
X91894717Y-87613820D01*
X91693097Y-87479102D01*
X91469069Y-87386307D01*
X91231243Y-87339000D01*
X90988757Y-87339000D01*
X90750931Y-87386307D01*
X90526903Y-87479102D01*
X90325283Y-87613820D01*
X90153820Y-87785283D01*
X90019102Y-87986903D01*
X89926307Y-88210931D01*
X89879000Y-88448757D01*
X89716000Y-88448757D01*
X89716000Y-85908757D01*
X89879000Y-85908757D01*
X89879000Y-86151243D01*
X89926307Y-86389069D01*
X90019102Y-86613097D01*
X90153820Y-86814717D01*
X90325283Y-86986180D01*
X90526903Y-87120898D01*
X90750931Y-87213693D01*
X90988757Y-87261000D01*
X91231243Y-87261000D01*
X91469069Y-87213693D01*
X91693097Y-87120898D01*
X91894717Y-86986180D01*
X92066180Y-86814717D01*
X92200898Y-86613097D01*
X92243188Y-86511000D01*
X92945210Y-86511000D01*
X92954317Y-86603463D01*
X92990329Y-86722180D01*
X93048810Y-86831590D01*
X93127512Y-86927488D01*
X93223410Y-87006190D01*
X93332820Y-87064671D01*
X93451537Y-87100683D01*
X93574998Y-87112843D01*
X94100002Y-87112843D01*
X94223463Y-87100683D01*
X94342180Y-87064671D01*
X94451590Y-87006190D01*
X94547488Y-86927488D01*
X94626190Y-86831590D01*
X94684671Y-86722180D01*
X94720683Y-86603463D01*
X94732843Y-86480002D01*
X94732843Y-85579998D01*
X94720683Y-85456537D01*
X94684671Y-85337820D01*
X94626190Y-85228410D01*
X94547488Y-85132512D01*
X94451590Y-85053810D01*
X94342180Y-84995329D01*
X94223463Y-84959317D01*
X94100002Y-84947157D01*
X93574998Y-84947157D01*
X93451537Y-84959317D01*
X93332820Y-84995329D01*
X93223410Y-85053810D01*
X93127512Y-85132512D01*
X93048810Y-85228410D01*
X92990329Y-85337820D01*
X92954317Y-85456537D01*
X92945210Y-85549000D01*
X92243188Y-85549000D01*
X92200898Y-85446903D01*
X92066180Y-85245283D01*
X91894717Y-85073820D01*
X91693097Y-84939102D01*
X91469069Y-84846307D01*
X91231243Y-84799000D01*
X90988757Y-84799000D01*
X90750931Y-84846307D01*
X90526903Y-84939102D01*
X90325283Y-85073820D01*
X90153820Y-85245283D01*
X90019102Y-85446903D01*
X89926307Y-85670931D01*
X89879000Y-85908757D01*
X89716000Y-85908757D01*
X89716000Y-83368757D01*
X89879000Y-83368757D01*
X89879000Y-83611243D01*
X89926307Y-83849069D01*
X90019102Y-84073097D01*
X90153820Y-84274717D01*
X90325283Y-84446180D01*
X90526903Y-84580898D01*
X90750931Y-84673693D01*
X90988757Y-84721000D01*
X91231243Y-84721000D01*
X91469069Y-84673693D01*
X91693097Y-84580898D01*
X91894717Y-84446180D01*
X92066180Y-84274717D01*
X92200898Y-84073097D01*
X92243188Y-83971000D01*
X92945210Y-83971000D01*
X92954317Y-84063463D01*
X92990329Y-84182180D01*
X93048810Y-84291590D01*
X93127512Y-84387488D01*
X93223410Y-84466190D01*
X93332820Y-84524671D01*
X93451537Y-84560683D01*
X93574998Y-84572843D01*
X94100002Y-84572843D01*
X94223463Y-84560683D01*
X94342180Y-84524671D01*
X94451590Y-84466190D01*
X94547488Y-84387488D01*
X94626190Y-84291590D01*
X94684671Y-84182180D01*
X94720683Y-84063463D01*
X94732843Y-83940002D01*
X94732843Y-83039998D01*
X94720683Y-82916537D01*
X94684671Y-82797820D01*
X94626190Y-82688410D01*
X94547488Y-82592512D01*
X94451590Y-82513810D01*
X94342180Y-82455329D01*
X94223463Y-82419317D01*
X94100002Y-82407157D01*
X93574998Y-82407157D01*
X93451537Y-82419317D01*
X93332820Y-82455329D01*
X93223410Y-82513810D01*
X93127512Y-82592512D01*
X93048810Y-82688410D01*
X92990329Y-82797820D01*
X92954317Y-82916537D01*
X92945210Y-83009000D01*
X92243188Y-83009000D01*
X92200898Y-82906903D01*
X92066180Y-82705283D01*
X91894717Y-82533820D01*
X91693097Y-82399102D01*
X91469069Y-82306307D01*
X91231243Y-82259000D01*
X90988757Y-82259000D01*
X90750931Y-82306307D01*
X90526903Y-82399102D01*
X90325283Y-82533820D01*
X90153820Y-82705283D01*
X90019102Y-82906903D01*
X89926307Y-83130931D01*
X89879000Y-83368757D01*
X89716000Y-83368757D01*
X89716000Y-80828757D01*
X89879000Y-80828757D01*
X89879000Y-81071243D01*
X89926307Y-81309069D01*
X90019102Y-81533097D01*
X90153820Y-81734717D01*
X90325283Y-81906180D01*
X90526903Y-82040898D01*
X90750931Y-82133693D01*
X90988757Y-82181000D01*
X91231243Y-82181000D01*
X91469069Y-82133693D01*
X91693097Y-82040898D01*
X91894717Y-81906180D01*
X92066180Y-81734717D01*
X92200898Y-81533097D01*
X92243188Y-81431000D01*
X92945210Y-81431000D01*
X92954317Y-81523463D01*
X92990329Y-81642180D01*
X93048810Y-81751590D01*
X93127512Y-81847488D01*
X93223410Y-81926190D01*
X93332820Y-81984671D01*
X93451537Y-82020683D01*
X93574998Y-82032843D01*
X94100002Y-82032843D01*
X94223463Y-82020683D01*
X94342180Y-81984671D01*
X94451590Y-81926190D01*
X94547488Y-81847488D01*
X94626190Y-81751590D01*
X94684671Y-81642180D01*
X94720683Y-81523463D01*
X94732843Y-81400002D01*
X94732843Y-80499998D01*
X94720683Y-80376537D01*
X94684671Y-80257820D01*
X94626190Y-80148410D01*
X94547488Y-80052512D01*
X94451590Y-79973810D01*
X94342180Y-79915329D01*
X94223463Y-79879317D01*
X94100002Y-79867157D01*
X93574998Y-79867157D01*
X93451537Y-79879317D01*
X93332820Y-79915329D01*
X93223410Y-79973810D01*
X93127512Y-80052512D01*
X93048810Y-80148410D01*
X92990329Y-80257820D01*
X92954317Y-80376537D01*
X92945210Y-80469000D01*
X92243188Y-80469000D01*
X92200898Y-80366903D01*
X92066180Y-80165283D01*
X91894717Y-79993820D01*
X91693097Y-79859102D01*
X91469069Y-79766307D01*
X91231243Y-79719000D01*
X90988757Y-79719000D01*
X90750931Y-79766307D01*
X90526903Y-79859102D01*
X90325283Y-79993820D01*
X90153820Y-80165283D01*
X90019102Y-80366903D01*
X89926307Y-80590931D01*
X89879000Y-80828757D01*
X89716000Y-80828757D01*
X89716000Y-78288757D01*
X89879000Y-78288757D01*
X89879000Y-78531243D01*
X89926307Y-78769069D01*
X90019102Y-78993097D01*
X90153820Y-79194717D01*
X90325283Y-79366180D01*
X90526903Y-79500898D01*
X90750931Y-79593693D01*
X90988757Y-79641000D01*
X91231243Y-79641000D01*
X91469069Y-79593693D01*
X91693097Y-79500898D01*
X91894717Y-79366180D01*
X92066180Y-79194717D01*
X92200898Y-78993097D01*
X92243188Y-78891000D01*
X92945210Y-78891000D01*
X92954317Y-78983463D01*
X92990329Y-79102180D01*
X93048810Y-79211590D01*
X93127512Y-79307488D01*
X93223410Y-79386190D01*
X93332820Y-79444671D01*
X93451537Y-79480683D01*
X93574998Y-79492843D01*
X94100002Y-79492843D01*
X94223463Y-79480683D01*
X94342180Y-79444671D01*
X94451590Y-79386190D01*
X94547488Y-79307488D01*
X94626190Y-79211590D01*
X94684671Y-79102180D01*
X94720683Y-78983463D01*
X94732843Y-78860002D01*
X94732843Y-77959998D01*
X94720683Y-77836537D01*
X94684671Y-77717820D01*
X94626190Y-77608410D01*
X94547488Y-77512512D01*
X94451590Y-77433810D01*
X94342180Y-77375329D01*
X94223463Y-77339317D01*
X94100002Y-77327157D01*
X93574998Y-77327157D01*
X93451537Y-77339317D01*
X93332820Y-77375329D01*
X93223410Y-77433810D01*
X93127512Y-77512512D01*
X93048810Y-77608410D01*
X92990329Y-77717820D01*
X92954317Y-77836537D01*
X92945210Y-77929000D01*
X92243188Y-77929000D01*
X92200898Y-77826903D01*
X92066180Y-77625283D01*
X91894717Y-77453820D01*
X91693097Y-77319102D01*
X91469069Y-77226307D01*
X91231243Y-77179000D01*
X90988757Y-77179000D01*
X90750931Y-77226307D01*
X90526903Y-77319102D01*
X90325283Y-77453820D01*
X90153820Y-77625283D01*
X90019102Y-77826903D01*
X89926307Y-78050931D01*
X89879000Y-78288757D01*
X89716000Y-78288757D01*
X89716000Y-77016000D01*
X110234000Y-77016000D01*
X110234001Y-122954000D01*
G37*
G04 #@! TD.AperFunction*
D17*
X102849001Y-92930763D02*
X102720764Y-93059000D01*
X102553623Y-93059000D01*
X102529999Y-93056673D01*
X102506375Y-93059000D01*
X102506374Y-93059000D01*
X102435708Y-93065960D01*
X102345039Y-93093464D01*
X102261478Y-93138128D01*
X102188236Y-93198236D01*
X102173175Y-93216588D01*
X101818249Y-93571514D01*
X101835487Y-93514689D01*
X101842843Y-93440000D01*
X101841000Y-93149750D01*
X101745750Y-93054500D01*
X100887000Y-93054500D01*
X100887000Y-93725750D01*
X100982250Y-93821000D01*
X101460000Y-93822843D01*
X101534689Y-93815487D01*
X101591515Y-93798249D01*
X101473200Y-93916564D01*
X101452180Y-93905329D01*
X101333463Y-93869317D01*
X101210002Y-93857157D01*
X100309998Y-93857157D01*
X100211000Y-93866908D01*
X100211000Y-93822260D01*
X100537750Y-93821000D01*
X100633000Y-93725750D01*
X100633000Y-93054500D01*
X100613000Y-93054500D01*
X100613000Y-92800500D01*
X100633000Y-92800500D01*
X100633000Y-92129250D01*
X100887000Y-92129250D01*
X100887000Y-92800500D01*
X101745750Y-92800500D01*
X101841000Y-92705250D01*
X101842843Y-92415000D01*
X101835487Y-92340311D01*
X101813701Y-92268492D01*
X101778322Y-92202304D01*
X101730711Y-92144289D01*
X101672696Y-92096678D01*
X101606508Y-92061299D01*
X101534689Y-92039513D01*
X101460000Y-92032157D01*
X100982250Y-92034000D01*
X100887000Y-92129250D01*
X100633000Y-92129250D01*
X100537750Y-92034000D01*
X100211000Y-92032740D01*
X100211000Y-91839236D01*
X100419237Y-91631000D01*
X101926374Y-91631000D01*
X101950000Y-91633327D01*
X101973626Y-91631000D01*
X102044292Y-91624040D01*
X102134961Y-91596536D01*
X102218522Y-91551872D01*
X102291764Y-91491764D01*
X102306830Y-91473406D01*
X102849001Y-90931236D01*
X102849001Y-92930763D01*
G04 #@! TA.AperFunction,Conductor*
D18*
G36*
X102849001Y-92930763D02*
G01*
X102720764Y-93059000D01*
X102553623Y-93059000D01*
X102529999Y-93056673D01*
X102506375Y-93059000D01*
X102506374Y-93059000D01*
X102435708Y-93065960D01*
X102345039Y-93093464D01*
X102261478Y-93138128D01*
X102188236Y-93198236D01*
X102173175Y-93216588D01*
X101818249Y-93571514D01*
X101835487Y-93514689D01*
X101842843Y-93440000D01*
X101841000Y-93149750D01*
X101745750Y-93054500D01*
X100887000Y-93054500D01*
X100887000Y-93725750D01*
X100982250Y-93821000D01*
X101460000Y-93822843D01*
X101534689Y-93815487D01*
X101591515Y-93798249D01*
X101473200Y-93916564D01*
X101452180Y-93905329D01*
X101333463Y-93869317D01*
X101210002Y-93857157D01*
X100309998Y-93857157D01*
X100211000Y-93866908D01*
X100211000Y-93822260D01*
X100537750Y-93821000D01*
X100633000Y-93725750D01*
X100633000Y-93054500D01*
X100613000Y-93054500D01*
X100613000Y-92800500D01*
X100633000Y-92800500D01*
X100633000Y-92129250D01*
X100887000Y-92129250D01*
X100887000Y-92800500D01*
X101745750Y-92800500D01*
X101841000Y-92705250D01*
X101842843Y-92415000D01*
X101835487Y-92340311D01*
X101813701Y-92268492D01*
X101778322Y-92202304D01*
X101730711Y-92144289D01*
X101672696Y-92096678D01*
X101606508Y-92061299D01*
X101534689Y-92039513D01*
X101460000Y-92032157D01*
X100982250Y-92034000D01*
X100887000Y-92129250D01*
X100633000Y-92129250D01*
X100537750Y-92034000D01*
X100211000Y-92032740D01*
X100211000Y-91839236D01*
X100419237Y-91631000D01*
X101926374Y-91631000D01*
X101950000Y-91633327D01*
X101973626Y-91631000D01*
X102044292Y-91624040D01*
X102134961Y-91596536D01*
X102218522Y-91551872D01*
X102291764Y-91491764D01*
X102306830Y-91473406D01*
X102849001Y-90931236D01*
X102849001Y-92930763D01*
G37*
G04 #@! TD.AperFunction*
M02*
