G04 #@! TF.GenerationSoftware,KiCad,Pcbnew,(5.1.10)-1*
G04 #@! TF.CreationDate,2021-11-17T00:20:23+10:00*
G04 #@! TF.ProjectId,IS31FL3743x_Breakout,49533331-464c-4333-9734-33785f427265,rev?*
G04 #@! TF.SameCoordinates,Original*
G04 #@! TF.FileFunction,Soldermask,Top*
G04 #@! TF.FilePolarity,Negative*
%FSLAX46Y46*%
G04 Gerber Fmt 4.6, Leading zero omitted, Abs format (unit mm)*
G04 Created by KiCad (PCBNEW (5.1.10)-1) date 2021-11-17 00:20:23*
%MOMM*%
%LPD*%
G01*
G04 APERTURE LIST*
%ADD10C,3.400000*%
%ADD11O,1.700000X1.700000*%
%ADD12C,0.100000*%
G04 APERTURE END LIST*
D10*
X98000000Y-119000000D03*
X101000000Y-81000000D03*
D11*
X108890000Y-121590000D03*
X108890000Y-119050000D03*
X108890000Y-116510000D03*
X108890000Y-113970000D03*
X108890000Y-111430000D03*
X108890000Y-108890000D03*
X108890000Y-106350000D03*
X108890000Y-103810000D03*
X108890000Y-101270000D03*
X108890000Y-98730000D03*
X108890000Y-96190000D03*
X108890000Y-93650000D03*
X108890000Y-91110000D03*
X108890000Y-88570000D03*
X108890000Y-86030000D03*
X108890000Y-83490000D03*
X108890000Y-80950000D03*
X108890000Y-78410000D03*
X91110000Y-121590000D03*
X91110000Y-119050000D03*
X91110000Y-116510000D03*
X91110000Y-113970000D03*
X91110000Y-111430000D03*
X91110000Y-108890000D03*
X91110000Y-106350000D03*
X91110000Y-103810000D03*
X91110000Y-101270000D03*
X91110000Y-98730000D03*
X91110000Y-96190000D03*
X91110000Y-93650000D03*
X91110000Y-91110000D03*
X91110000Y-88570000D03*
X91110000Y-86030000D03*
X91110000Y-83490000D03*
X91110000Y-80950000D03*
X91110000Y-78410000D03*
D12*
G36*
X100000000Y-102404163D02*
G01*
X97595837Y-100000000D01*
X100000000Y-97595837D01*
X102404163Y-100000000D01*
X100000000Y-102404163D01*
G37*
G36*
G01*
X97165634Y-99866781D02*
X96526975Y-99228122D01*
G75*
G02*
X96526975Y-99159674I34224J34224D01*
G01*
X96614090Y-99072559D01*
G75*
G02*
X96682538Y-99072559I34224J-34224D01*
G01*
X97321197Y-99711218D01*
G75*
G02*
X97321197Y-99779666I-34224J-34224D01*
G01*
X97234082Y-99866781D01*
G75*
G02*
X97165634Y-99866781I-34224J34224D01*
G01*
G37*
G36*
G01*
X97448476Y-99583938D02*
X96809817Y-98945279D01*
G75*
G02*
X96809817Y-98876831I34224J34224D01*
G01*
X96896932Y-98789716D01*
G75*
G02*
X96965380Y-98789716I34224J-34224D01*
G01*
X97604039Y-99428375D01*
G75*
G02*
X97604039Y-99496823I-34224J-34224D01*
G01*
X97516924Y-99583938D01*
G75*
G02*
X97448476Y-99583938I-34224J34224D01*
G01*
G37*
G36*
G01*
X97731319Y-99301095D02*
X97092660Y-98662436D01*
G75*
G02*
X97092660Y-98593988I34224J34224D01*
G01*
X97179775Y-98506873D01*
G75*
G02*
X97248223Y-98506873I34224J-34224D01*
G01*
X97886882Y-99145532D01*
G75*
G02*
X97886882Y-99213980I-34224J-34224D01*
G01*
X97799767Y-99301095D01*
G75*
G02*
X97731319Y-99301095I-34224J34224D01*
G01*
G37*
G36*
G01*
X98014162Y-99018253D02*
X97375503Y-98379594D01*
G75*
G02*
X97375503Y-98311146I34224J34224D01*
G01*
X97462618Y-98224031D01*
G75*
G02*
X97531066Y-98224031I34224J-34224D01*
G01*
X98169725Y-98862690D01*
G75*
G02*
X98169725Y-98931138I-34224J-34224D01*
G01*
X98082610Y-99018253D01*
G75*
G02*
X98014162Y-99018253I-34224J34224D01*
G01*
G37*
G36*
G01*
X98297004Y-98735410D02*
X97658345Y-98096751D01*
G75*
G02*
X97658345Y-98028303I34224J34224D01*
G01*
X97745460Y-97941188D01*
G75*
G02*
X97813908Y-97941188I34224J-34224D01*
G01*
X98452567Y-98579847D01*
G75*
G02*
X98452567Y-98648295I-34224J-34224D01*
G01*
X98365452Y-98735410D01*
G75*
G02*
X98297004Y-98735410I-34224J34224D01*
G01*
G37*
G36*
G01*
X98579847Y-98452567D02*
X97941188Y-97813908D01*
G75*
G02*
X97941188Y-97745460I34224J34224D01*
G01*
X98028303Y-97658345D01*
G75*
G02*
X98096751Y-97658345I34224J-34224D01*
G01*
X98735410Y-98297004D01*
G75*
G02*
X98735410Y-98365452I-34224J-34224D01*
G01*
X98648295Y-98452567D01*
G75*
G02*
X98579847Y-98452567I-34224J34224D01*
G01*
G37*
G36*
G01*
X98862690Y-98169725D02*
X98224031Y-97531066D01*
G75*
G02*
X98224031Y-97462618I34224J34224D01*
G01*
X98311146Y-97375503D01*
G75*
G02*
X98379594Y-97375503I34224J-34224D01*
G01*
X99018253Y-98014162D01*
G75*
G02*
X99018253Y-98082610I-34224J-34224D01*
G01*
X98931138Y-98169725D01*
G75*
G02*
X98862690Y-98169725I-34224J34224D01*
G01*
G37*
G36*
G01*
X99145532Y-97886882D02*
X98506873Y-97248223D01*
G75*
G02*
X98506873Y-97179775I34224J34224D01*
G01*
X98593988Y-97092660D01*
G75*
G02*
X98662436Y-97092660I34224J-34224D01*
G01*
X99301095Y-97731319D01*
G75*
G02*
X99301095Y-97799767I-34224J-34224D01*
G01*
X99213980Y-97886882D01*
G75*
G02*
X99145532Y-97886882I-34224J34224D01*
G01*
G37*
G36*
G01*
X99428375Y-97604039D02*
X98789716Y-96965380D01*
G75*
G02*
X98789716Y-96896932I34224J34224D01*
G01*
X98876831Y-96809817D01*
G75*
G02*
X98945279Y-96809817I34224J-34224D01*
G01*
X99583938Y-97448476D01*
G75*
G02*
X99583938Y-97516924I-34224J-34224D01*
G01*
X99496823Y-97604039D01*
G75*
G02*
X99428375Y-97604039I-34224J34224D01*
G01*
G37*
G36*
G01*
X99711218Y-97321197D02*
X99072559Y-96682538D01*
G75*
G02*
X99072559Y-96614090I34224J34224D01*
G01*
X99159674Y-96526975D01*
G75*
G02*
X99228122Y-96526975I34224J-34224D01*
G01*
X99866781Y-97165634D01*
G75*
G02*
X99866781Y-97234082I-34224J-34224D01*
G01*
X99779666Y-97321197D01*
G75*
G02*
X99711218Y-97321197I-34224J34224D01*
G01*
G37*
G36*
G01*
X100220334Y-97321197D02*
X100133219Y-97234082D01*
G75*
G02*
X100133219Y-97165634I34224J34224D01*
G01*
X100771878Y-96526975D01*
G75*
G02*
X100840326Y-96526975I34224J-34224D01*
G01*
X100927441Y-96614090D01*
G75*
G02*
X100927441Y-96682538I-34224J-34224D01*
G01*
X100288782Y-97321197D01*
G75*
G02*
X100220334Y-97321197I-34224J34224D01*
G01*
G37*
G36*
G01*
X100503177Y-97604039D02*
X100416062Y-97516924D01*
G75*
G02*
X100416062Y-97448476I34224J34224D01*
G01*
X101054721Y-96809817D01*
G75*
G02*
X101123169Y-96809817I34224J-34224D01*
G01*
X101210284Y-96896932D01*
G75*
G02*
X101210284Y-96965380I-34224J-34224D01*
G01*
X100571625Y-97604039D01*
G75*
G02*
X100503177Y-97604039I-34224J34224D01*
G01*
G37*
G36*
G01*
X100786020Y-97886882D02*
X100698905Y-97799767D01*
G75*
G02*
X100698905Y-97731319I34224J34224D01*
G01*
X101337564Y-97092660D01*
G75*
G02*
X101406012Y-97092660I34224J-34224D01*
G01*
X101493127Y-97179775D01*
G75*
G02*
X101493127Y-97248223I-34224J-34224D01*
G01*
X100854468Y-97886882D01*
G75*
G02*
X100786020Y-97886882I-34224J34224D01*
G01*
G37*
G36*
G01*
X101068862Y-98169725D02*
X100981747Y-98082610D01*
G75*
G02*
X100981747Y-98014162I34224J34224D01*
G01*
X101620406Y-97375503D01*
G75*
G02*
X101688854Y-97375503I34224J-34224D01*
G01*
X101775969Y-97462618D01*
G75*
G02*
X101775969Y-97531066I-34224J-34224D01*
G01*
X101137310Y-98169725D01*
G75*
G02*
X101068862Y-98169725I-34224J34224D01*
G01*
G37*
G36*
G01*
X101351705Y-98452567D02*
X101264590Y-98365452D01*
G75*
G02*
X101264590Y-98297004I34224J34224D01*
G01*
X101903249Y-97658345D01*
G75*
G02*
X101971697Y-97658345I34224J-34224D01*
G01*
X102058812Y-97745460D01*
G75*
G02*
X102058812Y-97813908I-34224J-34224D01*
G01*
X101420153Y-98452567D01*
G75*
G02*
X101351705Y-98452567I-34224J34224D01*
G01*
G37*
G36*
G01*
X101634548Y-98735410D02*
X101547433Y-98648295D01*
G75*
G02*
X101547433Y-98579847I34224J34224D01*
G01*
X102186092Y-97941188D01*
G75*
G02*
X102254540Y-97941188I34224J-34224D01*
G01*
X102341655Y-98028303D01*
G75*
G02*
X102341655Y-98096751I-34224J-34224D01*
G01*
X101702996Y-98735410D01*
G75*
G02*
X101634548Y-98735410I-34224J34224D01*
G01*
G37*
G36*
G01*
X101917390Y-99018253D02*
X101830275Y-98931138D01*
G75*
G02*
X101830275Y-98862690I34224J34224D01*
G01*
X102468934Y-98224031D01*
G75*
G02*
X102537382Y-98224031I34224J-34224D01*
G01*
X102624497Y-98311146D01*
G75*
G02*
X102624497Y-98379594I-34224J-34224D01*
G01*
X101985838Y-99018253D01*
G75*
G02*
X101917390Y-99018253I-34224J34224D01*
G01*
G37*
G36*
G01*
X102200233Y-99301095D02*
X102113118Y-99213980D01*
G75*
G02*
X102113118Y-99145532I34224J34224D01*
G01*
X102751777Y-98506873D01*
G75*
G02*
X102820225Y-98506873I34224J-34224D01*
G01*
X102907340Y-98593988D01*
G75*
G02*
X102907340Y-98662436I-34224J-34224D01*
G01*
X102268681Y-99301095D01*
G75*
G02*
X102200233Y-99301095I-34224J34224D01*
G01*
G37*
G36*
G01*
X102483076Y-99583938D02*
X102395961Y-99496823D01*
G75*
G02*
X102395961Y-99428375I34224J34224D01*
G01*
X103034620Y-98789716D01*
G75*
G02*
X103103068Y-98789716I34224J-34224D01*
G01*
X103190183Y-98876831D01*
G75*
G02*
X103190183Y-98945279I-34224J-34224D01*
G01*
X102551524Y-99583938D01*
G75*
G02*
X102483076Y-99583938I-34224J34224D01*
G01*
G37*
G36*
G01*
X102765918Y-99866781D02*
X102678803Y-99779666D01*
G75*
G02*
X102678803Y-99711218I34224J34224D01*
G01*
X103317462Y-99072559D01*
G75*
G02*
X103385910Y-99072559I34224J-34224D01*
G01*
X103473025Y-99159674D01*
G75*
G02*
X103473025Y-99228122I-34224J-34224D01*
G01*
X102834366Y-99866781D01*
G75*
G02*
X102765918Y-99866781I-34224J34224D01*
G01*
G37*
G36*
G01*
X103317462Y-100927441D02*
X102678803Y-100288782D01*
G75*
G02*
X102678803Y-100220334I34224J34224D01*
G01*
X102765918Y-100133219D01*
G75*
G02*
X102834366Y-100133219I34224J-34224D01*
G01*
X103473025Y-100771878D01*
G75*
G02*
X103473025Y-100840326I-34224J-34224D01*
G01*
X103385910Y-100927441D01*
G75*
G02*
X103317462Y-100927441I-34224J34224D01*
G01*
G37*
G36*
G01*
X103034620Y-101210284D02*
X102395961Y-100571625D01*
G75*
G02*
X102395961Y-100503177I34224J34224D01*
G01*
X102483076Y-100416062D01*
G75*
G02*
X102551524Y-100416062I34224J-34224D01*
G01*
X103190183Y-101054721D01*
G75*
G02*
X103190183Y-101123169I-34224J-34224D01*
G01*
X103103068Y-101210284D01*
G75*
G02*
X103034620Y-101210284I-34224J34224D01*
G01*
G37*
G36*
G01*
X102751777Y-101493127D02*
X102113118Y-100854468D01*
G75*
G02*
X102113118Y-100786020I34224J34224D01*
G01*
X102200233Y-100698905D01*
G75*
G02*
X102268681Y-100698905I34224J-34224D01*
G01*
X102907340Y-101337564D01*
G75*
G02*
X102907340Y-101406012I-34224J-34224D01*
G01*
X102820225Y-101493127D01*
G75*
G02*
X102751777Y-101493127I-34224J34224D01*
G01*
G37*
G36*
G01*
X102468934Y-101775969D02*
X101830275Y-101137310D01*
G75*
G02*
X101830275Y-101068862I34224J34224D01*
G01*
X101917390Y-100981747D01*
G75*
G02*
X101985838Y-100981747I34224J-34224D01*
G01*
X102624497Y-101620406D01*
G75*
G02*
X102624497Y-101688854I-34224J-34224D01*
G01*
X102537382Y-101775969D01*
G75*
G02*
X102468934Y-101775969I-34224J34224D01*
G01*
G37*
G36*
G01*
X102186092Y-102058812D02*
X101547433Y-101420153D01*
G75*
G02*
X101547433Y-101351705I34224J34224D01*
G01*
X101634548Y-101264590D01*
G75*
G02*
X101702996Y-101264590I34224J-34224D01*
G01*
X102341655Y-101903249D01*
G75*
G02*
X102341655Y-101971697I-34224J-34224D01*
G01*
X102254540Y-102058812D01*
G75*
G02*
X102186092Y-102058812I-34224J34224D01*
G01*
G37*
G36*
G01*
X101903249Y-102341655D02*
X101264590Y-101702996D01*
G75*
G02*
X101264590Y-101634548I34224J34224D01*
G01*
X101351705Y-101547433D01*
G75*
G02*
X101420153Y-101547433I34224J-34224D01*
G01*
X102058812Y-102186092D01*
G75*
G02*
X102058812Y-102254540I-34224J-34224D01*
G01*
X101971697Y-102341655D01*
G75*
G02*
X101903249Y-102341655I-34224J34224D01*
G01*
G37*
G36*
G01*
X101620406Y-102624497D02*
X100981747Y-101985838D01*
G75*
G02*
X100981747Y-101917390I34224J34224D01*
G01*
X101068862Y-101830275D01*
G75*
G02*
X101137310Y-101830275I34224J-34224D01*
G01*
X101775969Y-102468934D01*
G75*
G02*
X101775969Y-102537382I-34224J-34224D01*
G01*
X101688854Y-102624497D01*
G75*
G02*
X101620406Y-102624497I-34224J34224D01*
G01*
G37*
G36*
G01*
X101337564Y-102907340D02*
X100698905Y-102268681D01*
G75*
G02*
X100698905Y-102200233I34224J34224D01*
G01*
X100786020Y-102113118D01*
G75*
G02*
X100854468Y-102113118I34224J-34224D01*
G01*
X101493127Y-102751777D01*
G75*
G02*
X101493127Y-102820225I-34224J-34224D01*
G01*
X101406012Y-102907340D01*
G75*
G02*
X101337564Y-102907340I-34224J34224D01*
G01*
G37*
G36*
G01*
X101054721Y-103190183D02*
X100416062Y-102551524D01*
G75*
G02*
X100416062Y-102483076I34224J34224D01*
G01*
X100503177Y-102395961D01*
G75*
G02*
X100571625Y-102395961I34224J-34224D01*
G01*
X101210284Y-103034620D01*
G75*
G02*
X101210284Y-103103068I-34224J-34224D01*
G01*
X101123169Y-103190183D01*
G75*
G02*
X101054721Y-103190183I-34224J34224D01*
G01*
G37*
G36*
G01*
X100771878Y-103473025D02*
X100133219Y-102834366D01*
G75*
G02*
X100133219Y-102765918I34224J34224D01*
G01*
X100220334Y-102678803D01*
G75*
G02*
X100288782Y-102678803I34224J-34224D01*
G01*
X100927441Y-103317462D01*
G75*
G02*
X100927441Y-103385910I-34224J-34224D01*
G01*
X100840326Y-103473025D01*
G75*
G02*
X100771878Y-103473025I-34224J34224D01*
G01*
G37*
G36*
G01*
X99159674Y-103473025D02*
X99072559Y-103385910D01*
G75*
G02*
X99072559Y-103317462I34224J34224D01*
G01*
X99711218Y-102678803D01*
G75*
G02*
X99779666Y-102678803I34224J-34224D01*
G01*
X99866781Y-102765918D01*
G75*
G02*
X99866781Y-102834366I-34224J-34224D01*
G01*
X99228122Y-103473025D01*
G75*
G02*
X99159674Y-103473025I-34224J34224D01*
G01*
G37*
G36*
G01*
X98876831Y-103190183D02*
X98789716Y-103103068D01*
G75*
G02*
X98789716Y-103034620I34224J34224D01*
G01*
X99428375Y-102395961D01*
G75*
G02*
X99496823Y-102395961I34224J-34224D01*
G01*
X99583938Y-102483076D01*
G75*
G02*
X99583938Y-102551524I-34224J-34224D01*
G01*
X98945279Y-103190183D01*
G75*
G02*
X98876831Y-103190183I-34224J34224D01*
G01*
G37*
G36*
G01*
X98593988Y-102907340D02*
X98506873Y-102820225D01*
G75*
G02*
X98506873Y-102751777I34224J34224D01*
G01*
X99145532Y-102113118D01*
G75*
G02*
X99213980Y-102113118I34224J-34224D01*
G01*
X99301095Y-102200233D01*
G75*
G02*
X99301095Y-102268681I-34224J-34224D01*
G01*
X98662436Y-102907340D01*
G75*
G02*
X98593988Y-102907340I-34224J34224D01*
G01*
G37*
G36*
G01*
X98311146Y-102624497D02*
X98224031Y-102537382D01*
G75*
G02*
X98224031Y-102468934I34224J34224D01*
G01*
X98862690Y-101830275D01*
G75*
G02*
X98931138Y-101830275I34224J-34224D01*
G01*
X99018253Y-101917390D01*
G75*
G02*
X99018253Y-101985838I-34224J-34224D01*
G01*
X98379594Y-102624497D01*
G75*
G02*
X98311146Y-102624497I-34224J34224D01*
G01*
G37*
G36*
G01*
X98028303Y-102341655D02*
X97941188Y-102254540D01*
G75*
G02*
X97941188Y-102186092I34224J34224D01*
G01*
X98579847Y-101547433D01*
G75*
G02*
X98648295Y-101547433I34224J-34224D01*
G01*
X98735410Y-101634548D01*
G75*
G02*
X98735410Y-101702996I-34224J-34224D01*
G01*
X98096751Y-102341655D01*
G75*
G02*
X98028303Y-102341655I-34224J34224D01*
G01*
G37*
G36*
G01*
X97745460Y-102058812D02*
X97658345Y-101971697D01*
G75*
G02*
X97658345Y-101903249I34224J34224D01*
G01*
X98297004Y-101264590D01*
G75*
G02*
X98365452Y-101264590I34224J-34224D01*
G01*
X98452567Y-101351705D01*
G75*
G02*
X98452567Y-101420153I-34224J-34224D01*
G01*
X97813908Y-102058812D01*
G75*
G02*
X97745460Y-102058812I-34224J34224D01*
G01*
G37*
G36*
G01*
X97462618Y-101775969D02*
X97375503Y-101688854D01*
G75*
G02*
X97375503Y-101620406I34224J34224D01*
G01*
X98014162Y-100981747D01*
G75*
G02*
X98082610Y-100981747I34224J-34224D01*
G01*
X98169725Y-101068862D01*
G75*
G02*
X98169725Y-101137310I-34224J-34224D01*
G01*
X97531066Y-101775969D01*
G75*
G02*
X97462618Y-101775969I-34224J34224D01*
G01*
G37*
G36*
G01*
X97179775Y-101493127D02*
X97092660Y-101406012D01*
G75*
G02*
X97092660Y-101337564I34224J34224D01*
G01*
X97731319Y-100698905D01*
G75*
G02*
X97799767Y-100698905I34224J-34224D01*
G01*
X97886882Y-100786020D01*
G75*
G02*
X97886882Y-100854468I-34224J-34224D01*
G01*
X97248223Y-101493127D01*
G75*
G02*
X97179775Y-101493127I-34224J34224D01*
G01*
G37*
G36*
G01*
X96896932Y-101210284D02*
X96809817Y-101123169D01*
G75*
G02*
X96809817Y-101054721I34224J34224D01*
G01*
X97448476Y-100416062D01*
G75*
G02*
X97516924Y-100416062I34224J-34224D01*
G01*
X97604039Y-100503177D01*
G75*
G02*
X97604039Y-100571625I-34224J-34224D01*
G01*
X96965380Y-101210284D01*
G75*
G02*
X96896932Y-101210284I-34224J34224D01*
G01*
G37*
G36*
G01*
X96614090Y-100927441D02*
X96526975Y-100840326D01*
G75*
G02*
X96526975Y-100771878I34224J34224D01*
G01*
X97165634Y-100133219D01*
G75*
G02*
X97234082Y-100133219I34224J-34224D01*
G01*
X97321197Y-100220334D01*
G75*
G02*
X97321197Y-100288782I-34224J-34224D01*
G01*
X96682538Y-100927441D01*
G75*
G02*
X96614090Y-100927441I-34224J34224D01*
G01*
G37*
G36*
G01*
X104750000Y-92419999D02*
X104750000Y-93320001D01*
G75*
G02*
X104500001Y-93570000I-249999J0D01*
G01*
X103974999Y-93570000D01*
G75*
G02*
X103725000Y-93320001I0J249999D01*
G01*
X103725000Y-92419999D01*
G75*
G02*
X103974999Y-92170000I249999J0D01*
G01*
X104500001Y-92170000D01*
G75*
G02*
X104750000Y-92419999I0J-249999D01*
G01*
G37*
G36*
G01*
X106575000Y-92419999D02*
X106575000Y-93320001D01*
G75*
G02*
X106325001Y-93570000I-249999J0D01*
G01*
X105799999Y-93570000D01*
G75*
G02*
X105550000Y-93320001I0J249999D01*
G01*
X105550000Y-92419999D01*
G75*
G02*
X105799999Y-92170000I249999J0D01*
G01*
X106325001Y-92170000D01*
G75*
G02*
X106575000Y-92419999I0J-249999D01*
G01*
G37*
G36*
G01*
X104750000Y-88649999D02*
X104750000Y-89550001D01*
G75*
G02*
X104500001Y-89800000I-249999J0D01*
G01*
X103974999Y-89800000D01*
G75*
G02*
X103725000Y-89550001I0J249999D01*
G01*
X103725000Y-88649999D01*
G75*
G02*
X103974999Y-88400000I249999J0D01*
G01*
X104500001Y-88400000D01*
G75*
G02*
X104750000Y-88649999I0J-249999D01*
G01*
G37*
G36*
G01*
X106575000Y-88649999D02*
X106575000Y-89550001D01*
G75*
G02*
X106325001Y-89800000I-249999J0D01*
G01*
X105799999Y-89800000D01*
G75*
G02*
X105550000Y-89550001I0J249999D01*
G01*
X105550000Y-88649999D01*
G75*
G02*
X105799999Y-88400000I249999J0D01*
G01*
X106325001Y-88400000D01*
G75*
G02*
X106575000Y-88649999I0J-249999D01*
G01*
G37*
G36*
G01*
X100309999Y-94240000D02*
X101210001Y-94240000D01*
G75*
G02*
X101460000Y-94489999I0J-249999D01*
G01*
X101460000Y-95015001D01*
G75*
G02*
X101210001Y-95265000I-249999J0D01*
G01*
X100309999Y-95265000D01*
G75*
G02*
X100060000Y-95015001I0J249999D01*
G01*
X100060000Y-94489999D01*
G75*
G02*
X100309999Y-94240000I249999J0D01*
G01*
G37*
G36*
G01*
X100309999Y-92415000D02*
X101210001Y-92415000D01*
G75*
G02*
X101460000Y-92664999I0J-249999D01*
G01*
X101460000Y-93190001D01*
G75*
G02*
X101210001Y-93440000I-249999J0D01*
G01*
X100309999Y-93440000D01*
G75*
G02*
X100060000Y-93190001I0J249999D01*
G01*
X100060000Y-92664999D01*
G75*
G02*
X100309999Y-92415000I249999J0D01*
G01*
G37*
G36*
G01*
X104850000Y-121139999D02*
X104850000Y-122040001D01*
G75*
G02*
X104600001Y-122290000I-249999J0D01*
G01*
X104074999Y-122290000D01*
G75*
G02*
X103825000Y-122040001I0J249999D01*
G01*
X103825000Y-121139999D01*
G75*
G02*
X104074999Y-120890000I249999J0D01*
G01*
X104600001Y-120890000D01*
G75*
G02*
X104850000Y-121139999I0J-249999D01*
G01*
G37*
G36*
G01*
X106675000Y-121139999D02*
X106675000Y-122040001D01*
G75*
G02*
X106425001Y-122290000I-249999J0D01*
G01*
X105899999Y-122290000D01*
G75*
G02*
X105650000Y-122040001I0J249999D01*
G01*
X105650000Y-121139999D01*
G75*
G02*
X105899999Y-120890000I249999J0D01*
G01*
X106425001Y-120890000D01*
G75*
G02*
X106675000Y-121139999I0J-249999D01*
G01*
G37*
G36*
G01*
X104850000Y-118599999D02*
X104850000Y-119500001D01*
G75*
G02*
X104600001Y-119750000I-249999J0D01*
G01*
X104074999Y-119750000D01*
G75*
G02*
X103825000Y-119500001I0J249999D01*
G01*
X103825000Y-118599999D01*
G75*
G02*
X104074999Y-118350000I249999J0D01*
G01*
X104600001Y-118350000D01*
G75*
G02*
X104850000Y-118599999I0J-249999D01*
G01*
G37*
G36*
G01*
X106675000Y-118599999D02*
X106675000Y-119500001D01*
G75*
G02*
X106425001Y-119750000I-249999J0D01*
G01*
X105899999Y-119750000D01*
G75*
G02*
X105650000Y-119500001I0J249999D01*
G01*
X105650000Y-118599999D01*
G75*
G02*
X105899999Y-118350000I249999J0D01*
G01*
X106425001Y-118350000D01*
G75*
G02*
X106675000Y-118599999I0J-249999D01*
G01*
G37*
G36*
G01*
X104850000Y-116059999D02*
X104850000Y-116960001D01*
G75*
G02*
X104600001Y-117210000I-249999J0D01*
G01*
X104074999Y-117210000D01*
G75*
G02*
X103825000Y-116960001I0J249999D01*
G01*
X103825000Y-116059999D01*
G75*
G02*
X104074999Y-115810000I249999J0D01*
G01*
X104600001Y-115810000D01*
G75*
G02*
X104850000Y-116059999I0J-249999D01*
G01*
G37*
G36*
G01*
X106675000Y-116059999D02*
X106675000Y-116960001D01*
G75*
G02*
X106425001Y-117210000I-249999J0D01*
G01*
X105899999Y-117210000D01*
G75*
G02*
X105650000Y-116960001I0J249999D01*
G01*
X105650000Y-116059999D01*
G75*
G02*
X105899999Y-115810000I249999J0D01*
G01*
X106425001Y-115810000D01*
G75*
G02*
X106675000Y-116059999I0J-249999D01*
G01*
G37*
G36*
G01*
X104850000Y-113519999D02*
X104850000Y-114420001D01*
G75*
G02*
X104600001Y-114670000I-249999J0D01*
G01*
X104074999Y-114670000D01*
G75*
G02*
X103825000Y-114420001I0J249999D01*
G01*
X103825000Y-113519999D01*
G75*
G02*
X104074999Y-113270000I249999J0D01*
G01*
X104600001Y-113270000D01*
G75*
G02*
X104850000Y-113519999I0J-249999D01*
G01*
G37*
G36*
G01*
X106675000Y-113519999D02*
X106675000Y-114420001D01*
G75*
G02*
X106425001Y-114670000I-249999J0D01*
G01*
X105899999Y-114670000D01*
G75*
G02*
X105650000Y-114420001I0J249999D01*
G01*
X105650000Y-113519999D01*
G75*
G02*
X105899999Y-113270000I249999J0D01*
G01*
X106425001Y-113270000D01*
G75*
G02*
X106675000Y-113519999I0J-249999D01*
G01*
G37*
G36*
G01*
X104850000Y-110979999D02*
X104850000Y-111880001D01*
G75*
G02*
X104600001Y-112130000I-249999J0D01*
G01*
X104074999Y-112130000D01*
G75*
G02*
X103825000Y-111880001I0J249999D01*
G01*
X103825000Y-110979999D01*
G75*
G02*
X104074999Y-110730000I249999J0D01*
G01*
X104600001Y-110730000D01*
G75*
G02*
X104850000Y-110979999I0J-249999D01*
G01*
G37*
G36*
G01*
X106675000Y-110979999D02*
X106675000Y-111880001D01*
G75*
G02*
X106425001Y-112130000I-249999J0D01*
G01*
X105899999Y-112130000D01*
G75*
G02*
X105650000Y-111880001I0J249999D01*
G01*
X105650000Y-110979999D01*
G75*
G02*
X105899999Y-110730000I249999J0D01*
G01*
X106425001Y-110730000D01*
G75*
G02*
X106675000Y-110979999I0J-249999D01*
G01*
G37*
G36*
G01*
X104850000Y-108449999D02*
X104850000Y-109350001D01*
G75*
G02*
X104600001Y-109600000I-249999J0D01*
G01*
X104074999Y-109600000D01*
G75*
G02*
X103825000Y-109350001I0J249999D01*
G01*
X103825000Y-108449999D01*
G75*
G02*
X104074999Y-108200000I249999J0D01*
G01*
X104600001Y-108200000D01*
G75*
G02*
X104850000Y-108449999I0J-249999D01*
G01*
G37*
G36*
G01*
X106675000Y-108449999D02*
X106675000Y-109350001D01*
G75*
G02*
X106425001Y-109600000I-249999J0D01*
G01*
X105899999Y-109600000D01*
G75*
G02*
X105650000Y-109350001I0J249999D01*
G01*
X105650000Y-108449999D01*
G75*
G02*
X105899999Y-108200000I249999J0D01*
G01*
X106425001Y-108200000D01*
G75*
G02*
X106675000Y-108449999I0J-249999D01*
G01*
G37*
G36*
G01*
X104850000Y-106479999D02*
X104850000Y-107380001D01*
G75*
G02*
X104600001Y-107630000I-249999J0D01*
G01*
X104074999Y-107630000D01*
G75*
G02*
X103825000Y-107380001I0J249999D01*
G01*
X103825000Y-106479999D01*
G75*
G02*
X104074999Y-106230000I249999J0D01*
G01*
X104600001Y-106230000D01*
G75*
G02*
X104850000Y-106479999I0J-249999D01*
G01*
G37*
G36*
G01*
X106675000Y-106479999D02*
X106675000Y-107380001D01*
G75*
G02*
X106425001Y-107630000I-249999J0D01*
G01*
X105899999Y-107630000D01*
G75*
G02*
X105650000Y-107380001I0J249999D01*
G01*
X105650000Y-106479999D01*
G75*
G02*
X105899999Y-106230000I249999J0D01*
G01*
X106425001Y-106230000D01*
G75*
G02*
X106675000Y-106479999I0J-249999D01*
G01*
G37*
G36*
G01*
X106430001Y-103830000D02*
X105529999Y-103830000D01*
G75*
G02*
X105280000Y-103580001I0J249999D01*
G01*
X105280000Y-103054999D01*
G75*
G02*
X105529999Y-102805000I249999J0D01*
G01*
X106430001Y-102805000D01*
G75*
G02*
X106680000Y-103054999I0J-249999D01*
G01*
X106680000Y-103580001D01*
G75*
G02*
X106430001Y-103830000I-249999J0D01*
G01*
G37*
G36*
G01*
X106430001Y-105655000D02*
X105529999Y-105655000D01*
G75*
G02*
X105280000Y-105405001I0J249999D01*
G01*
X105280000Y-104879999D01*
G75*
G02*
X105529999Y-104630000I249999J0D01*
G01*
X106430001Y-104630000D01*
G75*
G02*
X106680000Y-104879999I0J-249999D01*
G01*
X106680000Y-105405001D01*
G75*
G02*
X106430001Y-105655000I-249999J0D01*
G01*
G37*
G36*
G01*
X106430001Y-100390000D02*
X105529999Y-100390000D01*
G75*
G02*
X105280000Y-100140001I0J249999D01*
G01*
X105280000Y-99614999D01*
G75*
G02*
X105529999Y-99365000I249999J0D01*
G01*
X106430001Y-99365000D01*
G75*
G02*
X106680000Y-99614999I0J-249999D01*
G01*
X106680000Y-100140001D01*
G75*
G02*
X106430001Y-100390000I-249999J0D01*
G01*
G37*
G36*
G01*
X106430001Y-102215000D02*
X105529999Y-102215000D01*
G75*
G02*
X105280000Y-101965001I0J249999D01*
G01*
X105280000Y-101439999D01*
G75*
G02*
X105529999Y-101190000I249999J0D01*
G01*
X106430001Y-101190000D01*
G75*
G02*
X106680000Y-101439999I0J-249999D01*
G01*
X106680000Y-101965001D01*
G75*
G02*
X106430001Y-102215000I-249999J0D01*
G01*
G37*
G36*
G01*
X105529999Y-83740000D02*
X106430001Y-83740000D01*
G75*
G02*
X106680000Y-83989999I0J-249999D01*
G01*
X106680000Y-84515001D01*
G75*
G02*
X106430001Y-84765000I-249999J0D01*
G01*
X105529999Y-84765000D01*
G75*
G02*
X105280000Y-84515001I0J249999D01*
G01*
X105280000Y-83989999D01*
G75*
G02*
X105529999Y-83740000I249999J0D01*
G01*
G37*
G36*
G01*
X105529999Y-81915000D02*
X106430001Y-81915000D01*
G75*
G02*
X106680000Y-82164999I0J-249999D01*
G01*
X106680000Y-82690001D01*
G75*
G02*
X106430001Y-82940000I-249999J0D01*
G01*
X105529999Y-82940000D01*
G75*
G02*
X105280000Y-82690001I0J249999D01*
G01*
X105280000Y-82164999D01*
G75*
G02*
X105529999Y-81915000I249999J0D01*
G01*
G37*
G36*
G01*
X105529999Y-79720000D02*
X106430001Y-79720000D01*
G75*
G02*
X106680000Y-79969999I0J-249999D01*
G01*
X106680000Y-80495001D01*
G75*
G02*
X106430001Y-80745000I-249999J0D01*
G01*
X105529999Y-80745000D01*
G75*
G02*
X105280000Y-80495001I0J249999D01*
G01*
X105280000Y-79969999D01*
G75*
G02*
X105529999Y-79720000I249999J0D01*
G01*
G37*
G36*
G01*
X105529999Y-77895000D02*
X106430001Y-77895000D01*
G75*
G02*
X106680000Y-78144999I0J-249999D01*
G01*
X106680000Y-78670001D01*
G75*
G02*
X106430001Y-78920000I-249999J0D01*
G01*
X105529999Y-78920000D01*
G75*
G02*
X105280000Y-78670001I0J249999D01*
G01*
X105280000Y-78144999D01*
G75*
G02*
X105529999Y-77895000I249999J0D01*
G01*
G37*
G36*
G01*
X95150000Y-78860001D02*
X95150000Y-77959999D01*
G75*
G02*
X95399999Y-77710000I249999J0D01*
G01*
X95925001Y-77710000D01*
G75*
G02*
X96175000Y-77959999I0J-249999D01*
G01*
X96175000Y-78860001D01*
G75*
G02*
X95925001Y-79110000I-249999J0D01*
G01*
X95399999Y-79110000D01*
G75*
G02*
X95150000Y-78860001I0J249999D01*
G01*
G37*
G36*
G01*
X93325000Y-78860001D02*
X93325000Y-77959999D01*
G75*
G02*
X93574999Y-77710000I249999J0D01*
G01*
X94100001Y-77710000D01*
G75*
G02*
X94350000Y-77959999I0J-249999D01*
G01*
X94350000Y-78860001D01*
G75*
G02*
X94100001Y-79110000I-249999J0D01*
G01*
X93574999Y-79110000D01*
G75*
G02*
X93325000Y-78860001I0J249999D01*
G01*
G37*
G36*
G01*
X95150000Y-81400001D02*
X95150000Y-80499999D01*
G75*
G02*
X95399999Y-80250000I249999J0D01*
G01*
X95925001Y-80250000D01*
G75*
G02*
X96175000Y-80499999I0J-249999D01*
G01*
X96175000Y-81400001D01*
G75*
G02*
X95925001Y-81650000I-249999J0D01*
G01*
X95399999Y-81650000D01*
G75*
G02*
X95150000Y-81400001I0J249999D01*
G01*
G37*
G36*
G01*
X93325000Y-81400001D02*
X93325000Y-80499999D01*
G75*
G02*
X93574999Y-80250000I249999J0D01*
G01*
X94100001Y-80250000D01*
G75*
G02*
X94350000Y-80499999I0J-249999D01*
G01*
X94350000Y-81400001D01*
G75*
G02*
X94100001Y-81650000I-249999J0D01*
G01*
X93574999Y-81650000D01*
G75*
G02*
X93325000Y-81400001I0J249999D01*
G01*
G37*
G36*
G01*
X95150000Y-83940001D02*
X95150000Y-83039999D01*
G75*
G02*
X95399999Y-82790000I249999J0D01*
G01*
X95925001Y-82790000D01*
G75*
G02*
X96175000Y-83039999I0J-249999D01*
G01*
X96175000Y-83940001D01*
G75*
G02*
X95925001Y-84190000I-249999J0D01*
G01*
X95399999Y-84190000D01*
G75*
G02*
X95150000Y-83940001I0J249999D01*
G01*
G37*
G36*
G01*
X93325000Y-83940001D02*
X93325000Y-83039999D01*
G75*
G02*
X93574999Y-82790000I249999J0D01*
G01*
X94100001Y-82790000D01*
G75*
G02*
X94350000Y-83039999I0J-249999D01*
G01*
X94350000Y-83940001D01*
G75*
G02*
X94100001Y-84190000I-249999J0D01*
G01*
X93574999Y-84190000D01*
G75*
G02*
X93325000Y-83940001I0J249999D01*
G01*
G37*
G36*
G01*
X95150000Y-86480001D02*
X95150000Y-85579999D01*
G75*
G02*
X95399999Y-85330000I249999J0D01*
G01*
X95925001Y-85330000D01*
G75*
G02*
X96175000Y-85579999I0J-249999D01*
G01*
X96175000Y-86480001D01*
G75*
G02*
X95925001Y-86730000I-249999J0D01*
G01*
X95399999Y-86730000D01*
G75*
G02*
X95150000Y-86480001I0J249999D01*
G01*
G37*
G36*
G01*
X93325000Y-86480001D02*
X93325000Y-85579999D01*
G75*
G02*
X93574999Y-85330000I249999J0D01*
G01*
X94100001Y-85330000D01*
G75*
G02*
X94350000Y-85579999I0J-249999D01*
G01*
X94350000Y-86480001D01*
G75*
G02*
X94100001Y-86730000I-249999J0D01*
G01*
X93574999Y-86730000D01*
G75*
G02*
X93325000Y-86480001I0J249999D01*
G01*
G37*
G36*
G01*
X95150000Y-89020001D02*
X95150000Y-88119999D01*
G75*
G02*
X95399999Y-87870000I249999J0D01*
G01*
X95925001Y-87870000D01*
G75*
G02*
X96175000Y-88119999I0J-249999D01*
G01*
X96175000Y-89020001D01*
G75*
G02*
X95925001Y-89270000I-249999J0D01*
G01*
X95399999Y-89270000D01*
G75*
G02*
X95150000Y-89020001I0J249999D01*
G01*
G37*
G36*
G01*
X93325000Y-89020001D02*
X93325000Y-88119999D01*
G75*
G02*
X93574999Y-87870000I249999J0D01*
G01*
X94100001Y-87870000D01*
G75*
G02*
X94350000Y-88119999I0J-249999D01*
G01*
X94350000Y-89020001D01*
G75*
G02*
X94100001Y-89270000I-249999J0D01*
G01*
X93574999Y-89270000D01*
G75*
G02*
X93325000Y-89020001I0J249999D01*
G01*
G37*
G36*
G01*
X95150000Y-91560001D02*
X95150000Y-90659999D01*
G75*
G02*
X95399999Y-90410000I249999J0D01*
G01*
X95925001Y-90410000D01*
G75*
G02*
X96175000Y-90659999I0J-249999D01*
G01*
X96175000Y-91560001D01*
G75*
G02*
X95925001Y-91810000I-249999J0D01*
G01*
X95399999Y-91810000D01*
G75*
G02*
X95150000Y-91560001I0J249999D01*
G01*
G37*
G36*
G01*
X93325000Y-91560001D02*
X93325000Y-90659999D01*
G75*
G02*
X93574999Y-90410000I249999J0D01*
G01*
X94100001Y-90410000D01*
G75*
G02*
X94350000Y-90659999I0J-249999D01*
G01*
X94350000Y-91560001D01*
G75*
G02*
X94100001Y-91810000I-249999J0D01*
G01*
X93574999Y-91810000D01*
G75*
G02*
X93325000Y-91560001I0J249999D01*
G01*
G37*
G36*
G01*
X95150000Y-94100001D02*
X95150000Y-93199999D01*
G75*
G02*
X95399999Y-92950000I249999J0D01*
G01*
X95925001Y-92950000D01*
G75*
G02*
X96175000Y-93199999I0J-249999D01*
G01*
X96175000Y-94100001D01*
G75*
G02*
X95925001Y-94350000I-249999J0D01*
G01*
X95399999Y-94350000D01*
G75*
G02*
X95150000Y-94100001I0J249999D01*
G01*
G37*
G36*
G01*
X93325000Y-94100001D02*
X93325000Y-93199999D01*
G75*
G02*
X93574999Y-92950000I249999J0D01*
G01*
X94100001Y-92950000D01*
G75*
G02*
X94350000Y-93199999I0J-249999D01*
G01*
X94350000Y-94100001D01*
G75*
G02*
X94100001Y-94350000I-249999J0D01*
G01*
X93574999Y-94350000D01*
G75*
G02*
X93325000Y-94100001I0J249999D01*
G01*
G37*
G36*
G01*
X106400000Y-97215000D02*
X105900000Y-97215000D01*
G75*
G02*
X105675000Y-96990000I0J225000D01*
G01*
X105675000Y-96540000D01*
G75*
G02*
X105900000Y-96315000I225000J0D01*
G01*
X106400000Y-96315000D01*
G75*
G02*
X106625000Y-96540000I0J-225000D01*
G01*
X106625000Y-96990000D01*
G75*
G02*
X106400000Y-97215000I-225000J0D01*
G01*
G37*
G36*
G01*
X106400000Y-98765000D02*
X105900000Y-98765000D01*
G75*
G02*
X105675000Y-98540000I0J225000D01*
G01*
X105675000Y-98090000D01*
G75*
G02*
X105900000Y-97865000I225000J0D01*
G01*
X106400000Y-97865000D01*
G75*
G02*
X106625000Y-98090000I0J-225000D01*
G01*
X106625000Y-98540000D01*
G75*
G02*
X106400000Y-98765000I-225000J0D01*
G01*
G37*
G36*
G01*
X95505000Y-104300000D02*
X95505000Y-104800000D01*
G75*
G02*
X95280000Y-105025000I-225000J0D01*
G01*
X94830000Y-105025000D01*
G75*
G02*
X94605000Y-104800000I0J225000D01*
G01*
X94605000Y-104300000D01*
G75*
G02*
X94830000Y-104075000I225000J0D01*
G01*
X95280000Y-104075000D01*
G75*
G02*
X95505000Y-104300000I0J-225000D01*
G01*
G37*
G36*
G01*
X97055000Y-104300000D02*
X97055000Y-104800000D01*
G75*
G02*
X96830000Y-105025000I-225000J0D01*
G01*
X96380000Y-105025000D01*
G75*
G02*
X96155000Y-104800000I0J225000D01*
G01*
X96155000Y-104300000D01*
G75*
G02*
X96380000Y-104075000I225000J0D01*
G01*
X96830000Y-104075000D01*
G75*
G02*
X97055000Y-104300000I0J-225000D01*
G01*
G37*
G36*
G01*
X104870000Y-97205000D02*
X104370000Y-97205000D01*
G75*
G02*
X104145000Y-96980000I0J225000D01*
G01*
X104145000Y-96530000D01*
G75*
G02*
X104370000Y-96305000I225000J0D01*
G01*
X104870000Y-96305000D01*
G75*
G02*
X105095000Y-96530000I0J-225000D01*
G01*
X105095000Y-96980000D01*
G75*
G02*
X104870000Y-97205000I-225000J0D01*
G01*
G37*
G36*
G01*
X104870000Y-98755000D02*
X104370000Y-98755000D01*
G75*
G02*
X104145000Y-98530000I0J225000D01*
G01*
X104145000Y-98080000D01*
G75*
G02*
X104370000Y-97855000I225000J0D01*
G01*
X104870000Y-97855000D01*
G75*
G02*
X105095000Y-98080000I0J-225000D01*
G01*
X105095000Y-98530000D01*
G75*
G02*
X104870000Y-98755000I-225000J0D01*
G01*
G37*
G36*
G01*
X95505000Y-102770000D02*
X95505000Y-103270000D01*
G75*
G02*
X95280000Y-103495000I-225000J0D01*
G01*
X94830000Y-103495000D01*
G75*
G02*
X94605000Y-103270000I0J225000D01*
G01*
X94605000Y-102770000D01*
G75*
G02*
X94830000Y-102545000I225000J0D01*
G01*
X95280000Y-102545000D01*
G75*
G02*
X95505000Y-102770000I0J-225000D01*
G01*
G37*
G36*
G01*
X97055000Y-102770000D02*
X97055000Y-103270000D01*
G75*
G02*
X96830000Y-103495000I-225000J0D01*
G01*
X96380000Y-103495000D01*
G75*
G02*
X96155000Y-103270000I0J225000D01*
G01*
X96155000Y-102770000D01*
G75*
G02*
X96380000Y-102545000I225000J0D01*
G01*
X96830000Y-102545000D01*
G75*
G02*
X97055000Y-102770000I0J-225000D01*
G01*
G37*
M02*
