G04 #@! TF.GenerationSoftware,KiCad,Pcbnew,(5.1.10)-1*
G04 #@! TF.CreationDate,2021-11-17T00:20:23+10:00*
G04 #@! TF.ProjectId,IS31FL3743x_Breakout,49533331-464c-4333-9734-33785f427265,rev?*
G04 #@! TF.SameCoordinates,Original*
G04 #@! TF.FileFunction,Copper,L2,Bot*
G04 #@! TF.FilePolarity,Positive*
%FSLAX46Y46*%
G04 Gerber Fmt 4.6, Leading zero omitted, Abs format (unit mm)*
G04 Created by KiCad (PCBNEW (5.1.10)-1) date 2021-11-17 00:20:23*
%MOMM*%
%LPD*%
G01*
G04 APERTURE LIST*
G04 #@! TA.AperFunction,EtchedComponent*
%ADD10C,0.100000*%
G04 #@! TD*
G04 #@! TA.AperFunction,SMDPad,CuDef*
%ADD11R,1.000000X1.500000*%
G04 #@! TD*
G04 #@! TA.AperFunction,SMDPad,CuDef*
%ADD12C,0.100000*%
G04 #@! TD*
G04 #@! TA.AperFunction,ComponentPad*
%ADD13C,3.400000*%
G04 #@! TD*
G04 #@! TA.AperFunction,ComponentPad*
%ADD14O,1.700000X1.700000*%
G04 #@! TD*
G04 #@! TA.AperFunction,ComponentPad*
%ADD15C,0.600000*%
G04 #@! TD*
G04 #@! TA.AperFunction,SMDPad,CuDef*
%ADD16R,1.500000X1.000000*%
G04 #@! TD*
G04 #@! TA.AperFunction,ViaPad*
%ADD17C,0.800000*%
G04 #@! TD*
G04 #@! TA.AperFunction,Conductor*
%ADD18C,0.200000*%
G04 #@! TD*
G04 #@! TA.AperFunction,Conductor*
%ADD19C,0.500000*%
G04 #@! TD*
G04 #@! TA.AperFunction,Conductor*
%ADD20C,0.254000*%
G04 #@! TD*
G04 #@! TA.AperFunction,Conductor*
%ADD21C,0.100000*%
G04 #@! TD*
G04 APERTURE END LIST*
D10*
G36*
X104270000Y-92710000D02*
G01*
X103770000Y-92710000D01*
X103770000Y-92110000D01*
X104270000Y-92110000D01*
X104270000Y-92710000D01*
G37*
G36*
X102900000Y-89520000D02*
G01*
X102400000Y-89520000D01*
X102400000Y-90120000D01*
X102900000Y-90120000D01*
X102900000Y-89520000D01*
G37*
G36*
X98070000Y-86120000D02*
G01*
X98070000Y-86620000D01*
X98670000Y-86620000D01*
X98670000Y-86120000D01*
X98070000Y-86120000D01*
G37*
D11*
X101990000Y-85980000D03*
G04 #@! TA.AperFunction,SMDPad,CuDef*
D12*
G36*
X100690000Y-86729398D02*
G01*
X100665466Y-86729398D01*
X100616635Y-86724588D01*
X100568510Y-86715016D01*
X100521555Y-86700772D01*
X100476222Y-86681995D01*
X100432949Y-86658864D01*
X100392150Y-86631604D01*
X100354221Y-86600476D01*
X100319524Y-86565779D01*
X100288396Y-86527850D01*
X100261136Y-86487051D01*
X100238005Y-86443778D01*
X100219228Y-86398445D01*
X100204984Y-86351490D01*
X100195412Y-86303365D01*
X100190602Y-86254534D01*
X100190602Y-86230000D01*
X100190000Y-86230000D01*
X100190000Y-85730000D01*
X100190602Y-85730000D01*
X100190602Y-85705466D01*
X100195412Y-85656635D01*
X100204984Y-85608510D01*
X100219228Y-85561555D01*
X100238005Y-85516222D01*
X100261136Y-85472949D01*
X100288396Y-85432150D01*
X100319524Y-85394221D01*
X100354221Y-85359524D01*
X100392150Y-85328396D01*
X100432949Y-85301136D01*
X100476222Y-85278005D01*
X100521555Y-85259228D01*
X100568510Y-85244984D01*
X100616635Y-85235412D01*
X100665466Y-85230602D01*
X100690000Y-85230602D01*
X100690000Y-85230000D01*
X101240000Y-85230000D01*
X101240000Y-86730000D01*
X100690000Y-86730000D01*
X100690000Y-86729398D01*
G37*
G04 #@! TD.AperFunction*
G04 #@! TA.AperFunction,SMDPad,CuDef*
G36*
X102740000Y-85230000D02*
G01*
X103290000Y-85230000D01*
X103290000Y-85230602D01*
X103314534Y-85230602D01*
X103363365Y-85235412D01*
X103411490Y-85244984D01*
X103458445Y-85259228D01*
X103503778Y-85278005D01*
X103547051Y-85301136D01*
X103587850Y-85328396D01*
X103625779Y-85359524D01*
X103660476Y-85394221D01*
X103691604Y-85432150D01*
X103718864Y-85472949D01*
X103741995Y-85516222D01*
X103760772Y-85561555D01*
X103775016Y-85608510D01*
X103784588Y-85656635D01*
X103789398Y-85705466D01*
X103789398Y-85730000D01*
X103790000Y-85730000D01*
X103790000Y-86230000D01*
X103789398Y-86230000D01*
X103789398Y-86254534D01*
X103784588Y-86303365D01*
X103775016Y-86351490D01*
X103760772Y-86398445D01*
X103741995Y-86443778D01*
X103718864Y-86487051D01*
X103691604Y-86527850D01*
X103660476Y-86565779D01*
X103625779Y-86600476D01*
X103587850Y-86631604D01*
X103547051Y-86658864D01*
X103503778Y-86681995D01*
X103458445Y-86700772D01*
X103411490Y-86715016D01*
X103363365Y-86724588D01*
X103314534Y-86729398D01*
X103290000Y-86729398D01*
X103290000Y-86730000D01*
X102740000Y-86730000D01*
X102740000Y-85230000D01*
G37*
G04 #@! TD.AperFunction*
D13*
X98000000Y-119000000D03*
X101000000Y-81000000D03*
D14*
X108890000Y-121590000D03*
X108890000Y-119050000D03*
X108890000Y-116510000D03*
X108890000Y-113970000D03*
X108890000Y-111430000D03*
X108890000Y-108890000D03*
X108890000Y-106350000D03*
X108890000Y-103810000D03*
X108890000Y-101270000D03*
X108890000Y-98730000D03*
X108890000Y-96190000D03*
X108890000Y-93650000D03*
X108890000Y-91110000D03*
X108890000Y-88570000D03*
X108890000Y-86030000D03*
X108890000Y-83490000D03*
X108890000Y-80950000D03*
X108890000Y-78410000D03*
X91110000Y-121590000D03*
X91110000Y-119050000D03*
X91110000Y-116510000D03*
X91110000Y-113970000D03*
X91110000Y-111430000D03*
X91110000Y-108890000D03*
X91110000Y-106350000D03*
X91110000Y-103810000D03*
X91110000Y-101270000D03*
X91110000Y-98730000D03*
X91110000Y-96190000D03*
X91110000Y-93650000D03*
X91110000Y-91110000D03*
X91110000Y-88570000D03*
X91110000Y-86030000D03*
X91110000Y-83490000D03*
X91110000Y-80950000D03*
X91110000Y-78410000D03*
G04 #@! TA.AperFunction,SMDPad,CuDef*
G36*
G01*
X99788434Y-102192596D02*
X97807404Y-100211566D01*
G75*
G02*
X97807404Y-99788434I211566J211566D01*
G01*
X99788434Y-97807404D01*
G75*
G02*
X100211566Y-97807404I211566J-211566D01*
G01*
X102192596Y-99788434D01*
G75*
G02*
X102192596Y-100211566I-211566J-211566D01*
G01*
X100211566Y-102192596D01*
G75*
G02*
X99788434Y-102192596I-211566J211566D01*
G01*
G37*
G04 #@! TD.AperFunction*
D15*
X100494975Y-101484924D03*
X99505025Y-101484924D03*
X100000000Y-101979899D03*
X100000000Y-100989949D03*
X98020101Y-100000000D03*
X98515076Y-100494975D03*
X98515076Y-99505025D03*
X99010051Y-100000000D03*
X100000000Y-98020101D03*
X100494975Y-98515076D03*
X99505025Y-98515076D03*
X100000000Y-99010051D03*
X101979899Y-100000000D03*
X101484924Y-99505025D03*
X101484924Y-100494975D03*
X100989949Y-100000000D03*
X99505025Y-99505025D03*
X99010051Y-99010051D03*
X100989949Y-100989949D03*
X100494975Y-100494975D03*
X99010051Y-100989949D03*
X99505025Y-100494975D03*
X100494975Y-99505025D03*
X100989949Y-99010051D03*
X100000000Y-100000000D03*
G04 #@! TA.AperFunction,SMDPad,CuDef*
D12*
G36*
X103870000Y-93160000D02*
G01*
X103370000Y-93160000D01*
X103370000Y-93159398D01*
X103345466Y-93159398D01*
X103296635Y-93154588D01*
X103248510Y-93145016D01*
X103201555Y-93130772D01*
X103156222Y-93111995D01*
X103112949Y-93088864D01*
X103072150Y-93061604D01*
X103034221Y-93030476D01*
X102999524Y-92995779D01*
X102968396Y-92957850D01*
X102941136Y-92917051D01*
X102918005Y-92873778D01*
X102899228Y-92828445D01*
X102884984Y-92781490D01*
X102875412Y-92733365D01*
X102870602Y-92684534D01*
X102870602Y-92660000D01*
X102870000Y-92660000D01*
X102870000Y-92160000D01*
X102870602Y-92160000D01*
X102870602Y-92135466D01*
X102875412Y-92086635D01*
X102884984Y-92038510D01*
X102899228Y-91991555D01*
X102918005Y-91946222D01*
X102941136Y-91902949D01*
X102968396Y-91862150D01*
X102999524Y-91824221D01*
X103034221Y-91789524D01*
X103072150Y-91758396D01*
X103112949Y-91731136D01*
X103156222Y-91708005D01*
X103201555Y-91689228D01*
X103248510Y-91674984D01*
X103296635Y-91665412D01*
X103345466Y-91660602D01*
X103370000Y-91660602D01*
X103370000Y-91660000D01*
X103870000Y-91660000D01*
X103870000Y-93160000D01*
G37*
G04 #@! TD.AperFunction*
G04 #@! TA.AperFunction,SMDPad,CuDef*
G36*
X104670000Y-91660602D02*
G01*
X104694534Y-91660602D01*
X104743365Y-91665412D01*
X104791490Y-91674984D01*
X104838445Y-91689228D01*
X104883778Y-91708005D01*
X104927051Y-91731136D01*
X104967850Y-91758396D01*
X105005779Y-91789524D01*
X105040476Y-91824221D01*
X105071604Y-91862150D01*
X105098864Y-91902949D01*
X105121995Y-91946222D01*
X105140772Y-91991555D01*
X105155016Y-92038510D01*
X105164588Y-92086635D01*
X105169398Y-92135466D01*
X105169398Y-92160000D01*
X105170000Y-92160000D01*
X105170000Y-92660000D01*
X105169398Y-92660000D01*
X105169398Y-92684534D01*
X105164588Y-92733365D01*
X105155016Y-92781490D01*
X105140772Y-92828445D01*
X105121995Y-92873778D01*
X105098864Y-92917051D01*
X105071604Y-92957850D01*
X105040476Y-92995779D01*
X105005779Y-93030476D01*
X104967850Y-93061604D01*
X104927051Y-93088864D01*
X104883778Y-93111995D01*
X104838445Y-93130772D01*
X104791490Y-93145016D01*
X104743365Y-93154588D01*
X104694534Y-93159398D01*
X104670000Y-93159398D01*
X104670000Y-93160000D01*
X104170000Y-93160000D01*
X104170000Y-91660000D01*
X104670000Y-91660000D01*
X104670000Y-91660602D01*
G37*
G04 #@! TD.AperFunction*
G04 #@! TA.AperFunction,SMDPad,CuDef*
G36*
X102750000Y-89070000D02*
G01*
X103300000Y-89070000D01*
X103300000Y-89070602D01*
X103324534Y-89070602D01*
X103373365Y-89075412D01*
X103421490Y-89084984D01*
X103468445Y-89099228D01*
X103513778Y-89118005D01*
X103557051Y-89141136D01*
X103597850Y-89168396D01*
X103635779Y-89199524D01*
X103670476Y-89234221D01*
X103701604Y-89272150D01*
X103728864Y-89312949D01*
X103751995Y-89356222D01*
X103770772Y-89401555D01*
X103785016Y-89448510D01*
X103794588Y-89496635D01*
X103799398Y-89545466D01*
X103799398Y-89570000D01*
X103800000Y-89570000D01*
X103800000Y-90070000D01*
X103799398Y-90070000D01*
X103799398Y-90094534D01*
X103794588Y-90143365D01*
X103785016Y-90191490D01*
X103770772Y-90238445D01*
X103751995Y-90283778D01*
X103728864Y-90327051D01*
X103701604Y-90367850D01*
X103670476Y-90405779D01*
X103635779Y-90440476D01*
X103597850Y-90471604D01*
X103557051Y-90498864D01*
X103513778Y-90521995D01*
X103468445Y-90540772D01*
X103421490Y-90555016D01*
X103373365Y-90564588D01*
X103324534Y-90569398D01*
X103300000Y-90569398D01*
X103300000Y-90570000D01*
X102750000Y-90570000D01*
X102750000Y-89070000D01*
G37*
G04 #@! TD.AperFunction*
D11*
X102000000Y-89820000D03*
G04 #@! TA.AperFunction,SMDPad,CuDef*
D12*
G36*
X100700000Y-90569398D02*
G01*
X100675466Y-90569398D01*
X100626635Y-90564588D01*
X100578510Y-90555016D01*
X100531555Y-90540772D01*
X100486222Y-90521995D01*
X100442949Y-90498864D01*
X100402150Y-90471604D01*
X100364221Y-90440476D01*
X100329524Y-90405779D01*
X100298396Y-90367850D01*
X100271136Y-90327051D01*
X100248005Y-90283778D01*
X100229228Y-90238445D01*
X100214984Y-90191490D01*
X100205412Y-90143365D01*
X100200602Y-90094534D01*
X100200602Y-90070000D01*
X100200000Y-90070000D01*
X100200000Y-89570000D01*
X100200602Y-89570000D01*
X100200602Y-89545466D01*
X100205412Y-89496635D01*
X100214984Y-89448510D01*
X100229228Y-89401555D01*
X100248005Y-89356222D01*
X100271136Y-89312949D01*
X100298396Y-89272150D01*
X100329524Y-89234221D01*
X100364221Y-89199524D01*
X100402150Y-89168396D01*
X100442949Y-89141136D01*
X100486222Y-89118005D01*
X100531555Y-89099228D01*
X100578510Y-89084984D01*
X100626635Y-89075412D01*
X100675466Y-89070602D01*
X100700000Y-89070602D01*
X100700000Y-89070000D01*
X101250000Y-89070000D01*
X101250000Y-90570000D01*
X100700000Y-90570000D01*
X100700000Y-90569398D01*
G37*
G04 #@! TD.AperFunction*
G04 #@! TA.AperFunction,SMDPad,CuDef*
G36*
X97620000Y-86270000D02*
G01*
X97620000Y-85720000D01*
X97620602Y-85720000D01*
X97620602Y-85695466D01*
X97625412Y-85646635D01*
X97634984Y-85598510D01*
X97649228Y-85551555D01*
X97668005Y-85506222D01*
X97691136Y-85462949D01*
X97718396Y-85422150D01*
X97749524Y-85384221D01*
X97784221Y-85349524D01*
X97822150Y-85318396D01*
X97862949Y-85291136D01*
X97906222Y-85268005D01*
X97951555Y-85249228D01*
X97998510Y-85234984D01*
X98046635Y-85225412D01*
X98095466Y-85220602D01*
X98120000Y-85220602D01*
X98120000Y-85220000D01*
X98620000Y-85220000D01*
X98620000Y-85220602D01*
X98644534Y-85220602D01*
X98693365Y-85225412D01*
X98741490Y-85234984D01*
X98788445Y-85249228D01*
X98833778Y-85268005D01*
X98877051Y-85291136D01*
X98917850Y-85318396D01*
X98955779Y-85349524D01*
X98990476Y-85384221D01*
X99021604Y-85422150D01*
X99048864Y-85462949D01*
X99071995Y-85506222D01*
X99090772Y-85551555D01*
X99105016Y-85598510D01*
X99114588Y-85646635D01*
X99119398Y-85695466D01*
X99119398Y-85720000D01*
X99120000Y-85720000D01*
X99120000Y-86270000D01*
X97620000Y-86270000D01*
G37*
G04 #@! TD.AperFunction*
D16*
X98370000Y-87020000D03*
G04 #@! TA.AperFunction,SMDPad,CuDef*
D12*
G36*
X99119398Y-88320000D02*
G01*
X99119398Y-88344534D01*
X99114588Y-88393365D01*
X99105016Y-88441490D01*
X99090772Y-88488445D01*
X99071995Y-88533778D01*
X99048864Y-88577051D01*
X99021604Y-88617850D01*
X98990476Y-88655779D01*
X98955779Y-88690476D01*
X98917850Y-88721604D01*
X98877051Y-88748864D01*
X98833778Y-88771995D01*
X98788445Y-88790772D01*
X98741490Y-88805016D01*
X98693365Y-88814588D01*
X98644534Y-88819398D01*
X98620000Y-88819398D01*
X98620000Y-88820000D01*
X98120000Y-88820000D01*
X98120000Y-88819398D01*
X98095466Y-88819398D01*
X98046635Y-88814588D01*
X97998510Y-88805016D01*
X97951555Y-88790772D01*
X97906222Y-88771995D01*
X97862949Y-88748864D01*
X97822150Y-88721604D01*
X97784221Y-88690476D01*
X97749524Y-88655779D01*
X97718396Y-88617850D01*
X97691136Y-88577051D01*
X97668005Y-88533778D01*
X97649228Y-88488445D01*
X97634984Y-88441490D01*
X97625412Y-88393365D01*
X97620602Y-88344534D01*
X97620602Y-88320000D01*
X97620000Y-88320000D01*
X97620000Y-87770000D01*
X99120000Y-87770000D01*
X99120000Y-88320000D01*
X99119398Y-88320000D01*
G37*
G04 #@! TD.AperFunction*
D17*
X100760000Y-91850000D03*
X102120000Y-92940000D03*
X93790000Y-103010000D03*
X93770000Y-104540000D03*
X95920000Y-105810000D03*
X103680000Y-98300000D03*
X94920000Y-105810000D03*
X104240000Y-90790000D03*
X105650000Y-94610000D03*
D18*
X98370000Y-85720000D02*
X98370000Y-84440000D01*
X103300000Y-89820000D02*
X104700000Y-89820000D01*
D19*
X106870000Y-100740000D02*
X108880000Y-98730000D01*
X106870000Y-104170000D02*
X106870000Y-100740000D01*
X105230000Y-105810000D02*
X106870000Y-104170000D01*
X95920000Y-105810000D02*
X105230000Y-105810000D01*
D18*
X103680000Y-98300000D02*
X103680000Y-92730000D01*
X103370000Y-92410000D02*
X102370000Y-91410000D01*
X102370000Y-91410000D02*
X101490000Y-91410000D01*
X101490000Y-91410000D02*
X101090000Y-91010000D01*
X101090000Y-91010000D02*
X101090000Y-90330000D01*
X100700000Y-88610000D02*
X100700000Y-89820000D01*
X100410000Y-88320000D02*
X100700000Y-88610000D01*
X98370000Y-88320000D02*
X100410000Y-88320000D01*
D19*
X95920000Y-105810000D02*
X94920000Y-105810000D01*
D18*
X104240000Y-90790000D02*
X103600000Y-91430000D01*
X103600000Y-91430000D02*
X103600000Y-91860000D01*
X106790000Y-91550000D02*
X108890000Y-93650000D01*
X106790000Y-89960000D02*
X106790000Y-91550000D01*
X105340000Y-88510000D02*
X106790000Y-89960000D01*
X102180000Y-88510000D02*
X105340000Y-88510000D01*
X102000000Y-88690000D02*
X102180000Y-88510000D01*
X102000000Y-89810000D02*
X102000000Y-88690000D01*
X108890000Y-91110000D02*
X105480000Y-87700000D01*
X100160000Y-87700000D02*
X99480000Y-87020000D01*
X99480000Y-87020000D02*
X98370000Y-87020000D01*
X101990000Y-87650000D02*
X101940000Y-87700000D01*
X101990000Y-85980000D02*
X101990000Y-87650000D01*
X101940000Y-87700000D02*
X100160000Y-87700000D01*
X105480000Y-87700000D02*
X101940000Y-87700000D01*
X108890000Y-88570000D02*
X106300000Y-85980000D01*
X106300000Y-85980000D02*
X103290000Y-85980000D01*
X108890000Y-86030000D02*
X107340000Y-84480000D01*
X107340000Y-84480000D02*
X100920000Y-84480000D01*
X100920000Y-84480000D02*
X100690000Y-84710000D01*
X100690000Y-84710000D02*
X100690000Y-85980000D01*
X104670000Y-93630000D02*
X105650000Y-94610000D01*
X104670000Y-92410000D02*
X104670000Y-93630000D01*
D20*
X110234001Y-122954000D02*
X89716000Y-122954000D01*
X89716000Y-121468757D01*
X89879000Y-121468757D01*
X89879000Y-121711243D01*
X89926307Y-121949069D01*
X90019102Y-122173097D01*
X90153820Y-122374717D01*
X90325283Y-122546180D01*
X90526903Y-122680898D01*
X90750931Y-122773693D01*
X90988757Y-122821000D01*
X91231243Y-122821000D01*
X91469069Y-122773693D01*
X91693097Y-122680898D01*
X91894717Y-122546180D01*
X92066180Y-122374717D01*
X92200898Y-122173097D01*
X92293693Y-121949069D01*
X92341000Y-121711243D01*
X92341000Y-121468757D01*
X107659000Y-121468757D01*
X107659000Y-121711243D01*
X107706307Y-121949069D01*
X107799102Y-122173097D01*
X107933820Y-122374717D01*
X108105283Y-122546180D01*
X108306903Y-122680898D01*
X108530931Y-122773693D01*
X108768757Y-122821000D01*
X109011243Y-122821000D01*
X109249069Y-122773693D01*
X109473097Y-122680898D01*
X109674717Y-122546180D01*
X109846180Y-122374717D01*
X109980898Y-122173097D01*
X110073693Y-121949069D01*
X110121000Y-121711243D01*
X110121000Y-121468757D01*
X110073693Y-121230931D01*
X109980898Y-121006903D01*
X109846180Y-120805283D01*
X109674717Y-120633820D01*
X109473097Y-120499102D01*
X109249069Y-120406307D01*
X109011243Y-120359000D01*
X108768757Y-120359000D01*
X108530931Y-120406307D01*
X108306903Y-120499102D01*
X108105283Y-120633820D01*
X107933820Y-120805283D01*
X107799102Y-121006903D01*
X107706307Y-121230931D01*
X107659000Y-121468757D01*
X92341000Y-121468757D01*
X92293693Y-121230931D01*
X92200898Y-121006903D01*
X92066180Y-120805283D01*
X91894717Y-120633820D01*
X91693097Y-120499102D01*
X91469069Y-120406307D01*
X91231243Y-120359000D01*
X90988757Y-120359000D01*
X90750931Y-120406307D01*
X90526903Y-120499102D01*
X90325283Y-120633820D01*
X90153820Y-120805283D01*
X90019102Y-121006903D01*
X89926307Y-121230931D01*
X89879000Y-121468757D01*
X89716000Y-121468757D01*
X89716000Y-118928757D01*
X89879000Y-118928757D01*
X89879000Y-119171243D01*
X89926307Y-119409069D01*
X90019102Y-119633097D01*
X90153820Y-119834717D01*
X90325283Y-120006180D01*
X90526903Y-120140898D01*
X90750931Y-120233693D01*
X90988757Y-120281000D01*
X91231243Y-120281000D01*
X91469069Y-120233693D01*
X91693097Y-120140898D01*
X91894717Y-120006180D01*
X92066180Y-119834717D01*
X92200898Y-119633097D01*
X92293693Y-119409069D01*
X92341000Y-119171243D01*
X92341000Y-118928757D01*
X107659000Y-118928757D01*
X107659000Y-119171243D01*
X107706307Y-119409069D01*
X107799102Y-119633097D01*
X107933820Y-119834717D01*
X108105283Y-120006180D01*
X108306903Y-120140898D01*
X108530931Y-120233693D01*
X108768757Y-120281000D01*
X109011243Y-120281000D01*
X109249069Y-120233693D01*
X109473097Y-120140898D01*
X109674717Y-120006180D01*
X109846180Y-119834717D01*
X109980898Y-119633097D01*
X110073693Y-119409069D01*
X110121000Y-119171243D01*
X110121000Y-118928757D01*
X110073693Y-118690931D01*
X109980898Y-118466903D01*
X109846180Y-118265283D01*
X109674717Y-118093820D01*
X109473097Y-117959102D01*
X109249069Y-117866307D01*
X109011243Y-117819000D01*
X108768757Y-117819000D01*
X108530931Y-117866307D01*
X108306903Y-117959102D01*
X108105283Y-118093820D01*
X107933820Y-118265283D01*
X107799102Y-118466903D01*
X107706307Y-118690931D01*
X107659000Y-118928757D01*
X92341000Y-118928757D01*
X92293693Y-118690931D01*
X92200898Y-118466903D01*
X92066180Y-118265283D01*
X91894717Y-118093820D01*
X91693097Y-117959102D01*
X91469069Y-117866307D01*
X91231243Y-117819000D01*
X90988757Y-117819000D01*
X90750931Y-117866307D01*
X90526903Y-117959102D01*
X90325283Y-118093820D01*
X90153820Y-118265283D01*
X90019102Y-118466903D01*
X89926307Y-118690931D01*
X89879000Y-118928757D01*
X89716000Y-118928757D01*
X89716000Y-116388757D01*
X89879000Y-116388757D01*
X89879000Y-116631243D01*
X89926307Y-116869069D01*
X90019102Y-117093097D01*
X90153820Y-117294717D01*
X90325283Y-117466180D01*
X90526903Y-117600898D01*
X90750931Y-117693693D01*
X90988757Y-117741000D01*
X91231243Y-117741000D01*
X91469069Y-117693693D01*
X91693097Y-117600898D01*
X91894717Y-117466180D01*
X92066180Y-117294717D01*
X92200898Y-117093097D01*
X92293693Y-116869069D01*
X92341000Y-116631243D01*
X92341000Y-116388757D01*
X107659000Y-116388757D01*
X107659000Y-116631243D01*
X107706307Y-116869069D01*
X107799102Y-117093097D01*
X107933820Y-117294717D01*
X108105283Y-117466180D01*
X108306903Y-117600898D01*
X108530931Y-117693693D01*
X108768757Y-117741000D01*
X109011243Y-117741000D01*
X109249069Y-117693693D01*
X109473097Y-117600898D01*
X109674717Y-117466180D01*
X109846180Y-117294717D01*
X109980898Y-117093097D01*
X110073693Y-116869069D01*
X110121000Y-116631243D01*
X110121000Y-116388757D01*
X110073693Y-116150931D01*
X109980898Y-115926903D01*
X109846180Y-115725283D01*
X109674717Y-115553820D01*
X109473097Y-115419102D01*
X109249069Y-115326307D01*
X109011243Y-115279000D01*
X108768757Y-115279000D01*
X108530931Y-115326307D01*
X108306903Y-115419102D01*
X108105283Y-115553820D01*
X107933820Y-115725283D01*
X107799102Y-115926903D01*
X107706307Y-116150931D01*
X107659000Y-116388757D01*
X92341000Y-116388757D01*
X92293693Y-116150931D01*
X92200898Y-115926903D01*
X92066180Y-115725283D01*
X91894717Y-115553820D01*
X91693097Y-115419102D01*
X91469069Y-115326307D01*
X91231243Y-115279000D01*
X90988757Y-115279000D01*
X90750931Y-115326307D01*
X90526903Y-115419102D01*
X90325283Y-115553820D01*
X90153820Y-115725283D01*
X90019102Y-115926903D01*
X89926307Y-116150931D01*
X89879000Y-116388757D01*
X89716000Y-116388757D01*
X89716000Y-113848757D01*
X89879000Y-113848757D01*
X89879000Y-114091243D01*
X89926307Y-114329069D01*
X90019102Y-114553097D01*
X90153820Y-114754717D01*
X90325283Y-114926180D01*
X90526903Y-115060898D01*
X90750931Y-115153693D01*
X90988757Y-115201000D01*
X91231243Y-115201000D01*
X91469069Y-115153693D01*
X91693097Y-115060898D01*
X91894717Y-114926180D01*
X92066180Y-114754717D01*
X92200898Y-114553097D01*
X92293693Y-114329069D01*
X92341000Y-114091243D01*
X92341000Y-113848757D01*
X107659000Y-113848757D01*
X107659000Y-114091243D01*
X107706307Y-114329069D01*
X107799102Y-114553097D01*
X107933820Y-114754717D01*
X108105283Y-114926180D01*
X108306903Y-115060898D01*
X108530931Y-115153693D01*
X108768757Y-115201000D01*
X109011243Y-115201000D01*
X109249069Y-115153693D01*
X109473097Y-115060898D01*
X109674717Y-114926180D01*
X109846180Y-114754717D01*
X109980898Y-114553097D01*
X110073693Y-114329069D01*
X110121000Y-114091243D01*
X110121000Y-113848757D01*
X110073693Y-113610931D01*
X109980898Y-113386903D01*
X109846180Y-113185283D01*
X109674717Y-113013820D01*
X109473097Y-112879102D01*
X109249069Y-112786307D01*
X109011243Y-112739000D01*
X108768757Y-112739000D01*
X108530931Y-112786307D01*
X108306903Y-112879102D01*
X108105283Y-113013820D01*
X107933820Y-113185283D01*
X107799102Y-113386903D01*
X107706307Y-113610931D01*
X107659000Y-113848757D01*
X92341000Y-113848757D01*
X92293693Y-113610931D01*
X92200898Y-113386903D01*
X92066180Y-113185283D01*
X91894717Y-113013820D01*
X91693097Y-112879102D01*
X91469069Y-112786307D01*
X91231243Y-112739000D01*
X90988757Y-112739000D01*
X90750931Y-112786307D01*
X90526903Y-112879102D01*
X90325283Y-113013820D01*
X90153820Y-113185283D01*
X90019102Y-113386903D01*
X89926307Y-113610931D01*
X89879000Y-113848757D01*
X89716000Y-113848757D01*
X89716000Y-111308757D01*
X89879000Y-111308757D01*
X89879000Y-111551243D01*
X89926307Y-111789069D01*
X90019102Y-112013097D01*
X90153820Y-112214717D01*
X90325283Y-112386180D01*
X90526903Y-112520898D01*
X90750931Y-112613693D01*
X90988757Y-112661000D01*
X91231243Y-112661000D01*
X91469069Y-112613693D01*
X91693097Y-112520898D01*
X91894717Y-112386180D01*
X92066180Y-112214717D01*
X92200898Y-112013097D01*
X92293693Y-111789069D01*
X92341000Y-111551243D01*
X92341000Y-111308757D01*
X107659000Y-111308757D01*
X107659000Y-111551243D01*
X107706307Y-111789069D01*
X107799102Y-112013097D01*
X107933820Y-112214717D01*
X108105283Y-112386180D01*
X108306903Y-112520898D01*
X108530931Y-112613693D01*
X108768757Y-112661000D01*
X109011243Y-112661000D01*
X109249069Y-112613693D01*
X109473097Y-112520898D01*
X109674717Y-112386180D01*
X109846180Y-112214717D01*
X109980898Y-112013097D01*
X110073693Y-111789069D01*
X110121000Y-111551243D01*
X110121000Y-111308757D01*
X110073693Y-111070931D01*
X109980898Y-110846903D01*
X109846180Y-110645283D01*
X109674717Y-110473820D01*
X109473097Y-110339102D01*
X109249069Y-110246307D01*
X109011243Y-110199000D01*
X108768757Y-110199000D01*
X108530931Y-110246307D01*
X108306903Y-110339102D01*
X108105283Y-110473820D01*
X107933820Y-110645283D01*
X107799102Y-110846903D01*
X107706307Y-111070931D01*
X107659000Y-111308757D01*
X92341000Y-111308757D01*
X92293693Y-111070931D01*
X92200898Y-110846903D01*
X92066180Y-110645283D01*
X91894717Y-110473820D01*
X91693097Y-110339102D01*
X91469069Y-110246307D01*
X91231243Y-110199000D01*
X90988757Y-110199000D01*
X90750931Y-110246307D01*
X90526903Y-110339102D01*
X90325283Y-110473820D01*
X90153820Y-110645283D01*
X90019102Y-110846903D01*
X89926307Y-111070931D01*
X89879000Y-111308757D01*
X89716000Y-111308757D01*
X89716000Y-108768757D01*
X89879000Y-108768757D01*
X89879000Y-109011243D01*
X89926307Y-109249069D01*
X90019102Y-109473097D01*
X90153820Y-109674717D01*
X90325283Y-109846180D01*
X90526903Y-109980898D01*
X90750931Y-110073693D01*
X90988757Y-110121000D01*
X91231243Y-110121000D01*
X91469069Y-110073693D01*
X91693097Y-109980898D01*
X91894717Y-109846180D01*
X92066180Y-109674717D01*
X92200898Y-109473097D01*
X92293693Y-109249069D01*
X92341000Y-109011243D01*
X92341000Y-108768757D01*
X107659000Y-108768757D01*
X107659000Y-109011243D01*
X107706307Y-109249069D01*
X107799102Y-109473097D01*
X107933820Y-109674717D01*
X108105283Y-109846180D01*
X108306903Y-109980898D01*
X108530931Y-110073693D01*
X108768757Y-110121000D01*
X109011243Y-110121000D01*
X109249069Y-110073693D01*
X109473097Y-109980898D01*
X109674717Y-109846180D01*
X109846180Y-109674717D01*
X109980898Y-109473097D01*
X110073693Y-109249069D01*
X110121000Y-109011243D01*
X110121000Y-108768757D01*
X110073693Y-108530931D01*
X109980898Y-108306903D01*
X109846180Y-108105283D01*
X109674717Y-107933820D01*
X109473097Y-107799102D01*
X109249069Y-107706307D01*
X109011243Y-107659000D01*
X108768757Y-107659000D01*
X108530931Y-107706307D01*
X108306903Y-107799102D01*
X108105283Y-107933820D01*
X107933820Y-108105283D01*
X107799102Y-108306903D01*
X107706307Y-108530931D01*
X107659000Y-108768757D01*
X92341000Y-108768757D01*
X92293693Y-108530931D01*
X92200898Y-108306903D01*
X92066180Y-108105283D01*
X91894717Y-107933820D01*
X91693097Y-107799102D01*
X91469069Y-107706307D01*
X91231243Y-107659000D01*
X90988757Y-107659000D01*
X90750931Y-107706307D01*
X90526903Y-107799102D01*
X90325283Y-107933820D01*
X90153820Y-108105283D01*
X90019102Y-108306903D01*
X89926307Y-108530931D01*
X89879000Y-108768757D01*
X89716000Y-108768757D01*
X89716000Y-106228757D01*
X89879000Y-106228757D01*
X89879000Y-106471243D01*
X89926307Y-106709069D01*
X90019102Y-106933097D01*
X90153820Y-107134717D01*
X90325283Y-107306180D01*
X90526903Y-107440898D01*
X90750931Y-107533693D01*
X90988757Y-107581000D01*
X91231243Y-107581000D01*
X91469069Y-107533693D01*
X91693097Y-107440898D01*
X91894717Y-107306180D01*
X92066180Y-107134717D01*
X92200898Y-106933097D01*
X92293693Y-106709069D01*
X92341000Y-106471243D01*
X92341000Y-106228757D01*
X92293693Y-105990931D01*
X92200898Y-105766903D01*
X92178297Y-105733078D01*
X94139000Y-105733078D01*
X94139000Y-105886922D01*
X94169013Y-106037809D01*
X94227887Y-106179942D01*
X94313358Y-106307859D01*
X94422141Y-106416642D01*
X94550058Y-106502113D01*
X94692191Y-106560987D01*
X94843078Y-106591000D01*
X94996922Y-106591000D01*
X95147809Y-106560987D01*
X95289942Y-106502113D01*
X95381405Y-106441000D01*
X95458595Y-106441000D01*
X95550058Y-106502113D01*
X95692191Y-106560987D01*
X95843078Y-106591000D01*
X95996922Y-106591000D01*
X96147809Y-106560987D01*
X96289942Y-106502113D01*
X96381405Y-106441000D01*
X105199010Y-106441000D01*
X105230000Y-106444052D01*
X105260990Y-106441000D01*
X105260998Y-106441000D01*
X105353698Y-106431870D01*
X105472642Y-106395789D01*
X105582261Y-106337196D01*
X105678343Y-106258343D01*
X105698105Y-106234263D01*
X105703611Y-106228757D01*
X107659000Y-106228757D01*
X107659000Y-106471243D01*
X107706307Y-106709069D01*
X107799102Y-106933097D01*
X107933820Y-107134717D01*
X108105283Y-107306180D01*
X108306903Y-107440898D01*
X108530931Y-107533693D01*
X108768757Y-107581000D01*
X109011243Y-107581000D01*
X109249069Y-107533693D01*
X109473097Y-107440898D01*
X109674717Y-107306180D01*
X109846180Y-107134717D01*
X109980898Y-106933097D01*
X110073693Y-106709069D01*
X110121000Y-106471243D01*
X110121000Y-106228757D01*
X110073693Y-105990931D01*
X109980898Y-105766903D01*
X109846180Y-105565283D01*
X109674717Y-105393820D01*
X109473097Y-105259102D01*
X109249069Y-105166307D01*
X109011243Y-105119000D01*
X108768757Y-105119000D01*
X108530931Y-105166307D01*
X108306903Y-105259102D01*
X108105283Y-105393820D01*
X107933820Y-105565283D01*
X107799102Y-105766903D01*
X107706307Y-105990931D01*
X107659000Y-106228757D01*
X105703611Y-106228757D01*
X107294269Y-104638100D01*
X107318343Y-104618343D01*
X107397196Y-104522261D01*
X107455789Y-104412642D01*
X107491870Y-104293698D01*
X107501000Y-104200998D01*
X107501000Y-104200989D01*
X107504052Y-104170001D01*
X107501000Y-104139013D01*
X107501000Y-103688757D01*
X107659000Y-103688757D01*
X107659000Y-103931243D01*
X107706307Y-104169069D01*
X107799102Y-104393097D01*
X107933820Y-104594717D01*
X108105283Y-104766180D01*
X108306903Y-104900898D01*
X108530931Y-104993693D01*
X108768757Y-105041000D01*
X109011243Y-105041000D01*
X109249069Y-104993693D01*
X109473097Y-104900898D01*
X109674717Y-104766180D01*
X109846180Y-104594717D01*
X109980898Y-104393097D01*
X110073693Y-104169069D01*
X110121000Y-103931243D01*
X110121000Y-103688757D01*
X110073693Y-103450931D01*
X109980898Y-103226903D01*
X109846180Y-103025283D01*
X109674717Y-102853820D01*
X109473097Y-102719102D01*
X109249069Y-102626307D01*
X109011243Y-102579000D01*
X108768757Y-102579000D01*
X108530931Y-102626307D01*
X108306903Y-102719102D01*
X108105283Y-102853820D01*
X107933820Y-103025283D01*
X107799102Y-103226903D01*
X107706307Y-103450931D01*
X107659000Y-103688757D01*
X107501000Y-103688757D01*
X107501000Y-101001368D01*
X107787532Y-100714837D01*
X107706307Y-100910931D01*
X107659000Y-101148757D01*
X107659000Y-101391243D01*
X107706307Y-101629069D01*
X107799102Y-101853097D01*
X107933820Y-102054717D01*
X108105283Y-102226180D01*
X108306903Y-102360898D01*
X108530931Y-102453693D01*
X108768757Y-102501000D01*
X109011243Y-102501000D01*
X109249069Y-102453693D01*
X109473097Y-102360898D01*
X109674717Y-102226180D01*
X109846180Y-102054717D01*
X109980898Y-101853097D01*
X110073693Y-101629069D01*
X110121000Y-101391243D01*
X110121000Y-101148757D01*
X110073693Y-100910931D01*
X109980898Y-100686903D01*
X109846180Y-100485283D01*
X109674717Y-100313820D01*
X109473097Y-100179102D01*
X109249069Y-100086307D01*
X109011243Y-100039000D01*
X108768757Y-100039000D01*
X108530931Y-100086307D01*
X108334837Y-100167531D01*
X108579095Y-99923274D01*
X108768757Y-99961000D01*
X109011243Y-99961000D01*
X109249069Y-99913693D01*
X109473097Y-99820898D01*
X109674717Y-99686180D01*
X109846180Y-99514717D01*
X109980898Y-99313097D01*
X110073693Y-99089069D01*
X110121000Y-98851243D01*
X110121000Y-98608757D01*
X110073693Y-98370931D01*
X109980898Y-98146903D01*
X109846180Y-97945283D01*
X109674717Y-97773820D01*
X109473097Y-97639102D01*
X109249069Y-97546307D01*
X109011243Y-97499000D01*
X108768757Y-97499000D01*
X108530931Y-97546307D01*
X108306903Y-97639102D01*
X108105283Y-97773820D01*
X107933820Y-97945283D01*
X107799102Y-98146903D01*
X107706307Y-98370931D01*
X107659000Y-98608757D01*
X107659000Y-98851243D01*
X107693408Y-99024223D01*
X106445733Y-100271899D01*
X106421658Y-100291657D01*
X106401900Y-100315732D01*
X106401897Y-100315735D01*
X106342804Y-100387740D01*
X106284211Y-100497359D01*
X106248130Y-100616303D01*
X106235948Y-100740000D01*
X106239001Y-100771000D01*
X106239000Y-103908631D01*
X104968632Y-105179000D01*
X96381405Y-105179000D01*
X96289942Y-105117887D01*
X96147809Y-105059013D01*
X95996922Y-105029000D01*
X95843078Y-105029000D01*
X95692191Y-105059013D01*
X95550058Y-105117887D01*
X95458595Y-105179000D01*
X95381405Y-105179000D01*
X95289942Y-105117887D01*
X95147809Y-105059013D01*
X94996922Y-105029000D01*
X94843078Y-105029000D01*
X94692191Y-105059013D01*
X94550058Y-105117887D01*
X94422141Y-105203358D01*
X94313358Y-105312141D01*
X94227887Y-105440058D01*
X94169013Y-105582191D01*
X94139000Y-105733078D01*
X92178297Y-105733078D01*
X92066180Y-105565283D01*
X91894717Y-105393820D01*
X91693097Y-105259102D01*
X91469069Y-105166307D01*
X91231243Y-105119000D01*
X90988757Y-105119000D01*
X90750931Y-105166307D01*
X90526903Y-105259102D01*
X90325283Y-105393820D01*
X90153820Y-105565283D01*
X90019102Y-105766903D01*
X89926307Y-105990931D01*
X89879000Y-106228757D01*
X89716000Y-106228757D01*
X89716000Y-103688757D01*
X89879000Y-103688757D01*
X89879000Y-103931243D01*
X89926307Y-104169069D01*
X90019102Y-104393097D01*
X90153820Y-104594717D01*
X90325283Y-104766180D01*
X90526903Y-104900898D01*
X90750931Y-104993693D01*
X90988757Y-105041000D01*
X91231243Y-105041000D01*
X91469069Y-104993693D01*
X91693097Y-104900898D01*
X91894717Y-104766180D01*
X92066180Y-104594717D01*
X92200898Y-104393097D01*
X92293693Y-104169069D01*
X92341000Y-103931243D01*
X92341000Y-103688757D01*
X92293693Y-103450931D01*
X92200898Y-103226903D01*
X92066180Y-103025283D01*
X91894717Y-102853820D01*
X91693097Y-102719102D01*
X91469069Y-102626307D01*
X91231243Y-102579000D01*
X90988757Y-102579000D01*
X90750931Y-102626307D01*
X90526903Y-102719102D01*
X90325283Y-102853820D01*
X90153820Y-103025283D01*
X90019102Y-103226903D01*
X89926307Y-103450931D01*
X89879000Y-103688757D01*
X89716000Y-103688757D01*
X89716000Y-101148757D01*
X89879000Y-101148757D01*
X89879000Y-101391243D01*
X89926307Y-101629069D01*
X90019102Y-101853097D01*
X90153820Y-102054717D01*
X90325283Y-102226180D01*
X90526903Y-102360898D01*
X90750931Y-102453693D01*
X90988757Y-102501000D01*
X91231243Y-102501000D01*
X91469069Y-102453693D01*
X91693097Y-102360898D01*
X91894717Y-102226180D01*
X92066180Y-102054717D01*
X92200898Y-101853097D01*
X92293693Y-101629069D01*
X92341000Y-101391243D01*
X92341000Y-101148757D01*
X92293693Y-100910931D01*
X92200898Y-100686903D01*
X92066180Y-100485283D01*
X91894717Y-100313820D01*
X91693097Y-100179102D01*
X91469069Y-100086307D01*
X91231243Y-100039000D01*
X90988757Y-100039000D01*
X90750931Y-100086307D01*
X90526903Y-100179102D01*
X90325283Y-100313820D01*
X90153820Y-100485283D01*
X90019102Y-100686903D01*
X89926307Y-100910931D01*
X89879000Y-101148757D01*
X89716000Y-101148757D01*
X89716000Y-98608757D01*
X89879000Y-98608757D01*
X89879000Y-98851243D01*
X89926307Y-99089069D01*
X90019102Y-99313097D01*
X90153820Y-99514717D01*
X90325283Y-99686180D01*
X90526903Y-99820898D01*
X90750931Y-99913693D01*
X90988757Y-99961000D01*
X91231243Y-99961000D01*
X91469069Y-99913693D01*
X91693097Y-99820898D01*
X91894717Y-99686180D01*
X92066180Y-99514717D01*
X92200898Y-99313097D01*
X92293693Y-99089069D01*
X92341000Y-98851243D01*
X92341000Y-98608757D01*
X92293693Y-98370931D01*
X92200898Y-98146903D01*
X92066180Y-97945283D01*
X91894717Y-97773820D01*
X91693097Y-97639102D01*
X91469069Y-97546307D01*
X91231243Y-97499000D01*
X90988757Y-97499000D01*
X90750931Y-97546307D01*
X90526903Y-97639102D01*
X90325283Y-97773820D01*
X90153820Y-97945283D01*
X90019102Y-98146903D01*
X89926307Y-98370931D01*
X89879000Y-98608757D01*
X89716000Y-98608757D01*
X89716000Y-96068757D01*
X89879000Y-96068757D01*
X89879000Y-96311243D01*
X89926307Y-96549069D01*
X90019102Y-96773097D01*
X90153820Y-96974717D01*
X90325283Y-97146180D01*
X90526903Y-97280898D01*
X90750931Y-97373693D01*
X90988757Y-97421000D01*
X91231243Y-97421000D01*
X91469069Y-97373693D01*
X91693097Y-97280898D01*
X91894717Y-97146180D01*
X92066180Y-96974717D01*
X92200898Y-96773097D01*
X92293693Y-96549069D01*
X92341000Y-96311243D01*
X92341000Y-96068757D01*
X92293693Y-95830931D01*
X92200898Y-95606903D01*
X92066180Y-95405283D01*
X91894717Y-95233820D01*
X91693097Y-95099102D01*
X91469069Y-95006307D01*
X91231243Y-94959000D01*
X90988757Y-94959000D01*
X90750931Y-95006307D01*
X90526903Y-95099102D01*
X90325283Y-95233820D01*
X90153820Y-95405283D01*
X90019102Y-95606903D01*
X89926307Y-95830931D01*
X89879000Y-96068757D01*
X89716000Y-96068757D01*
X89716000Y-93528757D01*
X89879000Y-93528757D01*
X89879000Y-93771243D01*
X89926307Y-94009069D01*
X90019102Y-94233097D01*
X90153820Y-94434717D01*
X90325283Y-94606180D01*
X90526903Y-94740898D01*
X90750931Y-94833693D01*
X90988757Y-94881000D01*
X91231243Y-94881000D01*
X91469069Y-94833693D01*
X91693097Y-94740898D01*
X91894717Y-94606180D01*
X92066180Y-94434717D01*
X92200898Y-94233097D01*
X92293693Y-94009069D01*
X92341000Y-93771243D01*
X92341000Y-93528757D01*
X92293693Y-93290931D01*
X92200898Y-93066903D01*
X92066180Y-92865283D01*
X91894717Y-92693820D01*
X91693097Y-92559102D01*
X91469069Y-92466307D01*
X91231243Y-92419000D01*
X90988757Y-92419000D01*
X90750931Y-92466307D01*
X90526903Y-92559102D01*
X90325283Y-92693820D01*
X90153820Y-92865283D01*
X90019102Y-93066903D01*
X89926307Y-93290931D01*
X89879000Y-93528757D01*
X89716000Y-93528757D01*
X89716000Y-90988757D01*
X89879000Y-90988757D01*
X89879000Y-91231243D01*
X89926307Y-91469069D01*
X90019102Y-91693097D01*
X90153820Y-91894717D01*
X90325283Y-92066180D01*
X90526903Y-92200898D01*
X90750931Y-92293693D01*
X90988757Y-92341000D01*
X91231243Y-92341000D01*
X91469069Y-92293693D01*
X91693097Y-92200898D01*
X91894717Y-92066180D01*
X92066180Y-91894717D01*
X92200898Y-91693097D01*
X92293693Y-91469069D01*
X92341000Y-91231243D01*
X92341000Y-90988757D01*
X92293693Y-90750931D01*
X92200898Y-90526903D01*
X92066180Y-90325283D01*
X91894717Y-90153820D01*
X91693097Y-90019102D01*
X91469069Y-89926307D01*
X91231243Y-89879000D01*
X90988757Y-89879000D01*
X90750931Y-89926307D01*
X90526903Y-90019102D01*
X90325283Y-90153820D01*
X90153820Y-90325283D01*
X90019102Y-90526903D01*
X89926307Y-90750931D01*
X89879000Y-90988757D01*
X89716000Y-90988757D01*
X89716000Y-88448757D01*
X89879000Y-88448757D01*
X89879000Y-88691243D01*
X89926307Y-88929069D01*
X90019102Y-89153097D01*
X90153820Y-89354717D01*
X90325283Y-89526180D01*
X90526903Y-89660898D01*
X90750931Y-89753693D01*
X90988757Y-89801000D01*
X91231243Y-89801000D01*
X91469069Y-89753693D01*
X91693097Y-89660898D01*
X91894717Y-89526180D01*
X92066180Y-89354717D01*
X92200898Y-89153097D01*
X92293693Y-88929069D01*
X92341000Y-88691243D01*
X92341000Y-88448757D01*
X92293693Y-88210931D01*
X92200898Y-87986903D01*
X92066180Y-87785283D01*
X91894717Y-87613820D01*
X91693097Y-87479102D01*
X91469069Y-87386307D01*
X91231243Y-87339000D01*
X90988757Y-87339000D01*
X90750931Y-87386307D01*
X90526903Y-87479102D01*
X90325283Y-87613820D01*
X90153820Y-87785283D01*
X90019102Y-87986903D01*
X89926307Y-88210931D01*
X89879000Y-88448757D01*
X89716000Y-88448757D01*
X89716000Y-85908757D01*
X89879000Y-85908757D01*
X89879000Y-86151243D01*
X89926307Y-86389069D01*
X90019102Y-86613097D01*
X90153820Y-86814717D01*
X90325283Y-86986180D01*
X90526903Y-87120898D01*
X90750931Y-87213693D01*
X90988757Y-87261000D01*
X91231243Y-87261000D01*
X91469069Y-87213693D01*
X91693097Y-87120898D01*
X91894717Y-86986180D01*
X92066180Y-86814717D01*
X92200898Y-86613097D01*
X92293693Y-86389069D01*
X92341000Y-86151243D01*
X92341000Y-85908757D01*
X92303454Y-85720000D01*
X97237157Y-85720000D01*
X97237157Y-86270000D01*
X97244513Y-86344689D01*
X97259775Y-86395000D01*
X97244513Y-86445311D01*
X97237157Y-86520000D01*
X97237157Y-87520000D01*
X97244513Y-87594689D01*
X97259775Y-87645000D01*
X97244513Y-87695311D01*
X97237157Y-87770000D01*
X97237157Y-88320000D01*
X97239565Y-88344450D01*
X97239565Y-88369009D01*
X97246921Y-88443698D01*
X97266043Y-88539831D01*
X97287828Y-88611648D01*
X97325337Y-88702204D01*
X97360717Y-88768394D01*
X97415173Y-88849893D01*
X97462784Y-88907908D01*
X97532092Y-88977216D01*
X97590107Y-89024827D01*
X97671606Y-89079283D01*
X97737796Y-89114663D01*
X97828352Y-89152172D01*
X97900169Y-89173957D01*
X97996302Y-89193079D01*
X98070991Y-89200435D01*
X98095550Y-89200435D01*
X98120000Y-89202843D01*
X98620000Y-89202843D01*
X98644450Y-89200435D01*
X98669009Y-89200435D01*
X98743698Y-89193079D01*
X98839831Y-89173957D01*
X98911648Y-89152172D01*
X99002204Y-89114663D01*
X99068394Y-89079283D01*
X99149893Y-89024827D01*
X99207908Y-88977216D01*
X99277216Y-88907908D01*
X99324827Y-88849893D01*
X99357496Y-88801000D01*
X100210764Y-88801000D01*
X100219000Y-88809236D01*
X100219000Y-88832504D01*
X100170107Y-88865173D01*
X100112092Y-88912784D01*
X100042784Y-88982092D01*
X99995173Y-89040107D01*
X99940717Y-89121606D01*
X99905337Y-89187796D01*
X99867828Y-89278352D01*
X99846043Y-89350169D01*
X99826921Y-89446302D01*
X99819565Y-89520991D01*
X99819565Y-89545550D01*
X99817157Y-89570000D01*
X99817157Y-90070000D01*
X99819565Y-90094450D01*
X99819565Y-90119009D01*
X99826921Y-90193698D01*
X99846043Y-90289831D01*
X99867828Y-90361648D01*
X99905337Y-90452204D01*
X99940717Y-90518394D01*
X99995173Y-90599893D01*
X100042784Y-90657908D01*
X100112092Y-90727216D01*
X100170107Y-90774827D01*
X100251606Y-90829283D01*
X100317796Y-90864663D01*
X100408352Y-90902172D01*
X100480169Y-90923957D01*
X100576302Y-90943079D01*
X100609000Y-90946299D01*
X100609000Y-90986373D01*
X100606673Y-91010000D01*
X100611452Y-91058523D01*
X100615960Y-91104291D01*
X100643464Y-91194960D01*
X100688128Y-91278522D01*
X100748236Y-91351764D01*
X100766593Y-91366830D01*
X101133174Y-91733411D01*
X101148236Y-91751764D01*
X101221478Y-91811872D01*
X101305039Y-91856536D01*
X101395708Y-91884040D01*
X101466374Y-91891000D01*
X101466383Y-91891000D01*
X101489999Y-91893326D01*
X101513615Y-91891000D01*
X102170764Y-91891000D01*
X102487157Y-92207393D01*
X102487157Y-92660000D01*
X102489565Y-92684450D01*
X102489565Y-92709009D01*
X102496921Y-92783698D01*
X102516043Y-92879831D01*
X102537828Y-92951648D01*
X102575337Y-93042204D01*
X102610717Y-93108394D01*
X102665173Y-93189893D01*
X102712784Y-93247908D01*
X102782092Y-93317216D01*
X102840107Y-93364827D01*
X102921606Y-93419283D01*
X102987796Y-93454663D01*
X103078352Y-93492172D01*
X103150169Y-93513957D01*
X103199001Y-93523670D01*
X103199000Y-97682093D01*
X103182141Y-97693358D01*
X103073358Y-97802141D01*
X102987887Y-97930058D01*
X102929013Y-98072191D01*
X102899000Y-98223078D01*
X102899000Y-98376922D01*
X102929013Y-98527809D01*
X102987887Y-98669942D01*
X103073358Y-98797859D01*
X103182141Y-98906642D01*
X103310058Y-98992113D01*
X103452191Y-99050987D01*
X103603078Y-99081000D01*
X103756922Y-99081000D01*
X103907809Y-99050987D01*
X104049942Y-98992113D01*
X104177859Y-98906642D01*
X104286642Y-98797859D01*
X104372113Y-98669942D01*
X104430987Y-98527809D01*
X104461000Y-98376922D01*
X104461000Y-98223078D01*
X104430987Y-98072191D01*
X104372113Y-97930058D01*
X104286642Y-97802141D01*
X104177859Y-97693358D01*
X104161000Y-97682093D01*
X104161000Y-96506980D01*
X107700511Y-96506980D01*
X107724866Y-96587288D01*
X107824761Y-96806961D01*
X107965592Y-97002924D01*
X108141948Y-97167647D01*
X108347051Y-97294799D01*
X108573019Y-97379495D01*
X108763000Y-97319187D01*
X108763000Y-96317000D01*
X109017000Y-96317000D01*
X109017000Y-97319187D01*
X109206981Y-97379495D01*
X109432949Y-97294799D01*
X109638052Y-97167647D01*
X109814408Y-97002924D01*
X109955239Y-96806961D01*
X110055134Y-96587288D01*
X110079489Y-96506980D01*
X110018627Y-96317000D01*
X109017000Y-96317000D01*
X108763000Y-96317000D01*
X107761373Y-96317000D01*
X107700511Y-96506980D01*
X104161000Y-96506980D01*
X104161000Y-95873020D01*
X107700511Y-95873020D01*
X107761373Y-96063000D01*
X108763000Y-96063000D01*
X108763000Y-95060813D01*
X109017000Y-95060813D01*
X109017000Y-96063000D01*
X110018627Y-96063000D01*
X110079489Y-95873020D01*
X110055134Y-95792712D01*
X109955239Y-95573039D01*
X109814408Y-95377076D01*
X109638052Y-95212353D01*
X109432949Y-95085201D01*
X109206981Y-95000505D01*
X109017000Y-95060813D01*
X108763000Y-95060813D01*
X108573019Y-95000505D01*
X108347051Y-95085201D01*
X108141948Y-95212353D01*
X107965592Y-95377076D01*
X107824761Y-95573039D01*
X107724866Y-95792712D01*
X107700511Y-95873020D01*
X104161000Y-95873020D01*
X104161000Y-93541957D01*
X104170000Y-93542843D01*
X104189001Y-93542843D01*
X104189001Y-93606364D01*
X104186673Y-93630000D01*
X104195960Y-93724292D01*
X104210203Y-93771243D01*
X104223465Y-93814961D01*
X104268129Y-93898522D01*
X104328237Y-93971764D01*
X104346589Y-93986825D01*
X104872956Y-94513192D01*
X104869000Y-94533078D01*
X104869000Y-94686922D01*
X104899013Y-94837809D01*
X104957887Y-94979942D01*
X105043358Y-95107859D01*
X105152141Y-95216642D01*
X105280058Y-95302113D01*
X105422191Y-95360987D01*
X105573078Y-95391000D01*
X105726922Y-95391000D01*
X105877809Y-95360987D01*
X106019942Y-95302113D01*
X106147859Y-95216642D01*
X106256642Y-95107859D01*
X106342113Y-94979942D01*
X106400987Y-94837809D01*
X106431000Y-94686922D01*
X106431000Y-94533078D01*
X106400987Y-94382191D01*
X106342113Y-94240058D01*
X106256642Y-94112141D01*
X106147859Y-94003358D01*
X106019942Y-93917887D01*
X105877809Y-93859013D01*
X105726922Y-93829000D01*
X105573078Y-93829000D01*
X105553192Y-93832956D01*
X105151000Y-93430764D01*
X105151000Y-93397496D01*
X105199893Y-93364827D01*
X105257908Y-93317216D01*
X105327216Y-93247908D01*
X105374827Y-93189893D01*
X105429283Y-93108394D01*
X105464663Y-93042204D01*
X105502172Y-92951648D01*
X105523957Y-92879831D01*
X105543079Y-92783698D01*
X105550435Y-92709009D01*
X105550435Y-92684450D01*
X105552843Y-92660000D01*
X105552843Y-92160000D01*
X105550435Y-92135550D01*
X105550435Y-92110991D01*
X105543079Y-92036302D01*
X105523957Y-91940169D01*
X105502172Y-91868352D01*
X105464663Y-91777796D01*
X105429283Y-91711606D01*
X105374827Y-91630107D01*
X105327216Y-91572092D01*
X105257908Y-91502784D01*
X105199893Y-91455173D01*
X105118394Y-91400717D01*
X105052204Y-91365337D01*
X104961648Y-91327828D01*
X104889831Y-91306043D01*
X104838640Y-91295861D01*
X104846642Y-91287859D01*
X104932113Y-91159942D01*
X104990987Y-91017809D01*
X105021000Y-90866922D01*
X105021000Y-90713078D01*
X104990987Y-90562191D01*
X104932113Y-90420058D01*
X104846642Y-90292141D01*
X104737859Y-90183358D01*
X104609942Y-90097887D01*
X104467809Y-90039013D01*
X104316922Y-90009000D01*
X104182843Y-90009000D01*
X104182843Y-89570000D01*
X104180435Y-89545550D01*
X104180435Y-89520991D01*
X104173079Y-89446302D01*
X104153957Y-89350169D01*
X104132172Y-89278352D01*
X104094663Y-89187796D01*
X104059283Y-89121606D01*
X104004827Y-89040107D01*
X103964527Y-88991000D01*
X105140764Y-88991000D01*
X106309000Y-90159237D01*
X106309001Y-91526364D01*
X106306673Y-91550000D01*
X106315960Y-91644292D01*
X106332411Y-91698522D01*
X106343465Y-91734961D01*
X106388129Y-91818522D01*
X106448237Y-91891764D01*
X106466589Y-91906825D01*
X107748597Y-93188834D01*
X107706307Y-93290931D01*
X107659000Y-93528757D01*
X107659000Y-93771243D01*
X107706307Y-94009069D01*
X107799102Y-94233097D01*
X107933820Y-94434717D01*
X108105283Y-94606180D01*
X108306903Y-94740898D01*
X108530931Y-94833693D01*
X108768757Y-94881000D01*
X109011243Y-94881000D01*
X109249069Y-94833693D01*
X109473097Y-94740898D01*
X109674717Y-94606180D01*
X109846180Y-94434717D01*
X109980898Y-94233097D01*
X110073693Y-94009069D01*
X110121000Y-93771243D01*
X110121000Y-93528757D01*
X110073693Y-93290931D01*
X109980898Y-93066903D01*
X109846180Y-92865283D01*
X109674717Y-92693820D01*
X109473097Y-92559102D01*
X109249069Y-92466307D01*
X109011243Y-92419000D01*
X108768757Y-92419000D01*
X108530931Y-92466307D01*
X108428834Y-92508597D01*
X107271000Y-91350764D01*
X107271000Y-90171237D01*
X107748597Y-90648834D01*
X107706307Y-90750931D01*
X107659000Y-90988757D01*
X107659000Y-91231243D01*
X107706307Y-91469069D01*
X107799102Y-91693097D01*
X107933820Y-91894717D01*
X108105283Y-92066180D01*
X108306903Y-92200898D01*
X108530931Y-92293693D01*
X108768757Y-92341000D01*
X109011243Y-92341000D01*
X109249069Y-92293693D01*
X109473097Y-92200898D01*
X109674717Y-92066180D01*
X109846180Y-91894717D01*
X109980898Y-91693097D01*
X110073693Y-91469069D01*
X110121000Y-91231243D01*
X110121000Y-90988757D01*
X110073693Y-90750931D01*
X109980898Y-90526903D01*
X109846180Y-90325283D01*
X109674717Y-90153820D01*
X109473097Y-90019102D01*
X109249069Y-89926307D01*
X109011243Y-89879000D01*
X108768757Y-89879000D01*
X108530931Y-89926307D01*
X108428834Y-89968597D01*
X105836830Y-87376594D01*
X105821764Y-87358236D01*
X105748522Y-87298128D01*
X105664961Y-87253464D01*
X105574292Y-87225960D01*
X105503626Y-87219000D01*
X105480000Y-87216673D01*
X105456374Y-87219000D01*
X102471000Y-87219000D01*
X102471000Y-87112843D01*
X102490000Y-87112843D01*
X102564689Y-87105487D01*
X102615000Y-87090225D01*
X102665311Y-87105487D01*
X102740000Y-87112843D01*
X103290000Y-87112843D01*
X103314450Y-87110435D01*
X103339009Y-87110435D01*
X103413698Y-87103079D01*
X103509831Y-87083957D01*
X103581648Y-87062172D01*
X103672204Y-87024663D01*
X103738394Y-86989283D01*
X103819893Y-86934827D01*
X103877908Y-86887216D01*
X103947216Y-86817908D01*
X103994827Y-86759893D01*
X104049283Y-86678394D01*
X104084663Y-86612204D01*
X104122172Y-86521648D01*
X104140569Y-86461000D01*
X106100764Y-86461000D01*
X107748597Y-88108834D01*
X107706307Y-88210931D01*
X107659000Y-88448757D01*
X107659000Y-88691243D01*
X107706307Y-88929069D01*
X107799102Y-89153097D01*
X107933820Y-89354717D01*
X108105283Y-89526180D01*
X108306903Y-89660898D01*
X108530931Y-89753693D01*
X108768757Y-89801000D01*
X109011243Y-89801000D01*
X109249069Y-89753693D01*
X109473097Y-89660898D01*
X109674717Y-89526180D01*
X109846180Y-89354717D01*
X109980898Y-89153097D01*
X110073693Y-88929069D01*
X110121000Y-88691243D01*
X110121000Y-88448757D01*
X110073693Y-88210931D01*
X109980898Y-87986903D01*
X109846180Y-87785283D01*
X109674717Y-87613820D01*
X109473097Y-87479102D01*
X109249069Y-87386307D01*
X109011243Y-87339000D01*
X108768757Y-87339000D01*
X108530931Y-87386307D01*
X108428834Y-87428597D01*
X106656830Y-85656594D01*
X106641764Y-85638236D01*
X106568522Y-85578128D01*
X106484961Y-85533464D01*
X106394292Y-85505960D01*
X106323626Y-85499000D01*
X106300000Y-85496673D01*
X106276374Y-85499000D01*
X104140569Y-85499000D01*
X104122172Y-85438352D01*
X104084663Y-85347796D01*
X104049283Y-85281606D01*
X103994827Y-85200107D01*
X103947216Y-85142092D01*
X103877908Y-85072784D01*
X103819893Y-85025173D01*
X103738394Y-84970717D01*
X103720215Y-84961000D01*
X107140764Y-84961000D01*
X107748597Y-85568833D01*
X107706307Y-85670931D01*
X107659000Y-85908757D01*
X107659000Y-86151243D01*
X107706307Y-86389069D01*
X107799102Y-86613097D01*
X107933820Y-86814717D01*
X108105283Y-86986180D01*
X108306903Y-87120898D01*
X108530931Y-87213693D01*
X108768757Y-87261000D01*
X109011243Y-87261000D01*
X109249069Y-87213693D01*
X109473097Y-87120898D01*
X109674717Y-86986180D01*
X109846180Y-86814717D01*
X109980898Y-86613097D01*
X110073693Y-86389069D01*
X110121000Y-86151243D01*
X110121000Y-85908757D01*
X110073693Y-85670931D01*
X109980898Y-85446903D01*
X109846180Y-85245283D01*
X109674717Y-85073820D01*
X109473097Y-84939102D01*
X109249069Y-84846307D01*
X109011243Y-84799000D01*
X108768757Y-84799000D01*
X108530931Y-84846307D01*
X108428833Y-84888597D01*
X107696830Y-84156594D01*
X107681764Y-84138236D01*
X107608522Y-84078128D01*
X107524961Y-84033464D01*
X107434292Y-84005960D01*
X107363626Y-83999000D01*
X107340000Y-83996673D01*
X107316374Y-83999000D01*
X100943626Y-83999000D01*
X100919999Y-83996673D01*
X100825707Y-84005960D01*
X100798203Y-84014304D01*
X100735039Y-84033464D01*
X100651478Y-84078128D01*
X100578236Y-84138236D01*
X100563170Y-84156594D01*
X100366594Y-84353170D01*
X100348236Y-84368236D01*
X100288128Y-84441478D01*
X100243464Y-84525040D01*
X100228524Y-84574292D01*
X100215960Y-84615708D01*
X100206673Y-84710000D01*
X100209000Y-84733627D01*
X100209000Y-84992504D01*
X100160107Y-85025173D01*
X100102092Y-85072784D01*
X100032784Y-85142092D01*
X99985173Y-85200107D01*
X99930717Y-85281606D01*
X99895337Y-85347796D01*
X99857828Y-85438352D01*
X99836043Y-85510169D01*
X99816921Y-85606302D01*
X99809565Y-85680991D01*
X99809565Y-85705550D01*
X99807157Y-85730000D01*
X99807157Y-86230000D01*
X99809565Y-86254450D01*
X99809565Y-86279009D01*
X99816921Y-86353698D01*
X99836043Y-86449831D01*
X99857828Y-86521648D01*
X99895337Y-86612204D01*
X99930717Y-86678394D01*
X99985173Y-86759893D01*
X100032784Y-86817908D01*
X100102092Y-86887216D01*
X100160107Y-86934827D01*
X100241606Y-86989283D01*
X100307796Y-87024663D01*
X100398352Y-87062172D01*
X100470169Y-87083957D01*
X100566302Y-87103079D01*
X100640991Y-87110435D01*
X100665550Y-87110435D01*
X100690000Y-87112843D01*
X101240000Y-87112843D01*
X101314689Y-87105487D01*
X101365000Y-87090225D01*
X101415311Y-87105487D01*
X101490000Y-87112843D01*
X101509001Y-87112843D01*
X101509001Y-87219000D01*
X100359237Y-87219000D01*
X99836830Y-86696594D01*
X99821764Y-86678236D01*
X99748522Y-86618128D01*
X99664961Y-86573464D01*
X99574292Y-86545960D01*
X99503626Y-86539000D01*
X99502843Y-86538923D01*
X99502843Y-86520000D01*
X99495487Y-86445311D01*
X99480225Y-86395000D01*
X99495487Y-86344689D01*
X99502843Y-86270000D01*
X99502843Y-85720000D01*
X99500435Y-85695550D01*
X99500435Y-85670991D01*
X99493079Y-85596302D01*
X99473957Y-85500169D01*
X99452172Y-85428352D01*
X99414663Y-85337796D01*
X99379283Y-85271606D01*
X99324827Y-85190107D01*
X99277216Y-85132092D01*
X99207908Y-85062784D01*
X99149893Y-85015173D01*
X99068394Y-84960717D01*
X99002204Y-84925337D01*
X98911648Y-84887828D01*
X98839831Y-84866043D01*
X98743698Y-84846921D01*
X98669009Y-84839565D01*
X98644450Y-84839565D01*
X98620000Y-84837157D01*
X98120000Y-84837157D01*
X98095550Y-84839565D01*
X98070991Y-84839565D01*
X97996302Y-84846921D01*
X97900169Y-84866043D01*
X97828352Y-84887828D01*
X97737796Y-84925337D01*
X97671606Y-84960717D01*
X97590107Y-85015173D01*
X97532092Y-85062784D01*
X97462784Y-85132092D01*
X97415173Y-85190107D01*
X97360717Y-85271606D01*
X97325337Y-85337796D01*
X97287828Y-85428352D01*
X97266043Y-85500169D01*
X97246921Y-85596302D01*
X97239565Y-85670991D01*
X97239565Y-85695550D01*
X97237157Y-85720000D01*
X92303454Y-85720000D01*
X92293693Y-85670931D01*
X92200898Y-85446903D01*
X92066180Y-85245283D01*
X91894717Y-85073820D01*
X91693097Y-84939102D01*
X91469069Y-84846307D01*
X91231243Y-84799000D01*
X90988757Y-84799000D01*
X90750931Y-84846307D01*
X90526903Y-84939102D01*
X90325283Y-85073820D01*
X90153820Y-85245283D01*
X90019102Y-85446903D01*
X89926307Y-85670931D01*
X89879000Y-85908757D01*
X89716000Y-85908757D01*
X89716000Y-83368757D01*
X89879000Y-83368757D01*
X89879000Y-83611243D01*
X89926307Y-83849069D01*
X90019102Y-84073097D01*
X90153820Y-84274717D01*
X90325283Y-84446180D01*
X90526903Y-84580898D01*
X90750931Y-84673693D01*
X90988757Y-84721000D01*
X91231243Y-84721000D01*
X91469069Y-84673693D01*
X91693097Y-84580898D01*
X91894717Y-84446180D01*
X92066180Y-84274717D01*
X92200898Y-84073097D01*
X92293693Y-83849069D01*
X92341000Y-83611243D01*
X92341000Y-83368757D01*
X107659000Y-83368757D01*
X107659000Y-83611243D01*
X107706307Y-83849069D01*
X107799102Y-84073097D01*
X107933820Y-84274717D01*
X108105283Y-84446180D01*
X108306903Y-84580898D01*
X108530931Y-84673693D01*
X108768757Y-84721000D01*
X109011243Y-84721000D01*
X109249069Y-84673693D01*
X109473097Y-84580898D01*
X109674717Y-84446180D01*
X109846180Y-84274717D01*
X109980898Y-84073097D01*
X110073693Y-83849069D01*
X110121000Y-83611243D01*
X110121000Y-83368757D01*
X110073693Y-83130931D01*
X109980898Y-82906903D01*
X109846180Y-82705283D01*
X109674717Y-82533820D01*
X109473097Y-82399102D01*
X109249069Y-82306307D01*
X109011243Y-82259000D01*
X108768757Y-82259000D01*
X108530931Y-82306307D01*
X108306903Y-82399102D01*
X108105283Y-82533820D01*
X107933820Y-82705283D01*
X107799102Y-82906903D01*
X107706307Y-83130931D01*
X107659000Y-83368757D01*
X92341000Y-83368757D01*
X92293693Y-83130931D01*
X92200898Y-82906903D01*
X92066180Y-82705283D01*
X91894717Y-82533820D01*
X91693097Y-82399102D01*
X91469069Y-82306307D01*
X91231243Y-82259000D01*
X90988757Y-82259000D01*
X90750931Y-82306307D01*
X90526903Y-82399102D01*
X90325283Y-82533820D01*
X90153820Y-82705283D01*
X90019102Y-82906903D01*
X89926307Y-83130931D01*
X89879000Y-83368757D01*
X89716000Y-83368757D01*
X89716000Y-80828757D01*
X89879000Y-80828757D01*
X89879000Y-81071243D01*
X89926307Y-81309069D01*
X90019102Y-81533097D01*
X90153820Y-81734717D01*
X90325283Y-81906180D01*
X90526903Y-82040898D01*
X90750931Y-82133693D01*
X90988757Y-82181000D01*
X91231243Y-82181000D01*
X91469069Y-82133693D01*
X91693097Y-82040898D01*
X91894717Y-81906180D01*
X92066180Y-81734717D01*
X92200898Y-81533097D01*
X92293693Y-81309069D01*
X92341000Y-81071243D01*
X92341000Y-80828757D01*
X107659000Y-80828757D01*
X107659000Y-81071243D01*
X107706307Y-81309069D01*
X107799102Y-81533097D01*
X107933820Y-81734717D01*
X108105283Y-81906180D01*
X108306903Y-82040898D01*
X108530931Y-82133693D01*
X108768757Y-82181000D01*
X109011243Y-82181000D01*
X109249069Y-82133693D01*
X109473097Y-82040898D01*
X109674717Y-81906180D01*
X109846180Y-81734717D01*
X109980898Y-81533097D01*
X110073693Y-81309069D01*
X110121000Y-81071243D01*
X110121000Y-80828757D01*
X110073693Y-80590931D01*
X109980898Y-80366903D01*
X109846180Y-80165283D01*
X109674717Y-79993820D01*
X109473097Y-79859102D01*
X109249069Y-79766307D01*
X109011243Y-79719000D01*
X108768757Y-79719000D01*
X108530931Y-79766307D01*
X108306903Y-79859102D01*
X108105283Y-79993820D01*
X107933820Y-80165283D01*
X107799102Y-80366903D01*
X107706307Y-80590931D01*
X107659000Y-80828757D01*
X92341000Y-80828757D01*
X92293693Y-80590931D01*
X92200898Y-80366903D01*
X92066180Y-80165283D01*
X91894717Y-79993820D01*
X91693097Y-79859102D01*
X91469069Y-79766307D01*
X91231243Y-79719000D01*
X90988757Y-79719000D01*
X90750931Y-79766307D01*
X90526903Y-79859102D01*
X90325283Y-79993820D01*
X90153820Y-80165283D01*
X90019102Y-80366903D01*
X89926307Y-80590931D01*
X89879000Y-80828757D01*
X89716000Y-80828757D01*
X89716000Y-78288757D01*
X89879000Y-78288757D01*
X89879000Y-78531243D01*
X89926307Y-78769069D01*
X90019102Y-78993097D01*
X90153820Y-79194717D01*
X90325283Y-79366180D01*
X90526903Y-79500898D01*
X90750931Y-79593693D01*
X90988757Y-79641000D01*
X91231243Y-79641000D01*
X91469069Y-79593693D01*
X91693097Y-79500898D01*
X91894717Y-79366180D01*
X92066180Y-79194717D01*
X92200898Y-78993097D01*
X92293693Y-78769069D01*
X92341000Y-78531243D01*
X92341000Y-78288757D01*
X107659000Y-78288757D01*
X107659000Y-78531243D01*
X107706307Y-78769069D01*
X107799102Y-78993097D01*
X107933820Y-79194717D01*
X108105283Y-79366180D01*
X108306903Y-79500898D01*
X108530931Y-79593693D01*
X108768757Y-79641000D01*
X109011243Y-79641000D01*
X109249069Y-79593693D01*
X109473097Y-79500898D01*
X109674717Y-79366180D01*
X109846180Y-79194717D01*
X109980898Y-78993097D01*
X110073693Y-78769069D01*
X110121000Y-78531243D01*
X110121000Y-78288757D01*
X110073693Y-78050931D01*
X109980898Y-77826903D01*
X109846180Y-77625283D01*
X109674717Y-77453820D01*
X109473097Y-77319102D01*
X109249069Y-77226307D01*
X109011243Y-77179000D01*
X108768757Y-77179000D01*
X108530931Y-77226307D01*
X108306903Y-77319102D01*
X108105283Y-77453820D01*
X107933820Y-77625283D01*
X107799102Y-77826903D01*
X107706307Y-78050931D01*
X107659000Y-78288757D01*
X92341000Y-78288757D01*
X92293693Y-78050931D01*
X92200898Y-77826903D01*
X92066180Y-77625283D01*
X91894717Y-77453820D01*
X91693097Y-77319102D01*
X91469069Y-77226307D01*
X91231243Y-77179000D01*
X90988757Y-77179000D01*
X90750931Y-77226307D01*
X90526903Y-77319102D01*
X90325283Y-77453820D01*
X90153820Y-77625283D01*
X90019102Y-77826903D01*
X89926307Y-78050931D01*
X89879000Y-78288757D01*
X89716000Y-78288757D01*
X89716000Y-77016000D01*
X110234000Y-77016000D01*
X110234001Y-122954000D01*
G04 #@! TA.AperFunction,Conductor*
D21*
G36*
X110234001Y-122954000D02*
G01*
X89716000Y-122954000D01*
X89716000Y-121468757D01*
X89879000Y-121468757D01*
X89879000Y-121711243D01*
X89926307Y-121949069D01*
X90019102Y-122173097D01*
X90153820Y-122374717D01*
X90325283Y-122546180D01*
X90526903Y-122680898D01*
X90750931Y-122773693D01*
X90988757Y-122821000D01*
X91231243Y-122821000D01*
X91469069Y-122773693D01*
X91693097Y-122680898D01*
X91894717Y-122546180D01*
X92066180Y-122374717D01*
X92200898Y-122173097D01*
X92293693Y-121949069D01*
X92341000Y-121711243D01*
X92341000Y-121468757D01*
X107659000Y-121468757D01*
X107659000Y-121711243D01*
X107706307Y-121949069D01*
X107799102Y-122173097D01*
X107933820Y-122374717D01*
X108105283Y-122546180D01*
X108306903Y-122680898D01*
X108530931Y-122773693D01*
X108768757Y-122821000D01*
X109011243Y-122821000D01*
X109249069Y-122773693D01*
X109473097Y-122680898D01*
X109674717Y-122546180D01*
X109846180Y-122374717D01*
X109980898Y-122173097D01*
X110073693Y-121949069D01*
X110121000Y-121711243D01*
X110121000Y-121468757D01*
X110073693Y-121230931D01*
X109980898Y-121006903D01*
X109846180Y-120805283D01*
X109674717Y-120633820D01*
X109473097Y-120499102D01*
X109249069Y-120406307D01*
X109011243Y-120359000D01*
X108768757Y-120359000D01*
X108530931Y-120406307D01*
X108306903Y-120499102D01*
X108105283Y-120633820D01*
X107933820Y-120805283D01*
X107799102Y-121006903D01*
X107706307Y-121230931D01*
X107659000Y-121468757D01*
X92341000Y-121468757D01*
X92293693Y-121230931D01*
X92200898Y-121006903D01*
X92066180Y-120805283D01*
X91894717Y-120633820D01*
X91693097Y-120499102D01*
X91469069Y-120406307D01*
X91231243Y-120359000D01*
X90988757Y-120359000D01*
X90750931Y-120406307D01*
X90526903Y-120499102D01*
X90325283Y-120633820D01*
X90153820Y-120805283D01*
X90019102Y-121006903D01*
X89926307Y-121230931D01*
X89879000Y-121468757D01*
X89716000Y-121468757D01*
X89716000Y-118928757D01*
X89879000Y-118928757D01*
X89879000Y-119171243D01*
X89926307Y-119409069D01*
X90019102Y-119633097D01*
X90153820Y-119834717D01*
X90325283Y-120006180D01*
X90526903Y-120140898D01*
X90750931Y-120233693D01*
X90988757Y-120281000D01*
X91231243Y-120281000D01*
X91469069Y-120233693D01*
X91693097Y-120140898D01*
X91894717Y-120006180D01*
X92066180Y-119834717D01*
X92200898Y-119633097D01*
X92293693Y-119409069D01*
X92341000Y-119171243D01*
X92341000Y-118928757D01*
X107659000Y-118928757D01*
X107659000Y-119171243D01*
X107706307Y-119409069D01*
X107799102Y-119633097D01*
X107933820Y-119834717D01*
X108105283Y-120006180D01*
X108306903Y-120140898D01*
X108530931Y-120233693D01*
X108768757Y-120281000D01*
X109011243Y-120281000D01*
X109249069Y-120233693D01*
X109473097Y-120140898D01*
X109674717Y-120006180D01*
X109846180Y-119834717D01*
X109980898Y-119633097D01*
X110073693Y-119409069D01*
X110121000Y-119171243D01*
X110121000Y-118928757D01*
X110073693Y-118690931D01*
X109980898Y-118466903D01*
X109846180Y-118265283D01*
X109674717Y-118093820D01*
X109473097Y-117959102D01*
X109249069Y-117866307D01*
X109011243Y-117819000D01*
X108768757Y-117819000D01*
X108530931Y-117866307D01*
X108306903Y-117959102D01*
X108105283Y-118093820D01*
X107933820Y-118265283D01*
X107799102Y-118466903D01*
X107706307Y-118690931D01*
X107659000Y-118928757D01*
X92341000Y-118928757D01*
X92293693Y-118690931D01*
X92200898Y-118466903D01*
X92066180Y-118265283D01*
X91894717Y-118093820D01*
X91693097Y-117959102D01*
X91469069Y-117866307D01*
X91231243Y-117819000D01*
X90988757Y-117819000D01*
X90750931Y-117866307D01*
X90526903Y-117959102D01*
X90325283Y-118093820D01*
X90153820Y-118265283D01*
X90019102Y-118466903D01*
X89926307Y-118690931D01*
X89879000Y-118928757D01*
X89716000Y-118928757D01*
X89716000Y-116388757D01*
X89879000Y-116388757D01*
X89879000Y-116631243D01*
X89926307Y-116869069D01*
X90019102Y-117093097D01*
X90153820Y-117294717D01*
X90325283Y-117466180D01*
X90526903Y-117600898D01*
X90750931Y-117693693D01*
X90988757Y-117741000D01*
X91231243Y-117741000D01*
X91469069Y-117693693D01*
X91693097Y-117600898D01*
X91894717Y-117466180D01*
X92066180Y-117294717D01*
X92200898Y-117093097D01*
X92293693Y-116869069D01*
X92341000Y-116631243D01*
X92341000Y-116388757D01*
X107659000Y-116388757D01*
X107659000Y-116631243D01*
X107706307Y-116869069D01*
X107799102Y-117093097D01*
X107933820Y-117294717D01*
X108105283Y-117466180D01*
X108306903Y-117600898D01*
X108530931Y-117693693D01*
X108768757Y-117741000D01*
X109011243Y-117741000D01*
X109249069Y-117693693D01*
X109473097Y-117600898D01*
X109674717Y-117466180D01*
X109846180Y-117294717D01*
X109980898Y-117093097D01*
X110073693Y-116869069D01*
X110121000Y-116631243D01*
X110121000Y-116388757D01*
X110073693Y-116150931D01*
X109980898Y-115926903D01*
X109846180Y-115725283D01*
X109674717Y-115553820D01*
X109473097Y-115419102D01*
X109249069Y-115326307D01*
X109011243Y-115279000D01*
X108768757Y-115279000D01*
X108530931Y-115326307D01*
X108306903Y-115419102D01*
X108105283Y-115553820D01*
X107933820Y-115725283D01*
X107799102Y-115926903D01*
X107706307Y-116150931D01*
X107659000Y-116388757D01*
X92341000Y-116388757D01*
X92293693Y-116150931D01*
X92200898Y-115926903D01*
X92066180Y-115725283D01*
X91894717Y-115553820D01*
X91693097Y-115419102D01*
X91469069Y-115326307D01*
X91231243Y-115279000D01*
X90988757Y-115279000D01*
X90750931Y-115326307D01*
X90526903Y-115419102D01*
X90325283Y-115553820D01*
X90153820Y-115725283D01*
X90019102Y-115926903D01*
X89926307Y-116150931D01*
X89879000Y-116388757D01*
X89716000Y-116388757D01*
X89716000Y-113848757D01*
X89879000Y-113848757D01*
X89879000Y-114091243D01*
X89926307Y-114329069D01*
X90019102Y-114553097D01*
X90153820Y-114754717D01*
X90325283Y-114926180D01*
X90526903Y-115060898D01*
X90750931Y-115153693D01*
X90988757Y-115201000D01*
X91231243Y-115201000D01*
X91469069Y-115153693D01*
X91693097Y-115060898D01*
X91894717Y-114926180D01*
X92066180Y-114754717D01*
X92200898Y-114553097D01*
X92293693Y-114329069D01*
X92341000Y-114091243D01*
X92341000Y-113848757D01*
X107659000Y-113848757D01*
X107659000Y-114091243D01*
X107706307Y-114329069D01*
X107799102Y-114553097D01*
X107933820Y-114754717D01*
X108105283Y-114926180D01*
X108306903Y-115060898D01*
X108530931Y-115153693D01*
X108768757Y-115201000D01*
X109011243Y-115201000D01*
X109249069Y-115153693D01*
X109473097Y-115060898D01*
X109674717Y-114926180D01*
X109846180Y-114754717D01*
X109980898Y-114553097D01*
X110073693Y-114329069D01*
X110121000Y-114091243D01*
X110121000Y-113848757D01*
X110073693Y-113610931D01*
X109980898Y-113386903D01*
X109846180Y-113185283D01*
X109674717Y-113013820D01*
X109473097Y-112879102D01*
X109249069Y-112786307D01*
X109011243Y-112739000D01*
X108768757Y-112739000D01*
X108530931Y-112786307D01*
X108306903Y-112879102D01*
X108105283Y-113013820D01*
X107933820Y-113185283D01*
X107799102Y-113386903D01*
X107706307Y-113610931D01*
X107659000Y-113848757D01*
X92341000Y-113848757D01*
X92293693Y-113610931D01*
X92200898Y-113386903D01*
X92066180Y-113185283D01*
X91894717Y-113013820D01*
X91693097Y-112879102D01*
X91469069Y-112786307D01*
X91231243Y-112739000D01*
X90988757Y-112739000D01*
X90750931Y-112786307D01*
X90526903Y-112879102D01*
X90325283Y-113013820D01*
X90153820Y-113185283D01*
X90019102Y-113386903D01*
X89926307Y-113610931D01*
X89879000Y-113848757D01*
X89716000Y-113848757D01*
X89716000Y-111308757D01*
X89879000Y-111308757D01*
X89879000Y-111551243D01*
X89926307Y-111789069D01*
X90019102Y-112013097D01*
X90153820Y-112214717D01*
X90325283Y-112386180D01*
X90526903Y-112520898D01*
X90750931Y-112613693D01*
X90988757Y-112661000D01*
X91231243Y-112661000D01*
X91469069Y-112613693D01*
X91693097Y-112520898D01*
X91894717Y-112386180D01*
X92066180Y-112214717D01*
X92200898Y-112013097D01*
X92293693Y-111789069D01*
X92341000Y-111551243D01*
X92341000Y-111308757D01*
X107659000Y-111308757D01*
X107659000Y-111551243D01*
X107706307Y-111789069D01*
X107799102Y-112013097D01*
X107933820Y-112214717D01*
X108105283Y-112386180D01*
X108306903Y-112520898D01*
X108530931Y-112613693D01*
X108768757Y-112661000D01*
X109011243Y-112661000D01*
X109249069Y-112613693D01*
X109473097Y-112520898D01*
X109674717Y-112386180D01*
X109846180Y-112214717D01*
X109980898Y-112013097D01*
X110073693Y-111789069D01*
X110121000Y-111551243D01*
X110121000Y-111308757D01*
X110073693Y-111070931D01*
X109980898Y-110846903D01*
X109846180Y-110645283D01*
X109674717Y-110473820D01*
X109473097Y-110339102D01*
X109249069Y-110246307D01*
X109011243Y-110199000D01*
X108768757Y-110199000D01*
X108530931Y-110246307D01*
X108306903Y-110339102D01*
X108105283Y-110473820D01*
X107933820Y-110645283D01*
X107799102Y-110846903D01*
X107706307Y-111070931D01*
X107659000Y-111308757D01*
X92341000Y-111308757D01*
X92293693Y-111070931D01*
X92200898Y-110846903D01*
X92066180Y-110645283D01*
X91894717Y-110473820D01*
X91693097Y-110339102D01*
X91469069Y-110246307D01*
X91231243Y-110199000D01*
X90988757Y-110199000D01*
X90750931Y-110246307D01*
X90526903Y-110339102D01*
X90325283Y-110473820D01*
X90153820Y-110645283D01*
X90019102Y-110846903D01*
X89926307Y-111070931D01*
X89879000Y-111308757D01*
X89716000Y-111308757D01*
X89716000Y-108768757D01*
X89879000Y-108768757D01*
X89879000Y-109011243D01*
X89926307Y-109249069D01*
X90019102Y-109473097D01*
X90153820Y-109674717D01*
X90325283Y-109846180D01*
X90526903Y-109980898D01*
X90750931Y-110073693D01*
X90988757Y-110121000D01*
X91231243Y-110121000D01*
X91469069Y-110073693D01*
X91693097Y-109980898D01*
X91894717Y-109846180D01*
X92066180Y-109674717D01*
X92200898Y-109473097D01*
X92293693Y-109249069D01*
X92341000Y-109011243D01*
X92341000Y-108768757D01*
X107659000Y-108768757D01*
X107659000Y-109011243D01*
X107706307Y-109249069D01*
X107799102Y-109473097D01*
X107933820Y-109674717D01*
X108105283Y-109846180D01*
X108306903Y-109980898D01*
X108530931Y-110073693D01*
X108768757Y-110121000D01*
X109011243Y-110121000D01*
X109249069Y-110073693D01*
X109473097Y-109980898D01*
X109674717Y-109846180D01*
X109846180Y-109674717D01*
X109980898Y-109473097D01*
X110073693Y-109249069D01*
X110121000Y-109011243D01*
X110121000Y-108768757D01*
X110073693Y-108530931D01*
X109980898Y-108306903D01*
X109846180Y-108105283D01*
X109674717Y-107933820D01*
X109473097Y-107799102D01*
X109249069Y-107706307D01*
X109011243Y-107659000D01*
X108768757Y-107659000D01*
X108530931Y-107706307D01*
X108306903Y-107799102D01*
X108105283Y-107933820D01*
X107933820Y-108105283D01*
X107799102Y-108306903D01*
X107706307Y-108530931D01*
X107659000Y-108768757D01*
X92341000Y-108768757D01*
X92293693Y-108530931D01*
X92200898Y-108306903D01*
X92066180Y-108105283D01*
X91894717Y-107933820D01*
X91693097Y-107799102D01*
X91469069Y-107706307D01*
X91231243Y-107659000D01*
X90988757Y-107659000D01*
X90750931Y-107706307D01*
X90526903Y-107799102D01*
X90325283Y-107933820D01*
X90153820Y-108105283D01*
X90019102Y-108306903D01*
X89926307Y-108530931D01*
X89879000Y-108768757D01*
X89716000Y-108768757D01*
X89716000Y-106228757D01*
X89879000Y-106228757D01*
X89879000Y-106471243D01*
X89926307Y-106709069D01*
X90019102Y-106933097D01*
X90153820Y-107134717D01*
X90325283Y-107306180D01*
X90526903Y-107440898D01*
X90750931Y-107533693D01*
X90988757Y-107581000D01*
X91231243Y-107581000D01*
X91469069Y-107533693D01*
X91693097Y-107440898D01*
X91894717Y-107306180D01*
X92066180Y-107134717D01*
X92200898Y-106933097D01*
X92293693Y-106709069D01*
X92341000Y-106471243D01*
X92341000Y-106228757D01*
X92293693Y-105990931D01*
X92200898Y-105766903D01*
X92178297Y-105733078D01*
X94139000Y-105733078D01*
X94139000Y-105886922D01*
X94169013Y-106037809D01*
X94227887Y-106179942D01*
X94313358Y-106307859D01*
X94422141Y-106416642D01*
X94550058Y-106502113D01*
X94692191Y-106560987D01*
X94843078Y-106591000D01*
X94996922Y-106591000D01*
X95147809Y-106560987D01*
X95289942Y-106502113D01*
X95381405Y-106441000D01*
X95458595Y-106441000D01*
X95550058Y-106502113D01*
X95692191Y-106560987D01*
X95843078Y-106591000D01*
X95996922Y-106591000D01*
X96147809Y-106560987D01*
X96289942Y-106502113D01*
X96381405Y-106441000D01*
X105199010Y-106441000D01*
X105230000Y-106444052D01*
X105260990Y-106441000D01*
X105260998Y-106441000D01*
X105353698Y-106431870D01*
X105472642Y-106395789D01*
X105582261Y-106337196D01*
X105678343Y-106258343D01*
X105698105Y-106234263D01*
X105703611Y-106228757D01*
X107659000Y-106228757D01*
X107659000Y-106471243D01*
X107706307Y-106709069D01*
X107799102Y-106933097D01*
X107933820Y-107134717D01*
X108105283Y-107306180D01*
X108306903Y-107440898D01*
X108530931Y-107533693D01*
X108768757Y-107581000D01*
X109011243Y-107581000D01*
X109249069Y-107533693D01*
X109473097Y-107440898D01*
X109674717Y-107306180D01*
X109846180Y-107134717D01*
X109980898Y-106933097D01*
X110073693Y-106709069D01*
X110121000Y-106471243D01*
X110121000Y-106228757D01*
X110073693Y-105990931D01*
X109980898Y-105766903D01*
X109846180Y-105565283D01*
X109674717Y-105393820D01*
X109473097Y-105259102D01*
X109249069Y-105166307D01*
X109011243Y-105119000D01*
X108768757Y-105119000D01*
X108530931Y-105166307D01*
X108306903Y-105259102D01*
X108105283Y-105393820D01*
X107933820Y-105565283D01*
X107799102Y-105766903D01*
X107706307Y-105990931D01*
X107659000Y-106228757D01*
X105703611Y-106228757D01*
X107294269Y-104638100D01*
X107318343Y-104618343D01*
X107397196Y-104522261D01*
X107455789Y-104412642D01*
X107491870Y-104293698D01*
X107501000Y-104200998D01*
X107501000Y-104200989D01*
X107504052Y-104170001D01*
X107501000Y-104139013D01*
X107501000Y-103688757D01*
X107659000Y-103688757D01*
X107659000Y-103931243D01*
X107706307Y-104169069D01*
X107799102Y-104393097D01*
X107933820Y-104594717D01*
X108105283Y-104766180D01*
X108306903Y-104900898D01*
X108530931Y-104993693D01*
X108768757Y-105041000D01*
X109011243Y-105041000D01*
X109249069Y-104993693D01*
X109473097Y-104900898D01*
X109674717Y-104766180D01*
X109846180Y-104594717D01*
X109980898Y-104393097D01*
X110073693Y-104169069D01*
X110121000Y-103931243D01*
X110121000Y-103688757D01*
X110073693Y-103450931D01*
X109980898Y-103226903D01*
X109846180Y-103025283D01*
X109674717Y-102853820D01*
X109473097Y-102719102D01*
X109249069Y-102626307D01*
X109011243Y-102579000D01*
X108768757Y-102579000D01*
X108530931Y-102626307D01*
X108306903Y-102719102D01*
X108105283Y-102853820D01*
X107933820Y-103025283D01*
X107799102Y-103226903D01*
X107706307Y-103450931D01*
X107659000Y-103688757D01*
X107501000Y-103688757D01*
X107501000Y-101001368D01*
X107787532Y-100714837D01*
X107706307Y-100910931D01*
X107659000Y-101148757D01*
X107659000Y-101391243D01*
X107706307Y-101629069D01*
X107799102Y-101853097D01*
X107933820Y-102054717D01*
X108105283Y-102226180D01*
X108306903Y-102360898D01*
X108530931Y-102453693D01*
X108768757Y-102501000D01*
X109011243Y-102501000D01*
X109249069Y-102453693D01*
X109473097Y-102360898D01*
X109674717Y-102226180D01*
X109846180Y-102054717D01*
X109980898Y-101853097D01*
X110073693Y-101629069D01*
X110121000Y-101391243D01*
X110121000Y-101148757D01*
X110073693Y-100910931D01*
X109980898Y-100686903D01*
X109846180Y-100485283D01*
X109674717Y-100313820D01*
X109473097Y-100179102D01*
X109249069Y-100086307D01*
X109011243Y-100039000D01*
X108768757Y-100039000D01*
X108530931Y-100086307D01*
X108334837Y-100167531D01*
X108579095Y-99923274D01*
X108768757Y-99961000D01*
X109011243Y-99961000D01*
X109249069Y-99913693D01*
X109473097Y-99820898D01*
X109674717Y-99686180D01*
X109846180Y-99514717D01*
X109980898Y-99313097D01*
X110073693Y-99089069D01*
X110121000Y-98851243D01*
X110121000Y-98608757D01*
X110073693Y-98370931D01*
X109980898Y-98146903D01*
X109846180Y-97945283D01*
X109674717Y-97773820D01*
X109473097Y-97639102D01*
X109249069Y-97546307D01*
X109011243Y-97499000D01*
X108768757Y-97499000D01*
X108530931Y-97546307D01*
X108306903Y-97639102D01*
X108105283Y-97773820D01*
X107933820Y-97945283D01*
X107799102Y-98146903D01*
X107706307Y-98370931D01*
X107659000Y-98608757D01*
X107659000Y-98851243D01*
X107693408Y-99024223D01*
X106445733Y-100271899D01*
X106421658Y-100291657D01*
X106401900Y-100315732D01*
X106401897Y-100315735D01*
X106342804Y-100387740D01*
X106284211Y-100497359D01*
X106248130Y-100616303D01*
X106235948Y-100740000D01*
X106239001Y-100771000D01*
X106239000Y-103908631D01*
X104968632Y-105179000D01*
X96381405Y-105179000D01*
X96289942Y-105117887D01*
X96147809Y-105059013D01*
X95996922Y-105029000D01*
X95843078Y-105029000D01*
X95692191Y-105059013D01*
X95550058Y-105117887D01*
X95458595Y-105179000D01*
X95381405Y-105179000D01*
X95289942Y-105117887D01*
X95147809Y-105059013D01*
X94996922Y-105029000D01*
X94843078Y-105029000D01*
X94692191Y-105059013D01*
X94550058Y-105117887D01*
X94422141Y-105203358D01*
X94313358Y-105312141D01*
X94227887Y-105440058D01*
X94169013Y-105582191D01*
X94139000Y-105733078D01*
X92178297Y-105733078D01*
X92066180Y-105565283D01*
X91894717Y-105393820D01*
X91693097Y-105259102D01*
X91469069Y-105166307D01*
X91231243Y-105119000D01*
X90988757Y-105119000D01*
X90750931Y-105166307D01*
X90526903Y-105259102D01*
X90325283Y-105393820D01*
X90153820Y-105565283D01*
X90019102Y-105766903D01*
X89926307Y-105990931D01*
X89879000Y-106228757D01*
X89716000Y-106228757D01*
X89716000Y-103688757D01*
X89879000Y-103688757D01*
X89879000Y-103931243D01*
X89926307Y-104169069D01*
X90019102Y-104393097D01*
X90153820Y-104594717D01*
X90325283Y-104766180D01*
X90526903Y-104900898D01*
X90750931Y-104993693D01*
X90988757Y-105041000D01*
X91231243Y-105041000D01*
X91469069Y-104993693D01*
X91693097Y-104900898D01*
X91894717Y-104766180D01*
X92066180Y-104594717D01*
X92200898Y-104393097D01*
X92293693Y-104169069D01*
X92341000Y-103931243D01*
X92341000Y-103688757D01*
X92293693Y-103450931D01*
X92200898Y-103226903D01*
X92066180Y-103025283D01*
X91894717Y-102853820D01*
X91693097Y-102719102D01*
X91469069Y-102626307D01*
X91231243Y-102579000D01*
X90988757Y-102579000D01*
X90750931Y-102626307D01*
X90526903Y-102719102D01*
X90325283Y-102853820D01*
X90153820Y-103025283D01*
X90019102Y-103226903D01*
X89926307Y-103450931D01*
X89879000Y-103688757D01*
X89716000Y-103688757D01*
X89716000Y-101148757D01*
X89879000Y-101148757D01*
X89879000Y-101391243D01*
X89926307Y-101629069D01*
X90019102Y-101853097D01*
X90153820Y-102054717D01*
X90325283Y-102226180D01*
X90526903Y-102360898D01*
X90750931Y-102453693D01*
X90988757Y-102501000D01*
X91231243Y-102501000D01*
X91469069Y-102453693D01*
X91693097Y-102360898D01*
X91894717Y-102226180D01*
X92066180Y-102054717D01*
X92200898Y-101853097D01*
X92293693Y-101629069D01*
X92341000Y-101391243D01*
X92341000Y-101148757D01*
X92293693Y-100910931D01*
X92200898Y-100686903D01*
X92066180Y-100485283D01*
X91894717Y-100313820D01*
X91693097Y-100179102D01*
X91469069Y-100086307D01*
X91231243Y-100039000D01*
X90988757Y-100039000D01*
X90750931Y-100086307D01*
X90526903Y-100179102D01*
X90325283Y-100313820D01*
X90153820Y-100485283D01*
X90019102Y-100686903D01*
X89926307Y-100910931D01*
X89879000Y-101148757D01*
X89716000Y-101148757D01*
X89716000Y-98608757D01*
X89879000Y-98608757D01*
X89879000Y-98851243D01*
X89926307Y-99089069D01*
X90019102Y-99313097D01*
X90153820Y-99514717D01*
X90325283Y-99686180D01*
X90526903Y-99820898D01*
X90750931Y-99913693D01*
X90988757Y-99961000D01*
X91231243Y-99961000D01*
X91469069Y-99913693D01*
X91693097Y-99820898D01*
X91894717Y-99686180D01*
X92066180Y-99514717D01*
X92200898Y-99313097D01*
X92293693Y-99089069D01*
X92341000Y-98851243D01*
X92341000Y-98608757D01*
X92293693Y-98370931D01*
X92200898Y-98146903D01*
X92066180Y-97945283D01*
X91894717Y-97773820D01*
X91693097Y-97639102D01*
X91469069Y-97546307D01*
X91231243Y-97499000D01*
X90988757Y-97499000D01*
X90750931Y-97546307D01*
X90526903Y-97639102D01*
X90325283Y-97773820D01*
X90153820Y-97945283D01*
X90019102Y-98146903D01*
X89926307Y-98370931D01*
X89879000Y-98608757D01*
X89716000Y-98608757D01*
X89716000Y-96068757D01*
X89879000Y-96068757D01*
X89879000Y-96311243D01*
X89926307Y-96549069D01*
X90019102Y-96773097D01*
X90153820Y-96974717D01*
X90325283Y-97146180D01*
X90526903Y-97280898D01*
X90750931Y-97373693D01*
X90988757Y-97421000D01*
X91231243Y-97421000D01*
X91469069Y-97373693D01*
X91693097Y-97280898D01*
X91894717Y-97146180D01*
X92066180Y-96974717D01*
X92200898Y-96773097D01*
X92293693Y-96549069D01*
X92341000Y-96311243D01*
X92341000Y-96068757D01*
X92293693Y-95830931D01*
X92200898Y-95606903D01*
X92066180Y-95405283D01*
X91894717Y-95233820D01*
X91693097Y-95099102D01*
X91469069Y-95006307D01*
X91231243Y-94959000D01*
X90988757Y-94959000D01*
X90750931Y-95006307D01*
X90526903Y-95099102D01*
X90325283Y-95233820D01*
X90153820Y-95405283D01*
X90019102Y-95606903D01*
X89926307Y-95830931D01*
X89879000Y-96068757D01*
X89716000Y-96068757D01*
X89716000Y-93528757D01*
X89879000Y-93528757D01*
X89879000Y-93771243D01*
X89926307Y-94009069D01*
X90019102Y-94233097D01*
X90153820Y-94434717D01*
X90325283Y-94606180D01*
X90526903Y-94740898D01*
X90750931Y-94833693D01*
X90988757Y-94881000D01*
X91231243Y-94881000D01*
X91469069Y-94833693D01*
X91693097Y-94740898D01*
X91894717Y-94606180D01*
X92066180Y-94434717D01*
X92200898Y-94233097D01*
X92293693Y-94009069D01*
X92341000Y-93771243D01*
X92341000Y-93528757D01*
X92293693Y-93290931D01*
X92200898Y-93066903D01*
X92066180Y-92865283D01*
X91894717Y-92693820D01*
X91693097Y-92559102D01*
X91469069Y-92466307D01*
X91231243Y-92419000D01*
X90988757Y-92419000D01*
X90750931Y-92466307D01*
X90526903Y-92559102D01*
X90325283Y-92693820D01*
X90153820Y-92865283D01*
X90019102Y-93066903D01*
X89926307Y-93290931D01*
X89879000Y-93528757D01*
X89716000Y-93528757D01*
X89716000Y-90988757D01*
X89879000Y-90988757D01*
X89879000Y-91231243D01*
X89926307Y-91469069D01*
X90019102Y-91693097D01*
X90153820Y-91894717D01*
X90325283Y-92066180D01*
X90526903Y-92200898D01*
X90750931Y-92293693D01*
X90988757Y-92341000D01*
X91231243Y-92341000D01*
X91469069Y-92293693D01*
X91693097Y-92200898D01*
X91894717Y-92066180D01*
X92066180Y-91894717D01*
X92200898Y-91693097D01*
X92293693Y-91469069D01*
X92341000Y-91231243D01*
X92341000Y-90988757D01*
X92293693Y-90750931D01*
X92200898Y-90526903D01*
X92066180Y-90325283D01*
X91894717Y-90153820D01*
X91693097Y-90019102D01*
X91469069Y-89926307D01*
X91231243Y-89879000D01*
X90988757Y-89879000D01*
X90750931Y-89926307D01*
X90526903Y-90019102D01*
X90325283Y-90153820D01*
X90153820Y-90325283D01*
X90019102Y-90526903D01*
X89926307Y-90750931D01*
X89879000Y-90988757D01*
X89716000Y-90988757D01*
X89716000Y-88448757D01*
X89879000Y-88448757D01*
X89879000Y-88691243D01*
X89926307Y-88929069D01*
X90019102Y-89153097D01*
X90153820Y-89354717D01*
X90325283Y-89526180D01*
X90526903Y-89660898D01*
X90750931Y-89753693D01*
X90988757Y-89801000D01*
X91231243Y-89801000D01*
X91469069Y-89753693D01*
X91693097Y-89660898D01*
X91894717Y-89526180D01*
X92066180Y-89354717D01*
X92200898Y-89153097D01*
X92293693Y-88929069D01*
X92341000Y-88691243D01*
X92341000Y-88448757D01*
X92293693Y-88210931D01*
X92200898Y-87986903D01*
X92066180Y-87785283D01*
X91894717Y-87613820D01*
X91693097Y-87479102D01*
X91469069Y-87386307D01*
X91231243Y-87339000D01*
X90988757Y-87339000D01*
X90750931Y-87386307D01*
X90526903Y-87479102D01*
X90325283Y-87613820D01*
X90153820Y-87785283D01*
X90019102Y-87986903D01*
X89926307Y-88210931D01*
X89879000Y-88448757D01*
X89716000Y-88448757D01*
X89716000Y-85908757D01*
X89879000Y-85908757D01*
X89879000Y-86151243D01*
X89926307Y-86389069D01*
X90019102Y-86613097D01*
X90153820Y-86814717D01*
X90325283Y-86986180D01*
X90526903Y-87120898D01*
X90750931Y-87213693D01*
X90988757Y-87261000D01*
X91231243Y-87261000D01*
X91469069Y-87213693D01*
X91693097Y-87120898D01*
X91894717Y-86986180D01*
X92066180Y-86814717D01*
X92200898Y-86613097D01*
X92293693Y-86389069D01*
X92341000Y-86151243D01*
X92341000Y-85908757D01*
X92303454Y-85720000D01*
X97237157Y-85720000D01*
X97237157Y-86270000D01*
X97244513Y-86344689D01*
X97259775Y-86395000D01*
X97244513Y-86445311D01*
X97237157Y-86520000D01*
X97237157Y-87520000D01*
X97244513Y-87594689D01*
X97259775Y-87645000D01*
X97244513Y-87695311D01*
X97237157Y-87770000D01*
X97237157Y-88320000D01*
X97239565Y-88344450D01*
X97239565Y-88369009D01*
X97246921Y-88443698D01*
X97266043Y-88539831D01*
X97287828Y-88611648D01*
X97325337Y-88702204D01*
X97360717Y-88768394D01*
X97415173Y-88849893D01*
X97462784Y-88907908D01*
X97532092Y-88977216D01*
X97590107Y-89024827D01*
X97671606Y-89079283D01*
X97737796Y-89114663D01*
X97828352Y-89152172D01*
X97900169Y-89173957D01*
X97996302Y-89193079D01*
X98070991Y-89200435D01*
X98095550Y-89200435D01*
X98120000Y-89202843D01*
X98620000Y-89202843D01*
X98644450Y-89200435D01*
X98669009Y-89200435D01*
X98743698Y-89193079D01*
X98839831Y-89173957D01*
X98911648Y-89152172D01*
X99002204Y-89114663D01*
X99068394Y-89079283D01*
X99149893Y-89024827D01*
X99207908Y-88977216D01*
X99277216Y-88907908D01*
X99324827Y-88849893D01*
X99357496Y-88801000D01*
X100210764Y-88801000D01*
X100219000Y-88809236D01*
X100219000Y-88832504D01*
X100170107Y-88865173D01*
X100112092Y-88912784D01*
X100042784Y-88982092D01*
X99995173Y-89040107D01*
X99940717Y-89121606D01*
X99905337Y-89187796D01*
X99867828Y-89278352D01*
X99846043Y-89350169D01*
X99826921Y-89446302D01*
X99819565Y-89520991D01*
X99819565Y-89545550D01*
X99817157Y-89570000D01*
X99817157Y-90070000D01*
X99819565Y-90094450D01*
X99819565Y-90119009D01*
X99826921Y-90193698D01*
X99846043Y-90289831D01*
X99867828Y-90361648D01*
X99905337Y-90452204D01*
X99940717Y-90518394D01*
X99995173Y-90599893D01*
X100042784Y-90657908D01*
X100112092Y-90727216D01*
X100170107Y-90774827D01*
X100251606Y-90829283D01*
X100317796Y-90864663D01*
X100408352Y-90902172D01*
X100480169Y-90923957D01*
X100576302Y-90943079D01*
X100609000Y-90946299D01*
X100609000Y-90986373D01*
X100606673Y-91010000D01*
X100611452Y-91058523D01*
X100615960Y-91104291D01*
X100643464Y-91194960D01*
X100688128Y-91278522D01*
X100748236Y-91351764D01*
X100766593Y-91366830D01*
X101133174Y-91733411D01*
X101148236Y-91751764D01*
X101221478Y-91811872D01*
X101305039Y-91856536D01*
X101395708Y-91884040D01*
X101466374Y-91891000D01*
X101466383Y-91891000D01*
X101489999Y-91893326D01*
X101513615Y-91891000D01*
X102170764Y-91891000D01*
X102487157Y-92207393D01*
X102487157Y-92660000D01*
X102489565Y-92684450D01*
X102489565Y-92709009D01*
X102496921Y-92783698D01*
X102516043Y-92879831D01*
X102537828Y-92951648D01*
X102575337Y-93042204D01*
X102610717Y-93108394D01*
X102665173Y-93189893D01*
X102712784Y-93247908D01*
X102782092Y-93317216D01*
X102840107Y-93364827D01*
X102921606Y-93419283D01*
X102987796Y-93454663D01*
X103078352Y-93492172D01*
X103150169Y-93513957D01*
X103199001Y-93523670D01*
X103199000Y-97682093D01*
X103182141Y-97693358D01*
X103073358Y-97802141D01*
X102987887Y-97930058D01*
X102929013Y-98072191D01*
X102899000Y-98223078D01*
X102899000Y-98376922D01*
X102929013Y-98527809D01*
X102987887Y-98669942D01*
X103073358Y-98797859D01*
X103182141Y-98906642D01*
X103310058Y-98992113D01*
X103452191Y-99050987D01*
X103603078Y-99081000D01*
X103756922Y-99081000D01*
X103907809Y-99050987D01*
X104049942Y-98992113D01*
X104177859Y-98906642D01*
X104286642Y-98797859D01*
X104372113Y-98669942D01*
X104430987Y-98527809D01*
X104461000Y-98376922D01*
X104461000Y-98223078D01*
X104430987Y-98072191D01*
X104372113Y-97930058D01*
X104286642Y-97802141D01*
X104177859Y-97693358D01*
X104161000Y-97682093D01*
X104161000Y-96506980D01*
X107700511Y-96506980D01*
X107724866Y-96587288D01*
X107824761Y-96806961D01*
X107965592Y-97002924D01*
X108141948Y-97167647D01*
X108347051Y-97294799D01*
X108573019Y-97379495D01*
X108763000Y-97319187D01*
X108763000Y-96317000D01*
X109017000Y-96317000D01*
X109017000Y-97319187D01*
X109206981Y-97379495D01*
X109432949Y-97294799D01*
X109638052Y-97167647D01*
X109814408Y-97002924D01*
X109955239Y-96806961D01*
X110055134Y-96587288D01*
X110079489Y-96506980D01*
X110018627Y-96317000D01*
X109017000Y-96317000D01*
X108763000Y-96317000D01*
X107761373Y-96317000D01*
X107700511Y-96506980D01*
X104161000Y-96506980D01*
X104161000Y-95873020D01*
X107700511Y-95873020D01*
X107761373Y-96063000D01*
X108763000Y-96063000D01*
X108763000Y-95060813D01*
X109017000Y-95060813D01*
X109017000Y-96063000D01*
X110018627Y-96063000D01*
X110079489Y-95873020D01*
X110055134Y-95792712D01*
X109955239Y-95573039D01*
X109814408Y-95377076D01*
X109638052Y-95212353D01*
X109432949Y-95085201D01*
X109206981Y-95000505D01*
X109017000Y-95060813D01*
X108763000Y-95060813D01*
X108573019Y-95000505D01*
X108347051Y-95085201D01*
X108141948Y-95212353D01*
X107965592Y-95377076D01*
X107824761Y-95573039D01*
X107724866Y-95792712D01*
X107700511Y-95873020D01*
X104161000Y-95873020D01*
X104161000Y-93541957D01*
X104170000Y-93542843D01*
X104189001Y-93542843D01*
X104189001Y-93606364D01*
X104186673Y-93630000D01*
X104195960Y-93724292D01*
X104210203Y-93771243D01*
X104223465Y-93814961D01*
X104268129Y-93898522D01*
X104328237Y-93971764D01*
X104346589Y-93986825D01*
X104872956Y-94513192D01*
X104869000Y-94533078D01*
X104869000Y-94686922D01*
X104899013Y-94837809D01*
X104957887Y-94979942D01*
X105043358Y-95107859D01*
X105152141Y-95216642D01*
X105280058Y-95302113D01*
X105422191Y-95360987D01*
X105573078Y-95391000D01*
X105726922Y-95391000D01*
X105877809Y-95360987D01*
X106019942Y-95302113D01*
X106147859Y-95216642D01*
X106256642Y-95107859D01*
X106342113Y-94979942D01*
X106400987Y-94837809D01*
X106431000Y-94686922D01*
X106431000Y-94533078D01*
X106400987Y-94382191D01*
X106342113Y-94240058D01*
X106256642Y-94112141D01*
X106147859Y-94003358D01*
X106019942Y-93917887D01*
X105877809Y-93859013D01*
X105726922Y-93829000D01*
X105573078Y-93829000D01*
X105553192Y-93832956D01*
X105151000Y-93430764D01*
X105151000Y-93397496D01*
X105199893Y-93364827D01*
X105257908Y-93317216D01*
X105327216Y-93247908D01*
X105374827Y-93189893D01*
X105429283Y-93108394D01*
X105464663Y-93042204D01*
X105502172Y-92951648D01*
X105523957Y-92879831D01*
X105543079Y-92783698D01*
X105550435Y-92709009D01*
X105550435Y-92684450D01*
X105552843Y-92660000D01*
X105552843Y-92160000D01*
X105550435Y-92135550D01*
X105550435Y-92110991D01*
X105543079Y-92036302D01*
X105523957Y-91940169D01*
X105502172Y-91868352D01*
X105464663Y-91777796D01*
X105429283Y-91711606D01*
X105374827Y-91630107D01*
X105327216Y-91572092D01*
X105257908Y-91502784D01*
X105199893Y-91455173D01*
X105118394Y-91400717D01*
X105052204Y-91365337D01*
X104961648Y-91327828D01*
X104889831Y-91306043D01*
X104838640Y-91295861D01*
X104846642Y-91287859D01*
X104932113Y-91159942D01*
X104990987Y-91017809D01*
X105021000Y-90866922D01*
X105021000Y-90713078D01*
X104990987Y-90562191D01*
X104932113Y-90420058D01*
X104846642Y-90292141D01*
X104737859Y-90183358D01*
X104609942Y-90097887D01*
X104467809Y-90039013D01*
X104316922Y-90009000D01*
X104182843Y-90009000D01*
X104182843Y-89570000D01*
X104180435Y-89545550D01*
X104180435Y-89520991D01*
X104173079Y-89446302D01*
X104153957Y-89350169D01*
X104132172Y-89278352D01*
X104094663Y-89187796D01*
X104059283Y-89121606D01*
X104004827Y-89040107D01*
X103964527Y-88991000D01*
X105140764Y-88991000D01*
X106309000Y-90159237D01*
X106309001Y-91526364D01*
X106306673Y-91550000D01*
X106315960Y-91644292D01*
X106332411Y-91698522D01*
X106343465Y-91734961D01*
X106388129Y-91818522D01*
X106448237Y-91891764D01*
X106466589Y-91906825D01*
X107748597Y-93188834D01*
X107706307Y-93290931D01*
X107659000Y-93528757D01*
X107659000Y-93771243D01*
X107706307Y-94009069D01*
X107799102Y-94233097D01*
X107933820Y-94434717D01*
X108105283Y-94606180D01*
X108306903Y-94740898D01*
X108530931Y-94833693D01*
X108768757Y-94881000D01*
X109011243Y-94881000D01*
X109249069Y-94833693D01*
X109473097Y-94740898D01*
X109674717Y-94606180D01*
X109846180Y-94434717D01*
X109980898Y-94233097D01*
X110073693Y-94009069D01*
X110121000Y-93771243D01*
X110121000Y-93528757D01*
X110073693Y-93290931D01*
X109980898Y-93066903D01*
X109846180Y-92865283D01*
X109674717Y-92693820D01*
X109473097Y-92559102D01*
X109249069Y-92466307D01*
X109011243Y-92419000D01*
X108768757Y-92419000D01*
X108530931Y-92466307D01*
X108428834Y-92508597D01*
X107271000Y-91350764D01*
X107271000Y-90171237D01*
X107748597Y-90648834D01*
X107706307Y-90750931D01*
X107659000Y-90988757D01*
X107659000Y-91231243D01*
X107706307Y-91469069D01*
X107799102Y-91693097D01*
X107933820Y-91894717D01*
X108105283Y-92066180D01*
X108306903Y-92200898D01*
X108530931Y-92293693D01*
X108768757Y-92341000D01*
X109011243Y-92341000D01*
X109249069Y-92293693D01*
X109473097Y-92200898D01*
X109674717Y-92066180D01*
X109846180Y-91894717D01*
X109980898Y-91693097D01*
X110073693Y-91469069D01*
X110121000Y-91231243D01*
X110121000Y-90988757D01*
X110073693Y-90750931D01*
X109980898Y-90526903D01*
X109846180Y-90325283D01*
X109674717Y-90153820D01*
X109473097Y-90019102D01*
X109249069Y-89926307D01*
X109011243Y-89879000D01*
X108768757Y-89879000D01*
X108530931Y-89926307D01*
X108428834Y-89968597D01*
X105836830Y-87376594D01*
X105821764Y-87358236D01*
X105748522Y-87298128D01*
X105664961Y-87253464D01*
X105574292Y-87225960D01*
X105503626Y-87219000D01*
X105480000Y-87216673D01*
X105456374Y-87219000D01*
X102471000Y-87219000D01*
X102471000Y-87112843D01*
X102490000Y-87112843D01*
X102564689Y-87105487D01*
X102615000Y-87090225D01*
X102665311Y-87105487D01*
X102740000Y-87112843D01*
X103290000Y-87112843D01*
X103314450Y-87110435D01*
X103339009Y-87110435D01*
X103413698Y-87103079D01*
X103509831Y-87083957D01*
X103581648Y-87062172D01*
X103672204Y-87024663D01*
X103738394Y-86989283D01*
X103819893Y-86934827D01*
X103877908Y-86887216D01*
X103947216Y-86817908D01*
X103994827Y-86759893D01*
X104049283Y-86678394D01*
X104084663Y-86612204D01*
X104122172Y-86521648D01*
X104140569Y-86461000D01*
X106100764Y-86461000D01*
X107748597Y-88108834D01*
X107706307Y-88210931D01*
X107659000Y-88448757D01*
X107659000Y-88691243D01*
X107706307Y-88929069D01*
X107799102Y-89153097D01*
X107933820Y-89354717D01*
X108105283Y-89526180D01*
X108306903Y-89660898D01*
X108530931Y-89753693D01*
X108768757Y-89801000D01*
X109011243Y-89801000D01*
X109249069Y-89753693D01*
X109473097Y-89660898D01*
X109674717Y-89526180D01*
X109846180Y-89354717D01*
X109980898Y-89153097D01*
X110073693Y-88929069D01*
X110121000Y-88691243D01*
X110121000Y-88448757D01*
X110073693Y-88210931D01*
X109980898Y-87986903D01*
X109846180Y-87785283D01*
X109674717Y-87613820D01*
X109473097Y-87479102D01*
X109249069Y-87386307D01*
X109011243Y-87339000D01*
X108768757Y-87339000D01*
X108530931Y-87386307D01*
X108428834Y-87428597D01*
X106656830Y-85656594D01*
X106641764Y-85638236D01*
X106568522Y-85578128D01*
X106484961Y-85533464D01*
X106394292Y-85505960D01*
X106323626Y-85499000D01*
X106300000Y-85496673D01*
X106276374Y-85499000D01*
X104140569Y-85499000D01*
X104122172Y-85438352D01*
X104084663Y-85347796D01*
X104049283Y-85281606D01*
X103994827Y-85200107D01*
X103947216Y-85142092D01*
X103877908Y-85072784D01*
X103819893Y-85025173D01*
X103738394Y-84970717D01*
X103720215Y-84961000D01*
X107140764Y-84961000D01*
X107748597Y-85568833D01*
X107706307Y-85670931D01*
X107659000Y-85908757D01*
X107659000Y-86151243D01*
X107706307Y-86389069D01*
X107799102Y-86613097D01*
X107933820Y-86814717D01*
X108105283Y-86986180D01*
X108306903Y-87120898D01*
X108530931Y-87213693D01*
X108768757Y-87261000D01*
X109011243Y-87261000D01*
X109249069Y-87213693D01*
X109473097Y-87120898D01*
X109674717Y-86986180D01*
X109846180Y-86814717D01*
X109980898Y-86613097D01*
X110073693Y-86389069D01*
X110121000Y-86151243D01*
X110121000Y-85908757D01*
X110073693Y-85670931D01*
X109980898Y-85446903D01*
X109846180Y-85245283D01*
X109674717Y-85073820D01*
X109473097Y-84939102D01*
X109249069Y-84846307D01*
X109011243Y-84799000D01*
X108768757Y-84799000D01*
X108530931Y-84846307D01*
X108428833Y-84888597D01*
X107696830Y-84156594D01*
X107681764Y-84138236D01*
X107608522Y-84078128D01*
X107524961Y-84033464D01*
X107434292Y-84005960D01*
X107363626Y-83999000D01*
X107340000Y-83996673D01*
X107316374Y-83999000D01*
X100943626Y-83999000D01*
X100919999Y-83996673D01*
X100825707Y-84005960D01*
X100798203Y-84014304D01*
X100735039Y-84033464D01*
X100651478Y-84078128D01*
X100578236Y-84138236D01*
X100563170Y-84156594D01*
X100366594Y-84353170D01*
X100348236Y-84368236D01*
X100288128Y-84441478D01*
X100243464Y-84525040D01*
X100228524Y-84574292D01*
X100215960Y-84615708D01*
X100206673Y-84710000D01*
X100209000Y-84733627D01*
X100209000Y-84992504D01*
X100160107Y-85025173D01*
X100102092Y-85072784D01*
X100032784Y-85142092D01*
X99985173Y-85200107D01*
X99930717Y-85281606D01*
X99895337Y-85347796D01*
X99857828Y-85438352D01*
X99836043Y-85510169D01*
X99816921Y-85606302D01*
X99809565Y-85680991D01*
X99809565Y-85705550D01*
X99807157Y-85730000D01*
X99807157Y-86230000D01*
X99809565Y-86254450D01*
X99809565Y-86279009D01*
X99816921Y-86353698D01*
X99836043Y-86449831D01*
X99857828Y-86521648D01*
X99895337Y-86612204D01*
X99930717Y-86678394D01*
X99985173Y-86759893D01*
X100032784Y-86817908D01*
X100102092Y-86887216D01*
X100160107Y-86934827D01*
X100241606Y-86989283D01*
X100307796Y-87024663D01*
X100398352Y-87062172D01*
X100470169Y-87083957D01*
X100566302Y-87103079D01*
X100640991Y-87110435D01*
X100665550Y-87110435D01*
X100690000Y-87112843D01*
X101240000Y-87112843D01*
X101314689Y-87105487D01*
X101365000Y-87090225D01*
X101415311Y-87105487D01*
X101490000Y-87112843D01*
X101509001Y-87112843D01*
X101509001Y-87219000D01*
X100359237Y-87219000D01*
X99836830Y-86696594D01*
X99821764Y-86678236D01*
X99748522Y-86618128D01*
X99664961Y-86573464D01*
X99574292Y-86545960D01*
X99503626Y-86539000D01*
X99502843Y-86538923D01*
X99502843Y-86520000D01*
X99495487Y-86445311D01*
X99480225Y-86395000D01*
X99495487Y-86344689D01*
X99502843Y-86270000D01*
X99502843Y-85720000D01*
X99500435Y-85695550D01*
X99500435Y-85670991D01*
X99493079Y-85596302D01*
X99473957Y-85500169D01*
X99452172Y-85428352D01*
X99414663Y-85337796D01*
X99379283Y-85271606D01*
X99324827Y-85190107D01*
X99277216Y-85132092D01*
X99207908Y-85062784D01*
X99149893Y-85015173D01*
X99068394Y-84960717D01*
X99002204Y-84925337D01*
X98911648Y-84887828D01*
X98839831Y-84866043D01*
X98743698Y-84846921D01*
X98669009Y-84839565D01*
X98644450Y-84839565D01*
X98620000Y-84837157D01*
X98120000Y-84837157D01*
X98095550Y-84839565D01*
X98070991Y-84839565D01*
X97996302Y-84846921D01*
X97900169Y-84866043D01*
X97828352Y-84887828D01*
X97737796Y-84925337D01*
X97671606Y-84960717D01*
X97590107Y-85015173D01*
X97532092Y-85062784D01*
X97462784Y-85132092D01*
X97415173Y-85190107D01*
X97360717Y-85271606D01*
X97325337Y-85337796D01*
X97287828Y-85428352D01*
X97266043Y-85500169D01*
X97246921Y-85596302D01*
X97239565Y-85670991D01*
X97239565Y-85695550D01*
X97237157Y-85720000D01*
X92303454Y-85720000D01*
X92293693Y-85670931D01*
X92200898Y-85446903D01*
X92066180Y-85245283D01*
X91894717Y-85073820D01*
X91693097Y-84939102D01*
X91469069Y-84846307D01*
X91231243Y-84799000D01*
X90988757Y-84799000D01*
X90750931Y-84846307D01*
X90526903Y-84939102D01*
X90325283Y-85073820D01*
X90153820Y-85245283D01*
X90019102Y-85446903D01*
X89926307Y-85670931D01*
X89879000Y-85908757D01*
X89716000Y-85908757D01*
X89716000Y-83368757D01*
X89879000Y-83368757D01*
X89879000Y-83611243D01*
X89926307Y-83849069D01*
X90019102Y-84073097D01*
X90153820Y-84274717D01*
X90325283Y-84446180D01*
X90526903Y-84580898D01*
X90750931Y-84673693D01*
X90988757Y-84721000D01*
X91231243Y-84721000D01*
X91469069Y-84673693D01*
X91693097Y-84580898D01*
X91894717Y-84446180D01*
X92066180Y-84274717D01*
X92200898Y-84073097D01*
X92293693Y-83849069D01*
X92341000Y-83611243D01*
X92341000Y-83368757D01*
X107659000Y-83368757D01*
X107659000Y-83611243D01*
X107706307Y-83849069D01*
X107799102Y-84073097D01*
X107933820Y-84274717D01*
X108105283Y-84446180D01*
X108306903Y-84580898D01*
X108530931Y-84673693D01*
X108768757Y-84721000D01*
X109011243Y-84721000D01*
X109249069Y-84673693D01*
X109473097Y-84580898D01*
X109674717Y-84446180D01*
X109846180Y-84274717D01*
X109980898Y-84073097D01*
X110073693Y-83849069D01*
X110121000Y-83611243D01*
X110121000Y-83368757D01*
X110073693Y-83130931D01*
X109980898Y-82906903D01*
X109846180Y-82705283D01*
X109674717Y-82533820D01*
X109473097Y-82399102D01*
X109249069Y-82306307D01*
X109011243Y-82259000D01*
X108768757Y-82259000D01*
X108530931Y-82306307D01*
X108306903Y-82399102D01*
X108105283Y-82533820D01*
X107933820Y-82705283D01*
X107799102Y-82906903D01*
X107706307Y-83130931D01*
X107659000Y-83368757D01*
X92341000Y-83368757D01*
X92293693Y-83130931D01*
X92200898Y-82906903D01*
X92066180Y-82705283D01*
X91894717Y-82533820D01*
X91693097Y-82399102D01*
X91469069Y-82306307D01*
X91231243Y-82259000D01*
X90988757Y-82259000D01*
X90750931Y-82306307D01*
X90526903Y-82399102D01*
X90325283Y-82533820D01*
X90153820Y-82705283D01*
X90019102Y-82906903D01*
X89926307Y-83130931D01*
X89879000Y-83368757D01*
X89716000Y-83368757D01*
X89716000Y-80828757D01*
X89879000Y-80828757D01*
X89879000Y-81071243D01*
X89926307Y-81309069D01*
X90019102Y-81533097D01*
X90153820Y-81734717D01*
X90325283Y-81906180D01*
X90526903Y-82040898D01*
X90750931Y-82133693D01*
X90988757Y-82181000D01*
X91231243Y-82181000D01*
X91469069Y-82133693D01*
X91693097Y-82040898D01*
X91894717Y-81906180D01*
X92066180Y-81734717D01*
X92200898Y-81533097D01*
X92293693Y-81309069D01*
X92341000Y-81071243D01*
X92341000Y-80828757D01*
X107659000Y-80828757D01*
X107659000Y-81071243D01*
X107706307Y-81309069D01*
X107799102Y-81533097D01*
X107933820Y-81734717D01*
X108105283Y-81906180D01*
X108306903Y-82040898D01*
X108530931Y-82133693D01*
X108768757Y-82181000D01*
X109011243Y-82181000D01*
X109249069Y-82133693D01*
X109473097Y-82040898D01*
X109674717Y-81906180D01*
X109846180Y-81734717D01*
X109980898Y-81533097D01*
X110073693Y-81309069D01*
X110121000Y-81071243D01*
X110121000Y-80828757D01*
X110073693Y-80590931D01*
X109980898Y-80366903D01*
X109846180Y-80165283D01*
X109674717Y-79993820D01*
X109473097Y-79859102D01*
X109249069Y-79766307D01*
X109011243Y-79719000D01*
X108768757Y-79719000D01*
X108530931Y-79766307D01*
X108306903Y-79859102D01*
X108105283Y-79993820D01*
X107933820Y-80165283D01*
X107799102Y-80366903D01*
X107706307Y-80590931D01*
X107659000Y-80828757D01*
X92341000Y-80828757D01*
X92293693Y-80590931D01*
X92200898Y-80366903D01*
X92066180Y-80165283D01*
X91894717Y-79993820D01*
X91693097Y-79859102D01*
X91469069Y-79766307D01*
X91231243Y-79719000D01*
X90988757Y-79719000D01*
X90750931Y-79766307D01*
X90526903Y-79859102D01*
X90325283Y-79993820D01*
X90153820Y-80165283D01*
X90019102Y-80366903D01*
X89926307Y-80590931D01*
X89879000Y-80828757D01*
X89716000Y-80828757D01*
X89716000Y-78288757D01*
X89879000Y-78288757D01*
X89879000Y-78531243D01*
X89926307Y-78769069D01*
X90019102Y-78993097D01*
X90153820Y-79194717D01*
X90325283Y-79366180D01*
X90526903Y-79500898D01*
X90750931Y-79593693D01*
X90988757Y-79641000D01*
X91231243Y-79641000D01*
X91469069Y-79593693D01*
X91693097Y-79500898D01*
X91894717Y-79366180D01*
X92066180Y-79194717D01*
X92200898Y-78993097D01*
X92293693Y-78769069D01*
X92341000Y-78531243D01*
X92341000Y-78288757D01*
X107659000Y-78288757D01*
X107659000Y-78531243D01*
X107706307Y-78769069D01*
X107799102Y-78993097D01*
X107933820Y-79194717D01*
X108105283Y-79366180D01*
X108306903Y-79500898D01*
X108530931Y-79593693D01*
X108768757Y-79641000D01*
X109011243Y-79641000D01*
X109249069Y-79593693D01*
X109473097Y-79500898D01*
X109674717Y-79366180D01*
X109846180Y-79194717D01*
X109980898Y-78993097D01*
X110073693Y-78769069D01*
X110121000Y-78531243D01*
X110121000Y-78288757D01*
X110073693Y-78050931D01*
X109980898Y-77826903D01*
X109846180Y-77625283D01*
X109674717Y-77453820D01*
X109473097Y-77319102D01*
X109249069Y-77226307D01*
X109011243Y-77179000D01*
X108768757Y-77179000D01*
X108530931Y-77226307D01*
X108306903Y-77319102D01*
X108105283Y-77453820D01*
X107933820Y-77625283D01*
X107799102Y-77826903D01*
X107706307Y-78050931D01*
X107659000Y-78288757D01*
X92341000Y-78288757D01*
X92293693Y-78050931D01*
X92200898Y-77826903D01*
X92066180Y-77625283D01*
X91894717Y-77453820D01*
X91693097Y-77319102D01*
X91469069Y-77226307D01*
X91231243Y-77179000D01*
X90988757Y-77179000D01*
X90750931Y-77226307D01*
X90526903Y-77319102D01*
X90325283Y-77453820D01*
X90153820Y-77625283D01*
X90019102Y-77826903D01*
X89926307Y-78050931D01*
X89879000Y-78288757D01*
X89716000Y-78288757D01*
X89716000Y-77016000D01*
X110234000Y-77016000D01*
X110234001Y-122954000D01*
G37*
G04 #@! TD.AperFunction*
M02*
