M48
; DRILL file {KiCad (5.1.10)-1} date 11/17/21 00:20:38
; FORMAT={-:-/ absolute / metric / decimal}
; #@! TF.CreationDate,2021-11-17T00:20:38+10:00
; #@! TF.GenerationSoftware,Kicad,Pcbnew,(5.1.10)-1
; #@! TF.FileFunction,Plated,1,2,PTH
FMAT,2
METRIC
T1C0.300
T2C0.400
T3C1.000
T4C3.200
%
G90
G05
T1
X98.02Y-100.0
X98.515Y-99.505
X98.515Y-100.495
X99.01Y-99.01
X99.01Y-100.0
X99.01Y-100.99
X99.505Y-98.515
X99.505Y-99.505
X99.505Y-100.495
X99.505Y-101.485
X100.0Y-98.02
X100.0Y-99.01
X100.0Y-100.0
X100.0Y-100.99
X100.0Y-101.98
X100.495Y-98.515
X100.495Y-99.505
X100.495Y-100.495
X100.495Y-101.485
X100.99Y-99.01
X100.99Y-100.0
X100.99Y-100.99
X101.485Y-99.505
X101.485Y-100.495
X101.98Y-100.0
T2
X93.77Y-104.54
X93.79Y-103.01
X94.92Y-105.81
X95.92Y-105.81
X100.76Y-91.85
X102.12Y-92.94
X103.68Y-98.3
X104.24Y-90.79
X105.65Y-94.61
T3
X91.11Y-78.41
X91.11Y-80.95
X91.11Y-83.49
X91.11Y-86.03
X91.11Y-88.57
X91.11Y-91.11
X91.11Y-93.65
X91.11Y-96.19
X91.11Y-98.73
X91.11Y-101.27
X91.11Y-103.81
X91.11Y-106.35
X91.11Y-108.89
X91.11Y-111.43
X91.11Y-113.97
X91.11Y-116.51
X91.11Y-119.05
X91.11Y-121.59
X108.89Y-78.41
X108.89Y-80.95
X108.89Y-83.49
X108.89Y-86.03
X108.89Y-88.57
X108.89Y-91.11
X108.89Y-93.65
X108.89Y-96.19
X108.89Y-98.73
X108.89Y-101.27
X108.89Y-103.81
X108.89Y-106.35
X108.89Y-108.89
X108.89Y-111.43
X108.89Y-113.97
X108.89Y-116.51
X108.89Y-119.05
X108.89Y-121.59
T4
X98.0Y-119.0
X101.0Y-81.0
T0
M30
